%TF.GenerationSoftware,KiCad,Pcbnew,8.0.6*%
%TF.CreationDate,2025-02-27T20:49:11+01:00*%
%TF.ProjectId,pcb,7063622e-6b69-4636-9164-5f7063625858,rev?*%
%TF.SameCoordinates,Original*%
%TF.FileFunction,Copper,L1,Top*%
%TF.FilePolarity,Positive*%
%FSLAX46Y46*%
G04 Gerber Fmt 4.6, Leading zero omitted, Abs format (unit mm)*
G04 Created by KiCad (PCBNEW 8.0.6) date 2025-02-27 20:49:11*
%MOMM*%
%LPD*%
G01*
G04 APERTURE LIST*
%TA.AperFunction,NonConductor*%
%ADD10C,0.919878*%
%TD*%
%ADD11C,0.300000*%
%TA.AperFunction,ComponentPad*%
%ADD12C,1.950000*%
%TD*%
%TA.AperFunction,ComponentPad*%
%ADD13R,1.800860X1.800860*%
%TD*%
%TA.AperFunction,ComponentPad*%
%ADD14C,1.800860*%
%TD*%
%TA.AperFunction,ComponentPad*%
%ADD15C,2.200000*%
%TD*%
%TA.AperFunction,ComponentPad*%
%ADD16R,2.799080X2.799080*%
%TD*%
%TA.AperFunction,ComponentPad*%
%ADD17C,2.999740*%
%TD*%
%TA.AperFunction,ComponentPad*%
%ADD18R,2.000000X2.000000*%
%TD*%
%TA.AperFunction,ComponentPad*%
%ADD19C,2.000000*%
%TD*%
%TA.AperFunction,ComponentPad*%
%ADD20R,1.508000X1.508000*%
%TD*%
%TA.AperFunction,ComponentPad*%
%ADD21C,1.508000*%
%TD*%
%TA.AperFunction,ComponentPad*%
%ADD22R,2.540000X2.540000*%
%TD*%
%TA.AperFunction,ComponentPad*%
%ADD23C,1.998980*%
%TD*%
%TA.AperFunction,ViaPad*%
%ADD24C,3.600000*%
%TD*%
%TA.AperFunction,ViaPad*%
%ADD25C,1.200000*%
%TD*%
%TA.AperFunction,ViaPad*%
%ADD26C,1.400000*%
%TD*%
%TA.AperFunction,Conductor*%
%ADD27C,1.000000*%
%TD*%
%TA.AperFunction,Conductor*%
%ADD28C,0.800000*%
%TD*%
%TA.AperFunction,Conductor*%
%ADD29C,0.400000*%
%TD*%
G04 APERTURE END LIST*
D10*
X86399939Y-56850000D02*
G75*
G02*
X85480061Y-56850000I-459939J0D01*
G01*
X85480061Y-56850000D02*
G75*
G02*
X86399939Y-56850000I459939J0D01*
G01*
D11*
G36*
X39879914Y-51863276D02*
G01*
X39916919Y-51900281D01*
X39961626Y-51989694D01*
X39961626Y-52375714D01*
X39475912Y-52375714D01*
X39475912Y-51989695D01*
X39520619Y-51900280D01*
X39557623Y-51863276D01*
X39647036Y-51818571D01*
X39790502Y-51818571D01*
X39879914Y-51863276D01*
G37*
G36*
X42294830Y-47827562D02*
G01*
X42331835Y-47864567D01*
X42376542Y-47953980D01*
X42376542Y-48340000D01*
X41890828Y-48340000D01*
X41890828Y-47953981D01*
X41935535Y-47864566D01*
X41972539Y-47827562D01*
X42061952Y-47782857D01*
X42205418Y-47782857D01*
X42294830Y-47827562D01*
G37*
G36*
X43557495Y-52842381D02*
G01*
X39009245Y-52842381D01*
X39009245Y-51954285D01*
X39175912Y-51954285D01*
X39175912Y-52525714D01*
X39178794Y-52554978D01*
X39201192Y-52609050D01*
X39242576Y-52650434D01*
X39296648Y-52672832D01*
X39325912Y-52675714D01*
X40825912Y-52675714D01*
X40855176Y-52672832D01*
X40909248Y-52650434D01*
X40950632Y-52609050D01*
X40973030Y-52554978D01*
X40973030Y-52496450D01*
X40950632Y-52442378D01*
X40909248Y-52400994D01*
X40855176Y-52378596D01*
X40825912Y-52375714D01*
X40261626Y-52375714D01*
X40261626Y-52246669D01*
X40911931Y-51791456D01*
X40934253Y-51772313D01*
X40965706Y-51722956D01*
X40975877Y-51665320D01*
X40963218Y-51608178D01*
X40929654Y-51560230D01*
X40880297Y-51528777D01*
X40822661Y-51518606D01*
X40765519Y-51531265D01*
X40739893Y-51545686D01*
X40247104Y-51890638D01*
X40245790Y-51887204D01*
X40174362Y-51744346D01*
X40166435Y-51731754D01*
X40164919Y-51728093D01*
X40161535Y-51723970D01*
X40158697Y-51719461D01*
X40155705Y-51716866D01*
X40146264Y-51705362D01*
X40074835Y-51633933D01*
X40063333Y-51624493D01*
X40060737Y-51621500D01*
X40056223Y-51618659D01*
X40052104Y-51615278D01*
X40048444Y-51613762D01*
X40035851Y-51605835D01*
X39892994Y-51534407D01*
X39865530Y-51523897D01*
X39860154Y-51523515D01*
X39855176Y-51521453D01*
X39825912Y-51518571D01*
X39611626Y-51518571D01*
X39582362Y-51521453D01*
X39577383Y-51523515D01*
X39572008Y-51523897D01*
X39544545Y-51534407D01*
X39401687Y-51605835D01*
X39389092Y-51613763D01*
X39385433Y-51615279D01*
X39381312Y-51618660D01*
X39376802Y-51621500D01*
X39374207Y-51624491D01*
X39362702Y-51633934D01*
X39291274Y-51705363D01*
X39281836Y-51716862D01*
X39278842Y-51719460D01*
X39275999Y-51723976D01*
X39272620Y-51728094D01*
X39271105Y-51731750D01*
X39263177Y-51744346D01*
X39191748Y-51887203D01*
X39181239Y-51914666D01*
X39180857Y-51920040D01*
X39178794Y-51925021D01*
X39175912Y-51954285D01*
X39009245Y-51954285D01*
X39009245Y-50311428D01*
X39175912Y-50311428D01*
X39175912Y-51025714D01*
X39178794Y-51054978D01*
X39201192Y-51109050D01*
X39242576Y-51150434D01*
X39296648Y-51172832D01*
X39325912Y-51175714D01*
X40825912Y-51175714D01*
X40855176Y-51172832D01*
X40909248Y-51150434D01*
X40950632Y-51109050D01*
X40973030Y-51054978D01*
X40975912Y-51025714D01*
X40975912Y-50561428D01*
X41590828Y-50561428D01*
X41590828Y-51275714D01*
X41593710Y-51304978D01*
X41616108Y-51359050D01*
X41657492Y-51400434D01*
X41711564Y-51422832D01*
X41740828Y-51425714D01*
X43240828Y-51425714D01*
X43270092Y-51422832D01*
X43324164Y-51400434D01*
X43365548Y-51359050D01*
X43387946Y-51304978D01*
X43390828Y-51275714D01*
X43390828Y-50561428D01*
X43387946Y-50532164D01*
X43365548Y-50478092D01*
X43324164Y-50436708D01*
X43270092Y-50414310D01*
X43211564Y-50414310D01*
X43157492Y-50436708D01*
X43116108Y-50478092D01*
X43093710Y-50532164D01*
X43090828Y-50561428D01*
X43090828Y-51125714D01*
X42605114Y-51125714D01*
X42605114Y-50775714D01*
X42602232Y-50746450D01*
X42579834Y-50692378D01*
X42538450Y-50650994D01*
X42484378Y-50628596D01*
X42425850Y-50628596D01*
X42371778Y-50650994D01*
X42330394Y-50692378D01*
X42307996Y-50746450D01*
X42305114Y-50775714D01*
X42305114Y-51125714D01*
X41890828Y-51125714D01*
X41890828Y-50561428D01*
X41887946Y-50532164D01*
X41865548Y-50478092D01*
X41824164Y-50436708D01*
X41770092Y-50414310D01*
X41711564Y-50414310D01*
X41657492Y-50436708D01*
X41616108Y-50478092D01*
X41593710Y-50532164D01*
X41590828Y-50561428D01*
X40975912Y-50561428D01*
X40975912Y-50311428D01*
X40973030Y-50282164D01*
X40950632Y-50228092D01*
X40909248Y-50186708D01*
X40855176Y-50164310D01*
X40796648Y-50164310D01*
X40742576Y-50186708D01*
X40701192Y-50228092D01*
X40678794Y-50282164D01*
X40675912Y-50311428D01*
X40675912Y-50875714D01*
X40190198Y-50875714D01*
X40190198Y-50525714D01*
X40187316Y-50496450D01*
X40164918Y-50442378D01*
X40123534Y-50400994D01*
X40069462Y-50378596D01*
X40010934Y-50378596D01*
X39956862Y-50400994D01*
X39915478Y-50442378D01*
X39893080Y-50496450D01*
X39890198Y-50525714D01*
X39890198Y-50875714D01*
X39475912Y-50875714D01*
X39475912Y-50311428D01*
X39473030Y-50282164D01*
X39450632Y-50228092D01*
X39409248Y-50186708D01*
X39355176Y-50164310D01*
X39296648Y-50164310D01*
X39242576Y-50186708D01*
X39201192Y-50228092D01*
X39178794Y-50282164D01*
X39175912Y-50311428D01*
X39009245Y-50311428D01*
X39009245Y-49097142D01*
X39175912Y-49097142D01*
X39175912Y-49454285D01*
X39178794Y-49483549D01*
X39180857Y-49488529D01*
X39181239Y-49493904D01*
X39191748Y-49521367D01*
X39263177Y-49664224D01*
X39271105Y-49676819D01*
X39272620Y-49680476D01*
X39275999Y-49684593D01*
X39278842Y-49689110D01*
X39281836Y-49691707D01*
X39291274Y-49703207D01*
X39362702Y-49774636D01*
X39374207Y-49784078D01*
X39376802Y-49787070D01*
X39381312Y-49789909D01*
X39385433Y-49793291D01*
X39389092Y-49794806D01*
X39401687Y-49802735D01*
X39544545Y-49874163D01*
X39572008Y-49884673D01*
X39577383Y-49885054D01*
X39582362Y-49887117D01*
X39611626Y-49889999D01*
X39754484Y-49889999D01*
X39783748Y-49887117D01*
X39788726Y-49885054D01*
X39794102Y-49884673D01*
X39821566Y-49874163D01*
X39964423Y-49802735D01*
X39977018Y-49794806D01*
X39980677Y-49793291D01*
X39984794Y-49789911D01*
X39989309Y-49787070D01*
X39991905Y-49784075D01*
X40003408Y-49774636D01*
X40074836Y-49703207D01*
X40084274Y-49691706D01*
X40087268Y-49689110D01*
X40090108Y-49684597D01*
X40093490Y-49680477D01*
X40095005Y-49676817D01*
X40102933Y-49664224D01*
X40174362Y-49521368D01*
X40175181Y-49519225D01*
X40175826Y-49518356D01*
X40180210Y-49506084D01*
X40184871Y-49493904D01*
X40184947Y-49492823D01*
X40185719Y-49490665D01*
X40253152Y-49220927D01*
X40306333Y-49114567D01*
X40343338Y-49077562D01*
X40432751Y-49032856D01*
X40504788Y-49032856D01*
X40594201Y-49077563D01*
X40631205Y-49114567D01*
X40675912Y-49203980D01*
X40675912Y-49501371D01*
X40612181Y-49692565D01*
X40605661Y-49721239D01*
X40609811Y-49779619D01*
X40635985Y-49831966D01*
X40680199Y-49870313D01*
X40735724Y-49888822D01*
X40794104Y-49884672D01*
X40846451Y-49858498D01*
X40884798Y-49814284D01*
X40896787Y-49787433D01*
X40968215Y-49573148D01*
X40971513Y-49558638D01*
X40973030Y-49554978D01*
X40973552Y-49549669D01*
X40974734Y-49544474D01*
X40974453Y-49540525D01*
X40975912Y-49525714D01*
X40975912Y-49347142D01*
X41590828Y-49347142D01*
X41590828Y-49704285D01*
X41593710Y-49733549D01*
X41595773Y-49738529D01*
X41596155Y-49743904D01*
X41606664Y-49771367D01*
X41678093Y-49914224D01*
X41686021Y-49926819D01*
X41687536Y-49930476D01*
X41690915Y-49934593D01*
X41693758Y-49939110D01*
X41696752Y-49941707D01*
X41706190Y-49953207D01*
X41777618Y-50024636D01*
X41789123Y-50034078D01*
X41791718Y-50037070D01*
X41796228Y-50039909D01*
X41800349Y-50043291D01*
X41804008Y-50044806D01*
X41816603Y-50052735D01*
X41959461Y-50124163D01*
X41986924Y-50134673D01*
X41992299Y-50135054D01*
X41997278Y-50137117D01*
X42026542Y-50139999D01*
X42169400Y-50139999D01*
X42198664Y-50137117D01*
X42203642Y-50135054D01*
X42209018Y-50134673D01*
X42236482Y-50124163D01*
X42379339Y-50052735D01*
X42391934Y-50044806D01*
X42395593Y-50043291D01*
X42399710Y-50039911D01*
X42404225Y-50037070D01*
X42406821Y-50034075D01*
X42418324Y-50024636D01*
X42489752Y-49953207D01*
X42499190Y-49941706D01*
X42502184Y-49939110D01*
X42505024Y-49934597D01*
X42508406Y-49930477D01*
X42509921Y-49926817D01*
X42517849Y-49914224D01*
X42589278Y-49771368D01*
X42590097Y-49769225D01*
X42590742Y-49768356D01*
X42595126Y-49756084D01*
X42599787Y-49743904D01*
X42599863Y-49742823D01*
X42600635Y-49740665D01*
X42668068Y-49470927D01*
X42721249Y-49364567D01*
X42758254Y-49327562D01*
X42847667Y-49282856D01*
X42919704Y-49282856D01*
X43009117Y-49327563D01*
X43046121Y-49364567D01*
X43090828Y-49453980D01*
X43090828Y-49751371D01*
X43027097Y-49942565D01*
X43020577Y-49971239D01*
X43024727Y-50029619D01*
X43050901Y-50081966D01*
X43095115Y-50120313D01*
X43150640Y-50138822D01*
X43209020Y-50134672D01*
X43261367Y-50108498D01*
X43299714Y-50064284D01*
X43311703Y-50037433D01*
X43383131Y-49823148D01*
X43386429Y-49808638D01*
X43387946Y-49804978D01*
X43388468Y-49799669D01*
X43389650Y-49794474D01*
X43389369Y-49790525D01*
X43390828Y-49775714D01*
X43390828Y-49418571D01*
X43387946Y-49389307D01*
X43385883Y-49384328D01*
X43385502Y-49378953D01*
X43374992Y-49351490D01*
X43303564Y-49208632D01*
X43295637Y-49196040D01*
X43294121Y-49192379D01*
X43290737Y-49188256D01*
X43287899Y-49183747D01*
X43284907Y-49181152D01*
X43275466Y-49169648D01*
X43204037Y-49098219D01*
X43192535Y-49088779D01*
X43189939Y-49085786D01*
X43185425Y-49082945D01*
X43181306Y-49079564D01*
X43177646Y-49078048D01*
X43165053Y-49070121D01*
X43022196Y-48998692D01*
X42994733Y-48988183D01*
X42989358Y-48987801D01*
X42984378Y-48985738D01*
X42955114Y-48982856D01*
X42812257Y-48982856D01*
X42782993Y-48985738D01*
X42778012Y-48987801D01*
X42772638Y-48988183D01*
X42745174Y-48998692D01*
X42602318Y-49070121D01*
X42589724Y-49078048D01*
X42586065Y-49079564D01*
X42581945Y-49082945D01*
X42577432Y-49085786D01*
X42574835Y-49088780D01*
X42563334Y-49098219D01*
X42491905Y-49169648D01*
X42482465Y-49181149D01*
X42479472Y-49183746D01*
X42476631Y-49188259D01*
X42473250Y-49192379D01*
X42471734Y-49196038D01*
X42463807Y-49208632D01*
X42392378Y-49351489D01*
X42391558Y-49353629D01*
X42390914Y-49354500D01*
X42386527Y-49366777D01*
X42381869Y-49378952D01*
X42381792Y-49380032D01*
X42381021Y-49382191D01*
X42313586Y-49651928D01*
X42260406Y-49758288D01*
X42223401Y-49795293D01*
X42133990Y-49839999D01*
X42061952Y-49839999D01*
X41972539Y-49795293D01*
X41935535Y-49758289D01*
X41890828Y-49668874D01*
X41890828Y-49371482D01*
X41954559Y-49180291D01*
X41961079Y-49151617D01*
X41956930Y-49093237D01*
X41930756Y-49040890D01*
X41886542Y-49002542D01*
X41831018Y-48984034D01*
X41772638Y-48988183D01*
X41720290Y-49014357D01*
X41681943Y-49058571D01*
X41669954Y-49085422D01*
X41598526Y-49299708D01*
X41595227Y-49314215D01*
X41593710Y-49317878D01*
X41593187Y-49323186D01*
X41592006Y-49328381D01*
X41592286Y-49332330D01*
X41590828Y-49347142D01*
X40975912Y-49347142D01*
X40975912Y-49168571D01*
X40973030Y-49139307D01*
X40970967Y-49134328D01*
X40970586Y-49128953D01*
X40960076Y-49101490D01*
X40888648Y-48958632D01*
X40880721Y-48946040D01*
X40879205Y-48942379D01*
X40875821Y-48938256D01*
X40872983Y-48933747D01*
X40869991Y-48931152D01*
X40860550Y-48919648D01*
X40789121Y-48848219D01*
X40777619Y-48838779D01*
X40775023Y-48835786D01*
X40770509Y-48832945D01*
X40766390Y-48829564D01*
X40762730Y-48828048D01*
X40750137Y-48820121D01*
X40607280Y-48748692D01*
X40579817Y-48738183D01*
X40574442Y-48737801D01*
X40569462Y-48735738D01*
X40540198Y-48732856D01*
X40397341Y-48732856D01*
X40368077Y-48735738D01*
X40363096Y-48737801D01*
X40357722Y-48738183D01*
X40330258Y-48748692D01*
X40187402Y-48820121D01*
X40174808Y-48828048D01*
X40171149Y-48829564D01*
X40167029Y-48832945D01*
X40162516Y-48835786D01*
X40159919Y-48838780D01*
X40148418Y-48848219D01*
X40076989Y-48919648D01*
X40067549Y-48931149D01*
X40064556Y-48933746D01*
X40061715Y-48938259D01*
X40058334Y-48942379D01*
X40056818Y-48946038D01*
X40048891Y-48958632D01*
X39977462Y-49101489D01*
X39976642Y-49103629D01*
X39975998Y-49104500D01*
X39971611Y-49116777D01*
X39966953Y-49128952D01*
X39966876Y-49130032D01*
X39966105Y-49132191D01*
X39898670Y-49401928D01*
X39845490Y-49508288D01*
X39808485Y-49545293D01*
X39719074Y-49589999D01*
X39647036Y-49589999D01*
X39557623Y-49545293D01*
X39520619Y-49508289D01*
X39475912Y-49418874D01*
X39475912Y-49121482D01*
X39539643Y-48930291D01*
X39546163Y-48901617D01*
X39542014Y-48843237D01*
X39515840Y-48790890D01*
X39471626Y-48752542D01*
X39416102Y-48734034D01*
X39357722Y-48738183D01*
X39305374Y-48764357D01*
X39267027Y-48808571D01*
X39255038Y-48835422D01*
X39183610Y-49049708D01*
X39180311Y-49064215D01*
X39178794Y-49067878D01*
X39178271Y-49073186D01*
X39177090Y-49078381D01*
X39177370Y-49082330D01*
X39175912Y-49097142D01*
X39009245Y-49097142D01*
X39009245Y-47525714D01*
X39175912Y-47525714D01*
X39175912Y-48240000D01*
X39178794Y-48269264D01*
X39201192Y-48323336D01*
X39242576Y-48364720D01*
X39296648Y-48387118D01*
X39325912Y-48390000D01*
X40825912Y-48390000D01*
X40855176Y-48387118D01*
X40909248Y-48364720D01*
X40950632Y-48323336D01*
X40973030Y-48269264D01*
X40975912Y-48240000D01*
X40975912Y-47918571D01*
X41590828Y-47918571D01*
X41590828Y-48490000D01*
X41593710Y-48519264D01*
X41616108Y-48573336D01*
X41657492Y-48614720D01*
X41711564Y-48637118D01*
X41740828Y-48640000D01*
X43240828Y-48640000D01*
X43270092Y-48637118D01*
X43324164Y-48614720D01*
X43365548Y-48573336D01*
X43387946Y-48519264D01*
X43387946Y-48460736D01*
X43365548Y-48406664D01*
X43324164Y-48365280D01*
X43270092Y-48342882D01*
X43240828Y-48340000D01*
X42676542Y-48340000D01*
X42676542Y-47918571D01*
X42673660Y-47889307D01*
X42671597Y-47884328D01*
X42671216Y-47878953D01*
X42660706Y-47851490D01*
X42589278Y-47708632D01*
X42581351Y-47696040D01*
X42579835Y-47692379D01*
X42576451Y-47688256D01*
X42573613Y-47683747D01*
X42570621Y-47681152D01*
X42561180Y-47669648D01*
X42489751Y-47598219D01*
X42478249Y-47588779D01*
X42475653Y-47585786D01*
X42471139Y-47582945D01*
X42467020Y-47579564D01*
X42463360Y-47578048D01*
X42450767Y-47570121D01*
X42307910Y-47498693D01*
X42280446Y-47488183D01*
X42275070Y-47487801D01*
X42270092Y-47485739D01*
X42240828Y-47482857D01*
X42026542Y-47482857D01*
X41997278Y-47485739D01*
X41992299Y-47487801D01*
X41986924Y-47488183D01*
X41959461Y-47498693D01*
X41816603Y-47570121D01*
X41804008Y-47578049D01*
X41800349Y-47579565D01*
X41796228Y-47582946D01*
X41791718Y-47585786D01*
X41789123Y-47588777D01*
X41777618Y-47598220D01*
X41706190Y-47669649D01*
X41696752Y-47681148D01*
X41693758Y-47683746D01*
X41690915Y-47688262D01*
X41687536Y-47692380D01*
X41686021Y-47696036D01*
X41678093Y-47708632D01*
X41606664Y-47851489D01*
X41596155Y-47878952D01*
X41595773Y-47884326D01*
X41593710Y-47889307D01*
X41590828Y-47918571D01*
X40975912Y-47918571D01*
X40975912Y-47525714D01*
X40973030Y-47496450D01*
X40950632Y-47442378D01*
X40909248Y-47400994D01*
X40855176Y-47378596D01*
X40796648Y-47378596D01*
X40742576Y-47400994D01*
X40701192Y-47442378D01*
X40678794Y-47496450D01*
X40675912Y-47525714D01*
X40675912Y-48090000D01*
X40190198Y-48090000D01*
X40190198Y-47740000D01*
X40187316Y-47710736D01*
X40164918Y-47656664D01*
X40123534Y-47615280D01*
X40069462Y-47592882D01*
X40010934Y-47592882D01*
X39956862Y-47615280D01*
X39915478Y-47656664D01*
X39893080Y-47710736D01*
X39890198Y-47740000D01*
X39890198Y-48090000D01*
X39475912Y-48090000D01*
X39475912Y-47525714D01*
X39473030Y-47496450D01*
X39450632Y-47442378D01*
X39409248Y-47400994D01*
X39355176Y-47378596D01*
X39296648Y-47378596D01*
X39242576Y-47400994D01*
X39201192Y-47442378D01*
X39178794Y-47496450D01*
X39175912Y-47525714D01*
X39009245Y-47525714D01*
X39009245Y-46240000D01*
X39175912Y-46240000D01*
X39175912Y-47097142D01*
X39178794Y-47126406D01*
X39201192Y-47180478D01*
X39242576Y-47221862D01*
X39296648Y-47244260D01*
X39355176Y-47244260D01*
X39409248Y-47221862D01*
X39450632Y-47180478D01*
X39473030Y-47126406D01*
X39475912Y-47097142D01*
X39475912Y-46818571D01*
X40825912Y-46818571D01*
X40855176Y-46815689D01*
X40909248Y-46793291D01*
X40950632Y-46751907D01*
X40973030Y-46697835D01*
X40973030Y-46639307D01*
X40950632Y-46585235D01*
X40909248Y-46543851D01*
X40855176Y-46521453D01*
X40825912Y-46518571D01*
X39475912Y-46518571D01*
X39475912Y-46240000D01*
X39473030Y-46210736D01*
X39450632Y-46156664D01*
X39409248Y-46115280D01*
X39355176Y-46092882D01*
X39296648Y-46092882D01*
X39242576Y-46115280D01*
X39201192Y-46156664D01*
X39178794Y-46210736D01*
X39175912Y-46240000D01*
X39009245Y-46240000D01*
X39009245Y-45926215D01*
X43557495Y-45926215D01*
X43557495Y-52842381D01*
G37*
G36*
X89034830Y-56621847D02*
G01*
X89071835Y-56658852D01*
X89116542Y-56748265D01*
X89116542Y-57134285D01*
X88630828Y-57134285D01*
X88630828Y-56748266D01*
X88675535Y-56658851D01*
X88712539Y-56621847D01*
X88801952Y-56577142D01*
X88945418Y-56577142D01*
X89034830Y-56621847D01*
G37*
G36*
X89034830Y-48693276D02*
G01*
X89071835Y-48730281D01*
X89116542Y-48819694D01*
X89116542Y-49205714D01*
X88630828Y-49205714D01*
X88630828Y-48819695D01*
X88675535Y-48730280D01*
X88712539Y-48693276D01*
X88801952Y-48648571D01*
X88945418Y-48648571D01*
X89034830Y-48693276D01*
G37*
G36*
X90297495Y-57600952D02*
G01*
X88164161Y-57600952D01*
X88164161Y-56712856D01*
X88330828Y-56712856D01*
X88330828Y-57284285D01*
X88333710Y-57313549D01*
X88356108Y-57367621D01*
X88397492Y-57409005D01*
X88451564Y-57431403D01*
X88480828Y-57434285D01*
X89980828Y-57434285D01*
X90010092Y-57431403D01*
X90064164Y-57409005D01*
X90105548Y-57367621D01*
X90127946Y-57313549D01*
X90127946Y-57255021D01*
X90105548Y-57200949D01*
X90064164Y-57159565D01*
X90010092Y-57137167D01*
X89980828Y-57134285D01*
X89416542Y-57134285D01*
X89416542Y-57005240D01*
X90066847Y-56550027D01*
X90089169Y-56530884D01*
X90120622Y-56481527D01*
X90130793Y-56423891D01*
X90118134Y-56366749D01*
X90084570Y-56318801D01*
X90035213Y-56287348D01*
X89977577Y-56277177D01*
X89920435Y-56289836D01*
X89894809Y-56304257D01*
X89402020Y-56649209D01*
X89400706Y-56645775D01*
X89329278Y-56502917D01*
X89321351Y-56490325D01*
X89319835Y-56486664D01*
X89316451Y-56482541D01*
X89313613Y-56478032D01*
X89310621Y-56475437D01*
X89301180Y-56463933D01*
X89229751Y-56392504D01*
X89218249Y-56383064D01*
X89215653Y-56380071D01*
X89211139Y-56377230D01*
X89207020Y-56373849D01*
X89203360Y-56372333D01*
X89190767Y-56364406D01*
X89047910Y-56292978D01*
X89020446Y-56282468D01*
X89015070Y-56282086D01*
X89010092Y-56280024D01*
X88980828Y-56277142D01*
X88766542Y-56277142D01*
X88737278Y-56280024D01*
X88732299Y-56282086D01*
X88726924Y-56282468D01*
X88699461Y-56292978D01*
X88556603Y-56364406D01*
X88544008Y-56372334D01*
X88540349Y-56373850D01*
X88536228Y-56377231D01*
X88531718Y-56380071D01*
X88529123Y-56383062D01*
X88517618Y-56392505D01*
X88446190Y-56463934D01*
X88436752Y-56475433D01*
X88433758Y-56478031D01*
X88430915Y-56482547D01*
X88427536Y-56486665D01*
X88426021Y-56490321D01*
X88418093Y-56502917D01*
X88346664Y-56645774D01*
X88336155Y-56673237D01*
X88335773Y-56678611D01*
X88333710Y-56683592D01*
X88330828Y-56712856D01*
X88164161Y-56712856D01*
X88164161Y-55069999D01*
X88330828Y-55069999D01*
X88330828Y-55784285D01*
X88333710Y-55813549D01*
X88356108Y-55867621D01*
X88397492Y-55909005D01*
X88451564Y-55931403D01*
X88480828Y-55934285D01*
X89980828Y-55934285D01*
X90010092Y-55931403D01*
X90064164Y-55909005D01*
X90105548Y-55867621D01*
X90127946Y-55813549D01*
X90130828Y-55784285D01*
X90130828Y-55069999D01*
X90127946Y-55040735D01*
X90105548Y-54986663D01*
X90064164Y-54945279D01*
X90010092Y-54922881D01*
X89951564Y-54922881D01*
X89897492Y-54945279D01*
X89856108Y-54986663D01*
X89833710Y-55040735D01*
X89830828Y-55069999D01*
X89830828Y-55634285D01*
X89345114Y-55634285D01*
X89345114Y-55284285D01*
X89342232Y-55255021D01*
X89319834Y-55200949D01*
X89278450Y-55159565D01*
X89224378Y-55137167D01*
X89165850Y-55137167D01*
X89111778Y-55159565D01*
X89070394Y-55200949D01*
X89047996Y-55255021D01*
X89045114Y-55284285D01*
X89045114Y-55634285D01*
X88630828Y-55634285D01*
X88630828Y-55069999D01*
X88627946Y-55040735D01*
X88605548Y-54986663D01*
X88564164Y-54945279D01*
X88510092Y-54922881D01*
X88451564Y-54922881D01*
X88397492Y-54945279D01*
X88356108Y-54986663D01*
X88333710Y-55040735D01*
X88330828Y-55069999D01*
X88164161Y-55069999D01*
X88164161Y-53855713D01*
X88330828Y-53855713D01*
X88330828Y-54212856D01*
X88333710Y-54242120D01*
X88335773Y-54247100D01*
X88336155Y-54252475D01*
X88346664Y-54279938D01*
X88418093Y-54422795D01*
X88426021Y-54435390D01*
X88427536Y-54439047D01*
X88430915Y-54443164D01*
X88433758Y-54447681D01*
X88436752Y-54450278D01*
X88446190Y-54461778D01*
X88517618Y-54533207D01*
X88529123Y-54542649D01*
X88531718Y-54545641D01*
X88536228Y-54548480D01*
X88540349Y-54551862D01*
X88544008Y-54553377D01*
X88556603Y-54561306D01*
X88699461Y-54632734D01*
X88726924Y-54643244D01*
X88732299Y-54643625D01*
X88737278Y-54645688D01*
X88766542Y-54648570D01*
X88909400Y-54648570D01*
X88938664Y-54645688D01*
X88943642Y-54643625D01*
X88949018Y-54643244D01*
X88976482Y-54632734D01*
X89119339Y-54561306D01*
X89131934Y-54553377D01*
X89135593Y-54551862D01*
X89139710Y-54548482D01*
X89144225Y-54545641D01*
X89146821Y-54542646D01*
X89158324Y-54533207D01*
X89229752Y-54461778D01*
X89239190Y-54450277D01*
X89242184Y-54447681D01*
X89245024Y-54443168D01*
X89248406Y-54439048D01*
X89249921Y-54435388D01*
X89257849Y-54422795D01*
X89329278Y-54279939D01*
X89330097Y-54277796D01*
X89330742Y-54276927D01*
X89335126Y-54264655D01*
X89339787Y-54252475D01*
X89339863Y-54251394D01*
X89340635Y-54249236D01*
X89408068Y-53979498D01*
X89461249Y-53873138D01*
X89498254Y-53836133D01*
X89587667Y-53791427D01*
X89659704Y-53791427D01*
X89749117Y-53836134D01*
X89786121Y-53873138D01*
X89830828Y-53962551D01*
X89830828Y-54259942D01*
X89767097Y-54451136D01*
X89760577Y-54479810D01*
X89764727Y-54538190D01*
X89790901Y-54590537D01*
X89835115Y-54628884D01*
X89890640Y-54647393D01*
X89949020Y-54643243D01*
X90001367Y-54617069D01*
X90039714Y-54572855D01*
X90051703Y-54546004D01*
X90123131Y-54331719D01*
X90126429Y-54317209D01*
X90127946Y-54313549D01*
X90128468Y-54308240D01*
X90129650Y-54303045D01*
X90129369Y-54299096D01*
X90130828Y-54284285D01*
X90130828Y-53927142D01*
X90127946Y-53897878D01*
X90125883Y-53892899D01*
X90125502Y-53887524D01*
X90114992Y-53860061D01*
X90043564Y-53717203D01*
X90035637Y-53704611D01*
X90034121Y-53700950D01*
X90030737Y-53696827D01*
X90027899Y-53692318D01*
X90024907Y-53689723D01*
X90015466Y-53678219D01*
X89944037Y-53606790D01*
X89932535Y-53597350D01*
X89929939Y-53594357D01*
X89925425Y-53591516D01*
X89921306Y-53588135D01*
X89917646Y-53586619D01*
X89905053Y-53578692D01*
X89762196Y-53507263D01*
X89734733Y-53496754D01*
X89729358Y-53496372D01*
X89724378Y-53494309D01*
X89695114Y-53491427D01*
X89552257Y-53491427D01*
X89522993Y-53494309D01*
X89518012Y-53496372D01*
X89512638Y-53496754D01*
X89485174Y-53507263D01*
X89342318Y-53578692D01*
X89329724Y-53586619D01*
X89326065Y-53588135D01*
X89321945Y-53591516D01*
X89317432Y-53594357D01*
X89314835Y-53597351D01*
X89303334Y-53606790D01*
X89231905Y-53678219D01*
X89222465Y-53689720D01*
X89219472Y-53692317D01*
X89216631Y-53696830D01*
X89213250Y-53700950D01*
X89211734Y-53704609D01*
X89203807Y-53717203D01*
X89132378Y-53860060D01*
X89131558Y-53862200D01*
X89130914Y-53863071D01*
X89126527Y-53875348D01*
X89121869Y-53887523D01*
X89121792Y-53888603D01*
X89121021Y-53890762D01*
X89053586Y-54160499D01*
X89000406Y-54266859D01*
X88963401Y-54303864D01*
X88873990Y-54348570D01*
X88801952Y-54348570D01*
X88712539Y-54303864D01*
X88675535Y-54266860D01*
X88630828Y-54177445D01*
X88630828Y-53880053D01*
X88694559Y-53688862D01*
X88701079Y-53660188D01*
X88696930Y-53601808D01*
X88670756Y-53549461D01*
X88626542Y-53511113D01*
X88571018Y-53492605D01*
X88512638Y-53496754D01*
X88460290Y-53522928D01*
X88421943Y-53567142D01*
X88409954Y-53593993D01*
X88338526Y-53808279D01*
X88335227Y-53822786D01*
X88333710Y-53826449D01*
X88333187Y-53831757D01*
X88332006Y-53836952D01*
X88332286Y-53840901D01*
X88330828Y-53855713D01*
X88164161Y-53855713D01*
X88164161Y-52284285D01*
X88330828Y-52284285D01*
X88330828Y-52998571D01*
X88333710Y-53027835D01*
X88356108Y-53081907D01*
X88397492Y-53123291D01*
X88451564Y-53145689D01*
X88480828Y-53148571D01*
X89980828Y-53148571D01*
X90010092Y-53145689D01*
X90064164Y-53123291D01*
X90105548Y-53081907D01*
X90127946Y-53027835D01*
X90130828Y-52998571D01*
X90130828Y-52284285D01*
X90127946Y-52255021D01*
X90105548Y-52200949D01*
X90064164Y-52159565D01*
X90010092Y-52137167D01*
X89951564Y-52137167D01*
X89897492Y-52159565D01*
X89856108Y-52200949D01*
X89833710Y-52255021D01*
X89830828Y-52284285D01*
X89830828Y-52848571D01*
X89345114Y-52848571D01*
X89345114Y-52498571D01*
X89342232Y-52469307D01*
X89319834Y-52415235D01*
X89278450Y-52373851D01*
X89224378Y-52351453D01*
X89165850Y-52351453D01*
X89111778Y-52373851D01*
X89070394Y-52415235D01*
X89047996Y-52469307D01*
X89045114Y-52498571D01*
X89045114Y-52848571D01*
X88630828Y-52848571D01*
X88630828Y-52284285D01*
X88627946Y-52255021D01*
X88605548Y-52200949D01*
X88564164Y-52159565D01*
X88510092Y-52137167D01*
X88451564Y-52137167D01*
X88397492Y-52159565D01*
X88356108Y-52200949D01*
X88333710Y-52255021D01*
X88330828Y-52284285D01*
X88164161Y-52284285D01*
X88164161Y-50998571D01*
X88330828Y-50998571D01*
X88330828Y-51855713D01*
X88333710Y-51884977D01*
X88356108Y-51939049D01*
X88397492Y-51980433D01*
X88451564Y-52002831D01*
X88510092Y-52002831D01*
X88564164Y-51980433D01*
X88605548Y-51939049D01*
X88627946Y-51884977D01*
X88630828Y-51855713D01*
X88630828Y-51577142D01*
X89980828Y-51577142D01*
X90010092Y-51574260D01*
X90064164Y-51551862D01*
X90105548Y-51510478D01*
X90127946Y-51456406D01*
X90127946Y-51397878D01*
X90105548Y-51343806D01*
X90064164Y-51302422D01*
X90010092Y-51280024D01*
X89980828Y-51277142D01*
X88630828Y-51277142D01*
X88630828Y-50998571D01*
X88627946Y-50969307D01*
X88605548Y-50915235D01*
X88564164Y-50873851D01*
X88510092Y-50851453D01*
X88451564Y-50851453D01*
X88397492Y-50873851D01*
X88356108Y-50915235D01*
X88333710Y-50969307D01*
X88330828Y-50998571D01*
X88164161Y-50998571D01*
X88164161Y-48784285D01*
X88330828Y-48784285D01*
X88330828Y-49355714D01*
X88333710Y-49384978D01*
X88356108Y-49439050D01*
X88397492Y-49480434D01*
X88451564Y-49502832D01*
X88480828Y-49505714D01*
X89980828Y-49505714D01*
X90010092Y-49502832D01*
X90064164Y-49480434D01*
X90105548Y-49439050D01*
X90127946Y-49384978D01*
X90127946Y-49326450D01*
X90105548Y-49272378D01*
X90064164Y-49230994D01*
X90010092Y-49208596D01*
X89980828Y-49205714D01*
X89416542Y-49205714D01*
X89416542Y-48784285D01*
X89413660Y-48755021D01*
X89411597Y-48750042D01*
X89411216Y-48744667D01*
X89400706Y-48717204D01*
X89329278Y-48574346D01*
X89321351Y-48561754D01*
X89319835Y-48558093D01*
X89316451Y-48553970D01*
X89313613Y-48549461D01*
X89310621Y-48546866D01*
X89301180Y-48535362D01*
X89229751Y-48463933D01*
X89218249Y-48454493D01*
X89215653Y-48451500D01*
X89211139Y-48448659D01*
X89207020Y-48445278D01*
X89203360Y-48443762D01*
X89190767Y-48435835D01*
X89047910Y-48364407D01*
X89020446Y-48353897D01*
X89015070Y-48353515D01*
X89010092Y-48351453D01*
X88980828Y-48348571D01*
X88766542Y-48348571D01*
X88737278Y-48351453D01*
X88732299Y-48353515D01*
X88726924Y-48353897D01*
X88699461Y-48364407D01*
X88556603Y-48435835D01*
X88544008Y-48443763D01*
X88540349Y-48445279D01*
X88536228Y-48448660D01*
X88531718Y-48451500D01*
X88529123Y-48454491D01*
X88517618Y-48463934D01*
X88446190Y-48535363D01*
X88436752Y-48546862D01*
X88433758Y-48549460D01*
X88430915Y-48553976D01*
X88427536Y-48558094D01*
X88426021Y-48561750D01*
X88418093Y-48574346D01*
X88346664Y-48717203D01*
X88336155Y-48744666D01*
X88335773Y-48750040D01*
X88333710Y-48755021D01*
X88330828Y-48784285D01*
X88164161Y-48784285D01*
X88164161Y-47826450D01*
X88333710Y-47826450D01*
X88333710Y-47884978D01*
X88356108Y-47939050D01*
X88397492Y-47980434D01*
X88451564Y-48002832D01*
X88480828Y-48005714D01*
X89980828Y-48005714D01*
X90010092Y-48002832D01*
X90064164Y-47980434D01*
X90105548Y-47939050D01*
X90127946Y-47884978D01*
X90127946Y-47826450D01*
X90105548Y-47772378D01*
X90064164Y-47730994D01*
X90010092Y-47708596D01*
X89980828Y-47705714D01*
X88480828Y-47705714D01*
X88451564Y-47708596D01*
X88397492Y-47730994D01*
X88356108Y-47772378D01*
X88333710Y-47826450D01*
X88164161Y-47826450D01*
X88164161Y-46569999D01*
X88330828Y-46569999D01*
X88330828Y-46712856D01*
X88332286Y-46727667D01*
X88332006Y-46731617D01*
X88333187Y-46736811D01*
X88333710Y-46742120D01*
X88335227Y-46745782D01*
X88338526Y-46760290D01*
X88409954Y-46974576D01*
X88421943Y-47001427D01*
X88425473Y-47005497D01*
X88427536Y-47010477D01*
X88446191Y-47033208D01*
X88589048Y-47176065D01*
X88600550Y-47185505D01*
X88603146Y-47188498D01*
X88607655Y-47191336D01*
X88611778Y-47194720D01*
X88615440Y-47196236D01*
X88628032Y-47204163D01*
X88770888Y-47275592D01*
X88773030Y-47276411D01*
X88773900Y-47277056D01*
X88786171Y-47281440D01*
X88798352Y-47286101D01*
X88799432Y-47286177D01*
X88801591Y-47286949D01*
X89087305Y-47358377D01*
X89092376Y-47359126D01*
X89094421Y-47359974D01*
X89105443Y-47361059D01*
X89116394Y-47362679D01*
X89118581Y-47362353D01*
X89123685Y-47362856D01*
X89337971Y-47362856D01*
X89343074Y-47362353D01*
X89345262Y-47362679D01*
X89356212Y-47361059D01*
X89367235Y-47359974D01*
X89369279Y-47359126D01*
X89374351Y-47358377D01*
X89660065Y-47286949D01*
X89662223Y-47286177D01*
X89663304Y-47286101D01*
X89675478Y-47281442D01*
X89687756Y-47277056D01*
X89688626Y-47276411D01*
X89690767Y-47275592D01*
X89833624Y-47204163D01*
X89846217Y-47196235D01*
X89849877Y-47194720D01*
X89853996Y-47191338D01*
X89858510Y-47188498D01*
X89861106Y-47185504D01*
X89872608Y-47176065D01*
X90015466Y-47033208D01*
X90034121Y-47010478D01*
X90036183Y-47005498D01*
X90039715Y-47001427D01*
X90051703Y-46974576D01*
X90123131Y-46760290D01*
X90126430Y-46745777D01*
X90127946Y-46742120D01*
X90128468Y-46736817D01*
X90129651Y-46731616D01*
X90129369Y-46727661D01*
X90130828Y-46712856D01*
X90130828Y-46569999D01*
X90129369Y-46555193D01*
X90129651Y-46551239D01*
X90128468Y-46546037D01*
X90127946Y-46540735D01*
X90126430Y-46537077D01*
X90123131Y-46522565D01*
X90051703Y-46308279D01*
X90039715Y-46281428D01*
X90036181Y-46277353D01*
X90034120Y-46272377D01*
X90015465Y-46249646D01*
X89944036Y-46178218D01*
X89921305Y-46159564D01*
X89867233Y-46137167D01*
X89808707Y-46137167D01*
X89754635Y-46159565D01*
X89713250Y-46200951D01*
X89690853Y-46255023D01*
X89690853Y-46313549D01*
X89713251Y-46367621D01*
X89731906Y-46390352D01*
X89778294Y-46436739D01*
X89830828Y-46594341D01*
X89830828Y-46688513D01*
X89778294Y-46846115D01*
X89677688Y-46946720D01*
X89571328Y-46999901D01*
X89319507Y-47062856D01*
X89142149Y-47062856D01*
X88890327Y-46999900D01*
X88783968Y-46946721D01*
X88683361Y-46846114D01*
X88630828Y-46688515D01*
X88630828Y-46594339D01*
X88683361Y-46436740D01*
X88729751Y-46390351D01*
X88748406Y-46367621D01*
X88770802Y-46313548D01*
X88770802Y-46255022D01*
X88748406Y-46200950D01*
X88707020Y-46159564D01*
X88652948Y-46137168D01*
X88594422Y-46137168D01*
X88540349Y-46159564D01*
X88517619Y-46178219D01*
X88446191Y-46249647D01*
X88427536Y-46272378D01*
X88425473Y-46277357D01*
X88421943Y-46281428D01*
X88409954Y-46308279D01*
X88338526Y-46522565D01*
X88335227Y-46537072D01*
X88333710Y-46540735D01*
X88333187Y-46546043D01*
X88332006Y-46551238D01*
X88332286Y-46555187D01*
X88330828Y-46569999D01*
X88164161Y-46569999D01*
X88164161Y-45970500D01*
X90297495Y-45970500D01*
X90297495Y-57600952D01*
G37*
G36*
X85854830Y-67363051D02*
G01*
X85891835Y-67400056D01*
X85936542Y-67489469D01*
X85936542Y-67875489D01*
X85450828Y-67875489D01*
X85450828Y-67489470D01*
X85495535Y-67400055D01*
X85532539Y-67363051D01*
X85621952Y-67318346D01*
X85765418Y-67318346D01*
X85854830Y-67363051D01*
G37*
G36*
X87117495Y-68342156D02*
G01*
X84984161Y-68342156D01*
X84984161Y-67454060D01*
X85150828Y-67454060D01*
X85150828Y-68025489D01*
X85153710Y-68054753D01*
X85176108Y-68108825D01*
X85217492Y-68150209D01*
X85271564Y-68172607D01*
X85300828Y-68175489D01*
X86800828Y-68175489D01*
X86830092Y-68172607D01*
X86884164Y-68150209D01*
X86925548Y-68108825D01*
X86947946Y-68054753D01*
X86947946Y-67996225D01*
X86925548Y-67942153D01*
X86884164Y-67900769D01*
X86830092Y-67878371D01*
X86800828Y-67875489D01*
X86236542Y-67875489D01*
X86236542Y-67454060D01*
X86233660Y-67424796D01*
X86231597Y-67419817D01*
X86231216Y-67414442D01*
X86220706Y-67386979D01*
X86149278Y-67244121D01*
X86141351Y-67231529D01*
X86139835Y-67227868D01*
X86136451Y-67223745D01*
X86133613Y-67219236D01*
X86130621Y-67216641D01*
X86121180Y-67205137D01*
X86049751Y-67133708D01*
X86038249Y-67124268D01*
X86035653Y-67121275D01*
X86031139Y-67118434D01*
X86027020Y-67115053D01*
X86023360Y-67113537D01*
X86010767Y-67105610D01*
X85867910Y-67034182D01*
X85840446Y-67023672D01*
X85835070Y-67023290D01*
X85830092Y-67021228D01*
X85800828Y-67018346D01*
X85586542Y-67018346D01*
X85557278Y-67021228D01*
X85552299Y-67023290D01*
X85546924Y-67023672D01*
X85519461Y-67034182D01*
X85376603Y-67105610D01*
X85364008Y-67113538D01*
X85360349Y-67115054D01*
X85356228Y-67118435D01*
X85351718Y-67121275D01*
X85349123Y-67124266D01*
X85337618Y-67133709D01*
X85266190Y-67205138D01*
X85256752Y-67216637D01*
X85253758Y-67219235D01*
X85250915Y-67223751D01*
X85247536Y-67227869D01*
X85246021Y-67231525D01*
X85238093Y-67244121D01*
X85166664Y-67386978D01*
X85156155Y-67414441D01*
X85155773Y-67419815D01*
X85153710Y-67424796D01*
X85150828Y-67454060D01*
X84984161Y-67454060D01*
X84984161Y-66496225D01*
X85153710Y-66496225D01*
X85153710Y-66554753D01*
X85176108Y-66608825D01*
X85217492Y-66650209D01*
X85271564Y-66672607D01*
X85300828Y-66675489D01*
X86800828Y-66675489D01*
X86830092Y-66672607D01*
X86884164Y-66650209D01*
X86925548Y-66608825D01*
X86947946Y-66554753D01*
X86947946Y-66496225D01*
X86925548Y-66442153D01*
X86884164Y-66400769D01*
X86830092Y-66378371D01*
X86800828Y-66375489D01*
X85300828Y-66375489D01*
X85271564Y-66378371D01*
X85217492Y-66400769D01*
X85176108Y-66442153D01*
X85153710Y-66496225D01*
X84984161Y-66496225D01*
X84984161Y-65239774D01*
X85150828Y-65239774D01*
X85150828Y-65382631D01*
X85152286Y-65397442D01*
X85152006Y-65401392D01*
X85153187Y-65406586D01*
X85153710Y-65411895D01*
X85155227Y-65415557D01*
X85158526Y-65430065D01*
X85229954Y-65644351D01*
X85241943Y-65671202D01*
X85245473Y-65675272D01*
X85247536Y-65680252D01*
X85266191Y-65702983D01*
X85409048Y-65845840D01*
X85420550Y-65855280D01*
X85423146Y-65858273D01*
X85427655Y-65861111D01*
X85431778Y-65864495D01*
X85435440Y-65866011D01*
X85448032Y-65873938D01*
X85590888Y-65945367D01*
X85593030Y-65946186D01*
X85593900Y-65946831D01*
X85606171Y-65951215D01*
X85618352Y-65955876D01*
X85619432Y-65955952D01*
X85621591Y-65956724D01*
X85907305Y-66028152D01*
X85912376Y-66028901D01*
X85914421Y-66029749D01*
X85925443Y-66030834D01*
X85936394Y-66032454D01*
X85938581Y-66032128D01*
X85943685Y-66032631D01*
X86157971Y-66032631D01*
X86163074Y-66032128D01*
X86165262Y-66032454D01*
X86176212Y-66030834D01*
X86187235Y-66029749D01*
X86189279Y-66028901D01*
X86194351Y-66028152D01*
X86480065Y-65956724D01*
X86482223Y-65955952D01*
X86483304Y-65955876D01*
X86495478Y-65951217D01*
X86507756Y-65946831D01*
X86508626Y-65946186D01*
X86510767Y-65945367D01*
X86653624Y-65873938D01*
X86666217Y-65866010D01*
X86669877Y-65864495D01*
X86673996Y-65861113D01*
X86678510Y-65858273D01*
X86681106Y-65855279D01*
X86692608Y-65845840D01*
X86835466Y-65702983D01*
X86854121Y-65680253D01*
X86856183Y-65675273D01*
X86859715Y-65671202D01*
X86871703Y-65644351D01*
X86943131Y-65430065D01*
X86946430Y-65415552D01*
X86947946Y-65411895D01*
X86948468Y-65406592D01*
X86949651Y-65401391D01*
X86949369Y-65397436D01*
X86950828Y-65382631D01*
X86950828Y-65239774D01*
X86949369Y-65224968D01*
X86949651Y-65221014D01*
X86948468Y-65215812D01*
X86947946Y-65210510D01*
X86946430Y-65206852D01*
X86943131Y-65192340D01*
X86871703Y-64978054D01*
X86859715Y-64951203D01*
X86856181Y-64947128D01*
X86854120Y-64942152D01*
X86835465Y-64919421D01*
X86764036Y-64847993D01*
X86741305Y-64829339D01*
X86687233Y-64806942D01*
X86628707Y-64806942D01*
X86574635Y-64829340D01*
X86533250Y-64870726D01*
X86510853Y-64924798D01*
X86510853Y-64983324D01*
X86533251Y-65037396D01*
X86551906Y-65060127D01*
X86598294Y-65106514D01*
X86650828Y-65264116D01*
X86650828Y-65358288D01*
X86598294Y-65515890D01*
X86497688Y-65616495D01*
X86391328Y-65669676D01*
X86139507Y-65732631D01*
X85962149Y-65732631D01*
X85710327Y-65669675D01*
X85603968Y-65616496D01*
X85503361Y-65515889D01*
X85450828Y-65358290D01*
X85450828Y-65264114D01*
X85503361Y-65106515D01*
X85549751Y-65060126D01*
X85568406Y-65037396D01*
X85590802Y-64983323D01*
X85590802Y-64924797D01*
X85568406Y-64870725D01*
X85527020Y-64829339D01*
X85472948Y-64806943D01*
X85414422Y-64806943D01*
X85360349Y-64829339D01*
X85337619Y-64847994D01*
X85266191Y-64919422D01*
X85247536Y-64942153D01*
X85245473Y-64947132D01*
X85241943Y-64951203D01*
X85229954Y-64978054D01*
X85158526Y-65192340D01*
X85155227Y-65206847D01*
X85153710Y-65210510D01*
X85153187Y-65215818D01*
X85152006Y-65221013D01*
X85152286Y-65224962D01*
X85150828Y-65239774D01*
X84984161Y-65239774D01*
X84984161Y-63424797D01*
X85153710Y-63424797D01*
X85153710Y-63483323D01*
X85176107Y-63537395D01*
X85194762Y-63560126D01*
X85795839Y-64161203D01*
X85300828Y-64161203D01*
X85271564Y-64164085D01*
X85217492Y-64186483D01*
X85176108Y-64227867D01*
X85153710Y-64281939D01*
X85153710Y-64340467D01*
X85176108Y-64394539D01*
X85217492Y-64435923D01*
X85271564Y-64458321D01*
X85300828Y-64461203D01*
X86800828Y-64461203D01*
X86830092Y-64458321D01*
X86884164Y-64435923D01*
X86925548Y-64394539D01*
X86947946Y-64340467D01*
X86947946Y-64281939D01*
X86925548Y-64227867D01*
X86884164Y-64186483D01*
X86830092Y-64164085D01*
X86800828Y-64161203D01*
X86220103Y-64161203D01*
X86172046Y-64113146D01*
X86890828Y-63574060D01*
X86912510Y-63554196D01*
X86942329Y-63503834D01*
X86950606Y-63445897D01*
X86936081Y-63389200D01*
X86900964Y-63342378D01*
X86850603Y-63312559D01*
X86792665Y-63304282D01*
X86735969Y-63318807D01*
X86710828Y-63334060D01*
X85957760Y-63898860D01*
X85406894Y-63347994D01*
X85384163Y-63329339D01*
X85330091Y-63306942D01*
X85271565Y-63306942D01*
X85217493Y-63329339D01*
X85176107Y-63370725D01*
X85153710Y-63424797D01*
X84984161Y-63424797D01*
X84984161Y-62781939D01*
X85153710Y-62781939D01*
X85153710Y-62840467D01*
X85176108Y-62894539D01*
X85217492Y-62935923D01*
X85271564Y-62958321D01*
X85300828Y-62961203D01*
X86800828Y-62961203D01*
X86830092Y-62958321D01*
X86884164Y-62935923D01*
X86925548Y-62894539D01*
X86947946Y-62840467D01*
X86947946Y-62781939D01*
X86925548Y-62727867D01*
X86884164Y-62686483D01*
X86830092Y-62664085D01*
X86800828Y-62661203D01*
X85300828Y-62661203D01*
X85271564Y-62664085D01*
X85217492Y-62686483D01*
X85176108Y-62727867D01*
X85153710Y-62781939D01*
X84984161Y-62781939D01*
X84984161Y-61454060D01*
X85150828Y-61454060D01*
X85150828Y-62311202D01*
X85153710Y-62340466D01*
X85176108Y-62394538D01*
X85217492Y-62435922D01*
X85271564Y-62458320D01*
X85330092Y-62458320D01*
X85384164Y-62435922D01*
X85425548Y-62394538D01*
X85447946Y-62340466D01*
X85450828Y-62311202D01*
X85450828Y-62032631D01*
X86800828Y-62032631D01*
X86830092Y-62029749D01*
X86884164Y-62007351D01*
X86925548Y-61965967D01*
X86947946Y-61911895D01*
X86947946Y-61853367D01*
X86925548Y-61799295D01*
X86884164Y-61757911D01*
X86830092Y-61735513D01*
X86800828Y-61732631D01*
X85450828Y-61732631D01*
X85450828Y-61454060D01*
X85447946Y-61424796D01*
X85425548Y-61370724D01*
X85384164Y-61329340D01*
X85330092Y-61306942D01*
X85271564Y-61306942D01*
X85217492Y-61329340D01*
X85176108Y-61370724D01*
X85153710Y-61424796D01*
X85150828Y-61454060D01*
X84984161Y-61454060D01*
X84984161Y-59025488D01*
X85150828Y-59025488D01*
X85150828Y-59954060D01*
X85153710Y-59983324D01*
X85176108Y-60037396D01*
X85217492Y-60078780D01*
X85271564Y-60101178D01*
X85330092Y-60101178D01*
X85384164Y-60078780D01*
X85425548Y-60037396D01*
X85447946Y-59983324D01*
X85450828Y-59954060D01*
X85450828Y-59356053D01*
X85773481Y-59638374D01*
X85786130Y-59647417D01*
X85788921Y-59650208D01*
X85791565Y-59651303D01*
X85797402Y-59655476D01*
X85820481Y-59663281D01*
X85842993Y-59672606D01*
X85848055Y-59672606D01*
X85852845Y-59674226D01*
X85877145Y-59672606D01*
X85901521Y-59672606D01*
X85906196Y-59670669D01*
X85911241Y-59670333D01*
X85933076Y-59659534D01*
X85955593Y-59650208D01*
X85959169Y-59646631D01*
X85963704Y-59644389D01*
X85979747Y-59626053D01*
X85996977Y-59608824D01*
X85998913Y-59604149D01*
X86002245Y-59600342D01*
X86010048Y-59577266D01*
X86019375Y-59554752D01*
X86020078Y-59547610D01*
X86020995Y-59544900D01*
X86020732Y-59540965D01*
X86022257Y-59525488D01*
X86022257Y-59346612D01*
X86066962Y-59257200D01*
X86103968Y-59220194D01*
X86193381Y-59175488D01*
X86479704Y-59175488D01*
X86569117Y-59220195D01*
X86606121Y-59257199D01*
X86650828Y-59346612D01*
X86650828Y-59704364D01*
X86606121Y-59793777D01*
X86551905Y-59847994D01*
X86533250Y-59870725D01*
X86510853Y-59924797D01*
X86510853Y-59983323D01*
X86533250Y-60037395D01*
X86574636Y-60078781D01*
X86628708Y-60101178D01*
X86687234Y-60101178D01*
X86741306Y-60078781D01*
X86764037Y-60060126D01*
X86835466Y-59988697D01*
X86844907Y-59977192D01*
X86847899Y-59974598D01*
X86850737Y-59970088D01*
X86854121Y-59965966D01*
X86855637Y-59962304D01*
X86863564Y-59949713D01*
X86934992Y-59806855D01*
X86945502Y-59779392D01*
X86945883Y-59774016D01*
X86947946Y-59769038D01*
X86950828Y-59739774D01*
X86950828Y-59311203D01*
X86947946Y-59281939D01*
X86945883Y-59276960D01*
X86945502Y-59271585D01*
X86934992Y-59244122D01*
X86863564Y-59101264D01*
X86855637Y-59088672D01*
X86854121Y-59085011D01*
X86850737Y-59080888D01*
X86847899Y-59076379D01*
X86844907Y-59073784D01*
X86835466Y-59062280D01*
X86764037Y-58990851D01*
X86752535Y-58981411D01*
X86749939Y-58978418D01*
X86745425Y-58975577D01*
X86741306Y-58972196D01*
X86737646Y-58970680D01*
X86725053Y-58962753D01*
X86582196Y-58891324D01*
X86554733Y-58880815D01*
X86549358Y-58880433D01*
X86544378Y-58878370D01*
X86515114Y-58875488D01*
X86157971Y-58875488D01*
X86128707Y-58878370D01*
X86123726Y-58880433D01*
X86118352Y-58880815D01*
X86090888Y-58891324D01*
X85948032Y-58962753D01*
X85935438Y-58970680D01*
X85931779Y-58972196D01*
X85927659Y-58975577D01*
X85923146Y-58978418D01*
X85920549Y-58981412D01*
X85909048Y-58990851D01*
X85837619Y-59062280D01*
X85828179Y-59073781D01*
X85825186Y-59076378D01*
X85822345Y-59080891D01*
X85818964Y-59085011D01*
X85817448Y-59088670D01*
X85809521Y-59101264D01*
X85750385Y-59219535D01*
X85399604Y-58912601D01*
X85386953Y-58903557D01*
X85384164Y-58900768D01*
X85381518Y-58899671D01*
X85375682Y-58895500D01*
X85352600Y-58887693D01*
X85330092Y-58878370D01*
X85325033Y-58878370D01*
X85320240Y-58876749D01*
X85295931Y-58878370D01*
X85271564Y-58878370D01*
X85266888Y-58880306D01*
X85261844Y-58880643D01*
X85240008Y-58891441D01*
X85217492Y-58900768D01*
X85213915Y-58904344D01*
X85209381Y-58906587D01*
X85193337Y-58924922D01*
X85176108Y-58942152D01*
X85174171Y-58946826D01*
X85170840Y-58950634D01*
X85163033Y-58973715D01*
X85153710Y-58996224D01*
X85153007Y-59003361D01*
X85152089Y-59006076D01*
X85152351Y-59010015D01*
X85150828Y-59025488D01*
X84984161Y-59025488D01*
X84984161Y-58708821D01*
X87117495Y-58708821D01*
X87117495Y-68342156D01*
G37*
G36*
X45015657Y-84905535D02*
G01*
X45052661Y-84942539D01*
X45097367Y-85031951D01*
X45097367Y-85175418D01*
X45052660Y-85264831D01*
X45015655Y-85301836D01*
X44926243Y-85346542D01*
X44540224Y-85346542D01*
X44540224Y-84860828D01*
X44926243Y-84860828D01*
X45015657Y-84905535D01*
G37*
G36*
X43539255Y-85632257D02*
G01*
X43241196Y-85632257D01*
X43390225Y-85185169D01*
X43539255Y-85632257D01*
G37*
G36*
X53564034Y-86527495D02*
G01*
X41216415Y-86527495D01*
X41216415Y-85353685D01*
X41383082Y-85353685D01*
X41383082Y-85567971D01*
X41383584Y-85573074D01*
X41383259Y-85575262D01*
X41384878Y-85586212D01*
X41385964Y-85597235D01*
X41386811Y-85599279D01*
X41387561Y-85604351D01*
X41458989Y-85890065D01*
X41459760Y-85892223D01*
X41459837Y-85893304D01*
X41464495Y-85905478D01*
X41468882Y-85917756D01*
X41469526Y-85918626D01*
X41470346Y-85920767D01*
X41541775Y-86063624D01*
X41549702Y-86076217D01*
X41551218Y-86079877D01*
X41554599Y-86083996D01*
X41557440Y-86088510D01*
X41560433Y-86091106D01*
X41569873Y-86102608D01*
X41712730Y-86245466D01*
X41735460Y-86264121D01*
X41740439Y-86266183D01*
X41744511Y-86269715D01*
X41771362Y-86281703D01*
X41985648Y-86353131D01*
X42000160Y-86356430D01*
X42003818Y-86357946D01*
X42009120Y-86358468D01*
X42014322Y-86359651D01*
X42018276Y-86359369D01*
X42033082Y-86360828D01*
X42175939Y-86360828D01*
X42190744Y-86359369D01*
X42194699Y-86359651D01*
X42199900Y-86358468D01*
X42205203Y-86357946D01*
X42208860Y-86356430D01*
X42223373Y-86353131D01*
X42437659Y-86281703D01*
X42464510Y-86269715D01*
X42468583Y-86266181D01*
X42473561Y-86264120D01*
X42496292Y-86245465D01*
X42549689Y-86192067D01*
X42741403Y-86192067D01*
X42745552Y-86250448D01*
X42771726Y-86302795D01*
X42815940Y-86341142D01*
X42871464Y-86359650D01*
X42929845Y-86355501D01*
X42982192Y-86329327D01*
X43020539Y-86285113D01*
X43032527Y-86258262D01*
X43141196Y-85932257D01*
X43639255Y-85932257D01*
X43747923Y-86258262D01*
X43759911Y-86285113D01*
X43798258Y-86329328D01*
X43850606Y-86355501D01*
X43908986Y-86359651D01*
X43964510Y-86341142D01*
X44008724Y-86302795D01*
X44034898Y-86250448D01*
X44039048Y-86192068D01*
X44032528Y-86163394D01*
X43548338Y-84710828D01*
X44240224Y-84710828D01*
X44240224Y-86210828D01*
X44243106Y-86240092D01*
X44265504Y-86294164D01*
X44306888Y-86335548D01*
X44360960Y-86357946D01*
X44419488Y-86357946D01*
X44473560Y-86335548D01*
X44514944Y-86294164D01*
X44537342Y-86240092D01*
X44540224Y-86210828D01*
X44540224Y-85646542D01*
X44669269Y-85646542D01*
X45124482Y-86296847D01*
X45143625Y-86319169D01*
X45192982Y-86350622D01*
X45250618Y-86360793D01*
X45307760Y-86348134D01*
X45355708Y-86314570D01*
X45387161Y-86265213D01*
X45397332Y-86207577D01*
X45384673Y-86150435D01*
X45370252Y-86124809D01*
X45025300Y-85632020D01*
X45028735Y-85630706D01*
X45171592Y-85559278D01*
X45184185Y-85551350D01*
X45187845Y-85549835D01*
X45191964Y-85546453D01*
X45196478Y-85543613D01*
X45199074Y-85540619D01*
X45210576Y-85531180D01*
X45282005Y-85459751D01*
X45291446Y-85448246D01*
X45294438Y-85445652D01*
X45297276Y-85441142D01*
X45300660Y-85437020D01*
X45302176Y-85433358D01*
X45310103Y-85420767D01*
X45381531Y-85277909D01*
X45392041Y-85250446D01*
X45392422Y-85245070D01*
X45394485Y-85240092D01*
X45397367Y-85210828D01*
X45397367Y-84996542D01*
X45394485Y-84967278D01*
X45392422Y-84962299D01*
X45392041Y-84956924D01*
X45381531Y-84929461D01*
X45310103Y-84786603D01*
X45302174Y-84774008D01*
X45300659Y-84770349D01*
X45297277Y-84766228D01*
X45294438Y-84761718D01*
X45291446Y-84759123D01*
X45282004Y-84747618D01*
X45215949Y-84681564D01*
X45528821Y-84681564D01*
X45528821Y-84740092D01*
X45551219Y-84794164D01*
X45592603Y-84835548D01*
X45646675Y-84857946D01*
X45675939Y-84860828D01*
X45954510Y-84860828D01*
X45954510Y-86210828D01*
X45957392Y-86240092D01*
X45979790Y-86294164D01*
X46021174Y-86335548D01*
X46075246Y-86357946D01*
X46133774Y-86357946D01*
X46187846Y-86335548D01*
X46229230Y-86294164D01*
X46251628Y-86240092D01*
X46254510Y-86210828D01*
X46254510Y-84860828D01*
X46533082Y-84860828D01*
X46562346Y-84857946D01*
X46616418Y-84835548D01*
X46657802Y-84794164D01*
X46680200Y-84740092D01*
X46680200Y-84710828D01*
X46883081Y-84710828D01*
X46883081Y-86210828D01*
X46885963Y-86240092D01*
X46908361Y-86294164D01*
X46949745Y-86335548D01*
X47003817Y-86357946D01*
X47033081Y-86360828D01*
X47747367Y-86360828D01*
X47776631Y-86357946D01*
X47830703Y-86335548D01*
X47872087Y-86294164D01*
X47894485Y-86240092D01*
X47894485Y-86181564D01*
X47872087Y-86127492D01*
X47830703Y-86086108D01*
X47776631Y-86063710D01*
X47747367Y-86060828D01*
X47183081Y-86060828D01*
X47183081Y-85575114D01*
X47533081Y-85575114D01*
X47562345Y-85572232D01*
X47616417Y-85549834D01*
X47657801Y-85508450D01*
X47680199Y-85454378D01*
X47680199Y-85395850D01*
X47657801Y-85341778D01*
X47616417Y-85300394D01*
X47562345Y-85277996D01*
X47533081Y-85275114D01*
X47183081Y-85275114D01*
X47183081Y-84860828D01*
X47747367Y-84860828D01*
X47776631Y-84857946D01*
X47830703Y-84835548D01*
X47872087Y-84794164D01*
X47894485Y-84740092D01*
X47894485Y-84716435D01*
X49240329Y-84716435D01*
X49244303Y-84745571D01*
X49601446Y-86245571D01*
X49604907Y-86255614D01*
X49605386Y-86259214D01*
X49607269Y-86262467D01*
X49611028Y-86273372D01*
X49623799Y-86291019D01*
X49634709Y-86309864D01*
X49640824Y-86314545D01*
X49645341Y-86320786D01*
X49663891Y-86332201D01*
X49681184Y-86345438D01*
X49688625Y-86347422D01*
X49695185Y-86351459D01*
X49716688Y-86354906D01*
X49737736Y-86360519D01*
X49745371Y-86359504D01*
X49752974Y-86360723D01*
X49774163Y-86355678D01*
X49795753Y-86352809D01*
X49802416Y-86348951D01*
X49809911Y-86347167D01*
X49827558Y-86334395D01*
X49846403Y-86323486D01*
X49851084Y-86317370D01*
X49857325Y-86312854D01*
X49868740Y-86294303D01*
X49881977Y-86277011D01*
X49886024Y-86266216D01*
X49887998Y-86263010D01*
X49888573Y-86259419D01*
X49892302Y-86249477D01*
X50033081Y-85721554D01*
X50173861Y-86249477D01*
X50177589Y-86259419D01*
X50178165Y-86263010D01*
X50180138Y-86266216D01*
X50184186Y-86277011D01*
X50197422Y-86294303D01*
X50208838Y-86312854D01*
X50215078Y-86317370D01*
X50219760Y-86323486D01*
X50238604Y-86334395D01*
X50256252Y-86347167D01*
X50263746Y-86348951D01*
X50270410Y-86352809D01*
X50291999Y-86355678D01*
X50313189Y-86360723D01*
X50320791Y-86359504D01*
X50328427Y-86360519D01*
X50349474Y-86354906D01*
X50370978Y-86351459D01*
X50377537Y-86347422D01*
X50384979Y-86345438D01*
X50402271Y-86332201D01*
X50420822Y-86320786D01*
X50425338Y-86314545D01*
X50431454Y-86309864D01*
X50442363Y-86291019D01*
X50455135Y-86273372D01*
X50458893Y-86262467D01*
X50460777Y-86259214D01*
X50461255Y-86255614D01*
X50464717Y-86245571D01*
X50821860Y-84745571D01*
X50825834Y-84716435D01*
X50824935Y-84710828D01*
X51097367Y-84710828D01*
X51097367Y-86210828D01*
X51100249Y-86240092D01*
X51122647Y-86294164D01*
X51164031Y-86335548D01*
X51218103Y-86357946D01*
X51276631Y-86357946D01*
X51330703Y-86335548D01*
X51372087Y-86294164D01*
X51394485Y-86240092D01*
X51397367Y-86210828D01*
X51397367Y-84710828D01*
X51811653Y-84710828D01*
X51811653Y-86210828D01*
X51814535Y-86240092D01*
X51836933Y-86294164D01*
X51878317Y-86335548D01*
X51932389Y-86357946D01*
X51990917Y-86357946D01*
X52044989Y-86335548D01*
X52086373Y-86294164D01*
X52108771Y-86240092D01*
X52111653Y-86210828D01*
X52111653Y-85575114D01*
X52461653Y-85575114D01*
X52490917Y-85572232D01*
X52544989Y-85549834D01*
X52586373Y-85508450D01*
X52608771Y-85454378D01*
X52608771Y-85395850D01*
X52586373Y-85341778D01*
X52544989Y-85300394D01*
X52490917Y-85277996D01*
X52461653Y-85275114D01*
X52111653Y-85275114D01*
X52111653Y-84860828D01*
X52675939Y-84860828D01*
X52705203Y-84857946D01*
X52759275Y-84835548D01*
X52800659Y-84794164D01*
X52823057Y-84740092D01*
X52823057Y-84710828D01*
X53097367Y-84710828D01*
X53097367Y-86210828D01*
X53100249Y-86240092D01*
X53122647Y-86294164D01*
X53164031Y-86335548D01*
X53218103Y-86357946D01*
X53276631Y-86357946D01*
X53330703Y-86335548D01*
X53372087Y-86294164D01*
X53394485Y-86240092D01*
X53397367Y-86210828D01*
X53397367Y-84710828D01*
X53394485Y-84681564D01*
X53372087Y-84627492D01*
X53330703Y-84586108D01*
X53276631Y-84563710D01*
X53218103Y-84563710D01*
X53164031Y-84586108D01*
X53122647Y-84627492D01*
X53100249Y-84681564D01*
X53097367Y-84710828D01*
X52823057Y-84710828D01*
X52823057Y-84681564D01*
X52800659Y-84627492D01*
X52759275Y-84586108D01*
X52705203Y-84563710D01*
X52675939Y-84560828D01*
X51961653Y-84560828D01*
X51932389Y-84563710D01*
X51878317Y-84586108D01*
X51836933Y-84627492D01*
X51814535Y-84681564D01*
X51811653Y-84710828D01*
X51397367Y-84710828D01*
X51394485Y-84681564D01*
X51372087Y-84627492D01*
X51330703Y-84586108D01*
X51276631Y-84563710D01*
X51218103Y-84563710D01*
X51164031Y-84586108D01*
X51122647Y-84627492D01*
X51100249Y-84681564D01*
X51097367Y-84710828D01*
X50824935Y-84710828D01*
X50816570Y-84658646D01*
X50785897Y-84608802D01*
X50738483Y-84574489D01*
X50681546Y-84560933D01*
X50623757Y-84570197D01*
X50573913Y-84600870D01*
X50539600Y-84648284D01*
X50530018Y-84676085D01*
X50310562Y-85597797D01*
X50178016Y-85100750D01*
X50175444Y-85093893D01*
X50175062Y-85091014D01*
X50173083Y-85087595D01*
X50167691Y-85073217D01*
X50155656Y-85057495D01*
X50145739Y-85040364D01*
X50138023Y-85034457D01*
X50132117Y-85026742D01*
X50114985Y-85016824D01*
X50099264Y-85004790D01*
X50089873Y-85002285D01*
X50081467Y-84997419D01*
X50061845Y-84994811D01*
X50042712Y-84989709D01*
X50033081Y-84990988D01*
X50023450Y-84989709D01*
X50004316Y-84994811D01*
X49984695Y-84997419D01*
X49976288Y-85002285D01*
X49966898Y-85004790D01*
X49951176Y-85016824D01*
X49934045Y-85026742D01*
X49928138Y-85034457D01*
X49920423Y-85040364D01*
X49910505Y-85057495D01*
X49898471Y-85073217D01*
X49893079Y-85087594D01*
X49891100Y-85091014D01*
X49890717Y-85093894D01*
X49888146Y-85100751D01*
X49755600Y-85597797D01*
X49536145Y-84676085D01*
X49526563Y-84648284D01*
X49492250Y-84600870D01*
X49442406Y-84570197D01*
X49384617Y-84560933D01*
X49327680Y-84574489D01*
X49280266Y-84608802D01*
X49249593Y-84658646D01*
X49240329Y-84716435D01*
X47894485Y-84716435D01*
X47894485Y-84681564D01*
X47872087Y-84627492D01*
X47830703Y-84586108D01*
X47776631Y-84563710D01*
X47747367Y-84560828D01*
X47033081Y-84560828D01*
X47003817Y-84563710D01*
X46949745Y-84586108D01*
X46908361Y-84627492D01*
X46885963Y-84681564D01*
X46883081Y-84710828D01*
X46680200Y-84710828D01*
X46680200Y-84681564D01*
X46657802Y-84627492D01*
X46616418Y-84586108D01*
X46562346Y-84563710D01*
X46533082Y-84560828D01*
X45675939Y-84560828D01*
X45646675Y-84563710D01*
X45592603Y-84586108D01*
X45551219Y-84627492D01*
X45528821Y-84681564D01*
X45215949Y-84681564D01*
X45210575Y-84676190D01*
X45199075Y-84666752D01*
X45196478Y-84663758D01*
X45191961Y-84660915D01*
X45187844Y-84657536D01*
X45184187Y-84656021D01*
X45171592Y-84648093D01*
X45028735Y-84576664D01*
X45001272Y-84566155D01*
X44995897Y-84565773D01*
X44990917Y-84563710D01*
X44961653Y-84560828D01*
X44390224Y-84560828D01*
X44360960Y-84563710D01*
X44306888Y-84586108D01*
X44265504Y-84627492D01*
X44243106Y-84681564D01*
X44240224Y-84710828D01*
X43548338Y-84710828D01*
X43532527Y-84663394D01*
X43520539Y-84636543D01*
X43513516Y-84628446D01*
X43508724Y-84618861D01*
X43494515Y-84606537D01*
X43482192Y-84592329D01*
X43472606Y-84587536D01*
X43464510Y-84580514D01*
X43446666Y-84574565D01*
X43429845Y-84566155D01*
X43419156Y-84565395D01*
X43408986Y-84562005D01*
X43390220Y-84563338D01*
X43371464Y-84562006D01*
X43361296Y-84565395D01*
X43350606Y-84566155D01*
X43333782Y-84574566D01*
X43315940Y-84580514D01*
X43307845Y-84587534D01*
X43298258Y-84592328D01*
X43285932Y-84606539D01*
X43271726Y-84618861D01*
X43266933Y-84628445D01*
X43259911Y-84636543D01*
X43247923Y-84663394D01*
X42747923Y-86163394D01*
X42741403Y-86192067D01*
X42549689Y-86192067D01*
X42567720Y-86174036D01*
X42586374Y-86151306D01*
X42608771Y-86097233D01*
X42608770Y-86038707D01*
X42586373Y-85984635D01*
X42544987Y-85943250D01*
X42490915Y-85920853D01*
X42432389Y-85920854D01*
X42378317Y-85943251D01*
X42355586Y-85961906D01*
X42309198Y-86008294D01*
X42151596Y-86060828D01*
X42057425Y-86060828D01*
X41899822Y-86008294D01*
X41799217Y-85907688D01*
X41746036Y-85801328D01*
X41683082Y-85549507D01*
X41683082Y-85372148D01*
X41746036Y-85120327D01*
X41799217Y-85013967D01*
X41899823Y-84913361D01*
X42057425Y-84860828D01*
X42151599Y-84860828D01*
X42309197Y-84913361D01*
X42355587Y-84959751D01*
X42378317Y-84978406D01*
X42432390Y-85000802D01*
X42490916Y-85000802D01*
X42544988Y-84978406D01*
X42586374Y-84937020D01*
X42608770Y-84882948D01*
X42608770Y-84824422D01*
X42586374Y-84770349D01*
X42567719Y-84747619D01*
X42496291Y-84676191D01*
X42473560Y-84657536D01*
X42468580Y-84655473D01*
X42464510Y-84651943D01*
X42437659Y-84639954D01*
X42223373Y-84568526D01*
X42208865Y-84565227D01*
X42205203Y-84563710D01*
X42199894Y-84563187D01*
X42194700Y-84562006D01*
X42190750Y-84562286D01*
X42175939Y-84560828D01*
X42033082Y-84560828D01*
X42018270Y-84562286D01*
X42014321Y-84562006D01*
X42009126Y-84563187D01*
X42003818Y-84563710D01*
X42000156Y-84565226D01*
X41985647Y-84568526D01*
X41771362Y-84639955D01*
X41744511Y-84651943D01*
X41740441Y-84655472D01*
X41735460Y-84657536D01*
X41712730Y-84676191D01*
X41569873Y-84819048D01*
X41560433Y-84830549D01*
X41557440Y-84833146D01*
X41554599Y-84837659D01*
X41551218Y-84841779D01*
X41549702Y-84845438D01*
X41541775Y-84858032D01*
X41470346Y-85000889D01*
X41469526Y-85003029D01*
X41468882Y-85003900D01*
X41464495Y-85016177D01*
X41459837Y-85028352D01*
X41459760Y-85029432D01*
X41458989Y-85031591D01*
X41387561Y-85317305D01*
X41386811Y-85322376D01*
X41385964Y-85324421D01*
X41384878Y-85335443D01*
X41383259Y-85346394D01*
X41383584Y-85348581D01*
X41383082Y-85353685D01*
X41216415Y-85353685D01*
X41216415Y-84394161D01*
X53564034Y-84394161D01*
X53564034Y-86527495D01*
G37*
D12*
%TO.P,K1,1*%
%TO.N,Net-(J10-Pin_2)*%
X30110000Y-64150000D03*
%TO.P,K1,2*%
%TO.N,Net-(J10-Pin_1)*%
X35150000Y-64150000D03*
%TO.P,K1,4*%
%TO.N,Net-(J10-Pin_3)*%
X25070000Y-64150000D03*
%TO.P,K1,11*%
%TO.N,Net-(J10-Pin_2)*%
X30110000Y-56650000D03*
%TO.P,K1,12*%
%TO.N,Net-(J10-Pin_1)*%
X35150000Y-56650000D03*
%TO.P,K1,14*%
%TO.N,Net-(J10-Pin_3)*%
X25070000Y-56650000D03*
%TO.P,K1,A1*%
%TO.N,Net-(D10-A)*%
X50410000Y-56650000D03*
%TO.P,K1,A2*%
%TO.N,Net-(D9-A)*%
X50410000Y-64150000D03*
%TO.P,K1,A3*%
%TO.N,/3\u002C3V*%
X50410000Y-60340000D03*
%TD*%
D13*
%TO.P,J9,1,Pin_1*%
%TO.N,/3\u002C3V*%
X74382200Y-87950000D03*
D14*
%TO.P,J9,2,Pin_2*%
%TO.N,/clk*%
X74382200Y-85410000D03*
%TO.P,J9,3,Pin_3*%
%TO.N,/data*%
X74382200Y-82870000D03*
%TO.P,J9,4,Pin_4*%
%TO.N,GND*%
X74382200Y-80330000D03*
%TD*%
D15*
%TO.P,SW2,2,2*%
%TO.N,Net-(U2-~{RST})*%
X51660000Y-47010000D03*
X45260000Y-47010000D03*
%TO.P,SW2,1,1*%
%TO.N,GND*%
X51660000Y-51410000D03*
X45260000Y-51410000D03*
%TD*%
D16*
%TO.P,J10,1,Pin_1*%
%TO.N,Net-(J10-Pin_1)*%
X36280000Y-49400000D03*
D17*
%TO.P,J10,2,Pin_2*%
%TO.N,Net-(J10-Pin_2)*%
X31200000Y-49400000D03*
%TO.P,J10,3,Pin_3*%
%TO.N,Net-(J10-Pin_3)*%
X26120000Y-49400000D03*
%TD*%
D18*
%TO.P,C6,1*%
%TO.N,/3\u002C3V*%
X56432323Y-74600000D03*
D19*
%TO.P,C6,2*%
%TO.N,GND*%
X61432323Y-74600000D03*
%TD*%
D13*
%TO.P,J2,1,Pin_1*%
%TO.N,/3\u002C3V*%
X66892600Y-87960000D03*
D14*
%TO.P,J2,2,Pin_2*%
%TO.N,/clk*%
X66892600Y-85420000D03*
%TO.P,J2,3,Pin_3*%
%TO.N,/data*%
X66892600Y-82880000D03*
%TO.P,J2,4,Pin_4*%
%TO.N,GND*%
X66892600Y-80340000D03*
%TD*%
D16*
%TO.P,J4,1,Pin_1*%
%TO.N,Net-(J4-Pin_1)*%
X26200000Y-85600000D03*
D17*
%TO.P,J4,2,Pin_2*%
%TO.N,Net-(J4-Pin_2)*%
X31280000Y-85600000D03*
%TO.P,J4,3,Pin_3*%
%TO.N,Net-(J4-Pin_3)*%
X36360000Y-85600000D03*
%TD*%
D12*
%TO.P,K2,1*%
%TO.N,Net-(J4-Pin_2)*%
X30050000Y-78350000D03*
%TO.P,K2,2*%
%TO.N,Net-(J4-Pin_3)*%
X35090000Y-78350000D03*
%TO.P,K2,4*%
%TO.N,Net-(J4-Pin_1)*%
X25010000Y-78350000D03*
%TO.P,K2,11*%
%TO.N,Net-(J4-Pin_2)*%
X30050000Y-70850000D03*
%TO.P,K2,12*%
%TO.N,Net-(J4-Pin_3)*%
X35090000Y-70850000D03*
%TO.P,K2,14*%
%TO.N,Net-(J4-Pin_1)*%
X25010000Y-70850000D03*
%TO.P,K2,A1*%
%TO.N,Net-(D1-A)*%
X50350000Y-70850000D03*
%TO.P,K2,A2*%
%TO.N,Net-(D2-A)*%
X50350000Y-78350000D03*
%TO.P,K2,A3*%
%TO.N,/3\u002C3V*%
X50350000Y-74540000D03*
%TD*%
D20*
%TO.P,U2,1,GND*%
%TO.N,GND*%
X76290000Y-52260000D03*
D21*
%TO.P,U2,2,GPIO2*%
%TO.N,Net-(U2-GPIO2)*%
X73750000Y-52260000D03*
%TO.P,U2,3,GPIO0*%
%TO.N,Net-(U2-GPIO0)*%
X71210000Y-52260000D03*
%TO.P,U2,4,RXD*%
%TO.N,/TX1_PIC_RX_ESP*%
X68670000Y-52260000D03*
%TO.P,U2,5,VCC*%
%TO.N,/3\u002C3V*%
X68670000Y-49720000D03*
%TO.P,U2,6,~{RST}*%
%TO.N,Net-(U2-~{RST})*%
X71210000Y-49720000D03*
%TO.P,U2,7,CH_PD*%
%TO.N,Net-(U2-CH_PD)*%
X73750000Y-49720000D03*
%TO.P,U2,8,TXD*%
%TO.N,/RX1_PIC_TX_ESP*%
X76290000Y-49720000D03*
%TD*%
D18*
%TO.P,C1,1*%
%TO.N,/3\u002C3V*%
X56400000Y-60400000D03*
D19*
%TO.P,C1,2*%
%TO.N,GND*%
X61400000Y-60400000D03*
%TD*%
D13*
%TO.P,J8,1,Pin_1*%
%TO.N,/3\u002C3V*%
X70537400Y-87950000D03*
D14*
%TO.P,J8,2,Pin_2*%
%TO.N,/clk*%
X70537400Y-85410000D03*
%TO.P,J8,3,Pin_3*%
%TO.N,/data*%
X70537400Y-82870000D03*
%TO.P,J8,4,Pin_4*%
%TO.N,GND*%
X70537400Y-80330000D03*
%TD*%
D22*
%TO.P,J3,1,Pin_1*%
%TO.N,Net-(D3-K)*%
X83000000Y-85480000D03*
D17*
%TO.P,J3,2,Pin_2*%
%TO.N,VCC*%
X88080000Y-85480000D03*
%TD*%
D15*
%TO.P,SW1,1,1*%
%TO.N,GND*%
X86250000Y-53520000D03*
X86250000Y-47120000D03*
%TO.P,SW1,2,2*%
%TO.N,/MCLR-1*%
X81850000Y-53520000D03*
X81850000Y-47120000D03*
%TD*%
D13*
%TO.P,J1,1,Pin_1*%
%TO.N,/MCLR-1*%
X82990000Y-56910000D03*
D23*
%TO.P,J1,2,Pin_2*%
%TO.N,/3\u002C3V*%
X82990000Y-59450000D03*
%TO.P,J1,3,Pin_3*%
%TO.N,GND*%
X82990000Y-61990000D03*
%TO.P,J1,4,Pin_4*%
%TO.N,/PGD-4*%
X82990000Y-64530000D03*
%TO.P,J1,5,Pin_5*%
%TO.N,/PGC-5*%
X82990000Y-67070000D03*
%TO.P,J1,6,Pin_6*%
%TO.N,unconnected-(J1-Pin_6-Pad6)*%
X82990000Y-69610000D03*
%TD*%
D24*
%TO.N,*%
X57200000Y-50140000D03*
X57200000Y-84860000D03*
D25*
%TO.N,/3\u002C3V*%
X73200000Y-59450000D03*
D26*
X60020000Y-81220000D03*
X77500000Y-46900000D03*
X61830000Y-51860000D03*
D25*
%TO.N,GND*%
X78220000Y-51940000D03*
D26*
X53800000Y-72400000D03*
D25*
X61310000Y-65400000D03*
D26*
X72430000Y-78010000D03*
X78975000Y-78075000D03*
D25*
X74390000Y-74600000D03*
D26*
%TO.N,/PGD-4*%
X80670000Y-64530000D03*
X67170000Y-61030000D03*
%TO.N,/PGC-5*%
X80690000Y-67070000D03*
X67100000Y-62930000D03*
%TO.N,/TX1_PIC_RX_ESP*%
X66180000Y-57670000D03*
X66120000Y-69920000D03*
D25*
%TO.N,/RX1_PIC_TX_ESP*%
X78150000Y-49050000D03*
D26*
X67000000Y-67490000D03*
%TO.N,GND*%
X53800000Y-62500000D03*
%TD*%
D27*
%TO.N,GND*%
X53800000Y-53550000D02*
X51660000Y-51410000D01*
X53800000Y-62500000D02*
X53800000Y-53550000D01*
%TO.N,/3\u002C3V*%
X56432323Y-76202323D02*
X56432323Y-74600000D01*
X58140000Y-79340000D02*
X58140000Y-77910000D01*
X60020000Y-81220000D02*
X58140000Y-79340000D01*
X58140000Y-77910000D02*
X56432323Y-76202323D01*
X61830000Y-51860000D02*
X66790000Y-46900000D01*
X56400000Y-60400000D02*
X56400000Y-74567677D01*
X56400000Y-59350000D02*
X61830000Y-53920000D01*
X56400000Y-74567677D02*
X56432323Y-74600000D01*
X61830000Y-53920000D02*
X61830000Y-51860000D01*
X73200000Y-59450000D02*
X82990000Y-59450000D01*
X56400000Y-60400000D02*
X56400000Y-59350000D01*
X66790000Y-46900000D02*
X77500000Y-46900000D01*
%TO.N,GND*%
X75500000Y-74600000D02*
X78975000Y-78075000D01*
X61400000Y-74567677D02*
X61432323Y-74600000D01*
X78220000Y-51940000D02*
X79760000Y-50400000D01*
X72510000Y-74600000D02*
X74390000Y-74600000D01*
X61432323Y-74600000D02*
X72510000Y-74600000D01*
X72430000Y-78010000D02*
X72430000Y-74680000D01*
X61807323Y-74975000D02*
X61432323Y-74600000D01*
X72430000Y-74680000D02*
X72510000Y-74600000D01*
X79760000Y-50400000D02*
X83130000Y-50400000D01*
X74390000Y-74600000D02*
X75500000Y-74600000D01*
X61400000Y-60400000D02*
X61400000Y-74567677D01*
X83130000Y-50400000D02*
X86250000Y-53520000D01*
D28*
%TO.N,/PGD-4*%
X76580000Y-64530000D02*
X80670000Y-64530000D01*
X67170000Y-61030000D02*
X73080000Y-61030000D01*
X73080000Y-61030000D02*
X76580000Y-64530000D01*
%TO.N,/PGC-5*%
X67100000Y-62930000D02*
X72360000Y-62930000D01*
X72360000Y-62930000D02*
X76500000Y-67070000D01*
X76500000Y-67070000D02*
X80690000Y-67070000D01*
%TO.N,/TX1_PIC_RX_ESP*%
X63630000Y-68460000D02*
X65090000Y-69920000D01*
X66180000Y-57790000D02*
X63630000Y-60340000D01*
X65090000Y-69920000D02*
X66120000Y-69920000D01*
X66180000Y-57670000D02*
X66180000Y-57790000D01*
X63630000Y-60340000D02*
X63630000Y-68460000D01*
D29*
X66450000Y-69590000D02*
X66120000Y-69920000D01*
D28*
%TO.N,/RX1_PIC_TX_ESP*%
X65090000Y-61060000D02*
X65090000Y-65580000D01*
X68870000Y-57280000D02*
X65090000Y-61060000D01*
X74740000Y-48170000D02*
X67830000Y-48170000D01*
X67830000Y-48170000D02*
X65850000Y-50150000D01*
X65850000Y-53800000D02*
X68870000Y-56820000D01*
X74740000Y-48170000D02*
X77270000Y-48170000D01*
X65850000Y-50150000D02*
X65850000Y-53800000D01*
X77270000Y-48170000D02*
X78150000Y-49050000D01*
X65090000Y-65580000D02*
X67000000Y-67490000D01*
X68870000Y-56820000D02*
X68870000Y-57280000D01*
D27*
%TO.N,GND*%
X53800000Y-72400000D02*
X53800000Y-62500000D01*
%TD*%
%TA.AperFunction,Conductor*%
%TO.N,GND*%
G36*
X39121364Y-45920185D02*
G01*
X39167119Y-45972989D01*
X39177063Y-46042147D01*
X39169187Y-46059393D01*
X39169187Y-46085000D01*
X39169187Y-52680714D01*
X43397553Y-52680714D01*
X43397553Y-51410000D01*
X43655052Y-51410000D01*
X43674812Y-51661072D01*
X43733603Y-51905956D01*
X43829980Y-52138631D01*
X43961568Y-52353362D01*
X43962266Y-52354179D01*
X44860000Y-51456446D01*
X44860000Y-51462661D01*
X44887259Y-51564394D01*
X44939920Y-51655606D01*
X45014394Y-51730080D01*
X45105606Y-51782741D01*
X45207339Y-51810000D01*
X45213553Y-51810000D01*
X44315819Y-52707732D01*
X44315819Y-52707733D01*
X44316634Y-52708429D01*
X44531368Y-52840019D01*
X44764043Y-52936396D01*
X45008927Y-52995187D01*
X45260000Y-53014947D01*
X45511072Y-52995187D01*
X45755956Y-52936396D01*
X45988631Y-52840019D01*
X46203361Y-52708432D01*
X46203363Y-52708430D01*
X46204180Y-52707732D01*
X45306447Y-51810000D01*
X45312661Y-51810000D01*
X45414394Y-51782741D01*
X45505606Y-51730080D01*
X45580080Y-51655606D01*
X45632741Y-51564394D01*
X45660000Y-51462661D01*
X45660000Y-51456447D01*
X46557732Y-52354180D01*
X46558430Y-52353363D01*
X46558432Y-52353361D01*
X46690019Y-52138631D01*
X46786396Y-51905956D01*
X46845187Y-51661072D01*
X46864947Y-51410000D01*
X50055052Y-51410000D01*
X50074812Y-51661072D01*
X50133603Y-51905956D01*
X50229980Y-52138631D01*
X50361568Y-52353362D01*
X50362266Y-52354179D01*
X51260000Y-51456446D01*
X51260000Y-51462661D01*
X51287259Y-51564394D01*
X51339920Y-51655606D01*
X51414394Y-51730080D01*
X51505606Y-51782741D01*
X51607339Y-51810000D01*
X51613553Y-51810000D01*
X50715819Y-52707732D01*
X50715819Y-52707733D01*
X50716634Y-52708429D01*
X50931368Y-52840019D01*
X51164043Y-52936396D01*
X51408927Y-52995187D01*
X51660000Y-53014947D01*
X51911072Y-52995187D01*
X52155956Y-52936396D01*
X52388631Y-52840019D01*
X52603361Y-52708432D01*
X52603363Y-52708430D01*
X52604180Y-52707732D01*
X51706447Y-51810000D01*
X51712661Y-51810000D01*
X51814394Y-51782741D01*
X51905606Y-51730080D01*
X51980080Y-51655606D01*
X52032741Y-51564394D01*
X52060000Y-51462661D01*
X52060000Y-51456448D01*
X52957732Y-52354180D01*
X52958430Y-52353363D01*
X52958432Y-52353361D01*
X53090019Y-52138631D01*
X53186396Y-51905956D01*
X53245187Y-51661072D01*
X53264947Y-51410000D01*
X53245187Y-51158927D01*
X53186396Y-50914043D01*
X53090019Y-50681368D01*
X52958429Y-50466634D01*
X52957733Y-50465819D01*
X52957732Y-50465819D01*
X52060000Y-51363551D01*
X52060000Y-51357339D01*
X52032741Y-51255606D01*
X51980080Y-51164394D01*
X51905606Y-51089920D01*
X51814394Y-51037259D01*
X51712661Y-51010000D01*
X51706448Y-51010000D01*
X52576445Y-50140000D01*
X54894564Y-50140000D01*
X54908304Y-50349642D01*
X54914287Y-50440918D01*
X54914288Y-50440930D01*
X54973118Y-50736683D01*
X54973122Y-50736698D01*
X55070053Y-51022247D01*
X55070062Y-51022268D01*
X55203431Y-51292713D01*
X55203435Y-51292720D01*
X55370973Y-51543459D01*
X55569810Y-51770189D01*
X55796540Y-51969026D01*
X56047279Y-52136564D01*
X56047286Y-52136568D01*
X56317731Y-52269937D01*
X56317736Y-52269939D01*
X56317748Y-52269945D01*
X56603309Y-52366880D01*
X56803251Y-52406651D01*
X56899069Y-52425711D01*
X56899070Y-52425711D01*
X56899080Y-52425713D01*
X57200000Y-52445436D01*
X57500920Y-52425713D01*
X57796691Y-52366880D01*
X58082252Y-52269945D01*
X58352718Y-52136566D01*
X58603461Y-51969025D01*
X58830189Y-51770189D01*
X59029025Y-51543461D01*
X59196566Y-51292718D01*
X59329945Y-51022252D01*
X59426880Y-50736691D01*
X59485713Y-50440920D01*
X59505436Y-50140000D01*
X59485713Y-49839080D01*
X59426880Y-49543309D01*
X59329945Y-49257748D01*
X59327644Y-49253083D01*
X59196568Y-48987286D01*
X59196564Y-48987279D01*
X59029026Y-48736540D01*
X58830189Y-48509810D01*
X58603459Y-48310973D01*
X58352720Y-48143435D01*
X58352713Y-48143431D01*
X58082268Y-48010062D01*
X58082247Y-48010053D01*
X57796698Y-47913122D01*
X57796692Y-47913120D01*
X57796691Y-47913120D01*
X57796689Y-47913119D01*
X57796683Y-47913118D01*
X57500930Y-47854288D01*
X57500921Y-47854287D01*
X57500920Y-47854287D01*
X57200000Y-47834564D01*
X56899080Y-47854287D01*
X56899079Y-47854287D01*
X56899069Y-47854288D01*
X56603316Y-47913118D01*
X56603301Y-47913122D01*
X56317752Y-48010053D01*
X56317731Y-48010062D01*
X56047286Y-48143431D01*
X56047279Y-48143435D01*
X55796540Y-48310973D01*
X55569810Y-48509810D01*
X55370973Y-48736540D01*
X55203435Y-48987279D01*
X55203431Y-48987286D01*
X55070062Y-49257731D01*
X55070053Y-49257752D01*
X54973122Y-49543301D01*
X54973118Y-49543316D01*
X54914288Y-49839069D01*
X54914287Y-49839079D01*
X54914287Y-49839080D01*
X54894564Y-50140000D01*
X52576445Y-50140000D01*
X52604179Y-50112266D01*
X52603362Y-50111568D01*
X52388631Y-49979980D01*
X52155956Y-49883603D01*
X51911072Y-49824812D01*
X51660000Y-49805052D01*
X51408927Y-49824812D01*
X51164043Y-49883603D01*
X50931368Y-49979980D01*
X50716637Y-50111567D01*
X50715819Y-50112266D01*
X51613553Y-51010000D01*
X51607339Y-51010000D01*
X51505606Y-51037259D01*
X51414394Y-51089920D01*
X51339920Y-51164394D01*
X51287259Y-51255606D01*
X51260000Y-51357339D01*
X51260000Y-51363553D01*
X50362266Y-50465819D01*
X50361567Y-50466637D01*
X50229980Y-50681368D01*
X50133603Y-50914043D01*
X50074812Y-51158927D01*
X50055052Y-51410000D01*
X46864947Y-51410000D01*
X46845187Y-51158927D01*
X46786396Y-50914043D01*
X46690019Y-50681368D01*
X46558429Y-50466634D01*
X46557733Y-50465819D01*
X46557732Y-50465819D01*
X45660000Y-51363551D01*
X45660000Y-51357339D01*
X45632741Y-51255606D01*
X45580080Y-51164394D01*
X45505606Y-51089920D01*
X45414394Y-51037259D01*
X45312661Y-51010000D01*
X45306448Y-51010000D01*
X46204179Y-50112266D01*
X46203362Y-50111568D01*
X45988631Y-49979980D01*
X45755956Y-49883603D01*
X45511072Y-49824812D01*
X45260000Y-49805052D01*
X45008927Y-49824812D01*
X44764043Y-49883603D01*
X44531368Y-49979980D01*
X44316637Y-50111567D01*
X44315819Y-50112266D01*
X45213553Y-51010000D01*
X45207339Y-51010000D01*
X45105606Y-51037259D01*
X45014394Y-51089920D01*
X44939920Y-51164394D01*
X44887259Y-51255606D01*
X44860000Y-51357339D01*
X44860000Y-51363553D01*
X43962266Y-50465819D01*
X43961567Y-50466637D01*
X43829980Y-50681368D01*
X43733603Y-50914043D01*
X43674812Y-51158927D01*
X43655052Y-51410000D01*
X43397553Y-51410000D01*
X43397553Y-46062402D01*
X43391249Y-46050858D01*
X43396233Y-45981166D01*
X43438105Y-45925233D01*
X43503569Y-45900816D01*
X43512415Y-45900500D01*
X43841373Y-45900500D01*
X43908412Y-45920185D01*
X43954167Y-45972989D01*
X43964111Y-46042147D01*
X43947100Y-46089290D01*
X43829533Y-46281140D01*
X43733126Y-46513889D01*
X43674317Y-46758848D01*
X43654551Y-47010000D01*
X43674317Y-47261151D01*
X43733126Y-47506110D01*
X43829533Y-47738859D01*
X43961160Y-47953653D01*
X43961161Y-47953656D01*
X43997855Y-47996619D01*
X44124776Y-48145224D01*
X44264586Y-48264633D01*
X44316343Y-48308838D01*
X44316346Y-48308839D01*
X44531140Y-48440466D01*
X44717847Y-48517802D01*
X44763889Y-48536873D01*
X45008852Y-48595683D01*
X45260000Y-48615449D01*
X45511148Y-48595683D01*
X45756111Y-48536873D01*
X45988859Y-48440466D01*
X46203659Y-48308836D01*
X46395224Y-48145224D01*
X46558836Y-47953659D01*
X46690466Y-47738859D01*
X46786873Y-47506111D01*
X46845683Y-47261148D01*
X46865449Y-47010000D01*
X46845683Y-46758852D01*
X46786873Y-46513889D01*
X46766399Y-46464461D01*
X46690466Y-46281140D01*
X46572900Y-46089290D01*
X46554655Y-46021844D01*
X46575771Y-45955242D01*
X46629543Y-45910628D01*
X46678627Y-45900500D01*
X50241373Y-45900500D01*
X50308412Y-45920185D01*
X50354167Y-45972989D01*
X50364111Y-46042147D01*
X50347100Y-46089290D01*
X50229533Y-46281140D01*
X50133126Y-46513889D01*
X50074317Y-46758848D01*
X50054551Y-47010000D01*
X50074317Y-47261151D01*
X50133126Y-47506110D01*
X50229533Y-47738859D01*
X50361160Y-47953653D01*
X50361161Y-47953656D01*
X50397855Y-47996619D01*
X50524776Y-48145224D01*
X50664586Y-48264633D01*
X50716343Y-48308838D01*
X50716346Y-48308839D01*
X50931140Y-48440466D01*
X51117847Y-48517802D01*
X51163889Y-48536873D01*
X51408852Y-48595683D01*
X51660000Y-48615449D01*
X51911148Y-48595683D01*
X52156111Y-48536873D01*
X52388859Y-48440466D01*
X52603659Y-48308836D01*
X52795224Y-48145224D01*
X52958836Y-47953659D01*
X53090466Y-47738859D01*
X53186873Y-47506111D01*
X53245683Y-47261148D01*
X53265449Y-47010000D01*
X53245683Y-46758852D01*
X53186873Y-46513889D01*
X53166399Y-46464461D01*
X53090466Y-46281140D01*
X52972900Y-46089290D01*
X52954655Y-46021844D01*
X52975771Y-45955242D01*
X53029543Y-45910628D01*
X53078627Y-45900500D01*
X66076608Y-45900500D01*
X66143647Y-45920185D01*
X66189402Y-45972989D01*
X66199346Y-46042147D01*
X66170321Y-46105703D01*
X66155275Y-46120352D01*
X66152212Y-46122865D01*
X61619009Y-50656069D01*
X61557686Y-50689554D01*
X61554115Y-50690276D01*
X61500068Y-50700380D01*
X61500060Y-50700382D01*
X61292601Y-50780751D01*
X61292595Y-50780754D01*
X61103439Y-50897874D01*
X61103437Y-50897876D01*
X60939020Y-51047761D01*
X60804943Y-51225308D01*
X60804938Y-51225316D01*
X60705775Y-51424461D01*
X60705769Y-51424476D01*
X60644885Y-51638462D01*
X60644884Y-51638464D01*
X60624357Y-51859999D01*
X60624357Y-51860000D01*
X60644884Y-52081535D01*
X60644885Y-52081537D01*
X60705769Y-52295523D01*
X60705775Y-52295538D01*
X60804938Y-52494683D01*
X60807959Y-52499561D01*
X60806805Y-52500275D01*
X60829145Y-52559389D01*
X60829500Y-52568769D01*
X60829500Y-53454217D01*
X60809815Y-53521256D01*
X60793181Y-53541898D01*
X55762220Y-58572859D01*
X55762218Y-58572861D01*
X55692538Y-58642540D01*
X55622859Y-58712219D01*
X55534545Y-58844391D01*
X55480933Y-58889196D01*
X55431445Y-58899500D01*
X55352130Y-58899500D01*
X55352123Y-58899501D01*
X55292516Y-58905908D01*
X55157671Y-58956202D01*
X55157664Y-58956206D01*
X55042455Y-59042452D01*
X55042452Y-59042455D01*
X54956206Y-59157664D01*
X54956202Y-59157671D01*
X54905908Y-59292517D01*
X54899501Y-59352116D01*
X54899500Y-59352135D01*
X54899500Y-61447870D01*
X54899501Y-61447876D01*
X54905908Y-61507483D01*
X54956202Y-61642328D01*
X54956206Y-61642335D01*
X55042452Y-61757544D01*
X55042455Y-61757547D01*
X55157664Y-61843793D01*
X55157671Y-61843797D01*
X55292517Y-61894091D01*
X55300062Y-61895874D01*
X55299523Y-61898151D01*
X55353287Y-61920408D01*
X55393147Y-61977793D01*
X55399500Y-62016975D01*
X55399500Y-72991967D01*
X55379815Y-73059006D01*
X55327011Y-73104761D01*
X55318833Y-73108149D01*
X55189994Y-73156202D01*
X55189987Y-73156206D01*
X55074778Y-73242452D01*
X55074775Y-73242455D01*
X54988529Y-73357664D01*
X54988525Y-73357671D01*
X54938231Y-73492517D01*
X54931824Y-73552116D01*
X54931824Y-73552123D01*
X54931823Y-73552135D01*
X54931823Y-75647870D01*
X54931824Y-75647876D01*
X54938231Y-75707483D01*
X54988525Y-75842328D01*
X54988529Y-75842335D01*
X55074775Y-75957544D01*
X55074778Y-75957547D01*
X55189987Y-76043793D01*
X55189994Y-76043797D01*
X55324840Y-76094091D01*
X55332385Y-76095874D01*
X55331846Y-76098151D01*
X55385610Y-76120408D01*
X55425470Y-76177793D01*
X55431823Y-76216975D01*
X55431823Y-76300864D01*
X55431823Y-76300866D01*
X55431822Y-76300866D01*
X55470270Y-76494152D01*
X55470273Y-76494162D01*
X55545687Y-76676230D01*
X55545694Y-76676243D01*
X55655183Y-76840104D01*
X55655186Y-76840108D01*
X55798860Y-76983782D01*
X55798882Y-76983802D01*
X57103181Y-78288101D01*
X57136666Y-78349424D01*
X57139500Y-78375782D01*
X57139500Y-79438543D01*
X57151824Y-79500497D01*
X57151824Y-79500499D01*
X57169742Y-79590579D01*
X57177947Y-79631829D01*
X57177949Y-79631837D01*
X57253364Y-79813907D01*
X57253371Y-79813920D01*
X57362859Y-79977780D01*
X57362860Y-79977781D01*
X57362861Y-79977782D01*
X57502218Y-80117139D01*
X57502219Y-80117139D01*
X57509286Y-80124206D01*
X57509285Y-80124206D01*
X57509289Y-80124209D01*
X58815400Y-81430321D01*
X58846985Y-81484067D01*
X58895768Y-81655519D01*
X58895775Y-81655537D01*
X58994936Y-81854679D01*
X58994943Y-81854691D01*
X59129020Y-82032238D01*
X59293437Y-82182123D01*
X59293439Y-82182125D01*
X59482595Y-82299245D01*
X59482596Y-82299245D01*
X59482599Y-82299247D01*
X59690060Y-82379618D01*
X59908757Y-82420500D01*
X59908759Y-82420500D01*
X60131241Y-82420500D01*
X60131243Y-82420500D01*
X60349940Y-82379618D01*
X60557401Y-82299247D01*
X60746562Y-82182124D01*
X60910981Y-82032236D01*
X61045058Y-81854689D01*
X61144229Y-81655528D01*
X61205115Y-81441536D01*
X61225643Y-81220000D01*
X61205115Y-80998464D01*
X61144229Y-80784472D01*
X61144224Y-80784461D01*
X61045061Y-80585316D01*
X61045056Y-80585308D01*
X60910979Y-80407761D01*
X60746562Y-80257876D01*
X60746560Y-80257874D01*
X60557404Y-80140754D01*
X60557398Y-80140751D01*
X60415536Y-80085794D01*
X60349940Y-80060382D01*
X60349936Y-80060381D01*
X60349931Y-80060380D01*
X60295884Y-80050276D01*
X60233604Y-80018607D01*
X60230990Y-80016069D01*
X59176819Y-78961898D01*
X59143334Y-78900575D01*
X59140500Y-78874217D01*
X59140500Y-77811456D01*
X59102052Y-77618170D01*
X59102051Y-77618169D01*
X59102051Y-77618165D01*
X59090290Y-77589772D01*
X59079961Y-77564834D01*
X59028511Y-77440621D01*
X59026633Y-77436088D01*
X59026628Y-77436079D01*
X58917139Y-77272218D01*
X58917136Y-77272214D01*
X58774686Y-77129764D01*
X58774655Y-77129735D01*
X57783849Y-76138929D01*
X57750364Y-76077606D01*
X57755348Y-76007914D01*
X57783849Y-75963567D01*
X57789866Y-75957549D01*
X57789867Y-75957547D01*
X57789869Y-75957546D01*
X57876119Y-75842331D01*
X57926414Y-75707483D01*
X57932823Y-75647873D01*
X57932822Y-74599994D01*
X59927182Y-74599994D01*
X59927182Y-74600005D01*
X59947708Y-74847729D01*
X59947710Y-74847738D01*
X60008735Y-75088717D01*
X60108589Y-75316364D01*
X60208887Y-75469882D01*
X60949360Y-74729409D01*
X60966398Y-74792993D01*
X61032224Y-74907007D01*
X61125316Y-75000099D01*
X61239330Y-75065925D01*
X61302913Y-75082962D01*
X60562265Y-75823609D01*
X60609091Y-75860055D01*
X60609093Y-75860056D01*
X60827708Y-75978364D01*
X60827719Y-75978369D01*
X61062829Y-76059083D01*
X61308030Y-76100000D01*
X61556616Y-76100000D01*
X61801816Y-76059083D01*
X62036926Y-75978369D01*
X62036937Y-75978364D01*
X62255551Y-75860057D01*
X62255554Y-75860055D01*
X62302379Y-75823609D01*
X61561732Y-75082962D01*
X61625316Y-75065925D01*
X61739330Y-75000099D01*
X61832422Y-74907007D01*
X61898248Y-74792993D01*
X61915285Y-74729410D01*
X62655757Y-75469882D01*
X62756054Y-75316369D01*
X62855910Y-75088717D01*
X62916935Y-74847738D01*
X62916937Y-74847729D01*
X62937464Y-74600005D01*
X62937464Y-74599994D01*
X62916937Y-74352270D01*
X62916935Y-74352261D01*
X62855910Y-74111282D01*
X62756054Y-73883630D01*
X62655757Y-73730116D01*
X61915285Y-74470589D01*
X61898248Y-74407007D01*
X61832422Y-74292993D01*
X61739330Y-74199901D01*
X61625316Y-74134075D01*
X61561733Y-74117037D01*
X62302380Y-73376390D01*
X62302379Y-73376389D01*
X62255552Y-73339943D01*
X62036937Y-73221635D01*
X62036926Y-73221630D01*
X61801816Y-73140916D01*
X61556616Y-73100000D01*
X61308030Y-73100000D01*
X61062829Y-73140916D01*
X60827719Y-73221630D01*
X60827713Y-73221632D01*
X60609084Y-73339949D01*
X60562265Y-73376388D01*
X60562265Y-73376390D01*
X61302913Y-74117037D01*
X61239330Y-74134075D01*
X61125316Y-74199901D01*
X61032224Y-74292993D01*
X60966398Y-74407007D01*
X60949360Y-74470589D01*
X60208887Y-73730116D01*
X60108590Y-73883632D01*
X60008735Y-74111282D01*
X59947710Y-74352261D01*
X59947708Y-74352270D01*
X59927182Y-74599994D01*
X57932822Y-74599994D01*
X57932822Y-73552128D01*
X57926414Y-73492517D01*
X57910825Y-73450722D01*
X57876120Y-73357671D01*
X57876116Y-73357664D01*
X57789870Y-73242455D01*
X57789867Y-73242452D01*
X57674658Y-73156206D01*
X57674651Y-73156202D01*
X57539805Y-73105908D01*
X57539806Y-73105908D01*
X57511245Y-73102838D01*
X57446693Y-73076100D01*
X57406845Y-73018708D01*
X57400500Y-72979549D01*
X57400500Y-62016976D01*
X57420185Y-61949937D01*
X57472989Y-61904182D01*
X57500135Y-61896736D01*
X57499932Y-61895876D01*
X57507479Y-61894092D01*
X57507481Y-61894091D01*
X57507483Y-61894091D01*
X57642331Y-61843796D01*
X57757546Y-61757546D01*
X57843796Y-61642331D01*
X57894091Y-61507483D01*
X57900500Y-61447873D01*
X57900499Y-59352128D01*
X57900498Y-59352116D01*
X57900498Y-59352112D01*
X57898327Y-59331920D01*
X57910732Y-59263160D01*
X57933932Y-59230986D01*
X62607140Y-54557781D01*
X62716632Y-54393914D01*
X62792052Y-54211835D01*
X62830500Y-54018540D01*
X62830500Y-53821459D01*
X62830500Y-52568769D01*
X62850185Y-52501730D01*
X62854761Y-52495167D01*
X62855053Y-52494694D01*
X62855058Y-52494689D01*
X62954229Y-52295528D01*
X63003013Y-52124064D01*
X63034596Y-52070322D01*
X64737820Y-50367098D01*
X64799142Y-50333615D01*
X64868834Y-50338599D01*
X64924767Y-50380471D01*
X64949184Y-50445935D01*
X64949500Y-50454781D01*
X64949500Y-53888696D01*
X64984103Y-54062659D01*
X64984104Y-54062663D01*
X64984105Y-54062666D01*
X64997098Y-54094034D01*
X64997099Y-54094036D01*
X65051984Y-54226542D01*
X65051989Y-54226551D01*
X65066892Y-54248854D01*
X65066894Y-54248857D01*
X65066896Y-54248859D01*
X65122405Y-54331935D01*
X65150537Y-54374038D01*
X67738818Y-56962319D01*
X67772303Y-57023642D01*
X67767319Y-57093334D01*
X67738818Y-57137681D01*
X67528254Y-57348245D01*
X67466931Y-57381730D01*
X67397239Y-57376746D01*
X67341306Y-57334874D01*
X67321309Y-57294504D01*
X67304229Y-57234472D01*
X67274521Y-57174810D01*
X67205061Y-57035316D01*
X67205056Y-57035308D01*
X67070979Y-56857761D01*
X66906562Y-56707876D01*
X66906560Y-56707874D01*
X66717404Y-56590754D01*
X66717398Y-56590752D01*
X66509940Y-56510382D01*
X66291243Y-56469500D01*
X66068757Y-56469500D01*
X65850060Y-56510382D01*
X65728866Y-56557333D01*
X65642601Y-56590752D01*
X65642595Y-56590754D01*
X65453439Y-56707874D01*
X65453437Y-56707876D01*
X65289020Y-56857761D01*
X65154943Y-57035308D01*
X65154938Y-57035316D01*
X65055775Y-57234461D01*
X65055769Y-57234476D01*
X64994885Y-57448462D01*
X64994884Y-57448464D01*
X64974357Y-57669999D01*
X64974357Y-57670780D01*
X64974251Y-57671140D01*
X64973828Y-57675708D01*
X64972934Y-57675625D01*
X64954672Y-57737819D01*
X64938038Y-57758461D01*
X62940222Y-59756276D01*
X62878899Y-59789761D01*
X62809207Y-59784777D01*
X62753274Y-59742905D01*
X62738985Y-59718405D01*
X62723731Y-59683630D01*
X62623434Y-59530116D01*
X61882962Y-60270589D01*
X61865925Y-60207007D01*
X61800099Y-60092993D01*
X61707007Y-59999901D01*
X61592993Y-59934075D01*
X61529410Y-59917037D01*
X62270057Y-59176390D01*
X62270056Y-59176389D01*
X62223229Y-59139943D01*
X62004614Y-59021635D01*
X62004603Y-59021630D01*
X61769493Y-58940916D01*
X61524293Y-58900000D01*
X61275707Y-58900000D01*
X61030506Y-58940916D01*
X60795396Y-59021630D01*
X60795390Y-59021632D01*
X60576761Y-59139949D01*
X60529942Y-59176388D01*
X60529942Y-59176390D01*
X61270590Y-59917037D01*
X61207007Y-59934075D01*
X61092993Y-59999901D01*
X60999901Y-60092993D01*
X60934075Y-60207007D01*
X60917037Y-60270589D01*
X60176564Y-59530116D01*
X60076267Y-59683632D01*
X59976412Y-59911282D01*
X59915387Y-60152261D01*
X59915385Y-60152270D01*
X59894859Y-60399994D01*
X59894859Y-60400005D01*
X59915385Y-60647729D01*
X59915387Y-60647738D01*
X59976412Y-60888717D01*
X60076266Y-61116364D01*
X60176564Y-61269882D01*
X60917037Y-60529409D01*
X60934075Y-60592993D01*
X60999901Y-60707007D01*
X61092993Y-60800099D01*
X61207007Y-60865925D01*
X61270590Y-60882962D01*
X60529942Y-61623609D01*
X60576768Y-61660055D01*
X60576770Y-61660056D01*
X60795385Y-61778364D01*
X60795396Y-61778369D01*
X61030506Y-61859083D01*
X61275707Y-61900000D01*
X61524293Y-61900000D01*
X61769493Y-61859083D01*
X62004603Y-61778369D01*
X62004614Y-61778364D01*
X62223228Y-61660057D01*
X62223231Y-61660055D01*
X62270056Y-61623609D01*
X61529409Y-60882962D01*
X61592993Y-60865925D01*
X61707007Y-60800099D01*
X61800099Y-60707007D01*
X61865925Y-60592993D01*
X61882962Y-60529410D01*
X62634282Y-61280730D01*
X62661420Y-61285732D01*
X62712378Y-61333534D01*
X62729500Y-61396407D01*
X62729500Y-68548696D01*
X62764103Y-68722659D01*
X62764106Y-68722669D01*
X62779728Y-68760383D01*
X62831986Y-68886545D01*
X62831989Y-68886551D01*
X62844691Y-68905560D01*
X62844693Y-68905563D01*
X62844695Y-68905565D01*
X62879647Y-68957874D01*
X62930537Y-69034038D01*
X64515959Y-70619460D01*
X64515962Y-70619462D01*
X64515964Y-70619464D01*
X64589707Y-70668737D01*
X64589709Y-70668739D01*
X64634035Y-70698356D01*
X64663453Y-70718013D01*
X64697789Y-70732235D01*
X64697790Y-70732236D01*
X64697791Y-70732236D01*
X64827334Y-70785895D01*
X65001303Y-70820499D01*
X65001307Y-70820500D01*
X65001308Y-70820500D01*
X65001309Y-70820500D01*
X65277802Y-70820500D01*
X65344841Y-70840185D01*
X65361336Y-70852859D01*
X65393438Y-70882124D01*
X65393440Y-70882125D01*
X65393441Y-70882126D01*
X65582595Y-70999245D01*
X65582596Y-70999245D01*
X65582599Y-70999247D01*
X65790060Y-71079618D01*
X66008757Y-71120500D01*
X66008759Y-71120500D01*
X66231241Y-71120500D01*
X66231243Y-71120500D01*
X66449940Y-71079618D01*
X66657401Y-70999247D01*
X66846562Y-70882124D01*
X67010981Y-70732236D01*
X67145058Y-70554689D01*
X67244229Y-70355528D01*
X67305115Y-70141536D01*
X67325643Y-69920000D01*
X67319873Y-69857736D01*
X67305115Y-69698464D01*
X67305114Y-69698462D01*
X67288186Y-69638967D01*
X67244229Y-69484472D01*
X67230823Y-69457549D01*
X67145061Y-69285316D01*
X67145056Y-69285308D01*
X67010979Y-69107761D01*
X66846562Y-68957876D01*
X66846560Y-68957874D01*
X66773717Y-68912772D01*
X66727081Y-68860744D01*
X66715977Y-68791763D01*
X66743930Y-68727728D01*
X66802065Y-68688972D01*
X66861779Y-68685457D01*
X66888757Y-68690500D01*
X66888758Y-68690500D01*
X67111241Y-68690500D01*
X67111243Y-68690500D01*
X67329940Y-68649618D01*
X67537401Y-68569247D01*
X67726562Y-68452124D01*
X67866282Y-68324751D01*
X67890979Y-68302238D01*
X67893533Y-68298857D01*
X68025058Y-68124689D01*
X68124229Y-67925528D01*
X68185115Y-67711536D01*
X68205643Y-67490000D01*
X68185115Y-67268464D01*
X68124229Y-67054472D01*
X68124224Y-67054461D01*
X68025061Y-66855316D01*
X68025056Y-66855308D01*
X67890979Y-66677761D01*
X67726562Y-66527876D01*
X67726560Y-66527874D01*
X67537404Y-66410754D01*
X67537398Y-66410752D01*
X67329940Y-66330382D01*
X67111243Y-66289500D01*
X67111241Y-66289500D01*
X67105608Y-66288447D01*
X67105942Y-66286657D01*
X67048727Y-66263931D01*
X67037435Y-66253935D01*
X66026819Y-65243319D01*
X65993334Y-65181996D01*
X65990500Y-65155638D01*
X65990500Y-63822613D01*
X66010185Y-63755574D01*
X66062989Y-63709819D01*
X66132147Y-63699875D01*
X66195703Y-63728900D01*
X66206138Y-63739076D01*
X66209019Y-63742237D01*
X66373437Y-63892123D01*
X66373439Y-63892125D01*
X66562595Y-64009245D01*
X66562596Y-64009245D01*
X66562599Y-64009247D01*
X66770060Y-64089618D01*
X66988757Y-64130500D01*
X66988759Y-64130500D01*
X67211241Y-64130500D01*
X67211243Y-64130500D01*
X67429940Y-64089618D01*
X67637401Y-64009247D01*
X67826562Y-63892124D01*
X67858660Y-63862862D01*
X67921464Y-63832246D01*
X67942198Y-63830500D01*
X71935638Y-63830500D01*
X72002677Y-63850185D01*
X72023319Y-63866819D01*
X75925966Y-67769466D01*
X75985036Y-67808933D01*
X75985039Y-67808936D01*
X76069315Y-67865248D01*
X76073453Y-67868013D01*
X76155393Y-67901953D01*
X76237334Y-67935895D01*
X76411303Y-67970499D01*
X76411307Y-67970500D01*
X76411308Y-67970500D01*
X76411309Y-67970500D01*
X79847802Y-67970500D01*
X79914841Y-67990185D01*
X79931336Y-68002859D01*
X79963438Y-68032124D01*
X79963440Y-68032125D01*
X79963441Y-68032126D01*
X80152595Y-68149245D01*
X80152596Y-68149245D01*
X80152599Y-68149247D01*
X80360060Y-68229618D01*
X80578757Y-68270500D01*
X80578759Y-68270500D01*
X80801241Y-68270500D01*
X80801243Y-68270500D01*
X81019940Y-68229618D01*
X81227401Y-68149247D01*
X81416562Y-68032124D01*
X81566032Y-67895863D01*
X81628833Y-67865248D01*
X81698220Y-67873445D01*
X81752161Y-67917855D01*
X81753377Y-67919681D01*
X81802240Y-67994472D01*
X81970599Y-68177357D01*
X81970609Y-68177366D01*
X82053839Y-68242147D01*
X82094652Y-68298857D01*
X82098327Y-68368630D01*
X82063695Y-68429313D01*
X82053839Y-68437853D01*
X81970609Y-68502633D01*
X81970599Y-68502642D01*
X81802240Y-68685527D01*
X81666276Y-68893637D01*
X81566421Y-69121284D01*
X81505396Y-69362267D01*
X81484869Y-69609994D01*
X81484869Y-69610005D01*
X81505396Y-69857732D01*
X81566421Y-70098715D01*
X81666276Y-70326362D01*
X81802240Y-70534472D01*
X81970599Y-70717357D01*
X81970609Y-70717366D01*
X82103114Y-70820499D01*
X82166771Y-70870045D01*
X82385396Y-70988359D01*
X82385399Y-70988360D01*
X82620508Y-71069073D01*
X82620510Y-71069073D01*
X82620512Y-71069074D01*
X82865707Y-71109990D01*
X82865708Y-71109990D01*
X83114292Y-71109990D01*
X83114293Y-71109990D01*
X83359488Y-71069074D01*
X83594604Y-70988359D01*
X83813229Y-70870045D01*
X84009397Y-70717361D01*
X84177760Y-70534471D01*
X84313723Y-70326363D01*
X84413579Y-70098715D01*
X84474603Y-69857736D01*
X84492731Y-69638962D01*
X84495131Y-69610005D01*
X84495131Y-69609994D01*
X84474603Y-69362267D01*
X84474603Y-69362264D01*
X84413579Y-69121285D01*
X84313723Y-68893637D01*
X84181007Y-68690499D01*
X84177759Y-68685527D01*
X84009400Y-68502642D01*
X84009390Y-68502633D01*
X83926161Y-68437853D01*
X83885348Y-68381143D01*
X83881673Y-68311370D01*
X83916305Y-68250687D01*
X83926161Y-68242147D01*
X84005378Y-68180489D01*
X85144103Y-68180489D01*
X86958490Y-68180489D01*
X86958490Y-58868763D01*
X85144103Y-58868763D01*
X85144103Y-68180489D01*
X84005378Y-68180489D01*
X84009397Y-68177361D01*
X84177760Y-67994471D01*
X84313723Y-67786363D01*
X84413579Y-67558715D01*
X84474603Y-67317736D01*
X84495131Y-67070000D01*
X84493844Y-67054472D01*
X84474603Y-66822267D01*
X84474603Y-66822264D01*
X84413579Y-66581285D01*
X84313723Y-66353637D01*
X84298530Y-66330382D01*
X84177759Y-66145527D01*
X84009400Y-65962642D01*
X84009390Y-65962633D01*
X83926161Y-65897853D01*
X83885348Y-65841143D01*
X83881673Y-65771370D01*
X83916305Y-65710687D01*
X83926161Y-65702147D01*
X83976502Y-65662963D01*
X84009397Y-65637361D01*
X84177760Y-65454471D01*
X84313723Y-65246363D01*
X84413579Y-65018715D01*
X84474603Y-64777736D01*
X84495131Y-64530000D01*
X84485631Y-64415357D01*
X84474603Y-64282267D01*
X84474603Y-64282264D01*
X84413579Y-64041285D01*
X84313723Y-63813637D01*
X84275789Y-63755574D01*
X84177759Y-63605527D01*
X84009400Y-63422642D01*
X84009395Y-63422637D01*
X83905847Y-63342042D01*
X83865034Y-63285331D01*
X83858248Y-63236506D01*
X83859691Y-63213244D01*
X83042848Y-62396400D01*
X83043504Y-62396400D01*
X83146865Y-62368705D01*
X83239536Y-62315201D01*
X83315201Y-62239536D01*
X83368705Y-62146865D01*
X83396400Y-62043504D01*
X83396400Y-62042847D01*
X84213066Y-62859513D01*
X84313281Y-62706125D01*
X84413104Y-62478550D01*
X84474107Y-62237657D01*
X84474109Y-62237646D01*
X84494629Y-61990005D01*
X84494629Y-61989994D01*
X84474109Y-61742353D01*
X84474107Y-61742342D01*
X84413104Y-61501449D01*
X84313283Y-61273879D01*
X84213066Y-61120485D01*
X83396400Y-61937151D01*
X83396400Y-61936496D01*
X83368705Y-61833135D01*
X83315201Y-61740464D01*
X83239536Y-61664799D01*
X83146865Y-61611295D01*
X83043504Y-61583600D01*
X83042847Y-61583600D01*
X83859691Y-60766753D01*
X83858247Y-60743494D01*
X83873740Y-60675364D01*
X83905843Y-60637960D01*
X84009397Y-60557361D01*
X84177760Y-60374471D01*
X84313723Y-60166363D01*
X84413579Y-59938715D01*
X84474603Y-59697736D01*
X84483726Y-59587631D01*
X84495131Y-59450005D01*
X84495131Y-59449994D01*
X84478618Y-59250719D01*
X84474603Y-59202264D01*
X84413579Y-58961285D01*
X84313723Y-58733637D01*
X84208684Y-58572862D01*
X84177759Y-58525527D01*
X84103985Y-58445388D01*
X84073062Y-58382734D01*
X84080922Y-58313308D01*
X84125069Y-58259152D01*
X84131243Y-58255362D01*
X84132759Y-58254226D01*
X84132761Y-58254226D01*
X84247976Y-58167976D01*
X84334226Y-58052761D01*
X84384521Y-57917913D01*
X84390930Y-57858303D01*
X84390929Y-57445813D01*
X84410613Y-57378777D01*
X84463417Y-57333022D01*
X84532576Y-57323078D01*
X84596132Y-57352103D01*
X84628485Y-57396005D01*
X84651495Y-57448462D01*
X84686534Y-57528342D01*
X84815281Y-57725404D01*
X84974707Y-57898588D01*
X84974710Y-57898590D01*
X84974713Y-57898593D01*
X85160455Y-58043162D01*
X85160462Y-58043166D01*
X85160464Y-58043168D01*
X85367485Y-58155202D01*
X85474510Y-58191944D01*
X85590119Y-58231633D01*
X85590121Y-58231633D01*
X85590123Y-58231634D01*
X85822304Y-58270378D01*
X85822305Y-58270378D01*
X86057695Y-58270378D01*
X86057696Y-58270378D01*
X86289877Y-58231634D01*
X86512515Y-58155202D01*
X86719536Y-58043168D01*
X86720991Y-58042036D01*
X86880465Y-57917912D01*
X86905293Y-57898588D01*
X87064719Y-57725404D01*
X87193466Y-57528342D01*
X87288022Y-57312777D01*
X87345808Y-57084588D01*
X87349891Y-57035311D01*
X87365246Y-56850006D01*
X87365246Y-56849993D01*
X87345809Y-56615419D01*
X87345808Y-56615416D01*
X87345808Y-56615412D01*
X87288022Y-56387223D01*
X87193466Y-56171658D01*
X87064719Y-55974596D01*
X86905293Y-55801412D01*
X86905288Y-55801408D01*
X86905286Y-55801406D01*
X86719544Y-55656837D01*
X86719533Y-55656830D01*
X86512521Y-55544801D01*
X86512518Y-55544800D01*
X86512515Y-55544798D01*
X86512509Y-55544796D01*
X86512507Y-55544795D01*
X86289880Y-55468366D01*
X86113668Y-55438962D01*
X86057696Y-55429622D01*
X85822304Y-55429622D01*
X85775867Y-55437370D01*
X85590119Y-55468366D01*
X85367492Y-55544795D01*
X85367478Y-55544801D01*
X85160466Y-55656830D01*
X85160455Y-55656837D01*
X84974713Y-55801406D01*
X84974710Y-55801409D01*
X84815281Y-55974595D01*
X84686533Y-56171659D01*
X84628485Y-56303995D01*
X84583528Y-56357480D01*
X84516792Y-56378170D01*
X84449465Y-56359495D01*
X84402921Y-56307385D01*
X84390929Y-56254184D01*
X84390929Y-55961699D01*
X84390928Y-55961693D01*
X84390927Y-55961686D01*
X84384521Y-55902087D01*
X84375342Y-55877478D01*
X84334227Y-55767241D01*
X84334223Y-55767234D01*
X84247977Y-55652025D01*
X84247974Y-55652022D01*
X84132765Y-55565776D01*
X84132758Y-55565772D01*
X83997912Y-55515478D01*
X83997913Y-55515478D01*
X83938313Y-55509071D01*
X83938311Y-55509070D01*
X83938303Y-55509070D01*
X83938294Y-55509070D01*
X82041699Y-55509070D01*
X82041693Y-55509071D01*
X81982086Y-55515478D01*
X81847241Y-55565772D01*
X81847234Y-55565776D01*
X81732025Y-55652022D01*
X81732022Y-55652025D01*
X81645776Y-55767234D01*
X81645772Y-55767241D01*
X81595478Y-55902087D01*
X81590829Y-55945333D01*
X81589071Y-55961693D01*
X81589070Y-55961705D01*
X81589070Y-57858300D01*
X81589071Y-57858306D01*
X81595478Y-57917913D01*
X81645772Y-58052758D01*
X81645776Y-58052765D01*
X81691186Y-58113424D01*
X81732024Y-58167976D01*
X81809846Y-58226234D01*
X81851717Y-58282167D01*
X81856701Y-58351859D01*
X81823216Y-58413182D01*
X81761892Y-58446666D01*
X81735535Y-58449500D01*
X73687031Y-58449500D01*
X73642237Y-58441127D01*
X73570102Y-58413182D01*
X73502456Y-58386976D01*
X73301976Y-58349500D01*
X73098024Y-58349500D01*
X72897544Y-58386976D01*
X72897541Y-58386976D01*
X72897541Y-58386977D01*
X72707364Y-58460651D01*
X72707357Y-58460655D01*
X72533960Y-58568017D01*
X72533958Y-58568019D01*
X72383237Y-58705418D01*
X72260327Y-58868178D01*
X72169422Y-59050739D01*
X72169417Y-59050752D01*
X72113602Y-59246917D01*
X72094785Y-59449999D01*
X72094785Y-59450000D01*
X72113602Y-59653082D01*
X72169417Y-59849247D01*
X72169422Y-59849260D01*
X72200306Y-59911282D01*
X72218935Y-59948695D01*
X72219699Y-59950228D01*
X72231960Y-60019013D01*
X72205087Y-60083508D01*
X72147611Y-60123236D01*
X72108699Y-60129500D01*
X68012198Y-60129500D01*
X67945159Y-60109815D01*
X67928663Y-60097140D01*
X67896562Y-60067876D01*
X67896559Y-60067874D01*
X67896558Y-60067873D01*
X67707396Y-59950749D01*
X67705015Y-59949564D01*
X67704078Y-59948695D01*
X67702527Y-59947735D01*
X67702714Y-59947431D01*
X67653780Y-59902059D01*
X67636362Y-59834395D01*
X67658291Y-59768056D01*
X67672605Y-59750892D01*
X69569463Y-57854036D01*
X69569464Y-57854035D01*
X69668013Y-57706547D01*
X69735894Y-57542666D01*
X69738744Y-57528342D01*
X69756458Y-57439285D01*
X69756458Y-57439283D01*
X69759793Y-57422521D01*
X69770500Y-57368692D01*
X69770500Y-57191308D01*
X69770500Y-56731309D01*
X69754327Y-56650000D01*
X69735895Y-56557334D01*
X69699512Y-56469500D01*
X69668013Y-56393453D01*
X69638575Y-56349397D01*
X69608936Y-56305039D01*
X69608936Y-56305038D01*
X69608933Y-56305036D01*
X69608237Y-56303995D01*
X69595895Y-56285523D01*
X69569466Y-56245966D01*
X66843500Y-53520000D01*
X80244551Y-53520000D01*
X80264317Y-53771151D01*
X80323126Y-54016110D01*
X80419533Y-54248859D01*
X80551160Y-54463653D01*
X80551161Y-54463656D01*
X80551164Y-54463659D01*
X80714776Y-54655224D01*
X80863066Y-54781875D01*
X80906343Y-54818838D01*
X80906346Y-54818839D01*
X81121140Y-54950466D01*
X81352737Y-55046396D01*
X81353889Y-55046873D01*
X81598852Y-55105683D01*
X81850000Y-55125449D01*
X82101148Y-55105683D01*
X82346111Y-55046873D01*
X82578859Y-54950466D01*
X82793659Y-54818836D01*
X82985224Y-54655224D01*
X83148836Y-54463659D01*
X83280466Y-54248859D01*
X83376873Y-54016111D01*
X83435683Y-53771148D01*
X83455449Y-53520000D01*
X84645052Y-53520000D01*
X84664812Y-53771072D01*
X84723603Y-54015956D01*
X84819980Y-54248631D01*
X84951568Y-54463362D01*
X84952266Y-54464179D01*
X85850000Y-53566446D01*
X85850000Y-53572661D01*
X85877259Y-53674394D01*
X85929920Y-53765606D01*
X86004394Y-53840080D01*
X86095606Y-53892741D01*
X86197339Y-53920000D01*
X86203553Y-53920000D01*
X85305819Y-54817732D01*
X85305819Y-54817733D01*
X85306634Y-54818429D01*
X85521368Y-54950019D01*
X85754043Y-55046396D01*
X85998927Y-55105187D01*
X86250000Y-55124947D01*
X86501072Y-55105187D01*
X86745956Y-55046396D01*
X86978631Y-54950019D01*
X87193361Y-54818432D01*
X87193363Y-54818430D01*
X87194180Y-54817732D01*
X86296447Y-53920000D01*
X86302661Y-53920000D01*
X86404394Y-53892741D01*
X86495606Y-53840080D01*
X86570080Y-53765606D01*
X86622741Y-53674394D01*
X86650000Y-53572661D01*
X86650000Y-53566448D01*
X87547732Y-54464180D01*
X87548430Y-54463363D01*
X87548432Y-54463361D01*
X87680019Y-54248631D01*
X87776396Y-54015956D01*
X87835187Y-53771072D01*
X87854947Y-53520000D01*
X87835187Y-53268927D01*
X87776396Y-53024043D01*
X87680019Y-52791368D01*
X87548429Y-52576634D01*
X87547733Y-52575819D01*
X87547732Y-52575819D01*
X86650000Y-53473551D01*
X86650000Y-53467339D01*
X86622741Y-53365606D01*
X86570080Y-53274394D01*
X86495606Y-53199920D01*
X86404394Y-53147259D01*
X86302661Y-53120000D01*
X86296448Y-53120000D01*
X87194179Y-52222266D01*
X87193362Y-52221568D01*
X86978631Y-52089980D01*
X86745956Y-51993603D01*
X86501072Y-51934812D01*
X86250000Y-51915052D01*
X85998927Y-51934812D01*
X85754043Y-51993603D01*
X85521368Y-52089980D01*
X85306637Y-52221567D01*
X85305819Y-52222266D01*
X86203553Y-53120000D01*
X86197339Y-53120000D01*
X86095606Y-53147259D01*
X86004394Y-53199920D01*
X85929920Y-53274394D01*
X85877259Y-53365606D01*
X85850000Y-53467339D01*
X85850000Y-53473553D01*
X84952266Y-52575819D01*
X84951567Y-52576637D01*
X84819980Y-52791368D01*
X84723603Y-53024043D01*
X84664812Y-53268927D01*
X84645052Y-53520000D01*
X83455449Y-53520000D01*
X83435683Y-53268852D01*
X83376873Y-53023889D01*
X83356061Y-52973643D01*
X83280466Y-52791140D01*
X83149017Y-52576637D01*
X83148838Y-52576345D01*
X83148838Y-52576343D01*
X83083869Y-52500275D01*
X82985224Y-52384776D01*
X82850765Y-52269937D01*
X82793656Y-52221161D01*
X82793653Y-52221160D01*
X82578859Y-52089533D01*
X82346110Y-51993126D01*
X82101151Y-51934317D01*
X81850000Y-51914551D01*
X81598848Y-51934317D01*
X81353889Y-51993126D01*
X81121140Y-52089533D01*
X80906346Y-52221160D01*
X80906343Y-52221161D01*
X80714776Y-52384776D01*
X80551161Y-52576343D01*
X80551160Y-52576346D01*
X80419533Y-52791140D01*
X80323126Y-53023889D01*
X80264317Y-53268848D01*
X80244551Y-53520000D01*
X66843500Y-53520000D01*
X66786819Y-53463319D01*
X66753334Y-53401996D01*
X66750500Y-53375638D01*
X66750500Y-50574361D01*
X66770185Y-50507322D01*
X66786815Y-50486684D01*
X67257894Y-50015604D01*
X67319215Y-49982121D01*
X67388906Y-49987105D01*
X67444840Y-50028976D01*
X67465347Y-50071192D01*
X67486653Y-50150704D01*
X67579419Y-50349642D01*
X67579423Y-50349650D01*
X67705322Y-50529452D01*
X67705327Y-50529458D01*
X67860541Y-50684672D01*
X67860547Y-50684677D01*
X68040349Y-50810576D01*
X68040351Y-50810577D01*
X68040354Y-50810579D01*
X68113090Y-50844496D01*
X68184120Y-50877618D01*
X68236560Y-50923790D01*
X68255712Y-50990983D01*
X68235496Y-51057865D01*
X68184120Y-51102382D01*
X68040357Y-51169419D01*
X68040349Y-51169423D01*
X67860547Y-51295322D01*
X67860541Y-51295327D01*
X67705327Y-51450541D01*
X67705322Y-51450547D01*
X67579423Y-51630349D01*
X67579419Y-51630357D01*
X67486655Y-51829291D01*
X67486653Y-51829295D01*
X67486653Y-51829297D01*
X67478426Y-51860000D01*
X67429839Y-52041324D01*
X67429838Y-52041331D01*
X67410708Y-52259997D01*
X67410708Y-52260002D01*
X67429838Y-52478668D01*
X67429839Y-52478675D01*
X67434130Y-52494689D01*
X67486653Y-52690703D01*
X67486654Y-52690706D01*
X67486655Y-52690708D01*
X67579419Y-52889642D01*
X67579423Y-52889650D01*
X67705322Y-53069452D01*
X67705327Y-53069458D01*
X67860541Y-53224672D01*
X67860547Y-53224677D01*
X68040349Y-53350576D01*
X68040351Y-53350577D01*
X68040354Y-53350579D01*
X68239297Y-53443347D01*
X68451326Y-53500161D01*
X68607521Y-53513826D01*
X68669998Y-53519292D01*
X68670000Y-53519292D01*
X68670002Y-53519292D01*
X68730501Y-53513999D01*
X68888674Y-53500161D01*
X69100703Y-53443347D01*
X69299646Y-53350579D01*
X69479457Y-53224674D01*
X69634674Y-53069457D01*
X69760579Y-52889646D01*
X69827618Y-52745878D01*
X69873790Y-52693439D01*
X69940983Y-52674287D01*
X70007864Y-52694502D01*
X70052381Y-52745878D01*
X70073487Y-52791140D01*
X70119419Y-52889642D01*
X70119423Y-52889650D01*
X70245322Y-53069452D01*
X70245327Y-53069458D01*
X70400541Y-53224672D01*
X70400547Y-53224677D01*
X70580349Y-53350576D01*
X70580351Y-53350577D01*
X70580354Y-53350579D01*
X70779297Y-53443347D01*
X70991326Y-53500161D01*
X71147521Y-53513826D01*
X71209998Y-53519292D01*
X71210000Y-53519292D01*
X71210002Y-53519292D01*
X71270501Y-53513999D01*
X71428674Y-53500161D01*
X71640703Y-53443347D01*
X71839646Y-53350579D01*
X72019457Y-53224674D01*
X72174674Y-53069457D01*
X72300579Y-52889646D01*
X72367618Y-52745878D01*
X72413790Y-52693439D01*
X72480983Y-52674287D01*
X72547864Y-52694502D01*
X72592381Y-52745878D01*
X72613487Y-52791140D01*
X72659419Y-52889642D01*
X72659423Y-52889650D01*
X72785322Y-53069452D01*
X72785327Y-53069458D01*
X72940541Y-53224672D01*
X72940547Y-53224677D01*
X73120349Y-53350576D01*
X73120351Y-53350577D01*
X73120354Y-53350579D01*
X73319297Y-53443347D01*
X73531326Y-53500161D01*
X73687521Y-53513826D01*
X73749998Y-53519292D01*
X73750000Y-53519292D01*
X73750002Y-53519292D01*
X73810501Y-53513999D01*
X73968674Y-53500161D01*
X74180703Y-53443347D01*
X74379646Y-53350579D01*
X74559457Y-53224674D01*
X74714674Y-53069457D01*
X74810425Y-52932709D01*
X74865002Y-52889085D01*
X74934500Y-52881891D01*
X74996855Y-52913414D01*
X75032269Y-52973643D01*
X75036000Y-53003833D01*
X75036000Y-53061844D01*
X75042401Y-53121372D01*
X75042403Y-53121379D01*
X75092645Y-53256086D01*
X75092649Y-53256093D01*
X75178809Y-53371187D01*
X75178812Y-53371190D01*
X75293906Y-53457350D01*
X75293913Y-53457354D01*
X75428620Y-53507596D01*
X75428627Y-53507598D01*
X75488155Y-53513999D01*
X75488172Y-53514000D01*
X76040000Y-53514000D01*
X76040000Y-52693012D01*
X76097007Y-52725925D01*
X76224174Y-52760000D01*
X76355826Y-52760000D01*
X76482993Y-52725925D01*
X76540000Y-52693012D01*
X76540000Y-53514000D01*
X77091828Y-53514000D01*
X77091844Y-53513999D01*
X77151372Y-53507598D01*
X77151379Y-53507596D01*
X77286086Y-53457354D01*
X77286093Y-53457350D01*
X77401187Y-53371190D01*
X77401190Y-53371187D01*
X77487350Y-53256093D01*
X77487354Y-53256086D01*
X77537596Y-53121379D01*
X77537598Y-53121372D01*
X77543999Y-53061844D01*
X77544000Y-53061827D01*
X77544000Y-52510000D01*
X76723012Y-52510000D01*
X76755925Y-52452993D01*
X76790000Y-52325826D01*
X76790000Y-52194174D01*
X76755925Y-52067007D01*
X76723012Y-52010000D01*
X77544000Y-52010000D01*
X77544000Y-51458172D01*
X77543999Y-51458155D01*
X77537598Y-51398627D01*
X77537596Y-51398620D01*
X77487354Y-51263913D01*
X77487350Y-51263906D01*
X77401190Y-51148812D01*
X77401187Y-51148809D01*
X77286093Y-51062649D01*
X77286086Y-51062645D01*
X77151379Y-51012403D01*
X77151372Y-51012401D01*
X77091844Y-51006000D01*
X77033834Y-51006000D01*
X76966795Y-50986315D01*
X76921040Y-50933511D01*
X76911096Y-50864353D01*
X76940121Y-50800797D01*
X76962711Y-50780425D01*
X77025180Y-50736683D01*
X77099457Y-50684674D01*
X77254674Y-50529457D01*
X77380579Y-50349646D01*
X77473347Y-50150703D01*
X77482074Y-50118134D01*
X77518439Y-50058473D01*
X77581285Y-50027944D01*
X77650661Y-50036238D01*
X77657138Y-50039236D01*
X77657358Y-50039345D01*
X77657363Y-50039348D01*
X77847544Y-50113024D01*
X78048024Y-50150500D01*
X78048026Y-50150500D01*
X78251974Y-50150500D01*
X78251976Y-50150500D01*
X78452456Y-50113024D01*
X78642637Y-50039348D01*
X78816041Y-49931981D01*
X78966764Y-49794579D01*
X79089673Y-49631821D01*
X79180582Y-49449250D01*
X79236397Y-49253083D01*
X79255215Y-49050000D01*
X79249403Y-48987282D01*
X79236397Y-48846917D01*
X79217918Y-48781970D01*
X79180582Y-48650750D01*
X79178651Y-48646873D01*
X79114380Y-48517798D01*
X79089673Y-48468179D01*
X78969345Y-48308839D01*
X78966762Y-48305418D01*
X78816041Y-48168019D01*
X78816039Y-48168017D01*
X78642642Y-48060655D01*
X78642635Y-48060651D01*
X78452455Y-47986975D01*
X78396132Y-47976446D01*
X78333851Y-47944777D01*
X78298579Y-47884464D01*
X78301514Y-47814656D01*
X78335380Y-47762922D01*
X78390981Y-47712236D01*
X78525058Y-47534689D01*
X78624229Y-47335528D01*
X78685115Y-47121536D01*
X78705643Y-46900000D01*
X78698751Y-46825627D01*
X78685115Y-46678464D01*
X78685114Y-46678462D01*
X78624230Y-46464476D01*
X78624229Y-46464472D01*
X78624224Y-46464461D01*
X78525061Y-46265316D01*
X78525056Y-46265308D01*
X78458095Y-46176637D01*
X78399636Y-46099225D01*
X78374945Y-46033866D01*
X78389510Y-45965531D01*
X78438707Y-45915918D01*
X78498591Y-45900500D01*
X80517778Y-45900500D01*
X80584817Y-45920185D01*
X80630572Y-45972989D01*
X80640516Y-46042147D01*
X80612068Y-46105032D01*
X80551161Y-46176343D01*
X80551160Y-46176346D01*
X80419533Y-46391140D01*
X80323126Y-46623889D01*
X80264317Y-46868848D01*
X80244551Y-47120000D01*
X80264317Y-47371151D01*
X80323126Y-47616110D01*
X80419533Y-47848859D01*
X80551160Y-48063653D01*
X80551161Y-48063656D01*
X80551164Y-48063659D01*
X80714776Y-48255224D01*
X80863066Y-48381875D01*
X80906343Y-48418838D01*
X80906346Y-48418839D01*
X81121140Y-48550466D01*
X81278022Y-48615448D01*
X81353889Y-48646873D01*
X81598852Y-48705683D01*
X81850000Y-48725449D01*
X82101148Y-48705683D01*
X82346111Y-48646873D01*
X82578859Y-48550466D01*
X82793659Y-48418836D01*
X82985224Y-48255224D01*
X83148836Y-48063659D01*
X83280466Y-47848859D01*
X83376873Y-47616111D01*
X83435683Y-47371148D01*
X83455449Y-47120000D01*
X83435683Y-46868852D01*
X83376873Y-46623889D01*
X83331310Y-46513889D01*
X83280466Y-46391140D01*
X83148839Y-46176346D01*
X83148838Y-46176343D01*
X83087932Y-46105032D01*
X83059361Y-46041270D01*
X83069798Y-45972185D01*
X83115929Y-45919709D01*
X83182222Y-45900500D01*
X84918434Y-45900500D01*
X84985473Y-45920185D01*
X85031228Y-45972989D01*
X85041172Y-46042147D01*
X85012724Y-46105031D01*
X84951576Y-46176625D01*
X84951568Y-46176637D01*
X84819980Y-46391368D01*
X84723603Y-46624043D01*
X84664812Y-46868927D01*
X84645052Y-47120000D01*
X84664812Y-47371072D01*
X84723603Y-47615956D01*
X84819980Y-47848631D01*
X84951568Y-48063362D01*
X84952266Y-48064179D01*
X85850000Y-47166445D01*
X85850000Y-47172661D01*
X85877259Y-47274394D01*
X85929920Y-47365606D01*
X86004394Y-47440080D01*
X86095606Y-47492741D01*
X86197339Y-47520000D01*
X86203553Y-47520000D01*
X85305819Y-48417732D01*
X85305819Y-48417733D01*
X85306634Y-48418429D01*
X85521368Y-48550019D01*
X85754043Y-48646396D01*
X85998927Y-48705187D01*
X86250000Y-48724947D01*
X86501072Y-48705187D01*
X86745956Y-48646396D01*
X86978631Y-48550019D01*
X87193361Y-48418432D01*
X87193363Y-48418430D01*
X87194180Y-48417732D01*
X86296447Y-47520000D01*
X86302661Y-47520000D01*
X86404394Y-47492741D01*
X86495606Y-47440080D01*
X86570080Y-47365606D01*
X86622741Y-47274394D01*
X86650000Y-47172661D01*
X86650000Y-47166448D01*
X87547732Y-48064180D01*
X87548430Y-48063363D01*
X87548432Y-48063361D01*
X87680019Y-47848631D01*
X87776396Y-47615956D01*
X87835187Y-47371072D01*
X87854947Y-47120000D01*
X87835187Y-46868927D01*
X87776396Y-46624043D01*
X87680019Y-46391368D01*
X87548431Y-46176637D01*
X87548423Y-46176625D01*
X87487276Y-46105031D01*
X87458705Y-46041270D01*
X87469142Y-45972184D01*
X87515273Y-45919709D01*
X87581566Y-45900500D01*
X88253526Y-45900500D01*
X88320565Y-45920185D01*
X88366320Y-45972989D01*
X88376264Y-46042147D01*
X88347239Y-46105703D01*
X88341207Y-46112181D01*
X88324103Y-46129285D01*
X88324103Y-57439285D01*
X90138655Y-57439285D01*
X90138655Y-46129285D01*
X90121551Y-46112181D01*
X90088066Y-46050858D01*
X90093050Y-45981166D01*
X90134922Y-45925233D01*
X90200386Y-45900816D01*
X90209232Y-45900500D01*
X90385359Y-45900500D01*
X90452398Y-45920185D01*
X90498153Y-45972989D01*
X90509358Y-46024527D01*
X90503969Y-69847020D01*
X90499641Y-88975528D01*
X90479941Y-89042563D01*
X90427127Y-89088306D01*
X90375641Y-89099500D01*
X75899545Y-89099500D01*
X75832506Y-89079815D01*
X75786751Y-89027011D01*
X75776255Y-88962246D01*
X75776721Y-88957913D01*
X75783130Y-88898303D01*
X75783129Y-87001698D01*
X75776721Y-86942087D01*
X75745165Y-86857482D01*
X75726427Y-86807241D01*
X75726423Y-86807234D01*
X75640177Y-86692025D01*
X75640174Y-86692022D01*
X75524965Y-86605776D01*
X75524958Y-86605772D01*
X75445134Y-86576000D01*
X75389200Y-86534129D01*
X75364783Y-86468665D01*
X75379635Y-86400392D01*
X75397234Y-86375839D01*
X75491519Y-86273418D01*
X75618504Y-86079054D01*
X75711765Y-85866440D01*
X75768759Y-85641376D01*
X75787102Y-85420006D01*
X75787931Y-85410006D01*
X75787931Y-85409993D01*
X75769588Y-85188627D01*
X75768759Y-85178624D01*
X75711765Y-84953560D01*
X75618504Y-84740946D01*
X75603369Y-84717781D01*
X75499677Y-84559069D01*
X75491519Y-84546582D01*
X75334276Y-84375770D01*
X75334271Y-84375766D01*
X75334269Y-84375764D01*
X75157081Y-84237853D01*
X75116268Y-84181143D01*
X75115267Y-84162135D01*
X81229500Y-84162135D01*
X81229500Y-86797870D01*
X81229501Y-86797876D01*
X81235908Y-86857483D01*
X81286202Y-86992328D01*
X81286206Y-86992335D01*
X81372452Y-87107544D01*
X81372455Y-87107547D01*
X81487664Y-87193793D01*
X81487671Y-87193797D01*
X81622517Y-87244091D01*
X81622516Y-87244091D01*
X81629444Y-87244835D01*
X81682127Y-87250500D01*
X84317872Y-87250499D01*
X84377483Y-87244091D01*
X84512331Y-87193796D01*
X84627546Y-87107546D01*
X84713796Y-86992331D01*
X84764091Y-86857483D01*
X84770500Y-86797873D01*
X84770499Y-85479998D01*
X86074520Y-85479998D01*
X86074520Y-85480001D01*
X86094933Y-85765415D01*
X86155754Y-86045002D01*
X86155756Y-86045009D01*
X86212315Y-86196649D01*
X86255751Y-86313108D01*
X86255753Y-86313112D01*
X86392879Y-86564238D01*
X86392884Y-86564246D01*
X86564352Y-86793302D01*
X86564368Y-86793320D01*
X86766679Y-86995631D01*
X86766697Y-86995647D01*
X86995753Y-87167115D01*
X86995761Y-87167120D01*
X87246887Y-87304246D01*
X87246891Y-87304248D01*
X87246893Y-87304249D01*
X87514991Y-87404244D01*
X87628425Y-87428920D01*
X87794584Y-87465066D01*
X87794586Y-87465066D01*
X87794590Y-87465067D01*
X88048221Y-87483207D01*
X88079999Y-87485480D01*
X88080000Y-87485480D01*
X88080001Y-87485480D01*
X88108594Y-87483434D01*
X88365410Y-87465067D01*
X88645009Y-87404244D01*
X88913107Y-87304249D01*
X89164244Y-87167117D01*
X89393310Y-86995641D01*
X89595641Y-86793310D01*
X89767117Y-86564244D01*
X89904249Y-86313107D01*
X90004244Y-86045009D01*
X90065067Y-85765410D01*
X90085480Y-85480000D01*
X90065067Y-85194590D01*
X90061594Y-85178627D01*
X90014810Y-84963561D01*
X90004244Y-84914991D01*
X89904249Y-84646893D01*
X89854936Y-84556584D01*
X89767120Y-84395761D01*
X89767115Y-84395753D01*
X89595647Y-84166697D01*
X89595631Y-84166679D01*
X89393320Y-83964368D01*
X89393302Y-83964352D01*
X89164246Y-83792884D01*
X89164238Y-83792879D01*
X88913112Y-83655753D01*
X88913108Y-83655751D01*
X88773139Y-83603546D01*
X88645009Y-83555756D01*
X88645005Y-83555755D01*
X88645002Y-83555754D01*
X88365415Y-83494933D01*
X88080001Y-83474520D01*
X88079999Y-83474520D01*
X87794584Y-83494933D01*
X87514997Y-83555754D01*
X87514992Y-83555755D01*
X87514991Y-83555756D01*
X87475075Y-83570644D01*
X87246891Y-83655751D01*
X87246887Y-83655753D01*
X86995761Y-83792879D01*
X86995753Y-83792884D01*
X86766697Y-83964352D01*
X86766679Y-83964368D01*
X86564368Y-84166679D01*
X86564352Y-84166697D01*
X86392884Y-84395753D01*
X86392879Y-84395761D01*
X86255753Y-84646887D01*
X86255751Y-84646891D01*
X86155754Y-84914997D01*
X86094933Y-85194584D01*
X86074520Y-85479998D01*
X84770499Y-85479998D01*
X84770499Y-84162128D01*
X84764091Y-84102517D01*
X84748489Y-84060687D01*
X84713797Y-83967671D01*
X84713793Y-83967664D01*
X84627547Y-83852455D01*
X84627544Y-83852452D01*
X84512335Y-83766206D01*
X84512328Y-83766202D01*
X84377482Y-83715908D01*
X84377483Y-83715908D01*
X84317883Y-83709501D01*
X84317881Y-83709500D01*
X84317873Y-83709500D01*
X84317864Y-83709500D01*
X81682129Y-83709500D01*
X81682123Y-83709501D01*
X81622516Y-83715908D01*
X81487671Y-83766202D01*
X81487664Y-83766206D01*
X81372455Y-83852452D01*
X81372452Y-83852455D01*
X81286206Y-83967664D01*
X81286202Y-83967671D01*
X81235908Y-84102517D01*
X81230212Y-84155503D01*
X81229501Y-84162123D01*
X81229500Y-84162135D01*
X75115267Y-84162135D01*
X75112593Y-84111370D01*
X75147225Y-84050687D01*
X75157081Y-84042147D01*
X75269058Y-83954990D01*
X75334276Y-83904230D01*
X75491519Y-83733418D01*
X75618504Y-83539054D01*
X75711765Y-83326440D01*
X75768759Y-83101376D01*
X75787102Y-82880006D01*
X75787931Y-82870006D01*
X75787931Y-82869993D01*
X75769588Y-82648627D01*
X75768759Y-82638624D01*
X75711765Y-82413560D01*
X75618504Y-82200946D01*
X75606206Y-82182123D01*
X75508281Y-82032238D01*
X75491519Y-82006582D01*
X75334276Y-81835770D01*
X75295792Y-81805816D01*
X75156673Y-81697535D01*
X75115860Y-81640825D01*
X75112187Y-81571052D01*
X75146818Y-81510369D01*
X75156672Y-81501830D01*
X75181303Y-81482657D01*
X74435048Y-80736400D01*
X74435704Y-80736400D01*
X74539065Y-80708705D01*
X74631736Y-80655201D01*
X74707401Y-80579536D01*
X74760905Y-80486865D01*
X74788600Y-80383504D01*
X74788600Y-80382847D01*
X75533697Y-81127944D01*
X75618060Y-80998819D01*
X75618065Y-80998811D01*
X75711291Y-80786275D01*
X75768264Y-80561289D01*
X75787430Y-80330005D01*
X75787430Y-80329994D01*
X75768264Y-80098710D01*
X75711291Y-79873724D01*
X75618062Y-79661182D01*
X75533697Y-79532054D01*
X74788600Y-80277151D01*
X74788600Y-80276496D01*
X74760905Y-80173135D01*
X74707401Y-80080464D01*
X74631736Y-80004799D01*
X74539065Y-79951295D01*
X74435704Y-79923600D01*
X74435047Y-79923600D01*
X75181303Y-79177341D01*
X75181303Y-79177340D01*
X75150789Y-79153590D01*
X74946675Y-79043128D01*
X74946666Y-79043125D01*
X74727167Y-78967770D01*
X74498242Y-78929570D01*
X74266158Y-78929570D01*
X74037232Y-78967770D01*
X73817733Y-79043125D01*
X73817724Y-79043128D01*
X73613609Y-79153590D01*
X73613603Y-79153594D01*
X73583095Y-79177339D01*
X73583095Y-79177341D01*
X74329354Y-79923600D01*
X74328696Y-79923600D01*
X74225335Y-79951295D01*
X74132664Y-80004799D01*
X74056999Y-80080464D01*
X74003495Y-80173135D01*
X73975800Y-80276496D01*
X73975800Y-80277153D01*
X73230701Y-79532054D01*
X73146336Y-79661184D01*
X73053108Y-79873724D01*
X72996135Y-80098710D01*
X72976970Y-80329994D01*
X72976970Y-80330005D01*
X72996135Y-80561289D01*
X73053108Y-80786275D01*
X73146335Y-80998812D01*
X73230701Y-81127944D01*
X73975800Y-80382845D01*
X73975800Y-80383504D01*
X74003495Y-80486865D01*
X74056999Y-80579536D01*
X74132664Y-80655201D01*
X74225335Y-80708705D01*
X74328696Y-80736400D01*
X74329353Y-80736400D01*
X73583095Y-81482656D01*
X73607728Y-81501830D01*
X73648540Y-81558541D01*
X73652213Y-81628314D01*
X73617581Y-81688997D01*
X73607726Y-81697536D01*
X73430130Y-81835764D01*
X73430127Y-81835767D01*
X73430124Y-81835769D01*
X73430124Y-81835770D01*
X73412708Y-81854689D01*
X73272882Y-82006580D01*
X73272879Y-82006584D01*
X73145896Y-82200944D01*
X73052634Y-82413561D01*
X72995640Y-82638627D01*
X72976469Y-82869993D01*
X72976469Y-82870006D01*
X72995640Y-83101372D01*
X73052634Y-83326438D01*
X73145896Y-83539055D01*
X73257255Y-83709501D01*
X73272881Y-83733418D01*
X73430124Y-83904230D01*
X73504485Y-83962107D01*
X73607319Y-84042147D01*
X73648132Y-84098857D01*
X73651806Y-84168630D01*
X73617174Y-84229313D01*
X73607319Y-84237853D01*
X73430126Y-84375768D01*
X73272882Y-84546580D01*
X73272879Y-84546584D01*
X73145896Y-84740944D01*
X73052634Y-84953561D01*
X72995640Y-85178627D01*
X72976469Y-85409993D01*
X72976469Y-85410006D01*
X72995640Y-85641372D01*
X73052634Y-85866438D01*
X73145896Y-86079055D01*
X73272879Y-86273415D01*
X73272882Y-86273419D01*
X73367162Y-86375835D01*
X73398084Y-86438490D01*
X73390224Y-86507916D01*
X73346076Y-86562071D01*
X73319266Y-86576000D01*
X73239439Y-86605773D01*
X73239434Y-86605776D01*
X73124225Y-86692022D01*
X73124222Y-86692025D01*
X73037976Y-86807234D01*
X73037972Y-86807241D01*
X72987678Y-86942087D01*
X72981922Y-86995631D01*
X72981271Y-87001693D01*
X72981270Y-87001705D01*
X72981270Y-88898300D01*
X72981271Y-88898303D01*
X72988145Y-88962246D01*
X72975738Y-89031006D01*
X72928127Y-89082142D01*
X72864855Y-89099500D01*
X72054745Y-89099500D01*
X71987706Y-89079815D01*
X71941951Y-89027011D01*
X71931455Y-88962246D01*
X71931921Y-88957913D01*
X71938330Y-88898303D01*
X71938329Y-87001698D01*
X71931921Y-86942087D01*
X71900365Y-86857482D01*
X71881627Y-86807241D01*
X71881623Y-86807234D01*
X71795377Y-86692025D01*
X71795374Y-86692022D01*
X71680165Y-86605776D01*
X71680158Y-86605772D01*
X71600334Y-86576000D01*
X71544400Y-86534129D01*
X71519983Y-86468665D01*
X71534835Y-86400392D01*
X71552434Y-86375839D01*
X71646719Y-86273418D01*
X71773704Y-86079054D01*
X71866965Y-85866440D01*
X71923959Y-85641376D01*
X71942302Y-85420006D01*
X71943131Y-85410006D01*
X71943131Y-85409993D01*
X71924788Y-85188627D01*
X71923959Y-85178624D01*
X71866965Y-84953560D01*
X71773704Y-84740946D01*
X71758569Y-84717781D01*
X71654877Y-84559069D01*
X71646719Y-84546582D01*
X71489476Y-84375770D01*
X71489471Y-84375766D01*
X71489469Y-84375764D01*
X71312281Y-84237853D01*
X71271468Y-84181143D01*
X71267793Y-84111370D01*
X71302425Y-84050687D01*
X71312281Y-84042147D01*
X71424258Y-83954990D01*
X71489476Y-83904230D01*
X71646719Y-83733418D01*
X71773704Y-83539054D01*
X71866965Y-83326440D01*
X71923959Y-83101376D01*
X71942302Y-82880006D01*
X71943131Y-82870006D01*
X71943131Y-82869993D01*
X71924788Y-82648627D01*
X71923959Y-82638624D01*
X71866965Y-82413560D01*
X71773704Y-82200946D01*
X71761406Y-82182123D01*
X71663481Y-82032238D01*
X71646719Y-82006582D01*
X71489476Y-81835770D01*
X71450992Y-81805816D01*
X71311873Y-81697535D01*
X71271060Y-81640825D01*
X71267387Y-81571052D01*
X71302018Y-81510369D01*
X71311872Y-81501830D01*
X71336503Y-81482657D01*
X70590248Y-80736400D01*
X70590904Y-80736400D01*
X70694265Y-80708705D01*
X70786936Y-80655201D01*
X70862601Y-80579536D01*
X70916105Y-80486865D01*
X70943800Y-80383504D01*
X70943800Y-80382847D01*
X71688897Y-81127944D01*
X71773260Y-80998819D01*
X71773265Y-80998811D01*
X71866491Y-80786275D01*
X71923464Y-80561289D01*
X71942630Y-80330005D01*
X71942630Y-80329994D01*
X71923464Y-80098710D01*
X71866491Y-79873724D01*
X71773262Y-79661182D01*
X71688897Y-79532054D01*
X70943800Y-80277151D01*
X70943800Y-80276496D01*
X70916105Y-80173135D01*
X70862601Y-80080464D01*
X70786936Y-80004799D01*
X70694265Y-79951295D01*
X70590904Y-79923600D01*
X70590247Y-79923600D01*
X71336503Y-79177341D01*
X71336503Y-79177340D01*
X71305989Y-79153590D01*
X71101875Y-79043128D01*
X71101866Y-79043125D01*
X70882367Y-78967770D01*
X70653442Y-78929570D01*
X70421358Y-78929570D01*
X70192432Y-78967770D01*
X69972933Y-79043125D01*
X69972924Y-79043128D01*
X69768809Y-79153590D01*
X69768803Y-79153594D01*
X69738295Y-79177339D01*
X69738295Y-79177341D01*
X70484554Y-79923600D01*
X70483896Y-79923600D01*
X70380535Y-79951295D01*
X70287864Y-80004799D01*
X70212199Y-80080464D01*
X70158695Y-80173135D01*
X70131000Y-80276496D01*
X70131000Y-80277153D01*
X69385901Y-79532054D01*
X69301536Y-79661184D01*
X69208308Y-79873724D01*
X69151335Y-80098710D01*
X69132170Y-80329994D01*
X69132170Y-80330005D01*
X69151335Y-80561289D01*
X69208308Y-80786275D01*
X69301535Y-80998812D01*
X69385901Y-81127944D01*
X70131000Y-80382845D01*
X70131000Y-80383504D01*
X70158695Y-80486865D01*
X70212199Y-80579536D01*
X70287864Y-80655201D01*
X70380535Y-80708705D01*
X70483896Y-80736400D01*
X70484553Y-80736400D01*
X69738295Y-81482656D01*
X69762928Y-81501830D01*
X69803740Y-81558541D01*
X69807413Y-81628314D01*
X69772781Y-81688997D01*
X69762926Y-81697536D01*
X69585330Y-81835764D01*
X69585327Y-81835767D01*
X69585324Y-81835769D01*
X69585324Y-81835770D01*
X69567908Y-81854689D01*
X69428082Y-82006580D01*
X69428079Y-82006584D01*
X69301096Y-82200944D01*
X69207834Y-82413561D01*
X69150840Y-82638627D01*
X69131669Y-82869993D01*
X69131669Y-82870006D01*
X69150840Y-83101372D01*
X69207834Y-83326438D01*
X69301096Y-83539055D01*
X69412455Y-83709501D01*
X69428081Y-83733418D01*
X69585324Y-83904230D01*
X69659685Y-83962107D01*
X69762519Y-84042147D01*
X69803332Y-84098857D01*
X69807006Y-84168630D01*
X69772374Y-84229313D01*
X69762519Y-84237853D01*
X69585326Y-84375768D01*
X69428082Y-84546580D01*
X69428079Y-84546584D01*
X69301096Y-84740944D01*
X69207834Y-84953561D01*
X69150840Y-85178627D01*
X69131669Y-85409993D01*
X69131669Y-85410006D01*
X69150840Y-85641372D01*
X69207834Y-85866438D01*
X69301096Y-86079055D01*
X69428079Y-86273415D01*
X69428082Y-86273419D01*
X69522362Y-86375835D01*
X69553284Y-86438490D01*
X69545424Y-86507916D01*
X69501276Y-86562071D01*
X69474466Y-86576000D01*
X69394639Y-86605773D01*
X69394634Y-86605776D01*
X69279425Y-86692022D01*
X69279422Y-86692025D01*
X69193176Y-86807234D01*
X69193172Y-86807241D01*
X69142878Y-86942087D01*
X69137122Y-86995631D01*
X69136471Y-87001693D01*
X69136470Y-87001705D01*
X69136470Y-88898300D01*
X69136471Y-88898303D01*
X69143345Y-88962246D01*
X69130938Y-89031006D01*
X69083327Y-89082142D01*
X69020055Y-89099500D01*
X68411020Y-89099500D01*
X68343981Y-89079815D01*
X68298226Y-89027011D01*
X68287730Y-88962246D01*
X68288196Y-88957913D01*
X68293530Y-88908303D01*
X68293529Y-87011698D01*
X68287121Y-86952087D01*
X68283391Y-86942087D01*
X68236827Y-86817241D01*
X68236823Y-86817234D01*
X68150577Y-86702025D01*
X68150574Y-86702022D01*
X68035365Y-86615776D01*
X68035358Y-86615772D01*
X67955534Y-86586000D01*
X67899600Y-86544129D01*
X67875183Y-86478665D01*
X67890035Y-86410392D01*
X67907634Y-86385839D01*
X68001919Y-86283418D01*
X68128904Y-86089054D01*
X68222165Y-85876440D01*
X68279159Y-85651376D01*
X68286827Y-85558825D01*
X68298331Y-85420006D01*
X68298331Y-85419993D01*
X68279159Y-85188627D01*
X68279159Y-85188624D01*
X68222165Y-84963560D01*
X68128904Y-84750946D01*
X68122369Y-84740944D01*
X68060921Y-84646891D01*
X68001919Y-84556582D01*
X67844676Y-84385770D01*
X67844671Y-84385766D01*
X67844669Y-84385764D01*
X67667481Y-84247853D01*
X67626668Y-84191143D01*
X67622993Y-84121370D01*
X67657625Y-84060687D01*
X67667481Y-84052147D01*
X67780279Y-83964352D01*
X67844676Y-83914230D01*
X68001919Y-83743418D01*
X68128904Y-83549054D01*
X68222165Y-83336440D01*
X68279159Y-83111376D01*
X68298331Y-82880000D01*
X68298331Y-82879993D01*
X68279159Y-82648627D01*
X68279159Y-82648624D01*
X68222165Y-82423560D01*
X68128904Y-82210946D01*
X68122369Y-82200944D01*
X68065411Y-82113764D01*
X68001919Y-82016582D01*
X67844676Y-81845770D01*
X67806192Y-81815816D01*
X67667073Y-81707535D01*
X67626260Y-81650825D01*
X67622587Y-81581052D01*
X67657218Y-81520369D01*
X67667072Y-81511830D01*
X67691703Y-81492657D01*
X66945448Y-80746400D01*
X66946104Y-80746400D01*
X67049465Y-80718705D01*
X67142136Y-80665201D01*
X67217801Y-80589536D01*
X67271305Y-80496865D01*
X67299000Y-80393504D01*
X67299000Y-80392847D01*
X68044097Y-81137944D01*
X68128460Y-81008819D01*
X68128465Y-81008811D01*
X68221691Y-80796275D01*
X68278664Y-80571289D01*
X68297830Y-80340005D01*
X68297830Y-80339994D01*
X68278664Y-80108710D01*
X68221691Y-79883724D01*
X68128462Y-79671182D01*
X68044097Y-79542054D01*
X67299000Y-80287151D01*
X67299000Y-80286496D01*
X67271305Y-80183135D01*
X67217801Y-80090464D01*
X67142136Y-80014799D01*
X67049465Y-79961295D01*
X66946104Y-79933600D01*
X66945447Y-79933600D01*
X67691703Y-79187341D01*
X67691703Y-79187340D01*
X67661189Y-79163590D01*
X67457075Y-79053128D01*
X67457066Y-79053125D01*
X67237567Y-78977770D01*
X67008642Y-78939570D01*
X66776558Y-78939570D01*
X66547632Y-78977770D01*
X66328133Y-79053125D01*
X66328124Y-79053128D01*
X66124009Y-79163590D01*
X66124003Y-79163594D01*
X66093495Y-79187339D01*
X66093495Y-79187341D01*
X66839754Y-79933600D01*
X66839096Y-79933600D01*
X66735735Y-79961295D01*
X66643064Y-80014799D01*
X66567399Y-80090464D01*
X66513895Y-80183135D01*
X66486200Y-80286496D01*
X66486200Y-80287153D01*
X65741101Y-79542054D01*
X65656736Y-79671184D01*
X65563508Y-79883724D01*
X65506535Y-80108710D01*
X65487370Y-80339994D01*
X65487370Y-80340005D01*
X65506535Y-80571289D01*
X65563508Y-80796275D01*
X65656735Y-81008812D01*
X65741101Y-81137944D01*
X66486200Y-80392845D01*
X66486200Y-80393504D01*
X66513895Y-80496865D01*
X66567399Y-80589536D01*
X66643064Y-80665201D01*
X66735735Y-80718705D01*
X66839096Y-80746400D01*
X66839753Y-80746400D01*
X66093495Y-81492656D01*
X66118128Y-81511830D01*
X66158940Y-81568541D01*
X66162613Y-81638314D01*
X66127981Y-81698997D01*
X66118126Y-81707536D01*
X65940530Y-81845764D01*
X65940527Y-81845767D01*
X65783282Y-82016580D01*
X65783279Y-82016584D01*
X65656296Y-82210944D01*
X65563034Y-82423561D01*
X65506040Y-82648627D01*
X65486869Y-82879993D01*
X65486869Y-82880006D01*
X65506040Y-83111372D01*
X65563034Y-83336438D01*
X65656296Y-83549055D01*
X65753736Y-83698197D01*
X65783281Y-83743418D01*
X65940524Y-83914230D01*
X66014885Y-83972107D01*
X66117719Y-84052147D01*
X66158532Y-84108857D01*
X66162206Y-84178630D01*
X66127574Y-84239313D01*
X66117719Y-84247853D01*
X65940526Y-84385768D01*
X65783282Y-84556580D01*
X65783279Y-84556584D01*
X65656296Y-84750944D01*
X65563034Y-84963561D01*
X65506040Y-85188627D01*
X65486869Y-85419993D01*
X65486869Y-85420006D01*
X65506040Y-85651372D01*
X65563034Y-85876438D01*
X65656296Y-86089055D01*
X65783279Y-86283415D01*
X65783282Y-86283419D01*
X65877562Y-86385835D01*
X65908484Y-86448490D01*
X65900624Y-86517916D01*
X65856476Y-86572071D01*
X65829666Y-86586000D01*
X65749839Y-86615773D01*
X65749834Y-86615776D01*
X65634625Y-86702022D01*
X65634622Y-86702025D01*
X65548376Y-86817234D01*
X65548372Y-86817241D01*
X65498078Y-86952087D01*
X65492745Y-87001697D01*
X65491671Y-87011693D01*
X65491670Y-87011705D01*
X65491670Y-88908300D01*
X65491671Y-88908303D01*
X65497470Y-88962246D01*
X65485063Y-89031006D01*
X65437452Y-89082142D01*
X65374180Y-89099500D01*
X24024500Y-89099500D01*
X23957461Y-89079815D01*
X23911706Y-89027011D01*
X23900500Y-88975500D01*
X23900500Y-87502284D01*
X23920185Y-87435245D01*
X23972989Y-87389490D01*
X24042147Y-87379546D01*
X24105703Y-87408571D01*
X24129493Y-87436311D01*
X24170644Y-87501802D01*
X24298198Y-87629356D01*
X24450938Y-87725329D01*
X24463790Y-87729826D01*
X24621205Y-87784908D01*
X24621210Y-87784909D01*
X24711706Y-87795105D01*
X24755500Y-87800039D01*
X24755503Y-87800040D01*
X24755506Y-87800040D01*
X27644497Y-87800040D01*
X27644498Y-87800039D01*
X27711644Y-87792474D01*
X27778789Y-87784909D01*
X27778792Y-87784908D01*
X27778795Y-87784908D01*
X27949062Y-87725329D01*
X28101802Y-87629356D01*
X28229356Y-87501802D01*
X28325329Y-87349062D01*
X28384908Y-87178795D01*
X28386224Y-87167120D01*
X28395264Y-87086880D01*
X28400040Y-87044494D01*
X28400040Y-85600000D01*
X28974694Y-85600000D01*
X28992812Y-85876438D01*
X28994416Y-85900901D01*
X28994418Y-85900913D01*
X29053243Y-86196649D01*
X29053247Y-86196664D01*
X29150173Y-86482197D01*
X29150182Y-86482218D01*
X29283542Y-86752645D01*
X29283549Y-86752658D01*
X29368446Y-86879714D01*
X29449953Y-87001698D01*
X29451079Y-87003382D01*
X29649901Y-87230098D01*
X29820316Y-87379546D01*
X29876619Y-87428922D01*
X30127347Y-87596454D01*
X30194064Y-87629355D01*
X30397781Y-87729817D01*
X30397786Y-87729819D01*
X30397798Y-87729825D01*
X30683343Y-87826755D01*
X30979097Y-87885584D01*
X31280000Y-87905306D01*
X31580903Y-87885584D01*
X31876657Y-87826755D01*
X32162202Y-87729825D01*
X32432653Y-87596454D01*
X32683381Y-87428922D01*
X32910098Y-87230098D01*
X33108922Y-87003381D01*
X33276454Y-86752653D01*
X33409825Y-86482202D01*
X33506755Y-86196657D01*
X33565584Y-85900903D01*
X33585306Y-85600000D01*
X34054694Y-85600000D01*
X34072812Y-85876438D01*
X34074416Y-85900901D01*
X34074418Y-85900913D01*
X34133243Y-86196649D01*
X34133247Y-86196664D01*
X34230173Y-86482197D01*
X34230182Y-86482218D01*
X34363542Y-86752645D01*
X34363549Y-86752658D01*
X34448446Y-86879714D01*
X34529953Y-87001698D01*
X34531079Y-87003382D01*
X34729901Y-87230098D01*
X34900316Y-87379546D01*
X34956619Y-87428922D01*
X35207347Y-87596454D01*
X35274064Y-87629355D01*
X35477781Y-87729817D01*
X35477786Y-87729819D01*
X35477798Y-87729825D01*
X35763343Y-87826755D01*
X36059097Y-87885584D01*
X36360000Y-87905306D01*
X36660903Y-87885584D01*
X36956657Y-87826755D01*
X37242202Y-87729825D01*
X37512653Y-87596454D01*
X37763381Y-87428922D01*
X37990098Y-87230098D01*
X38188922Y-87003381D01*
X38356454Y-86752653D01*
X38489825Y-86482202D01*
X38528369Y-86368655D01*
X41375378Y-86368655D01*
X53402367Y-86368655D01*
X53402367Y-84860000D01*
X54894564Y-84860000D01*
X54903959Y-85003350D01*
X54914287Y-85160918D01*
X54914288Y-85160930D01*
X54973118Y-85456683D01*
X54973122Y-85456698D01*
X55070053Y-85742247D01*
X55070062Y-85742268D01*
X55203431Y-86012713D01*
X55203435Y-86012720D01*
X55370973Y-86263459D01*
X55569810Y-86490189D01*
X55796540Y-86689026D01*
X56047279Y-86856564D01*
X56047286Y-86856568D01*
X56317731Y-86989937D01*
X56317736Y-86989939D01*
X56317748Y-86989945D01*
X56603309Y-87086880D01*
X56803251Y-87126651D01*
X56899069Y-87145711D01*
X56899070Y-87145711D01*
X56899080Y-87145713D01*
X57200000Y-87165436D01*
X57500920Y-87145713D01*
X57796691Y-87086880D01*
X58082252Y-86989945D01*
X58352718Y-86856566D01*
X58603461Y-86689025D01*
X58830189Y-86490189D01*
X59029025Y-86263461D01*
X59196566Y-86012718D01*
X59329945Y-85742252D01*
X59426880Y-85456691D01*
X59485713Y-85160920D01*
X59505436Y-84860000D01*
X59485713Y-84559080D01*
X59484515Y-84553059D01*
X59463487Y-84447341D01*
X59426880Y-84263309D01*
X59329945Y-83977748D01*
X59326075Y-83969901D01*
X59196568Y-83707286D01*
X59196564Y-83707279D01*
X59029026Y-83456540D01*
X58830189Y-83229810D01*
X58603459Y-83030973D01*
X58352720Y-82863435D01*
X58352713Y-82863431D01*
X58082268Y-82730062D01*
X58082247Y-82730053D01*
X57796698Y-82633122D01*
X57796692Y-82633120D01*
X57796691Y-82633120D01*
X57796689Y-82633119D01*
X57796683Y-82633118D01*
X57500930Y-82574288D01*
X57500921Y-82574287D01*
X57500920Y-82574287D01*
X57200000Y-82554564D01*
X56899080Y-82574287D01*
X56899079Y-82574287D01*
X56899069Y-82574288D01*
X56603316Y-82633118D01*
X56603301Y-82633122D01*
X56317752Y-82730053D01*
X56317731Y-82730062D01*
X56047286Y-82863431D01*
X56047279Y-82863435D01*
X55796540Y-83030973D01*
X55569810Y-83229810D01*
X55370973Y-83456540D01*
X55203435Y-83707279D01*
X55203431Y-83707286D01*
X55070062Y-83977731D01*
X55070053Y-83977752D01*
X54973122Y-84263301D01*
X54973118Y-84263316D01*
X54914288Y-84559069D01*
X54914287Y-84559079D01*
X54914287Y-84559080D01*
X54894564Y-84860000D01*
X53402367Y-84860000D01*
X53402367Y-84553059D01*
X41375378Y-84553059D01*
X41375378Y-86368655D01*
X38528369Y-86368655D01*
X38586755Y-86196657D01*
X38645584Y-85900903D01*
X38665306Y-85600000D01*
X38645584Y-85299097D01*
X38586755Y-85003343D01*
X38489825Y-84717798D01*
X38356454Y-84447347D01*
X38188922Y-84196619D01*
X38114161Y-84111370D01*
X37990098Y-83969901D01*
X37763382Y-83771079D01*
X37756089Y-83766206D01*
X37590783Y-83655751D01*
X37512658Y-83603549D01*
X37512655Y-83603547D01*
X37512653Y-83603546D01*
X37512645Y-83603542D01*
X37242218Y-83470182D01*
X37242197Y-83470173D01*
X36956664Y-83373247D01*
X36956658Y-83373245D01*
X36956657Y-83373245D01*
X36956655Y-83373244D01*
X36956649Y-83373243D01*
X36660913Y-83314418D01*
X36660903Y-83314416D01*
X36360000Y-83294694D01*
X36059097Y-83314416D01*
X36059091Y-83314417D01*
X36059086Y-83314418D01*
X35763350Y-83373243D01*
X35763335Y-83373247D01*
X35477802Y-83470173D01*
X35477781Y-83470182D01*
X35207354Y-83603542D01*
X35207341Y-83603549D01*
X34956617Y-83771079D01*
X34729901Y-83969901D01*
X34531079Y-84196617D01*
X34363549Y-84447341D01*
X34363542Y-84447354D01*
X34230182Y-84717781D01*
X34230173Y-84717802D01*
X34133247Y-85003335D01*
X34133243Y-85003350D01*
X34074418Y-85299086D01*
X34074416Y-85299097D01*
X34054694Y-85600000D01*
X33585306Y-85600000D01*
X33565584Y-85299097D01*
X33506755Y-85003343D01*
X33409825Y-84717798D01*
X33276454Y-84447347D01*
X33108922Y-84196619D01*
X33034161Y-84111370D01*
X32910098Y-83969901D01*
X32683382Y-83771079D01*
X32676089Y-83766206D01*
X32510783Y-83655751D01*
X32432658Y-83603549D01*
X32432655Y-83603547D01*
X32432653Y-83603546D01*
X32432645Y-83603542D01*
X32162218Y-83470182D01*
X32162197Y-83470173D01*
X31876664Y-83373247D01*
X31876658Y-83373245D01*
X31876657Y-83373245D01*
X31876655Y-83373244D01*
X31876649Y-83373243D01*
X31580913Y-83314418D01*
X31580903Y-83314416D01*
X31280000Y-83294694D01*
X30979097Y-83314416D01*
X30979091Y-83314417D01*
X30979086Y-83314418D01*
X30683350Y-83373243D01*
X30683335Y-83373247D01*
X30397802Y-83470173D01*
X30397781Y-83470182D01*
X30127354Y-83603542D01*
X30127341Y-83603549D01*
X29876617Y-83771079D01*
X29649901Y-83969901D01*
X29451079Y-84196617D01*
X29283549Y-84447341D01*
X29283542Y-84447354D01*
X29150182Y-84717781D01*
X29150173Y-84717802D01*
X29053247Y-85003335D01*
X29053243Y-85003350D01*
X28994418Y-85299086D01*
X28994416Y-85299097D01*
X28974694Y-85600000D01*
X28400040Y-85600000D01*
X28400040Y-84155506D01*
X28394070Y-84102517D01*
X28384909Y-84021210D01*
X28384908Y-84021205D01*
X28365014Y-83964352D01*
X28325329Y-83850938D01*
X28229356Y-83698198D01*
X28101802Y-83570644D01*
X28078105Y-83555754D01*
X27949063Y-83474671D01*
X27778794Y-83415091D01*
X27778789Y-83415090D01*
X27644500Y-83399960D01*
X27644494Y-83399960D01*
X24755506Y-83399960D01*
X24755499Y-83399960D01*
X24621210Y-83415090D01*
X24621205Y-83415091D01*
X24450936Y-83474671D01*
X24298197Y-83570644D01*
X24170644Y-83698197D01*
X24170642Y-83698200D01*
X24129493Y-83763688D01*
X24077158Y-83809979D01*
X24008105Y-83820626D01*
X23944257Y-83792251D01*
X23905885Y-83733861D01*
X23900500Y-83697715D01*
X23900500Y-79977069D01*
X23920185Y-79910030D01*
X23972989Y-79864275D01*
X24042147Y-79854331D01*
X24094349Y-79874614D01*
X24119761Y-79891940D01*
X24359514Y-80007399D01*
X24359515Y-80007399D01*
X24359518Y-80007401D01*
X24613806Y-80085839D01*
X24613807Y-80085839D01*
X24613810Y-80085840D01*
X24876937Y-80125499D01*
X24876942Y-80125499D01*
X24876945Y-80125500D01*
X24876946Y-80125500D01*
X25143054Y-80125500D01*
X25143055Y-80125500D01*
X25143062Y-80125499D01*
X25406189Y-80085840D01*
X25406190Y-80085839D01*
X25406194Y-80085839D01*
X25660482Y-80007401D01*
X25900240Y-79891940D01*
X26120110Y-79742035D01*
X26315183Y-79561033D01*
X26481101Y-79352980D01*
X26614156Y-79122521D01*
X26711377Y-78874805D01*
X26770593Y-78615367D01*
X26772217Y-78593695D01*
X26790479Y-78350004D01*
X26790479Y-78349995D01*
X28269521Y-78349995D01*
X28269521Y-78350004D01*
X28289405Y-78615357D01*
X28289405Y-78615359D01*
X28289407Y-78615367D01*
X28348623Y-78874805D01*
X28445844Y-79122521D01*
X28578899Y-79352980D01*
X28696541Y-79500497D01*
X28744820Y-79561037D01*
X28852754Y-79661184D01*
X28939890Y-79742035D01*
X29159761Y-79891940D01*
X29399514Y-80007399D01*
X29399515Y-80007399D01*
X29399518Y-80007401D01*
X29653806Y-80085839D01*
X29653807Y-80085839D01*
X29653810Y-80085840D01*
X29916937Y-80125499D01*
X29916942Y-80125499D01*
X29916945Y-80125500D01*
X29916946Y-80125500D01*
X30183054Y-80125500D01*
X30183055Y-80125500D01*
X30183062Y-80125499D01*
X30446189Y-80085840D01*
X30446190Y-80085839D01*
X30446194Y-80085839D01*
X30700482Y-80007401D01*
X30940240Y-79891940D01*
X31160110Y-79742035D01*
X31355183Y-79561033D01*
X31521101Y-79352980D01*
X31654156Y-79122521D01*
X31751377Y-78874805D01*
X31810593Y-78615367D01*
X31812217Y-78593695D01*
X31830479Y-78350004D01*
X31830479Y-78349995D01*
X33309521Y-78349995D01*
X33309521Y-78350004D01*
X33329405Y-78615357D01*
X33329405Y-78615359D01*
X33329407Y-78615367D01*
X33388623Y-78874805D01*
X33485844Y-79122521D01*
X33618899Y-79352980D01*
X33736541Y-79500497D01*
X33784820Y-79561037D01*
X33892754Y-79661184D01*
X33979890Y-79742035D01*
X34199761Y-79891940D01*
X34439514Y-80007399D01*
X34439515Y-80007399D01*
X34439518Y-80007401D01*
X34693806Y-80085839D01*
X34693807Y-80085839D01*
X34693810Y-80085840D01*
X34956937Y-80125499D01*
X34956942Y-80125499D01*
X34956945Y-80125500D01*
X34956946Y-80125500D01*
X35223054Y-80125500D01*
X35223055Y-80125500D01*
X35223062Y-80125499D01*
X35486189Y-80085840D01*
X35486190Y-80085839D01*
X35486194Y-80085839D01*
X35740482Y-80007401D01*
X35980240Y-79891940D01*
X36200110Y-79742035D01*
X36395183Y-79561033D01*
X36561101Y-79352980D01*
X36694156Y-79122521D01*
X36791377Y-78874805D01*
X36850593Y-78615367D01*
X36852217Y-78593695D01*
X36870479Y-78350004D01*
X36870479Y-78349995D01*
X36870479Y-78349994D01*
X48869443Y-78349994D01*
X48869443Y-78350005D01*
X48889634Y-78593683D01*
X48889636Y-78593695D01*
X48949663Y-78830734D01*
X49047888Y-79054666D01*
X49181632Y-79259378D01*
X49347242Y-79439277D01*
X49347252Y-79439286D01*
X49540208Y-79589470D01*
X49540212Y-79589473D01*
X49672718Y-79661182D01*
X49755267Y-79705855D01*
X49755270Y-79705856D01*
X49986541Y-79785251D01*
X49986543Y-79785251D01*
X49986545Y-79785252D01*
X50227737Y-79825500D01*
X50227738Y-79825500D01*
X50472262Y-79825500D01*
X50472263Y-79825500D01*
X50713455Y-79785252D01*
X50944733Y-79705855D01*
X51159788Y-79589473D01*
X51352754Y-79439281D01*
X51518368Y-79259377D01*
X51652111Y-79054667D01*
X51750336Y-78830736D01*
X51810364Y-78593692D01*
X51830557Y-78350000D01*
X51830509Y-78349424D01*
X51810365Y-78106316D01*
X51810363Y-78106304D01*
X51750336Y-77869265D01*
X51731005Y-77825195D01*
X51652111Y-77645333D01*
X51615810Y-77589770D01*
X51518367Y-77440621D01*
X51352757Y-77260722D01*
X51352747Y-77260713D01*
X51159791Y-77110529D01*
X51159787Y-77110526D01*
X50944734Y-76994145D01*
X50944729Y-76994143D01*
X50713458Y-76914748D01*
X50532561Y-76884562D01*
X50472263Y-76874500D01*
X50227737Y-76874500D01*
X50179498Y-76882549D01*
X49986541Y-76914748D01*
X49755270Y-76994143D01*
X49755265Y-76994145D01*
X49540212Y-77110526D01*
X49540208Y-77110529D01*
X49347252Y-77260713D01*
X49347242Y-77260722D01*
X49181632Y-77440621D01*
X49047888Y-77645333D01*
X48949663Y-77869265D01*
X48889636Y-78106304D01*
X48889634Y-78106316D01*
X48869443Y-78349994D01*
X36870479Y-78349994D01*
X36850594Y-78084642D01*
X36850594Y-78084640D01*
X36850593Y-78084636D01*
X36850593Y-78084633D01*
X36791377Y-77825195D01*
X36694156Y-77577479D01*
X36561101Y-77347020D01*
X36395183Y-77138967D01*
X36395182Y-77138966D01*
X36395179Y-77138962D01*
X36200110Y-76957965D01*
X36077689Y-76874500D01*
X35980240Y-76808060D01*
X35980236Y-76808058D01*
X35980233Y-76808056D01*
X35980232Y-76808055D01*
X35740484Y-76692600D01*
X35740486Y-76692600D01*
X35486195Y-76614161D01*
X35486189Y-76614159D01*
X35223062Y-76574500D01*
X35223055Y-76574500D01*
X34956945Y-76574500D01*
X34956937Y-76574500D01*
X34693810Y-76614159D01*
X34693804Y-76614161D01*
X34439514Y-76692600D01*
X34199769Y-76808055D01*
X34199760Y-76808060D01*
X33979892Y-76957963D01*
X33784820Y-77138962D01*
X33618899Y-77347020D01*
X33485844Y-77577478D01*
X33388625Y-77825189D01*
X33388620Y-77825206D01*
X33329405Y-78084640D01*
X33329405Y-78084642D01*
X33309521Y-78349995D01*
X31830479Y-78349995D01*
X31810594Y-78084642D01*
X31810594Y-78084640D01*
X31810593Y-78084636D01*
X31810593Y-78084633D01*
X31751377Y-77825195D01*
X31654156Y-77577479D01*
X31521101Y-77347020D01*
X31355183Y-77138967D01*
X31355182Y-77138966D01*
X31355179Y-77138962D01*
X31160110Y-76957965D01*
X31037689Y-76874500D01*
X30940240Y-76808060D01*
X30940236Y-76808058D01*
X30940233Y-76808056D01*
X30940232Y-76808055D01*
X30700484Y-76692600D01*
X30700486Y-76692600D01*
X30446195Y-76614161D01*
X30446189Y-76614159D01*
X30183062Y-76574500D01*
X30183055Y-76574500D01*
X29916945Y-76574500D01*
X29916937Y-76574500D01*
X29653810Y-76614159D01*
X29653804Y-76614161D01*
X29399514Y-76692600D01*
X29159769Y-76808055D01*
X29159760Y-76808060D01*
X28939892Y-76957963D01*
X28744820Y-77138962D01*
X28578899Y-77347020D01*
X28445844Y-77577478D01*
X28348625Y-77825189D01*
X28348620Y-77825206D01*
X28289405Y-78084640D01*
X28289405Y-78084642D01*
X28269521Y-78349995D01*
X26790479Y-78349995D01*
X26770594Y-78084642D01*
X26770594Y-78084640D01*
X26770593Y-78084636D01*
X26770593Y-78084633D01*
X26711377Y-77825195D01*
X26614156Y-77577479D01*
X26481101Y-77347020D01*
X26315183Y-77138967D01*
X26315182Y-77138966D01*
X26315179Y-77138962D01*
X26120110Y-76957965D01*
X25997689Y-76874500D01*
X25900240Y-76808060D01*
X25900236Y-76808058D01*
X25900233Y-76808056D01*
X25900232Y-76808055D01*
X25660484Y-76692600D01*
X25660486Y-76692600D01*
X25406195Y-76614161D01*
X25406189Y-76614159D01*
X25143062Y-76574500D01*
X25143055Y-76574500D01*
X24876945Y-76574500D01*
X24876937Y-76574500D01*
X24613810Y-76614159D01*
X24613804Y-76614161D01*
X24359514Y-76692600D01*
X24119769Y-76808055D01*
X24119753Y-76808064D01*
X24094350Y-76825384D01*
X24027871Y-76846884D01*
X23960321Y-76829029D01*
X23913148Y-76777489D01*
X23900500Y-76722930D01*
X23900500Y-74539994D01*
X48869443Y-74539994D01*
X48869443Y-74540005D01*
X48889634Y-74783683D01*
X48889636Y-74783695D01*
X48949663Y-75020734D01*
X49047888Y-75244666D01*
X49181632Y-75449378D01*
X49347242Y-75629277D01*
X49347252Y-75629286D01*
X49540208Y-75779470D01*
X49540212Y-75779473D01*
X49656361Y-75842330D01*
X49755267Y-75895855D01*
X49755270Y-75895856D01*
X49986541Y-75975251D01*
X49986543Y-75975251D01*
X49986545Y-75975252D01*
X50227737Y-76015500D01*
X50227738Y-76015500D01*
X50472262Y-76015500D01*
X50472263Y-76015500D01*
X50713455Y-75975252D01*
X50944733Y-75895855D01*
X51159788Y-75779473D01*
X51352754Y-75629281D01*
X51518368Y-75449377D01*
X51652111Y-75244667D01*
X51750336Y-75020736D01*
X51810364Y-74783692D01*
X51825585Y-74600005D01*
X51830557Y-74540005D01*
X51830557Y-74539994D01*
X51810365Y-74296316D01*
X51810363Y-74296304D01*
X51750336Y-74059265D01*
X51652111Y-73835333D01*
X51518367Y-73630621D01*
X51352757Y-73450722D01*
X51352747Y-73450713D01*
X51159791Y-73300529D01*
X51159787Y-73300526D01*
X50944734Y-73184145D01*
X50944729Y-73184143D01*
X50713458Y-73104748D01*
X50532561Y-73074562D01*
X50472263Y-73064500D01*
X50227737Y-73064500D01*
X50179498Y-73072549D01*
X49986541Y-73104748D01*
X49755270Y-73184143D01*
X49755265Y-73184145D01*
X49540212Y-73300526D01*
X49540208Y-73300529D01*
X49347252Y-73450713D01*
X49347242Y-73450722D01*
X49181632Y-73630621D01*
X49047888Y-73835333D01*
X48949663Y-74059265D01*
X48889636Y-74296304D01*
X48889634Y-74296316D01*
X48869443Y-74539994D01*
X23900500Y-74539994D01*
X23900500Y-72477069D01*
X23920185Y-72410030D01*
X23972989Y-72364275D01*
X24042147Y-72354331D01*
X24094349Y-72374614D01*
X24119761Y-72391940D01*
X24359514Y-72507399D01*
X24359515Y-72507399D01*
X24359518Y-72507401D01*
X24613806Y-72585839D01*
X24613807Y-72585839D01*
X24613810Y-72585840D01*
X24876937Y-72625499D01*
X24876942Y-72625499D01*
X24876945Y-72625500D01*
X24876946Y-72625500D01*
X25143054Y-72625500D01*
X25143055Y-72625500D01*
X25143062Y-72625499D01*
X25406189Y-72585840D01*
X25406190Y-72585839D01*
X25406194Y-72585839D01*
X25660482Y-72507401D01*
X25900240Y-72391940D01*
X26120110Y-72242035D01*
X26315183Y-72061033D01*
X26481101Y-71852980D01*
X26614156Y-71622521D01*
X26711377Y-71374805D01*
X26770593Y-71115367D01*
X26772217Y-71093695D01*
X26790479Y-70850004D01*
X26790479Y-70849995D01*
X28269521Y-70849995D01*
X28269521Y-70850004D01*
X28289405Y-71115357D01*
X28289405Y-71115359D01*
X28290578Y-71120500D01*
X28348623Y-71374805D01*
X28445844Y-71622521D01*
X28578899Y-71852980D01*
X28712906Y-72021018D01*
X28744820Y-72061037D01*
X28859332Y-72167288D01*
X28939890Y-72242035D01*
X29159761Y-72391940D01*
X29399514Y-72507399D01*
X29399515Y-72507399D01*
X29399518Y-72507401D01*
X29653806Y-72585839D01*
X29653807Y-72585839D01*
X29653810Y-72585840D01*
X29916937Y-72625499D01*
X29916942Y-72625499D01*
X29916945Y-72625500D01*
X29916946Y-72625500D01*
X30183054Y-72625500D01*
X30183055Y-72625500D01*
X30183062Y-72625499D01*
X30446189Y-72585840D01*
X30446190Y-72585839D01*
X30446194Y-72585839D01*
X30700482Y-72507401D01*
X30940240Y-72391940D01*
X31160110Y-72242035D01*
X31355183Y-72061033D01*
X31521101Y-71852980D01*
X31654156Y-71622521D01*
X31751377Y-71374805D01*
X31810593Y-71115367D01*
X31812217Y-71093695D01*
X31830479Y-70850004D01*
X31830479Y-70849995D01*
X33309521Y-70849995D01*
X33309521Y-70850004D01*
X33329405Y-71115357D01*
X33329405Y-71115359D01*
X33330578Y-71120500D01*
X33388623Y-71374805D01*
X33485844Y-71622521D01*
X33618899Y-71852980D01*
X33752906Y-72021018D01*
X33784820Y-72061037D01*
X33899332Y-72167288D01*
X33979890Y-72242035D01*
X34199761Y-72391940D01*
X34439514Y-72507399D01*
X34439515Y-72507399D01*
X34439518Y-72507401D01*
X34693806Y-72585839D01*
X34693807Y-72585839D01*
X34693810Y-72585840D01*
X34956937Y-72625499D01*
X34956942Y-72625499D01*
X34956945Y-72625500D01*
X34956946Y-72625500D01*
X35223054Y-72625500D01*
X35223055Y-72625500D01*
X35223062Y-72625499D01*
X35486189Y-72585840D01*
X35486190Y-72585839D01*
X35486194Y-72585839D01*
X35740482Y-72507401D01*
X35980240Y-72391940D01*
X36200110Y-72242035D01*
X36395183Y-72061033D01*
X36561101Y-71852980D01*
X36694156Y-71622521D01*
X36791377Y-71374805D01*
X36850593Y-71115367D01*
X36852217Y-71093695D01*
X36870479Y-70850004D01*
X36870479Y-70849995D01*
X36870479Y-70849994D01*
X48869443Y-70849994D01*
X48869443Y-70850005D01*
X48889634Y-71093683D01*
X48889636Y-71093695D01*
X48949663Y-71330734D01*
X49047888Y-71554666D01*
X49181632Y-71759378D01*
X49347242Y-71939277D01*
X49347252Y-71939286D01*
X49540208Y-72089470D01*
X49540212Y-72089473D01*
X49755267Y-72205855D01*
X49755270Y-72205856D01*
X49986541Y-72285251D01*
X49986543Y-72285251D01*
X49986545Y-72285252D01*
X50227737Y-72325500D01*
X50227738Y-72325500D01*
X50472262Y-72325500D01*
X50472263Y-72325500D01*
X50713455Y-72285252D01*
X50944733Y-72205855D01*
X51159788Y-72089473D01*
X51352754Y-71939281D01*
X51518368Y-71759377D01*
X51652111Y-71554667D01*
X51750336Y-71330736D01*
X51810364Y-71093692D01*
X51811530Y-71079618D01*
X51830557Y-70850005D01*
X51830557Y-70849994D01*
X51810365Y-70606316D01*
X51810363Y-70606304D01*
X51797291Y-70554683D01*
X51750336Y-70369264D01*
X51652111Y-70145333D01*
X51518368Y-69940623D01*
X51518367Y-69940621D01*
X51352757Y-69760722D01*
X51352747Y-69760713D01*
X51159791Y-69610529D01*
X51159787Y-69610526D01*
X50944734Y-69494145D01*
X50944729Y-69494143D01*
X50713458Y-69414748D01*
X50532561Y-69384562D01*
X50472263Y-69374500D01*
X50227737Y-69374500D01*
X50179498Y-69382549D01*
X49986541Y-69414748D01*
X49755270Y-69494143D01*
X49755265Y-69494145D01*
X49540212Y-69610526D01*
X49540208Y-69610529D01*
X49347252Y-69760713D01*
X49347242Y-69760722D01*
X49181632Y-69940621D01*
X49047888Y-70145333D01*
X48949663Y-70369265D01*
X48889636Y-70606304D01*
X48889634Y-70606316D01*
X48869443Y-70849994D01*
X36870479Y-70849994D01*
X36850594Y-70584642D01*
X36850594Y-70584640D01*
X36850593Y-70584636D01*
X36850593Y-70584633D01*
X36791377Y-70325195D01*
X36694156Y-70077479D01*
X36561101Y-69847020D01*
X36395183Y-69638967D01*
X36395182Y-69638966D01*
X36395179Y-69638962D01*
X36200110Y-69457965D01*
X36077689Y-69374500D01*
X35980240Y-69308060D01*
X35980236Y-69308058D01*
X35980233Y-69308056D01*
X35980232Y-69308055D01*
X35740484Y-69192600D01*
X35740486Y-69192600D01*
X35486195Y-69114161D01*
X35486189Y-69114159D01*
X35223062Y-69074500D01*
X35223055Y-69074500D01*
X34956945Y-69074500D01*
X34956937Y-69074500D01*
X34693810Y-69114159D01*
X34693804Y-69114161D01*
X34439514Y-69192600D01*
X34199769Y-69308055D01*
X34199760Y-69308060D01*
X33979892Y-69457963D01*
X33784820Y-69638962D01*
X33618899Y-69847020D01*
X33485844Y-70077478D01*
X33388625Y-70325189D01*
X33388620Y-70325206D01*
X33329405Y-70584640D01*
X33329405Y-70584642D01*
X33309521Y-70849995D01*
X31830479Y-70849995D01*
X31810594Y-70584642D01*
X31810594Y-70584640D01*
X31810593Y-70584636D01*
X31810593Y-70584633D01*
X31751377Y-70325195D01*
X31654156Y-70077479D01*
X31521101Y-69847020D01*
X31355183Y-69638967D01*
X31355182Y-69638966D01*
X31355179Y-69638962D01*
X31160110Y-69457965D01*
X31037689Y-69374500D01*
X30940240Y-69308060D01*
X30940236Y-69308058D01*
X30940233Y-69308056D01*
X30940232Y-69308055D01*
X30700484Y-69192600D01*
X30700486Y-69192600D01*
X30446195Y-69114161D01*
X30446189Y-69114159D01*
X30183062Y-69074500D01*
X30183055Y-69074500D01*
X29916945Y-69074500D01*
X29916937Y-69074500D01*
X29653810Y-69114159D01*
X29653804Y-69114161D01*
X29399514Y-69192600D01*
X29159769Y-69308055D01*
X29159760Y-69308060D01*
X28939892Y-69457963D01*
X28744820Y-69638962D01*
X28578899Y-69847020D01*
X28445844Y-70077478D01*
X28348625Y-70325189D01*
X28348620Y-70325206D01*
X28289405Y-70584640D01*
X28289405Y-70584642D01*
X28269521Y-70849995D01*
X26790479Y-70849995D01*
X26770594Y-70584642D01*
X26770594Y-70584640D01*
X26770593Y-70584636D01*
X26770593Y-70584633D01*
X26711377Y-70325195D01*
X26614156Y-70077479D01*
X26481101Y-69847020D01*
X26315183Y-69638967D01*
X26315182Y-69638966D01*
X26315179Y-69638962D01*
X26120110Y-69457965D01*
X25997689Y-69374500D01*
X25900240Y-69308060D01*
X25900236Y-69308058D01*
X25900233Y-69308056D01*
X25900232Y-69308055D01*
X25660484Y-69192600D01*
X25660486Y-69192600D01*
X25406195Y-69114161D01*
X25406189Y-69114159D01*
X25143062Y-69074500D01*
X25143055Y-69074500D01*
X24876945Y-69074500D01*
X24876937Y-69074500D01*
X24613810Y-69114159D01*
X24613804Y-69114161D01*
X24359514Y-69192600D01*
X24119769Y-69308055D01*
X24119753Y-69308064D01*
X24094350Y-69325384D01*
X24027871Y-69346884D01*
X23960321Y-69329029D01*
X23913148Y-69277489D01*
X23900500Y-69222930D01*
X23900500Y-65736162D01*
X23920185Y-65669123D01*
X23972989Y-65623368D01*
X24042147Y-65613424D01*
X24094347Y-65633706D01*
X24179761Y-65691940D01*
X24179766Y-65691942D01*
X24179767Y-65691943D01*
X24179769Y-65691944D01*
X24230060Y-65716162D01*
X24419514Y-65807399D01*
X24419515Y-65807399D01*
X24419518Y-65807401D01*
X24673806Y-65885839D01*
X24673807Y-65885839D01*
X24673810Y-65885840D01*
X24936937Y-65925499D01*
X24936942Y-65925499D01*
X24936945Y-65925500D01*
X24936946Y-65925500D01*
X25203054Y-65925500D01*
X25203055Y-65925500D01*
X25242870Y-65919499D01*
X25466189Y-65885840D01*
X25466190Y-65885839D01*
X25466194Y-65885839D01*
X25720482Y-65807401D01*
X25960240Y-65691940D01*
X26180110Y-65542035D01*
X26375183Y-65361033D01*
X26541101Y-65152980D01*
X26674156Y-64922521D01*
X26771377Y-64674805D01*
X26830593Y-64415367D01*
X26832217Y-64393695D01*
X26850479Y-64150004D01*
X26850479Y-64149995D01*
X28329521Y-64149995D01*
X28329521Y-64150004D01*
X28349405Y-64415357D01*
X28349405Y-64415359D01*
X28375571Y-64530000D01*
X28408623Y-64674805D01*
X28505844Y-64922521D01*
X28638899Y-65152980D01*
X28713370Y-65246363D01*
X28804820Y-65361037D01*
X28905519Y-65454471D01*
X28999890Y-65542035D01*
X29219761Y-65691940D01*
X29219767Y-65691942D01*
X29219769Y-65691944D01*
X29270060Y-65716162D01*
X29459514Y-65807399D01*
X29459515Y-65807399D01*
X29459518Y-65807401D01*
X29713806Y-65885839D01*
X29713807Y-65885839D01*
X29713810Y-65885840D01*
X29976937Y-65925499D01*
X29976942Y-65925499D01*
X29976945Y-65925500D01*
X29976946Y-65925500D01*
X30243054Y-65925500D01*
X30243055Y-65925500D01*
X30282870Y-65919499D01*
X30506189Y-65885840D01*
X30506190Y-65885839D01*
X30506194Y-65885839D01*
X30760482Y-65807401D01*
X31000240Y-65691940D01*
X31220110Y-65542035D01*
X31415183Y-65361033D01*
X31581101Y-65152980D01*
X31714156Y-64922521D01*
X31811377Y-64674805D01*
X31870593Y-64415367D01*
X31872217Y-64393695D01*
X31890479Y-64150004D01*
X31890479Y-64149995D01*
X33369521Y-64149995D01*
X33369521Y-64150004D01*
X33389405Y-64415357D01*
X33389405Y-64415359D01*
X33415571Y-64530000D01*
X33448623Y-64674805D01*
X33545844Y-64922521D01*
X33678899Y-65152980D01*
X33753370Y-65246363D01*
X33844820Y-65361037D01*
X33945519Y-65454471D01*
X34039890Y-65542035D01*
X34259761Y-65691940D01*
X34259767Y-65691942D01*
X34259769Y-65691944D01*
X34310060Y-65716162D01*
X34499514Y-65807399D01*
X34499515Y-65807399D01*
X34499518Y-65807401D01*
X34753806Y-65885839D01*
X34753807Y-65885839D01*
X34753810Y-65885840D01*
X35016937Y-65925499D01*
X35016942Y-65925499D01*
X35016945Y-65925500D01*
X35016946Y-65925500D01*
X35283054Y-65925500D01*
X35283055Y-65925500D01*
X35322870Y-65919499D01*
X35546189Y-65885840D01*
X35546190Y-65885839D01*
X35546194Y-65885839D01*
X35800482Y-65807401D01*
X36040240Y-65691940D01*
X36260110Y-65542035D01*
X36455183Y-65361033D01*
X36621101Y-65152980D01*
X36754156Y-64922521D01*
X36851377Y-64674805D01*
X36910593Y-64415367D01*
X36912217Y-64393695D01*
X36930479Y-64150004D01*
X36930479Y-64149995D01*
X36930479Y-64149994D01*
X48929443Y-64149994D01*
X48929443Y-64150005D01*
X48949634Y-64393683D01*
X48949636Y-64393695D01*
X49009663Y-64630734D01*
X49107888Y-64854666D01*
X49241632Y-65059378D01*
X49407242Y-65239277D01*
X49407252Y-65239286D01*
X49600208Y-65389470D01*
X49600212Y-65389473D01*
X49720319Y-65454472D01*
X49815267Y-65505855D01*
X49815270Y-65505856D01*
X50046541Y-65585251D01*
X50046543Y-65585251D01*
X50046545Y-65585252D01*
X50287737Y-65625500D01*
X50287738Y-65625500D01*
X50532262Y-65625500D01*
X50532263Y-65625500D01*
X50773455Y-65585252D01*
X51004733Y-65505855D01*
X51219788Y-65389473D01*
X51412754Y-65239281D01*
X51578368Y-65059377D01*
X51712111Y-64854667D01*
X51810336Y-64630736D01*
X51870364Y-64393692D01*
X51879597Y-64282267D01*
X51890557Y-64150005D01*
X51890557Y-64149994D01*
X51870365Y-63906316D01*
X51870363Y-63906304D01*
X51822618Y-63717764D01*
X51810336Y-63669264D01*
X51712111Y-63445333D01*
X51607577Y-63285331D01*
X51578367Y-63240621D01*
X51412757Y-63060722D01*
X51412747Y-63060713D01*
X51219791Y-62910529D01*
X51219787Y-62910526D01*
X51004734Y-62794145D01*
X51004729Y-62794143D01*
X50773458Y-62714748D01*
X50592561Y-62684562D01*
X50532263Y-62674500D01*
X50287737Y-62674500D01*
X50239498Y-62682549D01*
X50046541Y-62714748D01*
X49815270Y-62794143D01*
X49815265Y-62794145D01*
X49600212Y-62910526D01*
X49600208Y-62910529D01*
X49407252Y-63060713D01*
X49407242Y-63060722D01*
X49241632Y-63240621D01*
X49107888Y-63445333D01*
X49009663Y-63669265D01*
X48949636Y-63906304D01*
X48949634Y-63906316D01*
X48929443Y-64149994D01*
X36930479Y-64149994D01*
X36910594Y-63884642D01*
X36910594Y-63884640D01*
X36910593Y-63884636D01*
X36910593Y-63884633D01*
X36851377Y-63625195D01*
X36754156Y-63377479D01*
X36621101Y-63147020D01*
X36455183Y-62938967D01*
X36455182Y-62938966D01*
X36455179Y-62938962D01*
X36260110Y-62757965D01*
X36196722Y-62714748D01*
X36040240Y-62608060D01*
X36040236Y-62608058D01*
X36040233Y-62608056D01*
X36040232Y-62608055D01*
X35800484Y-62492600D01*
X35800486Y-62492600D01*
X35546195Y-62414161D01*
X35546189Y-62414159D01*
X35283062Y-62374500D01*
X35283055Y-62374500D01*
X35016945Y-62374500D01*
X35016937Y-62374500D01*
X34753810Y-62414159D01*
X34753804Y-62414161D01*
X34499514Y-62492600D01*
X34259769Y-62608055D01*
X34259760Y-62608060D01*
X34039892Y-62757963D01*
X33844820Y-62938962D01*
X33678899Y-63147020D01*
X33545844Y-63377478D01*
X33448625Y-63625189D01*
X33448620Y-63625206D01*
X33389405Y-63884640D01*
X33389405Y-63884642D01*
X33369521Y-64149995D01*
X31890479Y-64149995D01*
X31870594Y-63884642D01*
X31870594Y-63884640D01*
X31870593Y-63884636D01*
X31870593Y-63884633D01*
X31811377Y-63625195D01*
X31714156Y-63377479D01*
X31581101Y-63147020D01*
X31415183Y-62938967D01*
X31415182Y-62938966D01*
X31415179Y-62938962D01*
X31220110Y-62757965D01*
X31156722Y-62714748D01*
X31000240Y-62608060D01*
X31000236Y-62608058D01*
X31000233Y-62608056D01*
X31000232Y-62608055D01*
X30760484Y-62492600D01*
X30760486Y-62492600D01*
X30506195Y-62414161D01*
X30506189Y-62414159D01*
X30243062Y-62374500D01*
X30243055Y-62374500D01*
X29976945Y-62374500D01*
X29976937Y-62374500D01*
X29713810Y-62414159D01*
X29713804Y-62414161D01*
X29459514Y-62492600D01*
X29219769Y-62608055D01*
X29219760Y-62608060D01*
X28999892Y-62757963D01*
X28804820Y-62938962D01*
X28638899Y-63147020D01*
X28505844Y-63377478D01*
X28408625Y-63625189D01*
X28408620Y-63625206D01*
X28349405Y-63884640D01*
X28349405Y-63884642D01*
X28329521Y-64149995D01*
X26850479Y-64149995D01*
X26830594Y-63884642D01*
X26830594Y-63884640D01*
X26830593Y-63884636D01*
X26830593Y-63884633D01*
X26771377Y-63625195D01*
X26674156Y-63377479D01*
X26541101Y-63147020D01*
X26375183Y-62938967D01*
X26375182Y-62938966D01*
X26375179Y-62938962D01*
X26180110Y-62757965D01*
X26116722Y-62714748D01*
X25960240Y-62608060D01*
X25960236Y-62608058D01*
X25960233Y-62608056D01*
X25960232Y-62608055D01*
X25720484Y-62492600D01*
X25720486Y-62492600D01*
X25466195Y-62414161D01*
X25466189Y-62414159D01*
X25203062Y-62374500D01*
X25203055Y-62374500D01*
X24936945Y-62374500D01*
X24936937Y-62374500D01*
X24673810Y-62414159D01*
X24673804Y-62414161D01*
X24419514Y-62492600D01*
X24179769Y-62608055D01*
X24179760Y-62608060D01*
X24094351Y-62666291D01*
X24027872Y-62687791D01*
X23960322Y-62669937D01*
X23913148Y-62618396D01*
X23900500Y-62563837D01*
X23900500Y-60339994D01*
X48929443Y-60339994D01*
X48929443Y-60340005D01*
X48949634Y-60583683D01*
X48949636Y-60583695D01*
X49009663Y-60820734D01*
X49107888Y-61044666D01*
X49241632Y-61249378D01*
X49407242Y-61429277D01*
X49407252Y-61429286D01*
X49600208Y-61579470D01*
X49600212Y-61579473D01*
X49757880Y-61664799D01*
X49815267Y-61695855D01*
X49815270Y-61695856D01*
X50046541Y-61775251D01*
X50046543Y-61775251D01*
X50046545Y-61775252D01*
X50287737Y-61815500D01*
X50287738Y-61815500D01*
X50532262Y-61815500D01*
X50532263Y-61815500D01*
X50773455Y-61775252D01*
X51004733Y-61695855D01*
X51219788Y-61579473D01*
X51412754Y-61429281D01*
X51578368Y-61249377D01*
X51712111Y-61044667D01*
X51810336Y-60820736D01*
X51870364Y-60583692D01*
X51872546Y-60557357D01*
X51890557Y-60340005D01*
X51890557Y-60339994D01*
X51870365Y-60096316D01*
X51870363Y-60096304D01*
X51829281Y-59934075D01*
X51810336Y-59859264D01*
X51712111Y-59635333D01*
X51578368Y-59430623D01*
X51578367Y-59430621D01*
X51412757Y-59250722D01*
X51412747Y-59250713D01*
X51219791Y-59100529D01*
X51219787Y-59100526D01*
X51004734Y-58984145D01*
X51004729Y-58984143D01*
X50773458Y-58904748D01*
X50592561Y-58874562D01*
X50532263Y-58864500D01*
X50287737Y-58864500D01*
X50239498Y-58872549D01*
X50046541Y-58904748D01*
X49815270Y-58984143D01*
X49815265Y-58984145D01*
X49600212Y-59100526D01*
X49600208Y-59100529D01*
X49407252Y-59250713D01*
X49407242Y-59250722D01*
X49241632Y-59430621D01*
X49107888Y-59635333D01*
X49009663Y-59859265D01*
X48949636Y-60096304D01*
X48949634Y-60096316D01*
X48929443Y-60339994D01*
X23900500Y-60339994D01*
X23900500Y-58236162D01*
X23920185Y-58169123D01*
X23972989Y-58123368D01*
X24042147Y-58113424D01*
X24094347Y-58133706D01*
X24179761Y-58191940D01*
X24419514Y-58307399D01*
X24419515Y-58307399D01*
X24419518Y-58307401D01*
X24673806Y-58385839D01*
X24673807Y-58385839D01*
X24673810Y-58385840D01*
X24936937Y-58425499D01*
X24936942Y-58425499D01*
X24936945Y-58425500D01*
X24936946Y-58425500D01*
X25203054Y-58425500D01*
X25203055Y-58425500D01*
X25203062Y-58425499D01*
X25466189Y-58385840D01*
X25466190Y-58385839D01*
X25466194Y-58385839D01*
X25720482Y-58307401D01*
X25960240Y-58191940D01*
X26180110Y-58042035D01*
X26334706Y-57898590D01*
X26375179Y-57861037D01*
X26375179Y-57861035D01*
X26375183Y-57861033D01*
X26541101Y-57652980D01*
X26674156Y-57422521D01*
X26771377Y-57174805D01*
X26830593Y-56915367D01*
X26835492Y-56850000D01*
X26850479Y-56649999D01*
X26850479Y-56649995D01*
X28329521Y-56649995D01*
X28329521Y-56649999D01*
X28349405Y-56915357D01*
X28349405Y-56915359D01*
X28400149Y-57137681D01*
X28408623Y-57174805D01*
X28505844Y-57422521D01*
X28638899Y-57652980D01*
X28723018Y-57758461D01*
X28804820Y-57861037D01*
X28919332Y-57967288D01*
X28999890Y-58042035D01*
X29219761Y-58191940D01*
X29459514Y-58307399D01*
X29459515Y-58307399D01*
X29459518Y-58307401D01*
X29713806Y-58385839D01*
X29713807Y-58385839D01*
X29713810Y-58385840D01*
X29976937Y-58425499D01*
X29976942Y-58425499D01*
X29976945Y-58425500D01*
X29976946Y-58425500D01*
X30243054Y-58425500D01*
X30243055Y-58425500D01*
X30243062Y-58425499D01*
X30506189Y-58385840D01*
X30506190Y-58385839D01*
X30506194Y-58385839D01*
X30760482Y-58307401D01*
X31000240Y-58191940D01*
X31220110Y-58042035D01*
X31374706Y-57898590D01*
X31415179Y-57861037D01*
X31415179Y-57861035D01*
X31415183Y-57861033D01*
X31581101Y-57652980D01*
X31714156Y-57422521D01*
X31811377Y-57174805D01*
X31870593Y-56915367D01*
X31875492Y-56850000D01*
X31890479Y-56649999D01*
X31890479Y-56649995D01*
X33369521Y-56649995D01*
X33369521Y-56649999D01*
X33389405Y-56915357D01*
X33389405Y-56915359D01*
X33440149Y-57137681D01*
X33448623Y-57174805D01*
X33545844Y-57422521D01*
X33678899Y-57652980D01*
X33763018Y-57758461D01*
X33844820Y-57861037D01*
X33959332Y-57967288D01*
X34039890Y-58042035D01*
X34259761Y-58191940D01*
X34499514Y-58307399D01*
X34499515Y-58307399D01*
X34499518Y-58307401D01*
X34753806Y-58385839D01*
X34753807Y-58385839D01*
X34753810Y-58385840D01*
X35016937Y-58425499D01*
X35016942Y-58425499D01*
X35016945Y-58425500D01*
X35016946Y-58425500D01*
X35283054Y-58425500D01*
X35283055Y-58425500D01*
X35283062Y-58425499D01*
X35546189Y-58385840D01*
X35546190Y-58385839D01*
X35546194Y-58385839D01*
X35800482Y-58307401D01*
X36040240Y-58191940D01*
X36260110Y-58042035D01*
X36414706Y-57898590D01*
X36455179Y-57861037D01*
X36455179Y-57861035D01*
X36455183Y-57861033D01*
X36621101Y-57652980D01*
X36754156Y-57422521D01*
X36851377Y-57174805D01*
X36910593Y-56915367D01*
X36915492Y-56850000D01*
X36930479Y-56649999D01*
X36930479Y-56649995D01*
X36930479Y-56649994D01*
X48929443Y-56649994D01*
X48929443Y-56650000D01*
X48949634Y-56893683D01*
X48949636Y-56893695D01*
X49009663Y-57130734D01*
X49107888Y-57354666D01*
X49241632Y-57559378D01*
X49407242Y-57739277D01*
X49407252Y-57739286D01*
X49600208Y-57889470D01*
X49600212Y-57889473D01*
X49815267Y-58005855D01*
X49815270Y-58005856D01*
X50046541Y-58085251D01*
X50046543Y-58085251D01*
X50046545Y-58085252D01*
X50287737Y-58125500D01*
X50287738Y-58125500D01*
X50532262Y-58125500D01*
X50532263Y-58125500D01*
X50773455Y-58085252D01*
X51004733Y-58005855D01*
X51219788Y-57889473D01*
X51412754Y-57739281D01*
X51578368Y-57559377D01*
X51712111Y-57354667D01*
X51810336Y-57130736D01*
X51870364Y-56893692D01*
X51873342Y-56857761D01*
X51890557Y-56650000D01*
X51890557Y-56649994D01*
X51870365Y-56406316D01*
X51870363Y-56406304D01*
X51810336Y-56169265D01*
X51791005Y-56125195D01*
X51712111Y-55945333D01*
X51683857Y-55902087D01*
X51578367Y-55740621D01*
X51412757Y-55560722D01*
X51412747Y-55560713D01*
X51219791Y-55410529D01*
X51219787Y-55410526D01*
X51004734Y-55294145D01*
X51004729Y-55294143D01*
X50773458Y-55214748D01*
X50592561Y-55184562D01*
X50532263Y-55174500D01*
X50287737Y-55174500D01*
X50239498Y-55182549D01*
X50046541Y-55214748D01*
X49815270Y-55294143D01*
X49815265Y-55294145D01*
X49600212Y-55410526D01*
X49600208Y-55410529D01*
X49407252Y-55560713D01*
X49407242Y-55560722D01*
X49241632Y-55740621D01*
X49107888Y-55945333D01*
X49009663Y-56169265D01*
X48949636Y-56406304D01*
X48949634Y-56406316D01*
X48929443Y-56649994D01*
X36930479Y-56649994D01*
X36910594Y-56384642D01*
X36910594Y-56384640D01*
X36910593Y-56384636D01*
X36910593Y-56384633D01*
X36851377Y-56125195D01*
X36754156Y-55877479D01*
X36621101Y-55647020D01*
X36455183Y-55438967D01*
X36455182Y-55438966D01*
X36455179Y-55438962D01*
X36260110Y-55257965D01*
X36196722Y-55214748D01*
X36040240Y-55108060D01*
X36040236Y-55108058D01*
X36040233Y-55108056D01*
X36040232Y-55108055D01*
X35800484Y-54992600D01*
X35800486Y-54992600D01*
X35546195Y-54914161D01*
X35546189Y-54914159D01*
X35283062Y-54874500D01*
X35283055Y-54874500D01*
X35016945Y-54874500D01*
X35016937Y-54874500D01*
X34753810Y-54914159D01*
X34753804Y-54914161D01*
X34499514Y-54992600D01*
X34259769Y-55108055D01*
X34259760Y-55108060D01*
X34039892Y-55257963D01*
X33844820Y-55438962D01*
X33678899Y-55647020D01*
X33545844Y-55877478D01*
X33448625Y-56125189D01*
X33448620Y-56125206D01*
X33389405Y-56384640D01*
X33389405Y-56384642D01*
X33369521Y-56649995D01*
X31890479Y-56649995D01*
X31870594Y-56384642D01*
X31870594Y-56384640D01*
X31870593Y-56384636D01*
X31870593Y-56384633D01*
X31811377Y-56125195D01*
X31714156Y-55877479D01*
X31581101Y-55647020D01*
X31415183Y-55438967D01*
X31415182Y-55438966D01*
X31415179Y-55438962D01*
X31220110Y-55257965D01*
X31156722Y-55214748D01*
X31000240Y-55108060D01*
X31000236Y-55108058D01*
X31000233Y-55108056D01*
X31000232Y-55108055D01*
X30760484Y-54992600D01*
X30760486Y-54992600D01*
X30506195Y-54914161D01*
X30506189Y-54914159D01*
X30243062Y-54874500D01*
X30243055Y-54874500D01*
X29976945Y-54874500D01*
X29976937Y-54874500D01*
X29713810Y-54914159D01*
X29713804Y-54914161D01*
X29459514Y-54992600D01*
X29219769Y-55108055D01*
X29219760Y-55108060D01*
X28999892Y-55257963D01*
X28804820Y-55438962D01*
X28638899Y-55647020D01*
X28505844Y-55877478D01*
X28408625Y-56125189D01*
X28408620Y-56125206D01*
X28349405Y-56384640D01*
X28349405Y-56384642D01*
X28329521Y-56649995D01*
X26850479Y-56649995D01*
X26830594Y-56384642D01*
X26830594Y-56384640D01*
X26830593Y-56384636D01*
X26830593Y-56384633D01*
X26771377Y-56125195D01*
X26674156Y-55877479D01*
X26541101Y-55647020D01*
X26375183Y-55438967D01*
X26375182Y-55438966D01*
X26375179Y-55438962D01*
X26180110Y-55257965D01*
X26116722Y-55214748D01*
X25960240Y-55108060D01*
X25960236Y-55108058D01*
X25960233Y-55108056D01*
X25960232Y-55108055D01*
X25720484Y-54992600D01*
X25720486Y-54992600D01*
X25466195Y-54914161D01*
X25466189Y-54914159D01*
X25203062Y-54874500D01*
X25203055Y-54874500D01*
X24936945Y-54874500D01*
X24936937Y-54874500D01*
X24673810Y-54914159D01*
X24673804Y-54914161D01*
X24419514Y-54992600D01*
X24179769Y-55108055D01*
X24179760Y-55108060D01*
X24094351Y-55166291D01*
X24027872Y-55187791D01*
X23960322Y-55169937D01*
X23913148Y-55118396D01*
X23900500Y-55063837D01*
X23900500Y-50627614D01*
X23920185Y-50560575D01*
X23972989Y-50514820D01*
X24042147Y-50504876D01*
X24105703Y-50533901D01*
X24127601Y-50558722D01*
X24291078Y-50803381D01*
X24297391Y-50810580D01*
X24489901Y-51030098D01*
X24636804Y-51158927D01*
X24716619Y-51228922D01*
X24967347Y-51396454D01*
X25092465Y-51458155D01*
X25237781Y-51529817D01*
X25237786Y-51529819D01*
X25237798Y-51529825D01*
X25523343Y-51626755D01*
X25819097Y-51685584D01*
X26120000Y-51705306D01*
X26420903Y-51685584D01*
X26716657Y-51626755D01*
X27002202Y-51529825D01*
X27272653Y-51396454D01*
X27523381Y-51228922D01*
X27750098Y-51030098D01*
X27948922Y-50803381D01*
X28116454Y-50552653D01*
X28249825Y-50282202D01*
X28346755Y-49996657D01*
X28405584Y-49700903D01*
X28425306Y-49400000D01*
X28894694Y-49400000D01*
X28914416Y-49700901D01*
X28914418Y-49700913D01*
X28973243Y-49996649D01*
X28973247Y-49996664D01*
X29070173Y-50282197D01*
X29070182Y-50282218D01*
X29203542Y-50552645D01*
X29203549Y-50552658D01*
X29272647Y-50656069D01*
X29371078Y-50803381D01*
X29377391Y-50810580D01*
X29569901Y-51030098D01*
X29716804Y-51158927D01*
X29796619Y-51228922D01*
X30047347Y-51396454D01*
X30172465Y-51458155D01*
X30317781Y-51529817D01*
X30317786Y-51529819D01*
X30317798Y-51529825D01*
X30603343Y-51626755D01*
X30899097Y-51685584D01*
X31200000Y-51705306D01*
X31500903Y-51685584D01*
X31796657Y-51626755D01*
X32082202Y-51529825D01*
X32352653Y-51396454D01*
X32603381Y-51228922D01*
X32830098Y-51030098D01*
X33028922Y-50803381D01*
X33196454Y-50552653D01*
X33329825Y-50282202D01*
X33426755Y-49996657D01*
X33485584Y-49700903D01*
X33505306Y-49400000D01*
X33485584Y-49099097D01*
X33426755Y-48803343D01*
X33329825Y-48517798D01*
X33325886Y-48509811D01*
X33268609Y-48393665D01*
X33196454Y-48247347D01*
X33028922Y-47996619D01*
X32992861Y-47955499D01*
X34079960Y-47955499D01*
X34079960Y-50844500D01*
X34095090Y-50978789D01*
X34095091Y-50978794D01*
X34154671Y-51149063D01*
X34204849Y-51228920D01*
X34250644Y-51301802D01*
X34378198Y-51429356D01*
X34530938Y-51525329D01*
X34696338Y-51583205D01*
X34701205Y-51584908D01*
X34701210Y-51584909D01*
X34791706Y-51595105D01*
X34835500Y-51600039D01*
X34835503Y-51600040D01*
X34835506Y-51600040D01*
X37724497Y-51600040D01*
X37724498Y-51600039D01*
X37791644Y-51592474D01*
X37858789Y-51584909D01*
X37858792Y-51584908D01*
X37858795Y-51584908D01*
X38029062Y-51525329D01*
X38181802Y-51429356D01*
X38309356Y-51301802D01*
X38405329Y-51149062D01*
X38464908Y-50978795D01*
X38466254Y-50966855D01*
X38474025Y-50897876D01*
X38480040Y-50844494D01*
X38480040Y-47955506D01*
X38472036Y-47884464D01*
X38464909Y-47821210D01*
X38464908Y-47821205D01*
X38405328Y-47650936D01*
X38309355Y-47498197D01*
X38181802Y-47370644D01*
X38029063Y-47274671D01*
X37858794Y-47215091D01*
X37858789Y-47215090D01*
X37724500Y-47199960D01*
X37724494Y-47199960D01*
X34835506Y-47199960D01*
X34835499Y-47199960D01*
X34701210Y-47215090D01*
X34701205Y-47215091D01*
X34530936Y-47274671D01*
X34378197Y-47370644D01*
X34250644Y-47498197D01*
X34154671Y-47650936D01*
X34095091Y-47821205D01*
X34095090Y-47821210D01*
X34079960Y-47955499D01*
X32992861Y-47955499D01*
X32955694Y-47913118D01*
X32830098Y-47769901D01*
X32603382Y-47571079D01*
X32506151Y-47506111D01*
X32407330Y-47440080D01*
X32352658Y-47403549D01*
X32352655Y-47403547D01*
X32352653Y-47403546D01*
X32352645Y-47403542D01*
X32082218Y-47270182D01*
X32082197Y-47270173D01*
X31796664Y-47173247D01*
X31796658Y-47173245D01*
X31796657Y-47173245D01*
X31796655Y-47173244D01*
X31796649Y-47173243D01*
X31500913Y-47114418D01*
X31500903Y-47114416D01*
X31200000Y-47094694D01*
X30899097Y-47114416D01*
X30899091Y-47114417D01*
X30899086Y-47114418D01*
X30603350Y-47173243D01*
X30603335Y-47173247D01*
X30317802Y-47270173D01*
X30317781Y-47270182D01*
X30047354Y-47403542D01*
X30047341Y-47403549D01*
X29796617Y-47571079D01*
X29569901Y-47769901D01*
X29371079Y-47996617D01*
X29203549Y-48247341D01*
X29203542Y-48247354D01*
X29070182Y-48517781D01*
X29070173Y-48517802D01*
X28973247Y-48803335D01*
X28973243Y-48803350D01*
X28914418Y-49099086D01*
X28914416Y-49099098D01*
X28894694Y-49400000D01*
X28425306Y-49400000D01*
X28405584Y-49099097D01*
X28346755Y-48803343D01*
X28249825Y-48517798D01*
X28245886Y-48509811D01*
X28188609Y-48393665D01*
X28116454Y-48247347D01*
X27948922Y-47996619D01*
X27875694Y-47913118D01*
X27750098Y-47769901D01*
X27523382Y-47571079D01*
X27426151Y-47506111D01*
X27327330Y-47440080D01*
X27272658Y-47403549D01*
X27272655Y-47403547D01*
X27272653Y-47403546D01*
X27272645Y-47403542D01*
X27002218Y-47270182D01*
X27002197Y-47270173D01*
X26716664Y-47173247D01*
X26716658Y-47173245D01*
X26716657Y-47173245D01*
X26716655Y-47173244D01*
X26716649Y-47173243D01*
X26420913Y-47114418D01*
X26420903Y-47114416D01*
X26120000Y-47094694D01*
X25819097Y-47114416D01*
X25819091Y-47114417D01*
X25819086Y-47114418D01*
X25523350Y-47173243D01*
X25523335Y-47173247D01*
X25237802Y-47270173D01*
X25237781Y-47270182D01*
X24967354Y-47403542D01*
X24967341Y-47403549D01*
X24716617Y-47571079D01*
X24489901Y-47769901D01*
X24291079Y-47996617D01*
X24127602Y-48241276D01*
X24073990Y-48286081D01*
X24004665Y-48294788D01*
X23941637Y-48264633D01*
X23904918Y-48205190D01*
X23900500Y-48172385D01*
X23900500Y-46024500D01*
X23920185Y-45957461D01*
X23972989Y-45911706D01*
X24024500Y-45900500D01*
X39054325Y-45900500D01*
X39121364Y-45920185D01*
G37*
%TD.AperFunction*%
%TA.AperFunction,Conductor*%
G36*
X81884878Y-60470185D02*
G01*
X81909068Y-60490517D01*
X81970599Y-60557357D01*
X81970603Y-60557361D01*
X82074152Y-60637956D01*
X82114964Y-60694666D01*
X82121751Y-60743492D01*
X82120307Y-60766753D01*
X82937154Y-61583600D01*
X82936496Y-61583600D01*
X82833135Y-61611295D01*
X82740464Y-61664799D01*
X82664799Y-61740464D01*
X82611295Y-61833135D01*
X82583600Y-61936496D01*
X82583600Y-61937154D01*
X81766931Y-61120485D01*
X81666717Y-61273876D01*
X81566895Y-61501449D01*
X81505892Y-61742342D01*
X81505890Y-61742353D01*
X81485371Y-61989994D01*
X81485371Y-61990005D01*
X81505890Y-62237646D01*
X81505892Y-62237657D01*
X81566895Y-62478550D01*
X81666716Y-62706120D01*
X81766932Y-62859512D01*
X82583600Y-62042845D01*
X82583600Y-62043504D01*
X82611295Y-62146865D01*
X82664799Y-62239536D01*
X82740464Y-62315201D01*
X82833135Y-62368705D01*
X82936496Y-62396400D01*
X82937153Y-62396400D01*
X82120307Y-63213245D01*
X82121751Y-63236506D01*
X82106258Y-63304636D01*
X82074152Y-63342042D01*
X81970604Y-63422637D01*
X81970599Y-63422642D01*
X81802240Y-63605527D01*
X81745912Y-63691745D01*
X81692765Y-63737102D01*
X81623534Y-63746526D01*
X81560198Y-63717024D01*
X81558565Y-63715561D01*
X81396562Y-63567876D01*
X81396560Y-63567874D01*
X81207404Y-63450754D01*
X81207398Y-63450752D01*
X81193410Y-63445333D01*
X80999940Y-63370382D01*
X80781243Y-63329500D01*
X80558757Y-63329500D01*
X80340060Y-63370382D01*
X80321741Y-63377479D01*
X80132601Y-63450752D01*
X80132595Y-63450754D01*
X79943441Y-63567873D01*
X79943438Y-63567876D01*
X79911339Y-63597137D01*
X79848536Y-63627754D01*
X79827802Y-63629500D01*
X77004361Y-63629500D01*
X76937322Y-63609815D01*
X76916680Y-63593181D01*
X73985681Y-60662181D01*
X73952196Y-60600858D01*
X73957180Y-60531166D01*
X73999052Y-60475233D01*
X74064516Y-60450816D01*
X74073362Y-60450500D01*
X81817839Y-60450500D01*
X81884878Y-60470185D01*
G37*
%TD.AperFunction*%
%TD*%
M02*
