M48
; DRILL file {KiCad 8.0.6} date 2025-02-27T20:49:14+0100
; FORMAT={-:-/ absolute / metric / decimal}
; #@! TF.CreationDate,2025-02-27T20:49:14+01:00
; #@! TF.GenerationSoftware,Kicad,Pcbnew,8.0.6
; #@! TF.FileFunction,Plated,1,2,PTH
FMAT,2
METRIC
; #@! TA.AperFunction,Plated,PTH,ViaDrill
T1C0.800
; #@! TA.AperFunction,Plated,PTH,ComponentDrill
T2C0.800
; #@! TA.AperFunction,Plated,PTH,ComponentDrill
T3C0.800
; #@! TA.AperFunction,Plated,PTH,ComponentDrill
T4C0.813
; #@! TA.AperFunction,Plated,PTH,ComponentDrill
T5C1.000
; #@! TA.AperFunction,Plated,PTH,ComponentDrill
T6C1.100
; #@! TA.AperFunction,Plated,PTH,ComponentDrill
T7C1.300
; #@! TA.AperFunction,Plated,PTH,ViaDrill
T8C3.500
%
G90
G05
T1
X53.8Y-62.5
X53.8Y-72.4
X60.02Y-81.22
X61.31Y-65.4
X61.83Y-51.86
X66.12Y-69.92
X66.18Y-57.67
X67.0Y-67.49
X67.1Y-62.93
X67.17Y-61.03
X72.43Y-78.01
X73.2Y-59.45
X74.39Y-74.6
X77.5Y-46.9
X78.15Y-49.05
X78.22Y-51.94
X78.975Y-78.075
X80.67Y-64.53
X80.69Y-67.07
T2
X45.26Y-47.01
X45.26Y-51.41
X51.66Y-47.01
X51.66Y-51.41
X81.85Y-47.12
X81.85Y-53.52
X86.25Y-47.12
X86.25Y-53.52
T3
X82.99Y-56.91
T4
X66.893Y-80.34
X66.893Y-82.88
X66.893Y-85.42
X66.893Y-87.96
X70.537Y-80.33
X70.537Y-82.87
X70.537Y-85.41
X70.537Y-87.95
X74.382Y-80.33
X74.382Y-82.87
X74.382Y-85.41
X74.382Y-87.95
X82.99Y-59.45
X82.99Y-61.99
X82.99Y-64.53
X82.99Y-67.07
X82.99Y-69.61
T5
X56.4Y-60.4
X56.432Y-74.6
X61.4Y-60.4
X61.432Y-74.6
X68.67Y-49.72
X68.67Y-52.26
X71.21Y-49.72
X71.21Y-52.26
X73.75Y-49.72
X73.75Y-52.26
X76.29Y-49.72
X76.29Y-52.26
T6
X26.12Y-49.4
X26.2Y-85.6
X31.2Y-49.4
X31.28Y-85.6
X36.28Y-49.4
X36.36Y-85.6
X83.0Y-85.48
X88.08Y-85.48
T7
X25.01Y-70.85
X25.01Y-78.35
X25.07Y-56.65
X25.07Y-64.15
X30.05Y-70.85
X30.05Y-78.35
X30.11Y-56.65
X30.11Y-64.15
X35.09Y-70.85
X35.09Y-78.35
X35.15Y-56.65
X35.15Y-64.15
X50.35Y-70.85
X50.35Y-74.54
X50.35Y-78.35
X50.41Y-56.65
X50.41Y-60.34
X50.41Y-64.15
T8
X57.2Y-50.14
X57.2Y-84.86
M30
