%TF.GenerationSoftware,KiCad,Pcbnew,8.0.6*%
%TF.CreationDate,2025-02-27T20:49:11+01:00*%
%TF.ProjectId,pcb,7063622e-6b69-4636-9164-5f7063625858,rev?*%
%TF.SameCoordinates,Original*%
%TF.FileFunction,Copper,L2,Bot*%
%TF.FilePolarity,Positive*%
%FSLAX46Y46*%
G04 Gerber Fmt 4.6, Leading zero omitted, Abs format (unit mm)*
G04 Created by KiCad (PCBNEW 8.0.6) date 2025-02-27 20:49:11*
%MOMM*%
%LPD*%
G01*
G04 APERTURE LIST*
G04 Aperture macros list*
%AMRoundRect*
0 Rectangle with rounded corners*
0 $1 Rounding radius*
0 $2 $3 $4 $5 $6 $7 $8 $9 X,Y pos of 4 corners*
0 Add a 4 corners polygon primitive as box body*
4,1,4,$2,$3,$4,$5,$6,$7,$8,$9,$2,$3,0*
0 Add four circle primitives for the rounded corners*
1,1,$1+$1,$2,$3*
1,1,$1+$1,$4,$5*
1,1,$1+$1,$6,$7*
1,1,$1+$1,$8,$9*
0 Add four rect primitives between the rounded corners*
20,1,$1+$1,$2,$3,$4,$5,0*
20,1,$1+$1,$4,$5,$6,$7,0*
20,1,$1+$1,$6,$7,$8,$9,0*
20,1,$1+$1,$8,$9,$2,$3,0*%
G04 Aperture macros list end*
%TA.AperFunction,ComponentPad*%
%ADD10C,1.950000*%
%TD*%
%TA.AperFunction,ComponentPad*%
%ADD11R,1.800860X1.800860*%
%TD*%
%TA.AperFunction,ComponentPad*%
%ADD12C,1.800860*%
%TD*%
%TA.AperFunction,ComponentPad*%
%ADD13C,2.200000*%
%TD*%
%TA.AperFunction,ComponentPad*%
%ADD14R,2.799080X2.799080*%
%TD*%
%TA.AperFunction,ComponentPad*%
%ADD15C,2.999740*%
%TD*%
%TA.AperFunction,ComponentPad*%
%ADD16R,2.000000X2.000000*%
%TD*%
%TA.AperFunction,ComponentPad*%
%ADD17C,2.000000*%
%TD*%
%TA.AperFunction,ComponentPad*%
%ADD18R,1.508000X1.508000*%
%TD*%
%TA.AperFunction,ComponentPad*%
%ADD19C,1.508000*%
%TD*%
%TA.AperFunction,ComponentPad*%
%ADD20R,2.540000X2.540000*%
%TD*%
%TA.AperFunction,ComponentPad*%
%ADD21C,1.998980*%
%TD*%
%TA.AperFunction,SMDPad,CuDef*%
%ADD22R,1.651000X1.574800*%
%TD*%
%TA.AperFunction,SMDPad,CuDef*%
%ADD23RoundRect,0.250000X0.262500X0.450000X-0.262500X0.450000X-0.262500X-0.450000X0.262500X-0.450000X0*%
%TD*%
%TA.AperFunction,SMDPad,CuDef*%
%ADD24RoundRect,0.250000X-0.262500X-0.450000X0.262500X-0.450000X0.262500X0.450000X-0.262500X0.450000X0*%
%TD*%
%TA.AperFunction,SMDPad,CuDef*%
%ADD25R,0.600000X0.900000*%
%TD*%
%TA.AperFunction,SMDPad,CuDef*%
%ADD26R,0.900000X0.700000*%
%TD*%
%TA.AperFunction,SMDPad,CuDef*%
%ADD27R,1.600000X1.000000*%
%TD*%
%TA.AperFunction,SMDPad,CuDef*%
%ADD28RoundRect,0.250000X0.450000X-0.262500X0.450000X0.262500X-0.450000X0.262500X-0.450000X-0.262500X0*%
%TD*%
%TA.AperFunction,SMDPad,CuDef*%
%ADD29R,1.000000X1.600000*%
%TD*%
%TA.AperFunction,SMDPad,CuDef*%
%ADD30R,1.800000X0.450000*%
%TD*%
%TA.AperFunction,SMDPad,CuDef*%
%ADD31RoundRect,0.250000X-0.450000X0.262500X-0.450000X-0.262500X0.450000X-0.262500X0.450000X0.262500X0*%
%TD*%
%TA.AperFunction,SMDPad,CuDef*%
%ADD32R,0.800000X2.700000*%
%TD*%
%TA.AperFunction,ViaPad*%
%ADD33C,3.600000*%
%TD*%
%TA.AperFunction,ViaPad*%
%ADD34C,1.200000*%
%TD*%
%TA.AperFunction,ViaPad*%
%ADD35C,1.400000*%
%TD*%
%TA.AperFunction,Conductor*%
%ADD36C,0.800000*%
%TD*%
%TA.AperFunction,Conductor*%
%ADD37C,1.000000*%
%TD*%
%TA.AperFunction,Conductor*%
%ADD38C,0.400000*%
%TD*%
%TA.AperFunction,Conductor*%
%ADD39C,0.700000*%
%TD*%
%TA.AperFunction,Conductor*%
%ADD40C,0.500000*%
%TD*%
%TA.AperFunction,Conductor*%
%ADD41C,0.600000*%
%TD*%
%TA.AperFunction,Conductor*%
%ADD42C,0.300000*%
%TD*%
%TA.AperFunction,Conductor*%
%ADD43C,2.000000*%
%TD*%
G04 APERTURE END LIST*
D10*
%TO.P,K1,1*%
%TO.N,Net-(J10-Pin_2)*%
X30110000Y-64150000D03*
%TO.P,K1,2*%
%TO.N,Net-(J10-Pin_1)*%
X35150000Y-64150000D03*
%TO.P,K1,4*%
%TO.N,Net-(J10-Pin_3)*%
X25070000Y-64150000D03*
%TO.P,K1,11*%
%TO.N,Net-(J10-Pin_2)*%
X30110000Y-56650000D03*
%TO.P,K1,12*%
%TO.N,Net-(J10-Pin_1)*%
X35150000Y-56650000D03*
%TO.P,K1,14*%
%TO.N,Net-(J10-Pin_3)*%
X25070000Y-56650000D03*
%TO.P,K1,A1*%
%TO.N,Net-(D10-A)*%
X50410000Y-56650000D03*
%TO.P,K1,A2*%
%TO.N,Net-(D9-A)*%
X50410000Y-64150000D03*
%TO.P,K1,A3*%
%TO.N,/3\u002C3V*%
X50410000Y-60340000D03*
%TD*%
D11*
%TO.P,J9,1,Pin_1*%
%TO.N,/3\u002C3V*%
X74382200Y-87950000D03*
D12*
%TO.P,J9,2,Pin_2*%
%TO.N,/clk*%
X74382200Y-85410000D03*
%TO.P,J9,3,Pin_3*%
%TO.N,/data*%
X74382200Y-82870000D03*
%TO.P,J9,4,Pin_4*%
%TO.N,GND*%
X74382200Y-80330000D03*
%TD*%
D13*
%TO.P,SW2,2,2*%
%TO.N,Net-(U2-~{RST})*%
X51660000Y-47010000D03*
X45260000Y-47010000D03*
%TO.P,SW2,1,1*%
%TO.N,GND*%
X51660000Y-51410000D03*
X45260000Y-51410000D03*
%TD*%
D14*
%TO.P,J10,1,Pin_1*%
%TO.N,Net-(J10-Pin_1)*%
X36280000Y-49400000D03*
D15*
%TO.P,J10,2,Pin_2*%
%TO.N,Net-(J10-Pin_2)*%
X31200000Y-49400000D03*
%TO.P,J10,3,Pin_3*%
%TO.N,Net-(J10-Pin_3)*%
X26120000Y-49400000D03*
%TD*%
D16*
%TO.P,C6,1*%
%TO.N,/3\u002C3V*%
X56432323Y-74600000D03*
D17*
%TO.P,C6,2*%
%TO.N,GND*%
X61432323Y-74600000D03*
%TD*%
D11*
%TO.P,J2,1,Pin_1*%
%TO.N,/3\u002C3V*%
X66892600Y-87960000D03*
D12*
%TO.P,J2,2,Pin_2*%
%TO.N,/clk*%
X66892600Y-85420000D03*
%TO.P,J2,3,Pin_3*%
%TO.N,/data*%
X66892600Y-82880000D03*
%TO.P,J2,4,Pin_4*%
%TO.N,GND*%
X66892600Y-80340000D03*
%TD*%
D14*
%TO.P,J4,1,Pin_1*%
%TO.N,Net-(J4-Pin_1)*%
X26200000Y-85600000D03*
D15*
%TO.P,J4,2,Pin_2*%
%TO.N,Net-(J4-Pin_2)*%
X31280000Y-85600000D03*
%TO.P,J4,3,Pin_3*%
%TO.N,Net-(J4-Pin_3)*%
X36360000Y-85600000D03*
%TD*%
D10*
%TO.P,K2,1*%
%TO.N,Net-(J4-Pin_2)*%
X30050000Y-78350000D03*
%TO.P,K2,2*%
%TO.N,Net-(J4-Pin_3)*%
X35090000Y-78350000D03*
%TO.P,K2,4*%
%TO.N,Net-(J4-Pin_1)*%
X25010000Y-78350000D03*
%TO.P,K2,11*%
%TO.N,Net-(J4-Pin_2)*%
X30050000Y-70850000D03*
%TO.P,K2,12*%
%TO.N,Net-(J4-Pin_3)*%
X35090000Y-70850000D03*
%TO.P,K2,14*%
%TO.N,Net-(J4-Pin_1)*%
X25010000Y-70850000D03*
%TO.P,K2,A1*%
%TO.N,Net-(D1-A)*%
X50350000Y-70850000D03*
%TO.P,K2,A2*%
%TO.N,Net-(D2-A)*%
X50350000Y-78350000D03*
%TO.P,K2,A3*%
%TO.N,/3\u002C3V*%
X50350000Y-74540000D03*
%TD*%
D18*
%TO.P,U2,1,GND*%
%TO.N,GND*%
X76290000Y-52260000D03*
D19*
%TO.P,U2,2,GPIO2*%
%TO.N,Net-(U2-GPIO2)*%
X73750000Y-52260000D03*
%TO.P,U2,3,GPIO0*%
%TO.N,Net-(U2-GPIO0)*%
X71210000Y-52260000D03*
%TO.P,U2,4,RXD*%
%TO.N,/TX1_PIC_RX_ESP*%
X68670000Y-52260000D03*
%TO.P,U2,5,VCC*%
%TO.N,/3\u002C3V*%
X68670000Y-49720000D03*
%TO.P,U2,6,~{RST}*%
%TO.N,Net-(U2-~{RST})*%
X71210000Y-49720000D03*
%TO.P,U2,7,CH_PD*%
%TO.N,Net-(U2-CH_PD)*%
X73750000Y-49720000D03*
%TO.P,U2,8,TXD*%
%TO.N,/RX1_PIC_TX_ESP*%
X76290000Y-49720000D03*
%TD*%
D16*
%TO.P,C1,1*%
%TO.N,/3\u002C3V*%
X56400000Y-60400000D03*
D17*
%TO.P,C1,2*%
%TO.N,GND*%
X61400000Y-60400000D03*
%TD*%
D11*
%TO.P,J8,1,Pin_1*%
%TO.N,/3\u002C3V*%
X70537400Y-87950000D03*
D12*
%TO.P,J8,2,Pin_2*%
%TO.N,/clk*%
X70537400Y-85410000D03*
%TO.P,J8,3,Pin_3*%
%TO.N,/data*%
X70537400Y-82870000D03*
%TO.P,J8,4,Pin_4*%
%TO.N,GND*%
X70537400Y-80330000D03*
%TD*%
D20*
%TO.P,J3,1,Pin_1*%
%TO.N,Net-(D3-K)*%
X83000000Y-85480000D03*
D15*
%TO.P,J3,2,Pin_2*%
%TO.N,VCC*%
X88080000Y-85480000D03*
%TD*%
D13*
%TO.P,SW1,1,1*%
%TO.N,GND*%
X86250000Y-53520000D03*
X86250000Y-47120000D03*
%TO.P,SW1,2,2*%
%TO.N,/MCLR-1*%
X81850000Y-53520000D03*
X81850000Y-47120000D03*
%TD*%
D11*
%TO.P,J1,1,Pin_1*%
%TO.N,/MCLR-1*%
X82990000Y-56910000D03*
D21*
%TO.P,J1,2,Pin_2*%
%TO.N,/3\u002C3V*%
X82990000Y-59450000D03*
%TO.P,J1,3,Pin_3*%
%TO.N,GND*%
X82990000Y-61990000D03*
%TO.P,J1,4,Pin_4*%
%TO.N,/PGD-4*%
X82990000Y-64530000D03*
%TO.P,J1,5,Pin_5*%
%TO.N,/PGC-5*%
X82990000Y-67070000D03*
%TO.P,J1,6,Pin_6*%
%TO.N,unconnected-(J1-Pin_6-Pad6)*%
X82990000Y-69610000D03*
%TD*%
D22*
%TO.P,D2,1,K*%
%TO.N,/3\u002C3V*%
X43400000Y-76609200D03*
%TO.P,D2,2,A*%
%TO.N,Net-(D2-A)*%
X43400000Y-80927200D03*
%TD*%
D23*
%TO.P,R9,1*%
%TO.N,/Set_R2*%
X61100000Y-63460000D03*
%TO.P,R9,2*%
%TO.N,Net-(Q1-B)*%
X59275000Y-63460000D03*
%TD*%
D24*
%TO.P,R5,1*%
%TO.N,Net-(U2-CH_PD)*%
X73747500Y-46900000D03*
%TO.P,R5,2*%
%TO.N,/3\u002C3V*%
X75572500Y-46900000D03*
%TD*%
D23*
%TO.P,R8,1*%
%TO.N,/Reset_R2*%
X61092500Y-55330000D03*
%TO.P,R8,2*%
%TO.N,Net-(Q5-B)*%
X59267500Y-55330000D03*
%TD*%
D25*
%TO.P,IC1,1,VIN*%
%TO.N,VCC*%
X85890000Y-79080000D03*
%TO.P,IC1,2,VSS*%
%TO.N,GND*%
X84940000Y-79080000D03*
%TO.P,IC1,3,CE/MODE*%
%TO.N,VCC*%
X83990000Y-79080000D03*
%TO.P,IC1,4,VOUT*%
%TO.N,/3\u002C3V*%
X83990000Y-76280000D03*
%TO.P,IC1,5,LX*%
%TO.N,Net-(IC1-LX)*%
X85890000Y-76280000D03*
%TD*%
D22*
%TO.P,D10,1,K*%
%TO.N,/3\u002C3V*%
X43400000Y-58127200D03*
%TO.P,D10,2,A*%
%TO.N,Net-(D10-A)*%
X43400000Y-53809200D03*
%TD*%
D26*
%TO.P,Q1,1,B*%
%TO.N,Net-(Q1-B)*%
X56500000Y-63500000D03*
%TO.P,Q1,2,E*%
%TO.N,GND*%
X56500000Y-65400000D03*
%TO.P,Q1,3,C*%
%TO.N,Net-(D9-A)*%
X54400000Y-64450000D03*
%TD*%
D27*
%TO.P,C3,1*%
%TO.N,/3\u002C3V*%
X65910000Y-51930000D03*
%TO.P,C3,2*%
%TO.N,GND*%
X65910000Y-54930000D03*
%TD*%
D23*
%TO.P,R10,1*%
%TO.N,/Reset_R1*%
X61405000Y-69520000D03*
%TO.P,R10,2*%
%TO.N,Net-(Q2-B)*%
X59580000Y-69520000D03*
%TD*%
D22*
%TO.P,D3,1,K*%
%TO.N,Net-(D3-K)*%
X79660000Y-86158000D03*
%TO.P,D3,2,A*%
%TO.N,GND*%
X79660000Y-81840000D03*
%TD*%
D28*
%TO.P,R3,1*%
%TO.N,/3\u002C3V*%
X64492600Y-87907000D03*
%TO.P,R3,2*%
%TO.N,/data*%
X64492600Y-86082000D03*
%TD*%
D29*
%TO.P,C30,1*%
%TO.N,VCC*%
X85890000Y-81880000D03*
%TO.P,C30,2*%
%TO.N,GND*%
X82890000Y-81880000D03*
%TD*%
D27*
%TO.P,C4,1*%
%TO.N,/3\u002C3V*%
X62130000Y-87920000D03*
%TO.P,C4,2*%
%TO.N,GND*%
X62130000Y-84920000D03*
%TD*%
D22*
%TO.P,D1,1,K*%
%TO.N,/3\u002C3V*%
X43400000Y-73327200D03*
%TO.P,D1,2,A*%
%TO.N,Net-(D1-A)*%
X43400000Y-69009200D03*
%TD*%
D24*
%TO.P,R7,1*%
%TO.N,Net-(U2-GPIO0)*%
X71257500Y-57260000D03*
%TO.P,R7,2*%
%TO.N,/3\u002C3V*%
X73082500Y-57260000D03*
%TD*%
D30*
%TO.P,U1,1,~{MCLR}/VPP/RE3*%
%TO.N,/MCLR-1*%
X76400000Y-61705000D03*
%TO.P,U1,2,RA0*%
%TO.N,unconnected-(U1-RA0-Pad2)*%
X76400000Y-62355000D03*
%TO.P,U1,3,RA1*%
%TO.N,unconnected-(U1-RA1-Pad3)*%
X76400000Y-63005000D03*
%TO.P,U1,4,RA2*%
%TO.N,unconnected-(U1-RA2-Pad4)*%
X76400000Y-63655000D03*
%TO.P,U1,5,RA3*%
%TO.N,unconnected-(U1-RA3-Pad5)*%
X76400000Y-64305000D03*
%TO.P,U1,6,RA4*%
%TO.N,unconnected-(U1-RA4-Pad6)*%
X76400000Y-64955000D03*
%TO.P,U1,7,RA5*%
%TO.N,unconnected-(U1-RA5-Pad7)*%
X76400000Y-65605000D03*
%TO.P,U1,8,VSS*%
%TO.N,GND*%
X76400000Y-66255000D03*
%TO.P,U1,9,RA7/OSC1_CLKIN*%
%TO.N,unconnected-(U1-RA7{slash}OSC1_CLKIN-Pad9)*%
X76400000Y-66905000D03*
%TO.P,U1,10,RA6/OSC2_CLKOUT*%
%TO.N,unconnected-(U1-RA6{slash}OSC2_CLKOUT-Pad10)*%
X76400000Y-67555000D03*
%TO.P,U1,11,RC0/SOSCO*%
%TO.N,unconnected-(U1-RC0{slash}SOSCO-Pad11)*%
X76400000Y-68205000D03*
%TO.P,U1,12,RC1/SOSCI*%
%TO.N,unconnected-(U1-RC1{slash}SOSCI-Pad12)*%
X76400000Y-68855000D03*
%TO.P,U1,13,RC2*%
%TO.N,unconnected-(U1-RC2-Pad13)*%
X76400000Y-69505000D03*
%TO.P,U1,14,RC3*%
%TO.N,/clk*%
X76400000Y-70155000D03*
%TO.P,U1,15,RC4*%
%TO.N,/data*%
X69300000Y-70155000D03*
%TO.P,U1,16,RC5*%
%TO.N,unconnected-(U1-RC5-Pad16)*%
X69300000Y-69505000D03*
%TO.P,U1,17,RC6*%
%TO.N,/TX1_PIC_RX_ESP*%
X69300000Y-68855000D03*
%TO.P,U1,18,RC7*%
%TO.N,/RX1_PIC_TX_ESP*%
X69300000Y-68205000D03*
%TO.P,U1,19,VSS*%
%TO.N,GND*%
X69300000Y-67555000D03*
%TO.P,U1,20,VDD*%
%TO.N,/3\u002C3V*%
X69300000Y-66905000D03*
%TO.P,U1,21,RB0*%
%TO.N,/Set_R1*%
X69300000Y-66255000D03*
%TO.P,U1,22,RB1*%
%TO.N,/Reset_R1*%
X69300000Y-65605000D03*
%TO.P,U1,23,RB2*%
%TO.N,/Set_R2*%
X69300000Y-64955000D03*
%TO.P,U1,24,RB3*%
%TO.N,/Reset_R2*%
X69300000Y-64305000D03*
%TO.P,U1,25,RB4*%
%TO.N,unconnected-(U1-RB4-Pad25)*%
X69300000Y-63655000D03*
%TO.P,U1,26,RB5*%
%TO.N,unconnected-(U1-RB5-Pad26)*%
X69300000Y-63005000D03*
%TO.P,U1,27,RB6/PGC*%
%TO.N,/PGC-5*%
X69300000Y-62355000D03*
%TO.P,U1,28,RB7/PGD*%
%TO.N,/PGD-4*%
X69300000Y-61705000D03*
%TD*%
D31*
%TO.P,R11,1*%
%TO.N,/Set_R1*%
X59010000Y-73627500D03*
%TO.P,R11,2*%
%TO.N,Net-(Q3-B)*%
X59010000Y-75452500D03*
%TD*%
D26*
%TO.P,Q3,1,B*%
%TO.N,Net-(Q3-B)*%
X56450000Y-77800000D03*
%TO.P,Q3,2,E*%
%TO.N,GND*%
X56450000Y-79700000D03*
%TO.P,Q3,3,C*%
%TO.N,Net-(D2-A)*%
X54350000Y-78750000D03*
%TD*%
D22*
%TO.P,D9,1,K*%
%TO.N,/3\u002C3V*%
X43400000Y-61409200D03*
%TO.P,D9,2,A*%
%TO.N,Net-(D9-A)*%
X43400000Y-65727200D03*
%TD*%
D26*
%TO.P,Q5,1,B*%
%TO.N,Net-(Q5-B)*%
X56450000Y-55300000D03*
%TO.P,Q5,2,E*%
%TO.N,GND*%
X56450000Y-57200000D03*
%TO.P,Q5,3,C*%
%TO.N,Net-(D10-A)*%
X54350000Y-56250000D03*
%TD*%
D23*
%TO.P,R6,1*%
%TO.N,/3\u002C3V*%
X75562500Y-54970000D03*
%TO.P,R6,2*%
%TO.N,Net-(U2-GPIO2)*%
X73737500Y-54970000D03*
%TD*%
D28*
%TO.P,R4,1*%
%TO.N,/3\u002C3V*%
X65860000Y-49702500D03*
%TO.P,R4,2*%
%TO.N,Net-(U2-~{RST})*%
X65860000Y-47877500D03*
%TD*%
D31*
%TO.P,R1,1*%
%TO.N,/3\u002C3V*%
X78380000Y-55057500D03*
%TO.P,R1,2*%
%TO.N,/MCLR-1*%
X78380000Y-56882500D03*
%TD*%
D26*
%TO.P,Q2,1,B*%
%TO.N,Net-(Q2-B)*%
X56450000Y-69500000D03*
%TO.P,Q2,2,E*%
%TO.N,GND*%
X56450000Y-71400000D03*
%TO.P,Q2,3,C*%
%TO.N,Net-(D1-A)*%
X54350000Y-70450000D03*
%TD*%
D27*
%TO.P,C31,1*%
%TO.N,/3\u002C3V*%
X80870000Y-76290000D03*
%TO.P,C31,2*%
%TO.N,GND*%
X80870000Y-79290000D03*
%TD*%
D28*
%TO.P,R2,1*%
%TO.N,/3\u002C3V*%
X68692600Y-87932500D03*
%TO.P,R2,2*%
%TO.N,/clk*%
X68692600Y-86107500D03*
%TD*%
D29*
%TO.P,C2,1*%
%TO.N,/3\u002C3V*%
X71390000Y-72570000D03*
%TO.P,C2,2*%
%TO.N,GND*%
X74390000Y-72570000D03*
%TD*%
D32*
%TO.P,L1,1,1*%
%TO.N,Net-(IC1-LX)*%
X85890000Y-73080000D03*
%TO.P,L1,2,2*%
%TO.N,/3\u002C3V*%
X83690000Y-73080000D03*
%TD*%
D33*
%TO.N,*%
X57200000Y-50140000D03*
X57200000Y-84860000D03*
D34*
%TO.N,/3\u002C3V*%
X73200000Y-59450000D03*
D35*
X60020000Y-81220000D03*
X77500000Y-46900000D03*
X61830000Y-51860000D03*
D34*
%TO.N,GND*%
X78220000Y-51940000D03*
D35*
X53800000Y-72400000D03*
D34*
X61310000Y-65400000D03*
D35*
X72430000Y-78010000D03*
X78975000Y-78075000D03*
D34*
X74390000Y-74600000D03*
D35*
%TO.N,/PGD-4*%
X80670000Y-64530000D03*
X67170000Y-61030000D03*
%TO.N,/PGC-5*%
X80690000Y-67070000D03*
X67100000Y-62930000D03*
%TO.N,/TX1_PIC_RX_ESP*%
X66180000Y-57670000D03*
X66120000Y-69920000D03*
D34*
%TO.N,/RX1_PIC_TX_ESP*%
X78150000Y-49050000D03*
D35*
X67000000Y-67490000D03*
%TO.N,GND*%
X53800000Y-62500000D03*
%TD*%
D36*
%TO.N,Net-(U2-~{RST})*%
X51660000Y-47010000D02*
X45260000Y-47010000D01*
X52980000Y-47010000D02*
X51660000Y-47010000D01*
X53580000Y-46410000D02*
X52980000Y-47010000D01*
X64392500Y-46410000D02*
X53580000Y-46410000D01*
X65860000Y-47877500D02*
X64392500Y-46410000D01*
D37*
%TO.N,GND*%
X45260000Y-51410000D02*
X51660000Y-51410000D01*
%TO.N,/3\u002C3V*%
X60930000Y-87920000D02*
X62130000Y-87920000D01*
X60450000Y-87440000D02*
X60930000Y-87920000D01*
X60450000Y-81650000D02*
X60450000Y-87440000D01*
X60020000Y-81220000D02*
X60450000Y-81650000D01*
X75562500Y-54970000D02*
X78292500Y-54970000D01*
X72400000Y-71010000D02*
X72400000Y-65400000D01*
X66920100Y-87932500D02*
X66892600Y-87960000D01*
X43400000Y-75000000D02*
X43400000Y-76609200D01*
D38*
X70895000Y-66905000D02*
X72400000Y-65400000D01*
D37*
X78292500Y-54970000D02*
X78380000Y-55057500D01*
X73100000Y-59550000D02*
X73100000Y-64700000D01*
X71390000Y-72570000D02*
X71390000Y-72020000D01*
X70519900Y-87932500D02*
X70537400Y-87950000D01*
X73082500Y-59332500D02*
X73082500Y-57260000D01*
X65877500Y-49720000D02*
X65860000Y-49702500D01*
X50410000Y-74600000D02*
X50350000Y-74540000D01*
X68692600Y-87932500D02*
X70519900Y-87932500D01*
X62143000Y-87907000D02*
X62130000Y-87920000D01*
X75562500Y-56300000D02*
X75562500Y-54970000D01*
X43400000Y-73327200D02*
X43400000Y-75000000D01*
X65910000Y-49752500D02*
X65860000Y-49702500D01*
D39*
X83690000Y-73080000D02*
X83690000Y-76010000D01*
D37*
X70527400Y-87960000D02*
X70537400Y-87950000D01*
X47600000Y-59800000D02*
X43400000Y-59800000D01*
X48140000Y-60340000D02*
X47600000Y-59800000D01*
X79000000Y-63435136D02*
X80125000Y-62310136D01*
X73200000Y-59450000D02*
X73100000Y-59550000D01*
X82050000Y-59450000D02*
X82990000Y-59450000D01*
X79072500Y-55057500D02*
X78380000Y-55057500D01*
X50210000Y-74400000D02*
X50350000Y-74540000D01*
D38*
X69300000Y-66905000D02*
X70895000Y-66905000D01*
D37*
X79830000Y-54300000D02*
X79072500Y-55057500D01*
X47200000Y-74400000D02*
X50210000Y-74400000D01*
X56400000Y-60400000D02*
X50470000Y-60400000D01*
X64492600Y-87907000D02*
X62143000Y-87907000D01*
X68670000Y-49720000D02*
X65877500Y-49720000D01*
X74602500Y-57260000D02*
X75562500Y-56300000D01*
X79000000Y-68925000D02*
X79000000Y-63435136D01*
X43400000Y-58127200D02*
X43400000Y-59800000D01*
X77500000Y-46900000D02*
X78840000Y-46900000D01*
X50410000Y-60340000D02*
X48140000Y-60340000D01*
X78840000Y-46900000D02*
X79830000Y-47890000D01*
X66892600Y-87960000D02*
X70527400Y-87960000D01*
X80870000Y-70795000D02*
X79000000Y-68925000D01*
X61830000Y-50840000D02*
X62967500Y-49702500D01*
X68692600Y-87932500D02*
X66920100Y-87932500D01*
X70537400Y-87950000D02*
X74382200Y-87950000D01*
X66892600Y-87960000D02*
X64545600Y-87960000D01*
X43400000Y-59800000D02*
X43400000Y-61409200D01*
X80125000Y-62310136D02*
X80125000Y-61375000D01*
X77500000Y-46900000D02*
X75572500Y-46900000D01*
X46600000Y-75000000D02*
X47200000Y-74400000D01*
X80870000Y-76290000D02*
X80870000Y-70795000D01*
X71390000Y-72020000D02*
X72400000Y-71010000D01*
X73100000Y-64700000D02*
X73000000Y-64800000D01*
X62967500Y-49702500D02*
X65860000Y-49702500D01*
X72400000Y-65400000D02*
X73000000Y-64800000D01*
X79830000Y-47890000D02*
X79830000Y-54300000D01*
X50470000Y-60400000D02*
X50410000Y-60340000D01*
X56432323Y-74600000D02*
X50410000Y-74600000D01*
X64545600Y-87960000D02*
X64492600Y-87907000D01*
X65910000Y-51930000D02*
X65910000Y-49752500D01*
X43400000Y-75000000D02*
X46600000Y-75000000D01*
X73200000Y-59450000D02*
X73082500Y-59332500D01*
X80125000Y-61375000D02*
X82050000Y-59450000D01*
X61830000Y-51860000D02*
X61830000Y-50840000D01*
X73082500Y-57260000D02*
X74602500Y-57260000D01*
D39*
X83990000Y-76280000D02*
X80880000Y-76280000D01*
D37*
%TO.N,GND*%
X66892600Y-80340000D02*
X64420000Y-80340000D01*
D40*
X84630000Y-77860000D02*
X81090000Y-77860000D01*
D38*
X75125000Y-66255000D02*
X74390000Y-66990000D01*
D37*
X76290000Y-52260000D02*
X77900000Y-52260000D01*
D41*
X61400000Y-60400000D02*
X58230000Y-57230000D01*
D37*
X82890000Y-81880000D02*
X79700000Y-81880000D01*
D40*
X84940000Y-79080000D02*
X84940000Y-78170000D01*
D37*
X86250000Y-53520000D02*
X86250000Y-60210000D01*
X78975000Y-78075000D02*
X80190000Y-79290000D01*
X61430000Y-79700000D02*
X63245000Y-81515000D01*
X72460000Y-80330000D02*
X74382200Y-80330000D01*
X72460000Y-80330000D02*
X72460000Y-78040000D01*
X80190000Y-79290000D02*
X80870000Y-79290000D01*
X74390000Y-72570000D02*
X74390000Y-66990000D01*
X56450000Y-79700000D02*
X61430000Y-79700000D01*
D38*
X69300000Y-67555000D02*
X70675000Y-67555000D01*
D37*
X80870000Y-81610000D02*
X81140000Y-81880000D01*
D38*
X76400000Y-66255000D02*
X75125000Y-66255000D01*
D37*
X72460000Y-78040000D02*
X72430000Y-78010000D01*
D40*
X80870000Y-78340000D02*
X80870000Y-79290000D01*
D41*
X58230000Y-57230000D02*
X56480000Y-57230000D01*
D37*
X63245000Y-81515000D02*
X62130000Y-82630000D01*
D40*
X80850000Y-78100000D02*
X80850000Y-78320000D01*
D37*
X64420000Y-80340000D02*
X63245000Y-81515000D01*
X61432323Y-79697677D02*
X61430000Y-79700000D01*
X61432323Y-74600000D02*
X61432323Y-79697677D01*
X86250000Y-47120000D02*
X86250000Y-53520000D01*
D40*
X84940000Y-78170000D02*
X84630000Y-77860000D01*
D37*
X62130000Y-82630000D02*
X62130000Y-84920000D01*
X84470000Y-61990000D02*
X82990000Y-61990000D01*
X81140000Y-81880000D02*
X82890000Y-81880000D01*
D38*
X70675000Y-67555000D02*
X71020000Y-67900000D01*
D37*
X70527400Y-80340000D02*
X70537400Y-80330000D01*
D42*
X80850000Y-78320000D02*
X80870000Y-78340000D01*
D37*
X70537400Y-80330000D02*
X72460000Y-80330000D01*
X77900000Y-52260000D02*
X78220000Y-51940000D01*
X86250000Y-60210000D02*
X84470000Y-61990000D01*
X80870000Y-79290000D02*
X80870000Y-81610000D01*
X66892600Y-80340000D02*
X70527400Y-80340000D01*
D40*
X81090000Y-77860000D02*
X80850000Y-78100000D01*
D39*
X61310000Y-65400000D02*
X56500000Y-65400000D01*
D37*
X79700000Y-81880000D02*
X79660000Y-81840000D01*
X74390000Y-72570000D02*
X74390000Y-74600000D01*
D40*
%TO.N,VCC*%
X83990000Y-80170000D02*
X85700000Y-81880000D01*
D37*
X88080000Y-85480000D02*
X88080000Y-83180000D01*
X88080000Y-83180000D02*
X86780000Y-81880000D01*
X86780000Y-81880000D02*
X85890000Y-81880000D01*
D42*
X85700000Y-81880000D02*
X85890000Y-81880000D01*
D40*
X85890000Y-81880000D02*
X85890000Y-79080000D01*
X83990000Y-79080000D02*
X83990000Y-80170000D01*
D36*
%TO.N,Net-(D1-A)*%
X48500000Y-69000000D02*
X47400000Y-69000000D01*
X47400000Y-69000000D02*
X47390800Y-69009200D01*
X50750000Y-70450000D02*
X50350000Y-70850000D01*
X47390800Y-69009200D02*
X43400000Y-69009200D01*
X54350000Y-70450000D02*
X50750000Y-70450000D01*
X50350000Y-70850000D02*
X48500000Y-69000000D01*
%TO.N,Net-(D2-A)*%
X50750000Y-78750000D02*
X50350000Y-78350000D01*
X50350000Y-78350000D02*
X47772800Y-80927200D01*
X54350000Y-78750000D02*
X50750000Y-78750000D01*
X47772800Y-80927200D02*
X43400000Y-80927200D01*
D41*
%TO.N,Net-(IC1-LX)*%
X85890000Y-76280000D02*
X85890000Y-73080000D01*
D38*
%TO.N,/PGD-4*%
X69300000Y-61705000D02*
X67845000Y-61705000D01*
D37*
X82990000Y-64530000D02*
X80670000Y-64530000D01*
D38*
X67845000Y-61705000D02*
X67170000Y-61030000D01*
%TO.N,/PGC-5*%
X67675000Y-62355000D02*
X67100000Y-62930000D01*
D37*
X82990000Y-67070000D02*
X80690000Y-67070000D01*
D38*
X69300000Y-62355000D02*
X67675000Y-62355000D01*
%TO.N,/MCLR-1*%
X76400000Y-61705000D02*
X77785000Y-61705000D01*
X77785000Y-61705000D02*
X78380000Y-61110000D01*
D36*
X81850000Y-55770000D02*
X82990000Y-56910000D01*
D37*
X81850000Y-47120000D02*
X81850000Y-53520000D01*
D38*
X78380000Y-61110000D02*
X78380000Y-56882500D01*
D36*
X81850000Y-53520000D02*
X81850000Y-55770000D01*
X82990000Y-56910000D02*
X78407500Y-56910000D01*
D38*
X78407500Y-56910000D02*
X78380000Y-56882500D01*
%TO.N,/clk*%
X76240000Y-85410000D02*
X77300000Y-84350000D01*
X77555000Y-70155000D02*
X76400000Y-70155000D01*
X77300000Y-84350000D02*
X77300000Y-74790000D01*
X74382200Y-85410000D02*
X76240000Y-85410000D01*
D36*
X68692600Y-85420000D02*
X70527400Y-85420000D01*
D38*
X77300000Y-74790000D02*
X78000000Y-74090000D01*
D36*
X66892600Y-85420000D02*
X68692600Y-85420000D01*
X70527400Y-85420000D02*
X70537400Y-85410000D01*
X70537400Y-85410000D02*
X74382200Y-85410000D01*
X68692600Y-86107500D02*
X68692600Y-85420000D01*
D38*
X78000000Y-70600000D02*
X77555000Y-70155000D01*
X78000000Y-74090000D02*
X78000000Y-70600000D01*
%TO.N,/data*%
X76290000Y-78370000D02*
X74040000Y-76120000D01*
D36*
X70527400Y-82880000D02*
X70537400Y-82870000D01*
D38*
X74382200Y-82870000D02*
X75820000Y-82870000D01*
X76290000Y-82400000D02*
X76290000Y-78370000D01*
D36*
X70537400Y-82870000D02*
X74382200Y-82870000D01*
X66892600Y-82880000D02*
X70527400Y-82880000D01*
X64492600Y-84006600D02*
X65619200Y-82880000D01*
D38*
X75820000Y-82870000D02*
X76290000Y-82400000D01*
X67500000Y-75140000D02*
X67500000Y-70500000D01*
X67845000Y-70155000D02*
X69300000Y-70155000D01*
X67500000Y-70500000D02*
X67845000Y-70155000D01*
D36*
X65619200Y-82880000D02*
X66892600Y-82880000D01*
X64492600Y-86082000D02*
X64492600Y-84006600D01*
D38*
X74040000Y-76120000D02*
X68480000Y-76120000D01*
X68480000Y-76120000D02*
X67500000Y-75140000D01*
D43*
%TO.N,Net-(J4-Pin_1)*%
X25010000Y-70850000D02*
X25010000Y-78350000D01*
X25010000Y-81580000D02*
X26200000Y-82770000D01*
X26200000Y-82770000D02*
X26200000Y-85600000D01*
X25010000Y-78350000D02*
X25010000Y-81580000D01*
%TO.N,Net-(J4-Pin_2)*%
X30050000Y-81450000D02*
X31280000Y-82680000D01*
X30050000Y-70850000D02*
X30050000Y-78350000D01*
X31280000Y-82680000D02*
X31280000Y-85600000D01*
X30050000Y-78350000D02*
X30050000Y-81450000D01*
D36*
%TO.N,Net-(D9-A)*%
X47600000Y-65800000D02*
X47527200Y-65727200D01*
X47527200Y-65727200D02*
X43400000Y-65727200D01*
X50410000Y-64150000D02*
X48760000Y-65800000D01*
X50710000Y-64450000D02*
X50410000Y-64150000D01*
X48760000Y-65800000D02*
X47600000Y-65800000D01*
X54400000Y-64450000D02*
X50710000Y-64450000D01*
%TO.N,Net-(D10-A)*%
X50410000Y-56650000D02*
X47560000Y-53800000D01*
X54350000Y-56250000D02*
X50810000Y-56250000D01*
X47560000Y-53800000D02*
X46000000Y-53800000D01*
X50810000Y-56250000D02*
X50410000Y-56650000D01*
X46000000Y-53800000D02*
X45990800Y-53809200D01*
X45990800Y-53809200D02*
X43400000Y-53809200D01*
D43*
%TO.N,Net-(J4-Pin_3)*%
X35090000Y-80490000D02*
X36400000Y-81800000D01*
X36360000Y-81840000D02*
X36360000Y-85600000D01*
X35090000Y-78350000D02*
X35090000Y-80490000D01*
X35090000Y-70850000D02*
X35090000Y-78350000D01*
X36400000Y-81800000D02*
X36360000Y-81840000D01*
%TO.N,Net-(J10-Pin_2)*%
X31200000Y-51690000D02*
X30110000Y-52780000D01*
X30110000Y-52780000D02*
X30110000Y-56650000D01*
X31200000Y-49400000D02*
X31200000Y-51690000D01*
X30110000Y-64150000D02*
X30110000Y-56650000D01*
D41*
%TO.N,Net-(Q2-B)*%
X56450000Y-69500000D02*
X59560000Y-69500000D01*
X59560000Y-69500000D02*
X59580000Y-69520000D01*
D43*
%TO.N,Net-(J10-Pin_1)*%
X35140000Y-53550000D02*
X35150000Y-53560000D01*
X36280000Y-52410000D02*
X35140000Y-53550000D01*
X35150000Y-64150000D02*
X35150000Y-56650000D01*
X36280000Y-49400000D02*
X36280000Y-52410000D01*
X35150000Y-53560000D02*
X35150000Y-56650000D01*
%TO.N,Net-(J10-Pin_3)*%
X25070000Y-52760000D02*
X25070000Y-56650000D01*
X26120000Y-51670000D02*
X25050000Y-52740000D01*
X26120000Y-49400000D02*
X26120000Y-51670000D01*
X25050000Y-52740000D02*
X25070000Y-52760000D01*
X25070000Y-64150000D02*
X25070000Y-56650000D01*
D41*
%TO.N,Net-(Q1-B)*%
X56500000Y-63500000D02*
X59235000Y-63500000D01*
X59235000Y-63500000D02*
X59275000Y-63460000D01*
%TO.N,Net-(Q5-B)*%
X56450000Y-55300000D02*
X59237500Y-55300000D01*
X59237500Y-55300000D02*
X59267500Y-55330000D01*
D36*
%TO.N,Net-(U2-~{RST})*%
X70487500Y-47877500D02*
X65860000Y-47877500D01*
X71210000Y-48600000D02*
X70487500Y-47877500D01*
X71210000Y-49720000D02*
X71210000Y-48600000D01*
%TO.N,Net-(U2-CH_PD)*%
X73750000Y-49720000D02*
X73750000Y-46902500D01*
D38*
X73750000Y-46902500D02*
X73747500Y-46900000D01*
D36*
%TO.N,Net-(U2-GPIO2)*%
X73750000Y-52260000D02*
X73750000Y-54957500D01*
D38*
X73750000Y-54957500D02*
X73737500Y-54970000D01*
%TO.N,Net-(U2-GPIO0)*%
X71210000Y-57212500D02*
X71257500Y-57260000D01*
D36*
X71210000Y-52260000D02*
X71210000Y-57212500D01*
D38*
%TO.N,/Reset_R1*%
X61405000Y-69520000D02*
X65320000Y-65605000D01*
X65320000Y-65605000D02*
X69300000Y-65605000D01*
%TO.N,/Set_R1*%
X64560000Y-68180000D02*
X64560000Y-69710000D01*
X64560000Y-69710000D02*
X62200000Y-72070000D01*
X69300000Y-66255000D02*
X66485000Y-66255000D01*
X66485000Y-66255000D02*
X64560000Y-68180000D01*
X62200000Y-72070000D02*
X59570000Y-72070000D01*
X59010000Y-72630000D02*
X59010000Y-73627500D01*
X59570000Y-72070000D02*
X59010000Y-72630000D01*
%TO.N,/Reset_R2*%
X61092500Y-56532500D02*
X61092500Y-55330000D01*
X69300000Y-64305000D02*
X66565000Y-64305000D01*
X64370000Y-59810000D02*
X61092500Y-56532500D01*
X64370000Y-62110000D02*
X64370000Y-59810000D01*
X66565000Y-64305000D02*
X64370000Y-62110000D01*
%TO.N,/Set_R2*%
X65625000Y-64955000D02*
X64120000Y-63450000D01*
X64120000Y-63450000D02*
X64110000Y-63460000D01*
X64110000Y-63460000D02*
X61100000Y-63460000D01*
X69300000Y-64955000D02*
X65625000Y-64955000D01*
%TO.N,/TX1_PIC_RX_ESP*%
X66120000Y-69920000D02*
X67185000Y-68855000D01*
X67185000Y-68855000D02*
X69300000Y-68855000D01*
D36*
X68670000Y-55180000D02*
X68670000Y-52260000D01*
X66180000Y-57670000D02*
X68670000Y-55180000D01*
D38*
%TO.N,/RX1_PIC_TX_ESP*%
X67765000Y-68255000D02*
X69300000Y-68255000D01*
X67000000Y-67490000D02*
X67765000Y-68255000D01*
D36*
X77610000Y-49720000D02*
X76290000Y-49720000D01*
X78150000Y-49180000D02*
X77610000Y-49720000D01*
D38*
X78150000Y-49050000D02*
X78150000Y-49180000D01*
D41*
%TO.N,Net-(Q3-B)*%
X57940000Y-77830000D02*
X57910000Y-77800000D01*
X59010000Y-75452500D02*
X59010000Y-76760000D01*
X57910000Y-77800000D02*
X56450000Y-77800000D01*
X59010000Y-76760000D02*
X57940000Y-77830000D01*
D37*
%TO.N,Net-(D3-K)*%
X82322000Y-86158000D02*
X79660000Y-86158000D01*
X83000000Y-85480000D02*
X82322000Y-86158000D01*
%TD*%
%TA.AperFunction,Conductor*%
%TO.N,GND*%
G36*
X43908412Y-45920185D02*
G01*
X43954167Y-45972989D01*
X43964111Y-46042147D01*
X43947100Y-46089290D01*
X43829533Y-46281140D01*
X43733126Y-46513889D01*
X43674317Y-46758848D01*
X43654551Y-47010000D01*
X43674317Y-47261151D01*
X43733126Y-47506110D01*
X43829533Y-47738859D01*
X43961160Y-47953653D01*
X43961161Y-47953656D01*
X43997855Y-47996619D01*
X44124776Y-48145224D01*
X44264586Y-48264633D01*
X44316343Y-48308838D01*
X44316346Y-48308839D01*
X44531140Y-48440466D01*
X44717847Y-48517802D01*
X44763889Y-48536873D01*
X45008852Y-48595683D01*
X45260000Y-48615449D01*
X45511148Y-48595683D01*
X45756111Y-48536873D01*
X45988859Y-48440466D01*
X46203659Y-48308836D01*
X46395224Y-48145224D01*
X46558572Y-47953967D01*
X46617079Y-47915775D01*
X46652862Y-47910500D01*
X50267138Y-47910500D01*
X50334177Y-47930185D01*
X50361427Y-47953967D01*
X50524776Y-48145224D01*
X50664586Y-48264633D01*
X50716343Y-48308838D01*
X50716346Y-48308839D01*
X50931140Y-48440466D01*
X51117847Y-48517802D01*
X51163889Y-48536873D01*
X51408852Y-48595683D01*
X51660000Y-48615449D01*
X51911148Y-48595683D01*
X52156111Y-48536873D01*
X52388859Y-48440466D01*
X52603659Y-48308836D01*
X52795224Y-48145224D01*
X52958572Y-47953967D01*
X53017079Y-47915775D01*
X53052862Y-47910500D01*
X53068693Y-47910500D01*
X53068694Y-47910499D01*
X53242666Y-47875895D01*
X53324606Y-47841953D01*
X53406547Y-47808013D01*
X53517156Y-47734106D01*
X53554036Y-47709464D01*
X53916681Y-47346819D01*
X53978004Y-47313334D01*
X54004362Y-47310500D01*
X63968138Y-47310500D01*
X64035177Y-47330185D01*
X64055819Y-47346819D01*
X64623181Y-47914181D01*
X64656666Y-47975504D01*
X64659500Y-48001861D01*
X64659500Y-48190000D01*
X64659501Y-48190019D01*
X64670000Y-48292796D01*
X64670001Y-48292797D01*
X64725186Y-48459334D01*
X64758228Y-48512904D01*
X64776668Y-48580296D01*
X64755745Y-48646959D01*
X64702103Y-48691729D01*
X64652689Y-48702000D01*
X62868959Y-48702000D01*
X62850444Y-48705683D01*
X62850443Y-48705683D01*
X62675671Y-48740447D01*
X62675663Y-48740449D01*
X62640086Y-48755186D01*
X62640085Y-48755186D01*
X62493592Y-48815864D01*
X62493579Y-48815871D01*
X62329719Y-48925359D01*
X62288105Y-48966974D01*
X62190361Y-49064718D01*
X62190358Y-49064721D01*
X61192221Y-50062858D01*
X61192218Y-50062861D01*
X61147601Y-50107478D01*
X61052859Y-50202219D01*
X60943371Y-50366080D01*
X60943364Y-50366093D01*
X60915380Y-50433655D01*
X60915380Y-50433656D01*
X60867950Y-50548162D01*
X60867949Y-50548164D01*
X60849854Y-50639132D01*
X60849854Y-50639133D01*
X60829500Y-50741457D01*
X60829500Y-51151229D01*
X60809815Y-51218268D01*
X60805234Y-51224837D01*
X60804944Y-51225305D01*
X60705775Y-51424461D01*
X60705769Y-51424476D01*
X60644885Y-51638462D01*
X60644884Y-51638464D01*
X60624357Y-51859999D01*
X60624357Y-51860000D01*
X60644884Y-52081535D01*
X60644885Y-52081537D01*
X60705769Y-52295523D01*
X60705775Y-52295538D01*
X60804938Y-52494683D01*
X60804943Y-52494691D01*
X60939020Y-52672238D01*
X61103437Y-52822123D01*
X61103439Y-52822125D01*
X61292595Y-52939245D01*
X61292596Y-52939245D01*
X61292599Y-52939247D01*
X61500060Y-53019618D01*
X61718757Y-53060500D01*
X61718759Y-53060500D01*
X61941241Y-53060500D01*
X61941243Y-53060500D01*
X62159940Y-53019618D01*
X62367401Y-52939247D01*
X62556562Y-52822124D01*
X62720746Y-52672450D01*
X62720979Y-52672238D01*
X62727008Y-52664255D01*
X62855058Y-52494689D01*
X62954229Y-52295528D01*
X63015115Y-52081536D01*
X63035643Y-51860000D01*
X63017500Y-51664208D01*
X63015115Y-51638464D01*
X63015114Y-51638462D01*
X63012807Y-51630354D01*
X62954229Y-51424472D01*
X62896337Y-51308212D01*
X62884077Y-51239429D01*
X62910950Y-51174934D01*
X62919646Y-51165272D01*
X63345601Y-50739319D01*
X63406924Y-50705834D01*
X63433282Y-50703000D01*
X64785500Y-50703000D01*
X64852539Y-50722685D01*
X64898294Y-50775489D01*
X64909500Y-50827000D01*
X64909500Y-50892819D01*
X64889815Y-50959858D01*
X64859812Y-50992085D01*
X64752452Y-51072455D01*
X64666206Y-51187664D01*
X64666202Y-51187671D01*
X64615908Y-51322517D01*
X64613684Y-51343209D01*
X64609501Y-51382123D01*
X64609500Y-51382135D01*
X64609500Y-52477870D01*
X64609501Y-52477876D01*
X64615908Y-52537483D01*
X64666202Y-52672328D01*
X64666206Y-52672335D01*
X64752452Y-52787544D01*
X64752455Y-52787547D01*
X64867664Y-52873793D01*
X64867671Y-52873797D01*
X64908661Y-52889085D01*
X65002517Y-52924091D01*
X65062127Y-52930500D01*
X65801456Y-52930499D01*
X65801470Y-52930500D01*
X65811459Y-52930500D01*
X66022975Y-52930500D01*
X66022983Y-52930499D01*
X66757871Y-52930499D01*
X66757872Y-52930499D01*
X66817483Y-52924091D01*
X66952331Y-52873796D01*
X67067546Y-52787546D01*
X67153796Y-52672331D01*
X67204091Y-52537483D01*
X67204092Y-52537472D01*
X67204132Y-52537306D01*
X67204205Y-52537177D01*
X67206802Y-52530215D01*
X67207929Y-52530635D01*
X67238699Y-52476586D01*
X67300606Y-52444194D01*
X67370198Y-52450413D01*
X67425381Y-52493269D01*
X67444586Y-52533713D01*
X67486653Y-52690705D01*
X67579419Y-52889642D01*
X67579423Y-52889650D01*
X67705322Y-53069452D01*
X67705327Y-53069458D01*
X67733181Y-53097312D01*
X67766666Y-53158635D01*
X67769500Y-53184993D01*
X67769500Y-54755638D01*
X67749815Y-54822677D01*
X67733181Y-54843319D01*
X67390931Y-55185569D01*
X67329608Y-55219054D01*
X67259916Y-55214070D01*
X67215569Y-55185569D01*
X67210000Y-55180000D01*
X66160000Y-55180000D01*
X66160000Y-55930000D01*
X66347138Y-55930000D01*
X66414177Y-55949685D01*
X66459932Y-56002489D01*
X66469876Y-56071647D01*
X66440851Y-56135203D01*
X66434819Y-56141681D01*
X66142564Y-56433935D01*
X66081241Y-56467420D01*
X66073401Y-56468632D01*
X66068758Y-56469500D01*
X66068757Y-56469500D01*
X65850060Y-56510382D01*
X65718864Y-56561207D01*
X65642601Y-56590752D01*
X65642595Y-56590754D01*
X65453439Y-56707874D01*
X65453437Y-56707876D01*
X65289020Y-56857761D01*
X65154943Y-57035308D01*
X65154938Y-57035316D01*
X65055775Y-57234461D01*
X65055769Y-57234476D01*
X64994885Y-57448462D01*
X64994884Y-57448464D01*
X64974357Y-57669999D01*
X64974357Y-57670000D01*
X64994884Y-57891535D01*
X64994885Y-57891537D01*
X65055769Y-58105523D01*
X65055775Y-58105538D01*
X65154938Y-58304683D01*
X65154943Y-58304691D01*
X65289020Y-58482238D01*
X65453437Y-58632123D01*
X65453439Y-58632125D01*
X65642595Y-58749245D01*
X65642596Y-58749245D01*
X65642599Y-58749247D01*
X65850060Y-58829618D01*
X66068757Y-58870500D01*
X66068759Y-58870500D01*
X66291241Y-58870500D01*
X66291243Y-58870500D01*
X66509940Y-58829618D01*
X66717401Y-58749247D01*
X66906562Y-58632124D01*
X67070981Y-58482236D01*
X67205058Y-58304689D01*
X67304229Y-58105528D01*
X67365115Y-57891536D01*
X67374582Y-57789365D01*
X67400368Y-57724429D01*
X67410364Y-57713134D01*
X69369464Y-55754035D01*
X69402186Y-55705063D01*
X69468013Y-55606547D01*
X69502677Y-55522861D01*
X69535895Y-55442666D01*
X69570500Y-55268692D01*
X69570500Y-55091308D01*
X69570500Y-53184993D01*
X69590185Y-53117954D01*
X69606819Y-53097312D01*
X69634674Y-53069457D01*
X69760579Y-52889646D01*
X69827618Y-52745878D01*
X69873790Y-52693439D01*
X69940983Y-52674287D01*
X70007864Y-52694502D01*
X70052381Y-52745878D01*
X70059904Y-52762010D01*
X70119419Y-52889642D01*
X70119423Y-52889650D01*
X70245322Y-53069452D01*
X70245327Y-53069458D01*
X70273181Y-53097312D01*
X70306666Y-53158635D01*
X70309500Y-53184993D01*
X70309500Y-56472726D01*
X70303206Y-56511730D01*
X70255001Y-56657203D01*
X70255000Y-56657204D01*
X70244500Y-56759983D01*
X70244500Y-57760001D01*
X70244501Y-57760019D01*
X70255000Y-57862796D01*
X70255001Y-57862799D01*
X70280884Y-57940908D01*
X70310186Y-58029334D01*
X70402288Y-58178656D01*
X70526344Y-58302712D01*
X70675666Y-58394814D01*
X70842203Y-58449999D01*
X70944991Y-58460500D01*
X71570008Y-58460499D01*
X71570016Y-58460498D01*
X71570019Y-58460498D01*
X71626302Y-58454748D01*
X71672797Y-58449999D01*
X71839334Y-58394814D01*
X71892904Y-58361771D01*
X71960296Y-58343332D01*
X72026959Y-58364255D01*
X72071729Y-58417897D01*
X72082000Y-58467311D01*
X72082000Y-59431041D01*
X72091378Y-59478189D01*
X72097117Y-59507036D01*
X72099500Y-59531229D01*
X72099500Y-64234217D01*
X72079815Y-64301256D01*
X72063181Y-64321898D01*
X71925967Y-64459112D01*
X71762221Y-64622858D01*
X71762218Y-64622861D01*
X71724581Y-64660498D01*
X71622859Y-64762219D01*
X71513371Y-64926080D01*
X71513366Y-64926089D01*
X71471264Y-65027735D01*
X71437949Y-65108163D01*
X71437947Y-65108171D01*
X71424870Y-65173915D01*
X71424870Y-65173916D01*
X71399500Y-65301457D01*
X71399500Y-65358480D01*
X71379815Y-65425519D01*
X71363181Y-65446161D01*
X70912180Y-65897161D01*
X70850857Y-65930646D01*
X70781165Y-65925662D01*
X70725232Y-65883790D01*
X70700815Y-65818326D01*
X70700499Y-65809504D01*
X70700499Y-65332128D01*
X70700499Y-65332127D01*
X70700498Y-65332111D01*
X70696320Y-65293253D01*
X70696320Y-65266745D01*
X70700500Y-65227873D01*
X70700499Y-64682128D01*
X70700499Y-64682127D01*
X70700498Y-64682111D01*
X70696320Y-64643253D01*
X70696320Y-64616745D01*
X70700500Y-64577873D01*
X70700499Y-64032128D01*
X70700499Y-64032127D01*
X70700498Y-64032111D01*
X70696320Y-63993253D01*
X70696320Y-63966745D01*
X70700500Y-63927873D01*
X70700499Y-63382128D01*
X70700499Y-63382127D01*
X70700498Y-63382111D01*
X70696320Y-63343253D01*
X70696320Y-63316745D01*
X70700500Y-63277873D01*
X70700499Y-62732128D01*
X70700499Y-62732127D01*
X70700498Y-62732111D01*
X70696320Y-62693253D01*
X70696320Y-62666745D01*
X70700500Y-62627873D01*
X70700499Y-62082128D01*
X70700499Y-62082127D01*
X70700498Y-62082111D01*
X70696320Y-62043253D01*
X70696320Y-62016745D01*
X70700500Y-61977873D01*
X70700499Y-61432128D01*
X70694091Y-61372517D01*
X70689491Y-61360185D01*
X70643797Y-61237671D01*
X70643793Y-61237664D01*
X70557547Y-61122455D01*
X70557544Y-61122452D01*
X70442335Y-61036206D01*
X70442328Y-61036202D01*
X70307482Y-60985908D01*
X70307483Y-60985908D01*
X70247883Y-60979501D01*
X70247881Y-60979500D01*
X70247873Y-60979500D01*
X70247865Y-60979500D01*
X68484004Y-60979500D01*
X68416965Y-60959815D01*
X68371210Y-60907011D01*
X68360533Y-60866940D01*
X68359655Y-60857461D01*
X68355115Y-60808464D01*
X68294229Y-60594472D01*
X68283999Y-60573927D01*
X68195061Y-60395316D01*
X68195056Y-60395308D01*
X68060979Y-60217761D01*
X67896562Y-60067876D01*
X67896560Y-60067874D01*
X67707404Y-59950754D01*
X67707398Y-59950752D01*
X67676327Y-59938715D01*
X67499940Y-59870382D01*
X67281243Y-59829500D01*
X67058757Y-59829500D01*
X66840060Y-59870382D01*
X66734485Y-59911282D01*
X66632601Y-59950752D01*
X66632595Y-59950754D01*
X66443439Y-60067874D01*
X66443437Y-60067876D01*
X66279020Y-60217761D01*
X66144943Y-60395308D01*
X66144938Y-60395316D01*
X66045775Y-60594461D01*
X66045769Y-60594476D01*
X65984885Y-60808462D01*
X65984884Y-60808464D01*
X65964357Y-61029999D01*
X65964357Y-61030000D01*
X65984884Y-61251535D01*
X65984885Y-61251537D01*
X66045769Y-61465523D01*
X66045775Y-61465538D01*
X66144938Y-61664683D01*
X66144943Y-61664691D01*
X66279020Y-61842238D01*
X66294617Y-61856456D01*
X66330899Y-61916167D01*
X66329138Y-61986015D01*
X66294618Y-62039730D01*
X66209018Y-62117764D01*
X66074943Y-62295308D01*
X66074938Y-62295316D01*
X65975920Y-62494173D01*
X65928417Y-62545410D01*
X65860754Y-62562831D01*
X65794414Y-62540905D01*
X65777239Y-62526582D01*
X65106819Y-61856162D01*
X65073334Y-61794839D01*
X65070500Y-61768481D01*
X65070500Y-59741004D01*
X65043581Y-59605677D01*
X65043580Y-59605676D01*
X65043580Y-59605672D01*
X64990775Y-59478189D01*
X64990769Y-59478180D01*
X64971941Y-59450001D01*
X64914114Y-59363456D01*
X64914111Y-59363453D01*
X61960214Y-56409557D01*
X61926729Y-56348234D01*
X61931713Y-56278542D01*
X61944790Y-56255340D01*
X61943920Y-56254803D01*
X61947710Y-56248657D01*
X61947712Y-56248656D01*
X62039814Y-56099334D01*
X62094999Y-55932797D01*
X62105500Y-55830009D01*
X62105500Y-55477844D01*
X64610000Y-55477844D01*
X64616401Y-55537372D01*
X64616403Y-55537379D01*
X64666645Y-55672086D01*
X64666649Y-55672093D01*
X64752809Y-55787187D01*
X64752812Y-55787190D01*
X64867906Y-55873350D01*
X64867913Y-55873354D01*
X65002620Y-55923596D01*
X65002627Y-55923598D01*
X65062155Y-55929999D01*
X65062172Y-55930000D01*
X65660000Y-55930000D01*
X65660000Y-55180000D01*
X64610000Y-55180000D01*
X64610000Y-55477844D01*
X62105500Y-55477844D01*
X62105499Y-54829992D01*
X62104359Y-54818836D01*
X62094999Y-54727203D01*
X62094998Y-54727200D01*
X62068555Y-54647400D01*
X62039814Y-54560666D01*
X61947712Y-54411344D01*
X61918523Y-54382155D01*
X64610000Y-54382155D01*
X64610000Y-54680000D01*
X65660000Y-54680000D01*
X66160000Y-54680000D01*
X67210000Y-54680000D01*
X67210000Y-54382172D01*
X67209999Y-54382155D01*
X67203598Y-54322627D01*
X67203596Y-54322620D01*
X67153354Y-54187913D01*
X67153350Y-54187906D01*
X67067190Y-54072812D01*
X67067187Y-54072809D01*
X66952093Y-53986649D01*
X66952086Y-53986645D01*
X66817379Y-53936403D01*
X66817372Y-53936401D01*
X66757844Y-53930000D01*
X66160000Y-53930000D01*
X66160000Y-54680000D01*
X65660000Y-54680000D01*
X65660000Y-53930000D01*
X65062155Y-53930000D01*
X65002627Y-53936401D01*
X65002620Y-53936403D01*
X64867913Y-53986645D01*
X64867906Y-53986649D01*
X64752812Y-54072809D01*
X64752809Y-54072812D01*
X64666649Y-54187906D01*
X64666645Y-54187913D01*
X64616403Y-54322620D01*
X64616401Y-54322627D01*
X64610000Y-54382155D01*
X61918523Y-54382155D01*
X61823656Y-54287288D01*
X61683219Y-54200666D01*
X61674336Y-54195187D01*
X61674331Y-54195185D01*
X61672862Y-54194698D01*
X61507797Y-54140001D01*
X61507795Y-54140000D01*
X61405010Y-54129500D01*
X60779998Y-54129500D01*
X60779980Y-54129501D01*
X60677203Y-54140000D01*
X60677200Y-54140001D01*
X60510668Y-54195185D01*
X60510663Y-54195187D01*
X60361342Y-54287289D01*
X60267681Y-54380951D01*
X60206358Y-54414436D01*
X60136666Y-54409452D01*
X60092319Y-54380951D01*
X59998657Y-54287289D01*
X59998656Y-54287288D01*
X59858219Y-54200666D01*
X59849336Y-54195187D01*
X59849331Y-54195185D01*
X59847862Y-54194698D01*
X59682797Y-54140001D01*
X59682795Y-54140000D01*
X59580010Y-54129500D01*
X58954998Y-54129500D01*
X58954980Y-54129501D01*
X58852203Y-54140000D01*
X58852200Y-54140001D01*
X58685668Y-54195185D01*
X58685663Y-54195187D01*
X58536342Y-54287289D01*
X58412289Y-54411342D01*
X58394245Y-54440597D01*
X58342297Y-54487322D01*
X58288706Y-54499500D01*
X57146729Y-54499500D01*
X57103396Y-54491682D01*
X57007482Y-54455908D01*
X57007483Y-54455908D01*
X56947883Y-54449501D01*
X56947881Y-54449500D01*
X56947873Y-54449500D01*
X56947864Y-54449500D01*
X55952129Y-54449500D01*
X55952123Y-54449501D01*
X55892516Y-54455908D01*
X55757671Y-54506202D01*
X55757664Y-54506206D01*
X55642455Y-54592452D01*
X55642452Y-54592455D01*
X55556206Y-54707664D01*
X55556202Y-54707671D01*
X55505908Y-54842517D01*
X55499501Y-54902116D01*
X55499500Y-54902135D01*
X55499500Y-55655954D01*
X55479815Y-55722993D01*
X55427011Y-55768748D01*
X55357853Y-55778692D01*
X55294297Y-55749667D01*
X55259318Y-55699287D01*
X55243796Y-55657669D01*
X55243793Y-55657664D01*
X55157547Y-55542455D01*
X55157544Y-55542452D01*
X55042335Y-55456206D01*
X55042328Y-55456202D01*
X54907482Y-55405908D01*
X54907483Y-55405908D01*
X54847883Y-55399501D01*
X54847881Y-55399500D01*
X54847873Y-55399500D01*
X54847865Y-55399500D01*
X54674495Y-55399500D01*
X54627046Y-55390062D01*
X54612666Y-55384106D01*
X54612662Y-55384105D01*
X54612658Y-55384103D01*
X54438694Y-55349500D01*
X54438691Y-55349500D01*
X51138422Y-55349500D01*
X51079405Y-55334555D01*
X51004739Y-55294148D01*
X51004729Y-55294143D01*
X50773458Y-55214748D01*
X50592561Y-55184562D01*
X50532263Y-55174500D01*
X50287737Y-55174500D01*
X50287735Y-55174500D01*
X50282352Y-55175398D01*
X50212987Y-55167012D01*
X50174268Y-55140769D01*
X48134041Y-53100540D01*
X48134038Y-53100537D01*
X48074116Y-53060499D01*
X47986544Y-53001985D01*
X47986542Y-53001984D01*
X47904607Y-52968046D01*
X47904606Y-52968046D01*
X47822666Y-52934105D01*
X47822658Y-52934103D01*
X47648696Y-52899500D01*
X47648692Y-52899500D01*
X47648691Y-52899500D01*
X46315725Y-52899500D01*
X46248686Y-52879815D01*
X46202931Y-52827011D01*
X46192987Y-52757853D01*
X46203088Y-52735732D01*
X46204180Y-52707732D01*
X45306447Y-51810000D01*
X45312661Y-51810000D01*
X45414394Y-51782741D01*
X45505606Y-51730080D01*
X45580080Y-51655606D01*
X45632741Y-51564394D01*
X45660000Y-51462661D01*
X45660000Y-51456447D01*
X46557732Y-52354180D01*
X46558430Y-52353363D01*
X46558432Y-52353361D01*
X46690019Y-52138631D01*
X46786396Y-51905956D01*
X46845187Y-51661072D01*
X46864947Y-51410000D01*
X50055052Y-51410000D01*
X50074812Y-51661072D01*
X50133603Y-51905956D01*
X50229980Y-52138631D01*
X50361568Y-52353362D01*
X50362266Y-52354179D01*
X51260000Y-51456446D01*
X51260000Y-51462661D01*
X51287259Y-51564394D01*
X51339920Y-51655606D01*
X51414394Y-51730080D01*
X51505606Y-51782741D01*
X51607339Y-51810000D01*
X51613553Y-51810000D01*
X50715819Y-52707732D01*
X50715819Y-52707733D01*
X50716634Y-52708429D01*
X50931368Y-52840019D01*
X51164043Y-52936396D01*
X51408927Y-52995187D01*
X51660000Y-53014947D01*
X51911072Y-52995187D01*
X52155956Y-52936396D01*
X52388631Y-52840019D01*
X52603361Y-52708432D01*
X52603363Y-52708430D01*
X52604180Y-52707732D01*
X51706447Y-51810000D01*
X51712661Y-51810000D01*
X51814394Y-51782741D01*
X51905606Y-51730080D01*
X51980080Y-51655606D01*
X52032741Y-51564394D01*
X52060000Y-51462661D01*
X52060000Y-51456448D01*
X52957732Y-52354180D01*
X52958430Y-52353363D01*
X52958432Y-52353361D01*
X53090019Y-52138631D01*
X53186396Y-51905956D01*
X53245187Y-51661072D01*
X53264947Y-51410000D01*
X53245187Y-51158927D01*
X53186396Y-50914043D01*
X53090019Y-50681368D01*
X52958429Y-50466634D01*
X52957733Y-50465819D01*
X52957732Y-50465819D01*
X52060000Y-51363551D01*
X52060000Y-51357339D01*
X52032741Y-51255606D01*
X51980080Y-51164394D01*
X51905606Y-51089920D01*
X51814394Y-51037259D01*
X51712661Y-51010000D01*
X51706448Y-51010000D01*
X52576445Y-50140000D01*
X54894564Y-50140000D01*
X54908304Y-50349642D01*
X54914287Y-50440918D01*
X54914288Y-50440930D01*
X54973118Y-50736683D01*
X54973122Y-50736698D01*
X55070053Y-51022247D01*
X55070062Y-51022268D01*
X55203431Y-51292713D01*
X55203435Y-51292720D01*
X55370973Y-51543459D01*
X55569810Y-51770189D01*
X55796540Y-51969026D01*
X56047279Y-52136564D01*
X56047286Y-52136568D01*
X56317731Y-52269937D01*
X56317736Y-52269939D01*
X56317748Y-52269945D01*
X56603309Y-52366880D01*
X56769592Y-52399956D01*
X56899069Y-52425711D01*
X56899070Y-52425711D01*
X56899080Y-52425713D01*
X57200000Y-52445436D01*
X57500920Y-52425713D01*
X57796691Y-52366880D01*
X58082252Y-52269945D01*
X58352718Y-52136566D01*
X58603461Y-51969025D01*
X58830189Y-51770189D01*
X59029025Y-51543461D01*
X59196566Y-51292718D01*
X59329945Y-51022252D01*
X59426880Y-50736691D01*
X59485713Y-50440920D01*
X59505436Y-50140000D01*
X59485713Y-49839080D01*
X59426880Y-49543309D01*
X59329945Y-49257748D01*
X59247395Y-49090354D01*
X59196568Y-48987286D01*
X59196564Y-48987279D01*
X59029026Y-48736540D01*
X58830189Y-48509810D01*
X58603459Y-48310973D01*
X58352720Y-48143435D01*
X58352713Y-48143431D01*
X58082268Y-48010062D01*
X58082247Y-48010053D01*
X57796698Y-47913122D01*
X57796692Y-47913120D01*
X57796691Y-47913120D01*
X57796689Y-47913119D01*
X57796683Y-47913118D01*
X57500930Y-47854288D01*
X57500921Y-47854287D01*
X57500920Y-47854287D01*
X57200000Y-47834564D01*
X56899080Y-47854287D01*
X56899079Y-47854287D01*
X56899069Y-47854288D01*
X56603316Y-47913118D01*
X56603301Y-47913122D01*
X56317752Y-48010053D01*
X56317731Y-48010062D01*
X56047286Y-48143431D01*
X56047279Y-48143435D01*
X55796540Y-48310973D01*
X55569810Y-48509810D01*
X55370973Y-48736540D01*
X55203435Y-48987279D01*
X55203431Y-48987286D01*
X55070062Y-49257731D01*
X55070053Y-49257752D01*
X54973122Y-49543301D01*
X54973118Y-49543316D01*
X54914288Y-49839069D01*
X54914287Y-49839079D01*
X54914287Y-49839080D01*
X54894564Y-50140000D01*
X52576445Y-50140000D01*
X52604179Y-50112266D01*
X52603362Y-50111568D01*
X52388631Y-49979980D01*
X52155956Y-49883603D01*
X51911072Y-49824812D01*
X51660000Y-49805052D01*
X51408927Y-49824812D01*
X51164043Y-49883603D01*
X50931368Y-49979980D01*
X50716637Y-50111567D01*
X50715819Y-50112266D01*
X51613553Y-51010000D01*
X51607339Y-51010000D01*
X51505606Y-51037259D01*
X51414394Y-51089920D01*
X51339920Y-51164394D01*
X51287259Y-51255606D01*
X51260000Y-51357339D01*
X51260000Y-51363553D01*
X50362266Y-50465819D01*
X50361567Y-50466637D01*
X50229980Y-50681368D01*
X50133603Y-50914043D01*
X50074812Y-51158927D01*
X50055052Y-51410000D01*
X46864947Y-51410000D01*
X46845187Y-51158927D01*
X46786396Y-50914043D01*
X46690019Y-50681368D01*
X46558429Y-50466634D01*
X46557733Y-50465819D01*
X46557732Y-50465819D01*
X45660000Y-51363551D01*
X45660000Y-51357339D01*
X45632741Y-51255606D01*
X45580080Y-51164394D01*
X45505606Y-51089920D01*
X45414394Y-51037259D01*
X45312661Y-51010000D01*
X45306448Y-51010000D01*
X46204179Y-50112266D01*
X46203362Y-50111568D01*
X45988631Y-49979980D01*
X45755956Y-49883603D01*
X45511072Y-49824812D01*
X45260000Y-49805052D01*
X45008927Y-49824812D01*
X44764043Y-49883603D01*
X44531368Y-49979980D01*
X44316637Y-50111567D01*
X44315819Y-50112266D01*
X45213553Y-51010000D01*
X45207339Y-51010000D01*
X45105606Y-51037259D01*
X45014394Y-51089920D01*
X44939920Y-51164394D01*
X44887259Y-51255606D01*
X44860000Y-51357339D01*
X44860000Y-51363553D01*
X43962266Y-50465819D01*
X43961567Y-50466637D01*
X43829980Y-50681368D01*
X43733603Y-50914043D01*
X43674812Y-51158927D01*
X43655052Y-51410000D01*
X43674812Y-51661072D01*
X43733603Y-51905956D01*
X43829978Y-52138626D01*
X43948790Y-52332510D01*
X43967034Y-52399956D01*
X43945917Y-52466559D01*
X43892145Y-52511172D01*
X43843062Y-52521300D01*
X42526629Y-52521300D01*
X42526623Y-52521301D01*
X42467016Y-52527708D01*
X42332171Y-52578002D01*
X42332164Y-52578006D01*
X42216955Y-52664252D01*
X42216952Y-52664255D01*
X42130706Y-52779464D01*
X42130702Y-52779471D01*
X42080408Y-52914317D01*
X42074001Y-52973916D01*
X42074000Y-52973927D01*
X42074000Y-53780001D01*
X42074001Y-54523400D01*
X42054316Y-54590439D01*
X42001513Y-54636194D01*
X41985273Y-54639726D01*
X41977600Y-54647400D01*
X41977600Y-57289000D01*
X41989073Y-57300473D01*
X42017039Y-57308685D01*
X42062794Y-57361489D01*
X42074000Y-57413000D01*
X42074000Y-58962470D01*
X42074001Y-58962476D01*
X42080408Y-59022083D01*
X42130702Y-59156928D01*
X42130706Y-59156935D01*
X42216952Y-59272144D01*
X42216955Y-59272147D01*
X42332163Y-59358392D01*
X42332165Y-59358393D01*
X42332169Y-59358396D01*
X42332173Y-59358397D01*
X42334924Y-59359900D01*
X42337149Y-59362125D01*
X42339269Y-59363712D01*
X42339040Y-59364016D01*
X42384331Y-59409304D01*
X42399500Y-59468734D01*
X42399500Y-60067665D01*
X42379815Y-60134704D01*
X42339166Y-60172551D01*
X42339269Y-60172688D01*
X42337996Y-60173640D01*
X42334932Y-60176494D01*
X42332170Y-60178002D01*
X42216955Y-60264252D01*
X42216952Y-60264255D01*
X42130706Y-60379464D01*
X42130702Y-60379471D01*
X42080408Y-60514317D01*
X42075781Y-60557360D01*
X42074000Y-60573927D01*
X42074000Y-61401004D01*
X42074001Y-62123400D01*
X42054316Y-62190439D01*
X42001513Y-62236194D01*
X41985273Y-62239726D01*
X41977600Y-62247400D01*
X41977600Y-64889000D01*
X41989073Y-64900473D01*
X42017039Y-64908685D01*
X42062794Y-64961489D01*
X42074000Y-65013000D01*
X42074000Y-66562470D01*
X42074001Y-66562476D01*
X42080408Y-66622083D01*
X42130702Y-66756928D01*
X42130706Y-66756935D01*
X42216952Y-66872144D01*
X42216955Y-66872147D01*
X42332164Y-66958393D01*
X42332171Y-66958397D01*
X42467017Y-67008691D01*
X42467016Y-67008691D01*
X42473944Y-67009435D01*
X42526627Y-67015100D01*
X44273372Y-67015099D01*
X44332983Y-67008691D01*
X44467831Y-66958396D01*
X44583046Y-66872146D01*
X44669296Y-66756931D01*
X44687409Y-66708368D01*
X44729279Y-66652434D01*
X44794743Y-66628016D01*
X44803591Y-66627700D01*
X47220459Y-66627700D01*
X47267911Y-66637138D01*
X47337334Y-66665895D01*
X47511303Y-66700499D01*
X47511307Y-66700500D01*
X47511308Y-66700500D01*
X48848693Y-66700500D01*
X48848694Y-66700499D01*
X49022666Y-66665895D01*
X49104606Y-66631953D01*
X49186547Y-66598013D01*
X49291520Y-66527872D01*
X49334036Y-66499464D01*
X50035653Y-65797844D01*
X55550000Y-65797844D01*
X55556401Y-65857372D01*
X55556403Y-65857379D01*
X55606645Y-65992086D01*
X55606649Y-65992093D01*
X55692809Y-66107187D01*
X55692812Y-66107190D01*
X55807906Y-66193350D01*
X55807913Y-66193354D01*
X55942620Y-66243596D01*
X55942627Y-66243598D01*
X56002155Y-66249999D01*
X56002172Y-66250000D01*
X56250000Y-66250000D01*
X56750000Y-66250000D01*
X56997828Y-66250000D01*
X56997844Y-66249999D01*
X57057372Y-66243598D01*
X57057379Y-66243596D01*
X57192086Y-66193354D01*
X57192093Y-66193350D01*
X57307187Y-66107190D01*
X57307190Y-66107187D01*
X57393350Y-65992093D01*
X57393354Y-65992086D01*
X57443596Y-65857379D01*
X57443598Y-65857372D01*
X57449999Y-65797844D01*
X57450000Y-65797827D01*
X57450000Y-65650000D01*
X56750000Y-65650000D01*
X56750000Y-66250000D01*
X56250000Y-66250000D01*
X56250000Y-65650000D01*
X55550000Y-65650000D01*
X55550000Y-65797844D01*
X50035653Y-65797844D01*
X50174269Y-65659228D01*
X50235590Y-65625745D01*
X50282362Y-65624603D01*
X50287737Y-65625500D01*
X50287742Y-65625500D01*
X50532262Y-65625500D01*
X50532263Y-65625500D01*
X50773455Y-65585252D01*
X51004733Y-65505855D01*
X51219788Y-65389473D01*
X51219796Y-65389467D01*
X51236268Y-65376647D01*
X51301262Y-65351004D01*
X51312430Y-65350500D01*
X54488693Y-65350500D01*
X54488694Y-65350499D01*
X54662666Y-65315894D01*
X54668371Y-65313530D01*
X54677046Y-65309938D01*
X54724498Y-65300499D01*
X54897871Y-65300499D01*
X54897872Y-65300499D01*
X54957483Y-65294091D01*
X55092331Y-65243796D01*
X55207546Y-65157546D01*
X55293796Y-65042331D01*
X55299240Y-65027735D01*
X55309818Y-64999375D01*
X55351689Y-64943441D01*
X55417153Y-64919023D01*
X55485426Y-64933874D01*
X55534832Y-64983279D01*
X55550000Y-65042707D01*
X55550000Y-65150000D01*
X57450000Y-65150000D01*
X57450000Y-65002172D01*
X57449999Y-65002155D01*
X57443598Y-64942627D01*
X57443596Y-64942620D01*
X57393354Y-64807913D01*
X57393350Y-64807906D01*
X57307190Y-64692812D01*
X57307187Y-64692809D01*
X57192093Y-64606649D01*
X57192086Y-64606645D01*
X57084312Y-64566448D01*
X57028378Y-64524577D01*
X57003961Y-64459112D01*
X57018813Y-64390839D01*
X57068218Y-64341434D01*
X57084313Y-64334084D01*
X57153397Y-64308318D01*
X57196729Y-64300500D01*
X58302374Y-64300500D01*
X58369413Y-64320185D01*
X58407912Y-64359403D01*
X58419785Y-64378652D01*
X58419788Y-64378656D01*
X58543844Y-64502712D01*
X58693166Y-64594814D01*
X58859703Y-64649999D01*
X58962491Y-64660500D01*
X59587508Y-64660499D01*
X59587516Y-64660498D01*
X59587519Y-64660498D01*
X59643802Y-64654748D01*
X59690297Y-64649999D01*
X59856834Y-64594814D01*
X60006156Y-64502712D01*
X60099819Y-64409049D01*
X60161142Y-64375564D01*
X60230834Y-64380548D01*
X60275181Y-64409049D01*
X60368844Y-64502712D01*
X60518166Y-64594814D01*
X60684703Y-64649999D01*
X60787491Y-64660500D01*
X61412508Y-64660499D01*
X61412516Y-64660498D01*
X61412519Y-64660498D01*
X61468802Y-64654748D01*
X61515297Y-64649999D01*
X61681834Y-64594814D01*
X61831156Y-64502712D01*
X61955212Y-64378656D01*
X62047314Y-64229334D01*
X62047314Y-64229332D01*
X62051105Y-64223187D01*
X62052899Y-64224293D01*
X62092187Y-64179663D01*
X62158408Y-64160500D01*
X63788481Y-64160500D01*
X63855520Y-64180185D01*
X63876162Y-64196819D01*
X64719161Y-65039818D01*
X64752646Y-65101141D01*
X64747662Y-65170833D01*
X64719161Y-65215180D01*
X61651160Y-68283181D01*
X61589837Y-68316666D01*
X61563479Y-68319500D01*
X61092498Y-68319500D01*
X61092480Y-68319501D01*
X60989703Y-68330000D01*
X60989700Y-68330001D01*
X60823168Y-68385185D01*
X60823163Y-68385187D01*
X60673842Y-68477289D01*
X60580181Y-68570951D01*
X60518858Y-68604436D01*
X60449166Y-68599452D01*
X60404819Y-68570951D01*
X60311157Y-68477289D01*
X60311156Y-68477288D01*
X60161834Y-68385186D01*
X59995297Y-68330001D01*
X59995295Y-68330000D01*
X59892510Y-68319500D01*
X59267498Y-68319500D01*
X59267480Y-68319501D01*
X59164703Y-68330000D01*
X59164700Y-68330001D01*
X58998168Y-68385185D01*
X58998163Y-68385187D01*
X58848842Y-68477289D01*
X58724789Y-68601342D01*
X58700577Y-68640597D01*
X58648629Y-68687321D01*
X58595038Y-68699500D01*
X57146729Y-68699500D01*
X57103396Y-68691682D01*
X57007482Y-68655908D01*
X57007483Y-68655908D01*
X56947883Y-68649501D01*
X56947881Y-68649500D01*
X56947873Y-68649500D01*
X56947864Y-68649500D01*
X55952129Y-68649500D01*
X55952123Y-68649501D01*
X55892516Y-68655908D01*
X55757671Y-68706202D01*
X55757664Y-68706206D01*
X55642455Y-68792452D01*
X55642452Y-68792455D01*
X55556206Y-68907664D01*
X55556202Y-68907671D01*
X55505908Y-69042517D01*
X55499501Y-69102116D01*
X55499500Y-69102135D01*
X55499500Y-69855954D01*
X55479815Y-69922993D01*
X55427011Y-69968748D01*
X55357853Y-69978692D01*
X55294297Y-69949667D01*
X55259318Y-69899287D01*
X55243796Y-69857669D01*
X55243793Y-69857664D01*
X55157547Y-69742455D01*
X55157544Y-69742452D01*
X55042335Y-69656206D01*
X55042328Y-69656202D01*
X54907482Y-69605908D01*
X54907483Y-69605908D01*
X54847883Y-69599501D01*
X54847881Y-69599500D01*
X54847873Y-69599500D01*
X54847865Y-69599500D01*
X54674495Y-69599500D01*
X54627046Y-69590062D01*
X54612666Y-69584106D01*
X54612662Y-69584105D01*
X54612658Y-69584103D01*
X54438694Y-69549500D01*
X54438691Y-69549500D01*
X51078422Y-69549500D01*
X51019405Y-69534555D01*
X50944739Y-69494148D01*
X50944729Y-69494143D01*
X50713458Y-69414748D01*
X50532561Y-69384562D01*
X50472263Y-69374500D01*
X50227737Y-69374500D01*
X50227736Y-69374500D01*
X50222353Y-69375398D01*
X50152988Y-69367012D01*
X50114269Y-69340769D01*
X49074041Y-68300540D01*
X49074038Y-68300537D01*
X48996896Y-68248993D01*
X48926544Y-68201985D01*
X48926542Y-68201984D01*
X48832154Y-68162888D01*
X48762666Y-68134105D01*
X48762658Y-68134103D01*
X48588696Y-68099500D01*
X48588692Y-68099500D01*
X48588691Y-68099500D01*
X47488692Y-68099500D01*
X47311308Y-68099500D01*
X47311307Y-68099500D01*
X47291457Y-68103448D01*
X47277035Y-68106317D01*
X47252845Y-68108700D01*
X44803591Y-68108700D01*
X44736552Y-68089015D01*
X44690797Y-68036211D01*
X44687409Y-68028032D01*
X44669298Y-67979473D01*
X44669293Y-67979464D01*
X44583047Y-67864255D01*
X44583044Y-67864252D01*
X44467835Y-67778006D01*
X44467828Y-67778002D01*
X44332982Y-67727708D01*
X44332983Y-67727708D01*
X44273383Y-67721301D01*
X44273381Y-67721300D01*
X44273373Y-67721300D01*
X44273364Y-67721300D01*
X42526629Y-67721300D01*
X42526623Y-67721301D01*
X42467016Y-67727708D01*
X42332171Y-67778002D01*
X42332164Y-67778006D01*
X42216955Y-67864252D01*
X42216952Y-67864255D01*
X42130706Y-67979464D01*
X42130702Y-67979471D01*
X42080408Y-68114317D01*
X42075187Y-68162888D01*
X42074000Y-68173927D01*
X42074000Y-68957876D01*
X42074001Y-69723400D01*
X42054316Y-69790439D01*
X42001513Y-69836194D01*
X41985273Y-69839726D01*
X41977600Y-69847400D01*
X41977600Y-72489000D01*
X41989073Y-72500473D01*
X42017039Y-72508685D01*
X42062794Y-72561489D01*
X42074000Y-72613000D01*
X42074000Y-74162470D01*
X42074001Y-74162476D01*
X42080408Y-74222083D01*
X42130702Y-74356928D01*
X42130706Y-74356935D01*
X42216952Y-74472144D01*
X42216955Y-74472147D01*
X42332163Y-74558392D01*
X42332165Y-74558393D01*
X42332169Y-74558396D01*
X42332173Y-74558397D01*
X42334924Y-74559900D01*
X42337149Y-74562125D01*
X42339269Y-74563712D01*
X42339040Y-74564016D01*
X42384331Y-74609304D01*
X42399500Y-74668734D01*
X42399500Y-75267665D01*
X42379815Y-75334704D01*
X42339166Y-75372551D01*
X42339269Y-75372688D01*
X42337996Y-75373640D01*
X42334932Y-75376494D01*
X42332170Y-75378002D01*
X42216955Y-75464252D01*
X42216952Y-75464255D01*
X42130706Y-75579464D01*
X42130702Y-75579471D01*
X42080408Y-75714317D01*
X42077418Y-75742135D01*
X42074000Y-75773927D01*
X42074000Y-76594554D01*
X42074001Y-77323400D01*
X42054316Y-77390439D01*
X42001513Y-77436194D01*
X41985273Y-77439726D01*
X41977600Y-77447400D01*
X41977600Y-80089000D01*
X41989073Y-80100473D01*
X42017039Y-80108685D01*
X42062794Y-80161489D01*
X42074000Y-80213000D01*
X42074000Y-81762470D01*
X42074001Y-81762476D01*
X42080408Y-81822083D01*
X42130702Y-81956928D01*
X42130706Y-81956935D01*
X42216952Y-82072144D01*
X42216955Y-82072147D01*
X42332164Y-82158393D01*
X42332171Y-82158397D01*
X42467017Y-82208691D01*
X42467016Y-82208691D01*
X42473944Y-82209435D01*
X42526627Y-82215100D01*
X44273372Y-82215099D01*
X44332983Y-82208691D01*
X44467831Y-82158396D01*
X44583046Y-82072146D01*
X44669296Y-81956931D01*
X44675804Y-81939483D01*
X44687409Y-81908368D01*
X44729279Y-81852434D01*
X44794743Y-81828016D01*
X44803591Y-81827700D01*
X47861493Y-81827700D01*
X47861494Y-81827699D01*
X48035466Y-81793095D01*
X48134155Y-81752216D01*
X48199347Y-81725213D01*
X48295318Y-81661087D01*
X48346836Y-81626664D01*
X49875654Y-80097844D01*
X55500000Y-80097844D01*
X55506401Y-80157372D01*
X55506403Y-80157379D01*
X55556645Y-80292086D01*
X55556649Y-80292093D01*
X55642809Y-80407187D01*
X55642812Y-80407190D01*
X55757906Y-80493350D01*
X55757913Y-80493354D01*
X55892620Y-80543596D01*
X55892627Y-80543598D01*
X55952155Y-80549999D01*
X55952172Y-80550000D01*
X56200000Y-80550000D01*
X56700000Y-80550000D01*
X56947828Y-80550000D01*
X56947844Y-80549999D01*
X57007372Y-80543598D01*
X57007379Y-80543596D01*
X57142086Y-80493354D01*
X57142093Y-80493350D01*
X57257187Y-80407190D01*
X57257190Y-80407187D01*
X57343350Y-80292093D01*
X57343354Y-80292086D01*
X57393596Y-80157379D01*
X57393598Y-80157372D01*
X57399999Y-80097844D01*
X57400000Y-80097827D01*
X57400000Y-79950000D01*
X56700000Y-79950000D01*
X56700000Y-80550000D01*
X56200000Y-80550000D01*
X56200000Y-79950000D01*
X55500000Y-79950000D01*
X55500000Y-80097844D01*
X49875654Y-80097844D01*
X50114270Y-79859228D01*
X50175591Y-79825745D01*
X50222361Y-79824603D01*
X50227737Y-79825500D01*
X50472262Y-79825500D01*
X50472263Y-79825500D01*
X50713455Y-79785252D01*
X50944733Y-79705855D01*
X50989698Y-79681521D01*
X51019405Y-79665445D01*
X51078422Y-79650500D01*
X54438693Y-79650500D01*
X54438694Y-79650499D01*
X54612666Y-79615894D01*
X54618371Y-79613530D01*
X54627046Y-79609938D01*
X54674498Y-79600499D01*
X54847871Y-79600499D01*
X54847872Y-79600499D01*
X54907483Y-79594091D01*
X55042331Y-79543796D01*
X55157546Y-79457546D01*
X55243796Y-79342331D01*
X55252575Y-79318794D01*
X55259818Y-79299375D01*
X55301689Y-79243441D01*
X55367153Y-79219023D01*
X55435426Y-79233874D01*
X55484832Y-79283279D01*
X55500000Y-79342707D01*
X55500000Y-79450000D01*
X57400000Y-79450000D01*
X57400000Y-79302172D01*
X57399999Y-79302155D01*
X57393598Y-79242627D01*
X57393596Y-79242620D01*
X57343354Y-79107913D01*
X57343350Y-79107906D01*
X57257190Y-78992812D01*
X57257187Y-78992809D01*
X57142093Y-78906649D01*
X57142086Y-78906645D01*
X57034312Y-78866448D01*
X56978378Y-78824577D01*
X56953961Y-78759112D01*
X56968813Y-78690839D01*
X57018218Y-78641434D01*
X57034313Y-78634084D01*
X57043923Y-78630500D01*
X57046598Y-78629501D01*
X57103397Y-78608318D01*
X57146729Y-78600500D01*
X57698127Y-78600500D01*
X57722317Y-78602882D01*
X57755551Y-78609493D01*
X57861154Y-78630500D01*
X57861157Y-78630500D01*
X58018844Y-78630500D01*
X58018845Y-78630499D01*
X58173497Y-78599737D01*
X58319179Y-78539394D01*
X58450289Y-78451789D01*
X59631789Y-77270289D01*
X59719394Y-77139179D01*
X59779738Y-76993497D01*
X59810500Y-76838842D01*
X59810500Y-76681157D01*
X59810500Y-76449797D01*
X59830185Y-76382758D01*
X59869403Y-76344258D01*
X59928656Y-76307712D01*
X60052712Y-76183656D01*
X60144814Y-76034334D01*
X60199999Y-75867797D01*
X60210500Y-75765009D01*
X60210499Y-75519628D01*
X60230183Y-75452592D01*
X60246818Y-75431950D01*
X60949360Y-74729409D01*
X60966398Y-74792993D01*
X61032224Y-74907007D01*
X61125316Y-75000099D01*
X61239330Y-75065925D01*
X61302913Y-75082962D01*
X60562265Y-75823609D01*
X60609091Y-75860055D01*
X60609093Y-75860056D01*
X60827708Y-75978364D01*
X60827719Y-75978369D01*
X61062829Y-76059083D01*
X61308030Y-76100000D01*
X61556616Y-76100000D01*
X61801816Y-76059083D01*
X62036926Y-75978369D01*
X62036937Y-75978364D01*
X62255551Y-75860057D01*
X62255554Y-75860055D01*
X62302379Y-75823609D01*
X61561732Y-75082962D01*
X61625316Y-75065925D01*
X61739330Y-75000099D01*
X61832422Y-74907007D01*
X61898248Y-74792993D01*
X61915285Y-74729410D01*
X62655757Y-75469882D01*
X62756054Y-75316369D01*
X62855910Y-75088717D01*
X62916935Y-74847738D01*
X62916937Y-74847729D01*
X62937464Y-74600005D01*
X62937464Y-74599994D01*
X62916937Y-74352270D01*
X62916935Y-74352261D01*
X62855910Y-74111282D01*
X62756054Y-73883630D01*
X62655757Y-73730116D01*
X61915285Y-74470589D01*
X61898248Y-74407007D01*
X61832422Y-74292993D01*
X61739330Y-74199901D01*
X61625316Y-74134075D01*
X61561733Y-74117037D01*
X62302380Y-73376390D01*
X62302379Y-73376389D01*
X62255552Y-73339943D01*
X62036937Y-73221635D01*
X62036926Y-73221630D01*
X61801816Y-73140916D01*
X61556616Y-73100000D01*
X61308030Y-73100000D01*
X61062829Y-73140916D01*
X60827719Y-73221630D01*
X60827713Y-73221632D01*
X60609084Y-73339949D01*
X60562265Y-73376388D01*
X60562265Y-73376390D01*
X61302913Y-74117037D01*
X61239330Y-74134075D01*
X61125316Y-74199901D01*
X61032224Y-74292993D01*
X60966398Y-74407007D01*
X60949360Y-74470590D01*
X60246818Y-73768048D01*
X60213333Y-73706725D01*
X60210499Y-73680372D01*
X60210499Y-73314992D01*
X60199999Y-73212203D01*
X60144814Y-73045666D01*
X60091725Y-72959595D01*
X60073286Y-72892204D01*
X60094209Y-72825541D01*
X60147851Y-72780771D01*
X60197265Y-72770500D01*
X62268996Y-72770500D01*
X62360040Y-72752389D01*
X62404328Y-72743580D01*
X62468069Y-72717177D01*
X62531807Y-72690777D01*
X62531808Y-72690776D01*
X62531811Y-72690775D01*
X62646543Y-72614114D01*
X64843779Y-70416876D01*
X64905100Y-70383393D01*
X64974791Y-70388377D01*
X65030725Y-70430249D01*
X65042458Y-70449288D01*
X65094936Y-70554679D01*
X65094943Y-70554691D01*
X65229020Y-70732238D01*
X65358200Y-70850000D01*
X65391655Y-70880499D01*
X65393437Y-70882123D01*
X65393439Y-70882125D01*
X65582595Y-70999245D01*
X65582596Y-70999245D01*
X65582599Y-70999247D01*
X65790060Y-71079618D01*
X66008757Y-71120500D01*
X66008759Y-71120500D01*
X66231241Y-71120500D01*
X66231243Y-71120500D01*
X66449940Y-71079618D01*
X66630708Y-71009587D01*
X66700329Y-71003726D01*
X66762070Y-71036436D01*
X66796325Y-71097332D01*
X66799500Y-71125215D01*
X66799500Y-75071006D01*
X66799500Y-75208994D01*
X66799500Y-75208996D01*
X66799499Y-75208996D01*
X66826418Y-75344322D01*
X66826421Y-75344332D01*
X66879222Y-75471807D01*
X66955887Y-75586545D01*
X66955888Y-75586546D01*
X68033457Y-76664114D01*
X68033456Y-76664114D01*
X68047729Y-76673650D01*
X68076086Y-76692597D01*
X68076088Y-76692599D01*
X68076089Y-76692599D01*
X68148189Y-76740775D01*
X68148190Y-76740775D01*
X68148191Y-76740776D01*
X68237749Y-76777872D01*
X68237748Y-76777872D01*
X68275671Y-76793580D01*
X68275679Y-76793582D01*
X68302545Y-76798925D01*
X68302551Y-76798926D01*
X68302591Y-76798934D01*
X68392937Y-76816905D01*
X68411006Y-76820500D01*
X68411007Y-76820500D01*
X73698481Y-76820500D01*
X73765520Y-76840185D01*
X73786162Y-76856819D01*
X75553181Y-78623838D01*
X75586666Y-78685161D01*
X75589500Y-78711519D01*
X75589500Y-79424890D01*
X75569815Y-79491929D01*
X75553181Y-79512571D01*
X74788600Y-80277152D01*
X74788600Y-80276496D01*
X74760905Y-80173135D01*
X74707401Y-80080464D01*
X74631736Y-80004799D01*
X74539065Y-79951295D01*
X74435704Y-79923600D01*
X74435047Y-79923600D01*
X75181303Y-79177341D01*
X75181303Y-79177340D01*
X75150789Y-79153590D01*
X74946675Y-79043128D01*
X74946666Y-79043125D01*
X74727167Y-78967770D01*
X74498242Y-78929570D01*
X74266158Y-78929570D01*
X74037232Y-78967770D01*
X73817733Y-79043125D01*
X73817724Y-79043128D01*
X73613609Y-79153590D01*
X73613603Y-79153594D01*
X73583095Y-79177339D01*
X73583095Y-79177341D01*
X74329354Y-79923600D01*
X74328696Y-79923600D01*
X74225335Y-79951295D01*
X74132664Y-80004799D01*
X74056999Y-80080464D01*
X74003495Y-80173135D01*
X73975800Y-80276496D01*
X73975800Y-80277153D01*
X73230701Y-79532054D01*
X73146336Y-79661184D01*
X73053108Y-79873724D01*
X72996135Y-80098710D01*
X72976970Y-80329994D01*
X72976970Y-80330005D01*
X72996135Y-80561289D01*
X73053108Y-80786275D01*
X73146335Y-80998812D01*
X73230701Y-81127944D01*
X73975800Y-80382845D01*
X73975800Y-80383504D01*
X74003495Y-80486865D01*
X74056999Y-80579536D01*
X74132664Y-80655201D01*
X74225335Y-80708705D01*
X74328696Y-80736400D01*
X74329353Y-80736400D01*
X73583095Y-81482656D01*
X73607728Y-81501830D01*
X73648540Y-81558541D01*
X73652213Y-81628314D01*
X73617581Y-81688997D01*
X73607726Y-81697536D01*
X73430130Y-81835764D01*
X73430120Y-81835773D01*
X73343854Y-81929483D01*
X73283967Y-81965474D01*
X73252625Y-81969500D01*
X71666975Y-81969500D01*
X71599936Y-81949815D01*
X71575746Y-81929483D01*
X71489479Y-81835773D01*
X71489478Y-81835772D01*
X71489476Y-81835770D01*
X71433547Y-81792239D01*
X71311873Y-81697535D01*
X71271060Y-81640825D01*
X71267387Y-81571052D01*
X71302018Y-81510369D01*
X71311872Y-81501830D01*
X71336503Y-81482657D01*
X70590248Y-80736400D01*
X70590904Y-80736400D01*
X70694265Y-80708705D01*
X70786936Y-80655201D01*
X70862601Y-80579536D01*
X70916105Y-80486865D01*
X70943800Y-80383504D01*
X70943800Y-80382847D01*
X71688897Y-81127944D01*
X71773260Y-80998819D01*
X71773265Y-80998811D01*
X71866491Y-80786275D01*
X71923464Y-80561289D01*
X71942630Y-80330005D01*
X71942630Y-80329994D01*
X71923464Y-80098710D01*
X71866491Y-79873724D01*
X71773262Y-79661182D01*
X71688897Y-79532054D01*
X70943800Y-80277151D01*
X70943800Y-80276496D01*
X70916105Y-80173135D01*
X70862601Y-80080464D01*
X70786936Y-80004799D01*
X70694265Y-79951295D01*
X70590904Y-79923600D01*
X70590247Y-79923600D01*
X71336503Y-79177341D01*
X71336503Y-79177340D01*
X71305989Y-79153590D01*
X71101875Y-79043128D01*
X71101866Y-79043125D01*
X70882367Y-78967770D01*
X70653442Y-78929570D01*
X70421358Y-78929570D01*
X70192432Y-78967770D01*
X69972933Y-79043125D01*
X69972924Y-79043128D01*
X69768809Y-79153590D01*
X69768803Y-79153594D01*
X69738295Y-79177339D01*
X69738295Y-79177341D01*
X70484554Y-79923600D01*
X70483896Y-79923600D01*
X70380535Y-79951295D01*
X70287864Y-80004799D01*
X70212199Y-80080464D01*
X70158695Y-80173135D01*
X70131000Y-80276496D01*
X70131000Y-80277153D01*
X69385901Y-79532054D01*
X69301536Y-79661184D01*
X69208308Y-79873724D01*
X69151335Y-80098710D01*
X69132170Y-80329994D01*
X69132170Y-80330005D01*
X69151335Y-80561289D01*
X69208308Y-80786275D01*
X69301535Y-80998812D01*
X69385901Y-81127944D01*
X70131000Y-80382845D01*
X70131000Y-80383504D01*
X70158695Y-80486865D01*
X70212199Y-80579536D01*
X70287864Y-80655201D01*
X70380535Y-80708705D01*
X70483896Y-80736400D01*
X70484553Y-80736400D01*
X69738295Y-81482656D01*
X69762928Y-81501830D01*
X69803740Y-81558541D01*
X69807413Y-81628314D01*
X69772781Y-81688997D01*
X69762926Y-81697536D01*
X69585330Y-81835764D01*
X69585327Y-81835767D01*
X69585324Y-81835769D01*
X69585324Y-81835770D01*
X69536373Y-81888945D01*
X69489850Y-81939483D01*
X69429963Y-81975473D01*
X69398620Y-81979500D01*
X68022175Y-81979500D01*
X67955136Y-81959815D01*
X67930946Y-81939483D01*
X67844679Y-81845773D01*
X67844678Y-81845772D01*
X67844676Y-81845770D01*
X67779745Y-81795232D01*
X67667073Y-81707535D01*
X67626260Y-81650825D01*
X67622587Y-81581052D01*
X67657218Y-81520369D01*
X67667072Y-81511830D01*
X67691703Y-81492657D01*
X66945448Y-80746400D01*
X66946104Y-80746400D01*
X67049465Y-80718705D01*
X67142136Y-80665201D01*
X67217801Y-80589536D01*
X67271305Y-80496865D01*
X67299000Y-80393504D01*
X67299000Y-80392847D01*
X68044097Y-81137944D01*
X68128460Y-81008819D01*
X68128465Y-81008811D01*
X68221691Y-80796275D01*
X68278664Y-80571289D01*
X68297830Y-80340005D01*
X68297830Y-80339994D01*
X68278664Y-80108710D01*
X68221691Y-79883724D01*
X68128462Y-79671182D01*
X68044097Y-79542054D01*
X67299000Y-80287151D01*
X67299000Y-80286496D01*
X67271305Y-80183135D01*
X67217801Y-80090464D01*
X67142136Y-80014799D01*
X67049465Y-79961295D01*
X66946104Y-79933600D01*
X66945447Y-79933600D01*
X67691703Y-79187341D01*
X67691703Y-79187340D01*
X67661189Y-79163590D01*
X67457075Y-79053128D01*
X67457066Y-79053125D01*
X67237567Y-78977770D01*
X67008642Y-78939570D01*
X66776558Y-78939570D01*
X66547632Y-78977770D01*
X66328133Y-79053125D01*
X66328124Y-79053128D01*
X66124009Y-79163590D01*
X66124003Y-79163594D01*
X66093495Y-79187339D01*
X66093495Y-79187341D01*
X66839754Y-79933600D01*
X66839096Y-79933600D01*
X66735735Y-79961295D01*
X66643064Y-80014799D01*
X66567399Y-80090464D01*
X66513895Y-80183135D01*
X66486200Y-80286496D01*
X66486200Y-80287153D01*
X65741101Y-79542054D01*
X65656736Y-79671184D01*
X65563508Y-79883724D01*
X65506535Y-80108710D01*
X65487370Y-80339994D01*
X65487370Y-80340005D01*
X65506535Y-80571289D01*
X65563508Y-80796275D01*
X65656735Y-81008812D01*
X65741101Y-81137944D01*
X66486200Y-80392845D01*
X66486200Y-80393504D01*
X66513895Y-80496865D01*
X66567399Y-80589536D01*
X66643064Y-80665201D01*
X66735735Y-80718705D01*
X66839096Y-80746400D01*
X66839753Y-80746400D01*
X66093495Y-81492656D01*
X66118128Y-81511830D01*
X66158940Y-81568541D01*
X66162613Y-81638314D01*
X66127981Y-81698997D01*
X66118126Y-81707536D01*
X65940530Y-81845764D01*
X65940520Y-81845773D01*
X65854254Y-81939483D01*
X65794367Y-81975474D01*
X65763025Y-81979500D01*
X65530503Y-81979500D01*
X65356541Y-82014103D01*
X65356529Y-82014106D01*
X65274592Y-82048045D01*
X65274593Y-82048046D01*
X65192655Y-82081985D01*
X65104240Y-82141063D01*
X65104239Y-82141064D01*
X65045161Y-82180537D01*
X65045160Y-82180538D01*
X63793136Y-83432563D01*
X63780955Y-83450795D01*
X63766896Y-83471836D01*
X63694585Y-83580056D01*
X63694584Y-83580057D01*
X63665821Y-83649500D01*
X63665821Y-83649501D01*
X63627002Y-83743218D01*
X63626705Y-83743934D01*
X63594821Y-83904230D01*
X63592833Y-83914226D01*
X63592100Y-83917910D01*
X63592100Y-84097562D01*
X63572415Y-84164601D01*
X63519611Y-84210356D01*
X63450453Y-84220300D01*
X63386897Y-84191275D01*
X63368834Y-84171874D01*
X63287187Y-84062809D01*
X63172093Y-83976649D01*
X63172086Y-83976645D01*
X63037379Y-83926403D01*
X63037372Y-83926401D01*
X62977844Y-83920000D01*
X62380000Y-83920000D01*
X62380000Y-85920000D01*
X62977828Y-85920000D01*
X62977844Y-85919999D01*
X63037372Y-85913598D01*
X63037376Y-85913597D01*
X63124766Y-85881003D01*
X63194458Y-85876019D01*
X63255781Y-85909504D01*
X63289266Y-85970827D01*
X63292100Y-85997185D01*
X63292100Y-86394501D01*
X63292101Y-86394519D01*
X63302600Y-86497296D01*
X63302601Y-86497299D01*
X63338546Y-86605772D01*
X63357786Y-86663834D01*
X63390828Y-86717404D01*
X63409268Y-86784796D01*
X63388345Y-86851459D01*
X63334703Y-86896229D01*
X63285289Y-86906500D01*
X62044457Y-86906500D01*
X61991084Y-86917117D01*
X61966892Y-86919500D01*
X61574500Y-86919500D01*
X61507461Y-86899815D01*
X61461706Y-86847011D01*
X61450500Y-86795500D01*
X61450500Y-86044000D01*
X61470185Y-85976961D01*
X61522989Y-85931206D01*
X61574500Y-85920000D01*
X61880000Y-85920000D01*
X61880000Y-83920000D01*
X61574500Y-83920000D01*
X61507461Y-83900315D01*
X61461706Y-83847511D01*
X61450500Y-83796000D01*
X61450500Y-81551456D01*
X61412052Y-81358170D01*
X61412051Y-81358169D01*
X61412051Y-81358165D01*
X61395387Y-81317935D01*
X61336635Y-81176092D01*
X61336628Y-81176079D01*
X61227139Y-81012218D01*
X61227136Y-81012214D01*
X61224597Y-81009675D01*
X61223448Y-81007720D01*
X61223274Y-81007508D01*
X61223307Y-81007480D01*
X61193012Y-80955930D01*
X61144229Y-80784472D01*
X61144224Y-80784461D01*
X61045061Y-80585316D01*
X61045056Y-80585308D01*
X60910979Y-80407761D01*
X60746562Y-80257876D01*
X60746560Y-80257874D01*
X60557404Y-80140754D01*
X60557398Y-80140752D01*
X60349940Y-80060382D01*
X60131243Y-80019500D01*
X59908757Y-80019500D01*
X59690060Y-80060382D01*
X59565376Y-80108685D01*
X59482601Y-80140752D01*
X59482595Y-80140754D01*
X59293439Y-80257874D01*
X59293437Y-80257876D01*
X59129020Y-80407761D01*
X58994943Y-80585308D01*
X58994938Y-80585316D01*
X58895775Y-80784461D01*
X58895769Y-80784476D01*
X58834885Y-80998462D01*
X58834884Y-80998464D01*
X58814357Y-81219999D01*
X58814357Y-81220000D01*
X58834884Y-81441535D01*
X58834885Y-81441537D01*
X58895769Y-81655523D01*
X58895775Y-81655538D01*
X58994938Y-81854683D01*
X58994943Y-81854691D01*
X59129020Y-82032238D01*
X59293437Y-82182123D01*
X59293439Y-82182125D01*
X59316527Y-82196420D01*
X59390777Y-82242394D01*
X59437413Y-82294420D01*
X59449500Y-82347820D01*
X59449500Y-83688374D01*
X59429815Y-83755413D01*
X59377011Y-83801168D01*
X59307853Y-83811112D01*
X59244297Y-83782087D01*
X59214288Y-83743218D01*
X59196568Y-83707286D01*
X59196564Y-83707279D01*
X59029026Y-83456540D01*
X58830189Y-83229810D01*
X58603459Y-83030973D01*
X58352720Y-82863435D01*
X58352713Y-82863431D01*
X58082268Y-82730062D01*
X58082247Y-82730053D01*
X57796698Y-82633122D01*
X57796692Y-82633120D01*
X57796691Y-82633120D01*
X57796689Y-82633119D01*
X57796683Y-82633118D01*
X57500930Y-82574288D01*
X57500921Y-82574287D01*
X57500920Y-82574287D01*
X57200000Y-82554564D01*
X56899080Y-82574287D01*
X56899079Y-82574287D01*
X56899069Y-82574288D01*
X56603316Y-82633118D01*
X56603301Y-82633122D01*
X56317752Y-82730053D01*
X56317731Y-82730062D01*
X56047286Y-82863431D01*
X56047279Y-82863435D01*
X55796540Y-83030973D01*
X55569810Y-83229810D01*
X55370973Y-83456540D01*
X55203435Y-83707279D01*
X55203431Y-83707286D01*
X55070062Y-83977731D01*
X55070053Y-83977752D01*
X54973122Y-84263301D01*
X54973118Y-84263316D01*
X54914288Y-84559069D01*
X54914287Y-84559079D01*
X54914287Y-84559080D01*
X54894564Y-84860000D01*
X54903959Y-85003350D01*
X54914287Y-85160918D01*
X54914288Y-85160930D01*
X54973118Y-85456683D01*
X54973122Y-85456698D01*
X55070053Y-85742247D01*
X55070062Y-85742268D01*
X55203431Y-86012713D01*
X55203435Y-86012720D01*
X55370973Y-86263459D01*
X55569810Y-86490189D01*
X55796540Y-86689026D01*
X56047279Y-86856564D01*
X56047286Y-86856568D01*
X56317731Y-86989937D01*
X56317736Y-86989939D01*
X56317748Y-86989945D01*
X56603309Y-87086880D01*
X56803251Y-87126651D01*
X56899069Y-87145711D01*
X56899070Y-87145711D01*
X56899080Y-87145713D01*
X57200000Y-87165436D01*
X57500920Y-87145713D01*
X57796691Y-87086880D01*
X58082252Y-86989945D01*
X58352718Y-86856566D01*
X58603461Y-86689025D01*
X58830189Y-86490189D01*
X59029025Y-86263461D01*
X59196566Y-86012718D01*
X59210979Y-85983491D01*
X59214288Y-85976782D01*
X59261593Y-85925362D01*
X59329188Y-85907680D01*
X59395612Y-85929350D01*
X59439776Y-85983491D01*
X59449500Y-86031625D01*
X59449500Y-87538541D01*
X59449500Y-87538543D01*
X59449499Y-87538543D01*
X59487947Y-87731829D01*
X59487950Y-87731839D01*
X59563364Y-87913907D01*
X59563371Y-87913920D01*
X59672859Y-88077780D01*
X59672860Y-88077781D01*
X59672861Y-88077782D01*
X59812218Y-88217139D01*
X59812219Y-88217139D01*
X59819286Y-88224206D01*
X59819285Y-88224206D01*
X59819289Y-88224209D01*
X60292215Y-88697137D01*
X60292219Y-88697140D01*
X60456079Y-88806628D01*
X60456083Y-88806630D01*
X60456086Y-88806632D01*
X60587194Y-88860939D01*
X60641597Y-88904780D01*
X60663662Y-88971074D01*
X60646383Y-89038774D01*
X60595245Y-89086384D01*
X60539741Y-89099500D01*
X24024500Y-89099500D01*
X23957461Y-89079815D01*
X23911706Y-89027011D01*
X23900500Y-88975500D01*
X23900500Y-87502284D01*
X23920185Y-87435245D01*
X23972989Y-87389490D01*
X24042147Y-87379546D01*
X24105703Y-87408571D01*
X24129493Y-87436311D01*
X24170644Y-87501802D01*
X24298198Y-87629356D01*
X24450938Y-87725329D01*
X24469543Y-87731839D01*
X24621205Y-87784908D01*
X24621210Y-87784909D01*
X24711706Y-87795105D01*
X24755500Y-87800039D01*
X24755503Y-87800040D01*
X24755506Y-87800040D01*
X27644497Y-87800040D01*
X27644498Y-87800039D01*
X27711644Y-87792474D01*
X27778789Y-87784909D01*
X27778792Y-87784908D01*
X27778795Y-87784908D01*
X27949062Y-87725329D01*
X28101802Y-87629356D01*
X28229356Y-87501802D01*
X28325329Y-87349062D01*
X28384908Y-87178795D01*
X28386224Y-87167120D01*
X28395264Y-87086880D01*
X28400040Y-87044494D01*
X28400040Y-84155506D01*
X28394070Y-84102517D01*
X28384909Y-84021210D01*
X28384908Y-84021205D01*
X28362003Y-83955747D01*
X28325329Y-83850938D01*
X28229356Y-83698198D01*
X28101802Y-83570644D01*
X28101800Y-83570642D01*
X28101798Y-83570641D01*
X28058527Y-83543451D01*
X28012236Y-83491116D01*
X28000500Y-83438458D01*
X28000500Y-82651995D01*
X28000500Y-82651989D01*
X27969693Y-82417986D01*
X27908606Y-82190007D01*
X27829054Y-81997952D01*
X27821411Y-81979500D01*
X27818288Y-81971959D01*
X27818280Y-81971943D01*
X27749281Y-81852434D01*
X27700273Y-81767549D01*
X27631213Y-81677549D01*
X27556593Y-81580302D01*
X27556587Y-81580295D01*
X26846819Y-80870527D01*
X26813334Y-80809204D01*
X26810500Y-80782846D01*
X26810500Y-70731995D01*
X28249500Y-70731995D01*
X28249500Y-81568004D01*
X28249501Y-81568020D01*
X28279132Y-81793096D01*
X28280307Y-81802014D01*
X28325841Y-81971950D01*
X28341394Y-82029993D01*
X28391937Y-82152014D01*
X28391937Y-82152015D01*
X28431711Y-82248041D01*
X28431719Y-82248057D01*
X28549722Y-82452442D01*
X28549733Y-82452458D01*
X28693406Y-82639697D01*
X28693412Y-82639704D01*
X29443181Y-83389472D01*
X29476666Y-83450795D01*
X29479500Y-83477153D01*
X29479500Y-84117540D01*
X29459815Y-84184579D01*
X29453307Y-84193220D01*
X29453546Y-84193403D01*
X29451076Y-84196620D01*
X29283549Y-84447341D01*
X29283542Y-84447354D01*
X29150182Y-84717781D01*
X29150173Y-84717802D01*
X29053247Y-85003335D01*
X29053243Y-85003350D01*
X28994418Y-85299086D01*
X28994416Y-85299098D01*
X28974694Y-85600000D01*
X28994416Y-85900901D01*
X28994418Y-85900913D01*
X29053243Y-86196649D01*
X29053247Y-86196664D01*
X29150173Y-86482197D01*
X29150182Y-86482218D01*
X29283542Y-86752645D01*
X29283549Y-86752658D01*
X29361175Y-86868832D01*
X29449953Y-87001698D01*
X29451079Y-87003382D01*
X29649901Y-87230098D01*
X29820316Y-87379546D01*
X29876619Y-87428922D01*
X30127347Y-87596454D01*
X30194064Y-87629355D01*
X30397781Y-87729817D01*
X30397786Y-87729819D01*
X30397798Y-87729825D01*
X30683343Y-87826755D01*
X30979097Y-87885584D01*
X31280000Y-87905306D01*
X31580903Y-87885584D01*
X31876657Y-87826755D01*
X32162202Y-87729825D01*
X32432653Y-87596454D01*
X32683381Y-87428922D01*
X32910098Y-87230098D01*
X33108922Y-87003381D01*
X33276454Y-86752653D01*
X33409825Y-86482202D01*
X33506755Y-86196657D01*
X33565584Y-85900903D01*
X33585306Y-85600000D01*
X33565584Y-85299097D01*
X33506755Y-85003343D01*
X33409825Y-84717798D01*
X33404335Y-84706666D01*
X33342185Y-84580637D01*
X33276454Y-84447347D01*
X33140026Y-84243169D01*
X33108923Y-84196620D01*
X33106454Y-84193403D01*
X33107986Y-84192227D01*
X33081866Y-84135896D01*
X33080500Y-84117540D01*
X33080500Y-82561995D01*
X33080500Y-82561989D01*
X33049693Y-82327986D01*
X33014440Y-82196420D01*
X32988606Y-82100006D01*
X32935560Y-81971943D01*
X32898289Y-81881961D01*
X32898282Y-81881946D01*
X32780274Y-81677549D01*
X32651991Y-81510369D01*
X32636592Y-81490301D01*
X32636591Y-81490300D01*
X32636584Y-81490292D01*
X31886819Y-80740527D01*
X31853334Y-80679204D01*
X31850500Y-80652846D01*
X31850500Y-70731995D01*
X33289500Y-70731995D01*
X33289500Y-80608004D01*
X33289501Y-80608020D01*
X33316159Y-80810513D01*
X33320307Y-80842014D01*
X33340653Y-80917946D01*
X33381394Y-81069993D01*
X33431047Y-81189867D01*
X33471711Y-81288041D01*
X33471719Y-81288057D01*
X33589722Y-81492442D01*
X33589733Y-81492458D01*
X33733406Y-81679697D01*
X33733412Y-81679704D01*
X34523181Y-82469472D01*
X34556666Y-82530795D01*
X34559500Y-82557153D01*
X34559500Y-84117540D01*
X34539815Y-84184579D01*
X34533307Y-84193220D01*
X34533546Y-84193403D01*
X34531076Y-84196620D01*
X34363549Y-84447341D01*
X34363542Y-84447354D01*
X34230182Y-84717781D01*
X34230173Y-84717802D01*
X34133247Y-85003335D01*
X34133243Y-85003350D01*
X34074418Y-85299086D01*
X34074416Y-85299098D01*
X34054694Y-85600000D01*
X34074416Y-85900901D01*
X34074418Y-85900913D01*
X34133243Y-86196649D01*
X34133247Y-86196664D01*
X34230173Y-86482197D01*
X34230182Y-86482218D01*
X34363542Y-86752645D01*
X34363549Y-86752658D01*
X34441175Y-86868832D01*
X34529953Y-87001698D01*
X34531079Y-87003382D01*
X34729901Y-87230098D01*
X34900316Y-87379546D01*
X34956619Y-87428922D01*
X35207347Y-87596454D01*
X35274064Y-87629355D01*
X35477781Y-87729817D01*
X35477786Y-87729819D01*
X35477798Y-87729825D01*
X35763343Y-87826755D01*
X36059097Y-87885584D01*
X36360000Y-87905306D01*
X36660903Y-87885584D01*
X36956657Y-87826755D01*
X37242202Y-87729825D01*
X37512653Y-87596454D01*
X37763381Y-87428922D01*
X37990098Y-87230098D01*
X38188922Y-87003381D01*
X38356454Y-86752653D01*
X38489825Y-86482202D01*
X38586755Y-86196657D01*
X38645584Y-85900903D01*
X38665306Y-85600000D01*
X38645584Y-85299097D01*
X38586755Y-85003343D01*
X38489825Y-84717798D01*
X38484335Y-84706666D01*
X38422185Y-84580637D01*
X38356454Y-84447347D01*
X38220026Y-84243169D01*
X38188923Y-84196620D01*
X38186454Y-84193403D01*
X38187986Y-84192227D01*
X38161866Y-84135896D01*
X38160500Y-84117540D01*
X38160500Y-82202647D01*
X38164725Y-82170554D01*
X38169693Y-82152014D01*
X38200500Y-81918011D01*
X38200500Y-81681989D01*
X38169693Y-81447986D01*
X38108606Y-81220006D01*
X38060082Y-81102859D01*
X38018289Y-81001961D01*
X38018282Y-81001946D01*
X37943755Y-80872861D01*
X37943754Y-80872860D01*
X37932429Y-80853245D01*
X37900274Y-80797549D01*
X37899296Y-80796275D01*
X37789239Y-80652846D01*
X37756592Y-80610300D01*
X37756591Y-80610299D01*
X37756584Y-80610291D01*
X37587293Y-80441000D01*
X37587254Y-80440963D01*
X36926819Y-79780528D01*
X36893334Y-79719205D01*
X36890500Y-79692847D01*
X36890500Y-70731995D01*
X36890500Y-70731989D01*
X36859693Y-70497986D01*
X36798606Y-70270007D01*
X36708284Y-70051951D01*
X36708282Y-70051948D01*
X36708280Y-70051943D01*
X36632625Y-69920906D01*
X36590273Y-69847550D01*
X36509629Y-69742452D01*
X36446593Y-69660302D01*
X36446587Y-69660295D01*
X36279704Y-69493412D01*
X36279697Y-69493406D01*
X36092454Y-69349730D01*
X36092453Y-69349729D01*
X36092450Y-69349727D01*
X36010957Y-69302677D01*
X35888056Y-69231719D01*
X35888045Y-69231714D01*
X35669993Y-69141394D01*
X35442010Y-69080306D01*
X35208020Y-69049501D01*
X35208017Y-69049500D01*
X35208011Y-69049500D01*
X34971989Y-69049500D01*
X34971983Y-69049500D01*
X34971979Y-69049501D01*
X34737989Y-69080306D01*
X34510006Y-69141394D01*
X34291954Y-69231714D01*
X34291943Y-69231719D01*
X34087545Y-69349730D01*
X33900302Y-69493406D01*
X33900295Y-69493412D01*
X33733412Y-69660295D01*
X33733406Y-69660302D01*
X33589730Y-69847545D01*
X33471719Y-70051943D01*
X33471714Y-70051954D01*
X33381394Y-70270006D01*
X33320306Y-70497989D01*
X33289501Y-70731979D01*
X33289500Y-70731995D01*
X31850500Y-70731995D01*
X31850500Y-70731989D01*
X31819693Y-70497986D01*
X31758606Y-70270007D01*
X31668284Y-70051951D01*
X31668282Y-70051948D01*
X31668280Y-70051943D01*
X31592625Y-69920906D01*
X31550273Y-69847550D01*
X31469629Y-69742452D01*
X31406593Y-69660302D01*
X31406587Y-69660295D01*
X31239704Y-69493412D01*
X31239697Y-69493406D01*
X31052454Y-69349730D01*
X31052453Y-69349729D01*
X31052450Y-69349727D01*
X30970957Y-69302677D01*
X30848056Y-69231719D01*
X30848045Y-69231714D01*
X30629993Y-69141394D01*
X30402010Y-69080306D01*
X30168020Y-69049501D01*
X30168017Y-69049500D01*
X30168011Y-69049500D01*
X29931989Y-69049500D01*
X29931983Y-69049500D01*
X29931979Y-69049501D01*
X29697989Y-69080306D01*
X29470006Y-69141394D01*
X29251954Y-69231714D01*
X29251943Y-69231719D01*
X29047545Y-69349730D01*
X28860302Y-69493406D01*
X28860295Y-69493412D01*
X28693412Y-69660295D01*
X28693406Y-69660302D01*
X28549730Y-69847545D01*
X28431719Y-70051943D01*
X28431714Y-70051954D01*
X28341394Y-70270006D01*
X28280306Y-70497989D01*
X28249501Y-70731979D01*
X28249500Y-70731995D01*
X26810500Y-70731995D01*
X26810500Y-70731989D01*
X26779693Y-70497986D01*
X26718606Y-70270007D01*
X26628284Y-70051951D01*
X26628282Y-70051948D01*
X26628280Y-70051943D01*
X26552625Y-69920906D01*
X26510273Y-69847550D01*
X26429629Y-69742452D01*
X26366593Y-69660302D01*
X26366587Y-69660295D01*
X26199704Y-69493412D01*
X26199697Y-69493406D01*
X26012454Y-69349730D01*
X26012453Y-69349729D01*
X26012450Y-69349727D01*
X25930957Y-69302677D01*
X25808056Y-69231719D01*
X25808045Y-69231714D01*
X25589993Y-69141394D01*
X25362010Y-69080306D01*
X25128020Y-69049501D01*
X25128017Y-69049500D01*
X25128011Y-69049500D01*
X24891989Y-69049500D01*
X24891983Y-69049500D01*
X24891979Y-69049501D01*
X24657989Y-69080306D01*
X24430006Y-69141394D01*
X24211954Y-69231714D01*
X24211943Y-69231719D01*
X24086500Y-69304144D01*
X24018599Y-69320617D01*
X23952573Y-69297764D01*
X23909382Y-69242843D01*
X23900500Y-69196757D01*
X23900500Y-65768600D01*
X23920185Y-65701561D01*
X23972989Y-65655806D01*
X24042147Y-65645862D01*
X24086495Y-65661210D01*
X24271951Y-65768284D01*
X24490007Y-65858606D01*
X24717986Y-65919693D01*
X24951989Y-65950500D01*
X24951996Y-65950500D01*
X25188004Y-65950500D01*
X25188011Y-65950500D01*
X25422014Y-65919693D01*
X25649993Y-65858606D01*
X25868049Y-65768284D01*
X26072450Y-65650273D01*
X26259699Y-65506592D01*
X26426592Y-65339699D01*
X26570273Y-65152450D01*
X26688284Y-64948049D01*
X26778606Y-64729993D01*
X26839693Y-64502014D01*
X26870500Y-64268011D01*
X26870500Y-56531989D01*
X26870500Y-53517153D01*
X26890185Y-53450114D01*
X26906819Y-53429472D01*
X27476584Y-52859707D01*
X27476592Y-52859699D01*
X27620274Y-52672450D01*
X27626310Y-52661995D01*
X28309500Y-52661995D01*
X28309500Y-64268004D01*
X28309501Y-64268020D01*
X28334658Y-64459112D01*
X28340307Y-64502014D01*
X28340494Y-64502712D01*
X28401394Y-64729993D01*
X28491714Y-64948045D01*
X28491719Y-64948056D01*
X28539319Y-65030500D01*
X28609727Y-65152450D01*
X28609729Y-65152453D01*
X28609730Y-65152454D01*
X28753406Y-65339697D01*
X28753412Y-65339704D01*
X28920295Y-65506587D01*
X28920302Y-65506593D01*
X29003610Y-65570517D01*
X29107550Y-65650273D01*
X29212190Y-65710687D01*
X29311943Y-65768280D01*
X29311948Y-65768282D01*
X29311951Y-65768284D01*
X29530007Y-65858606D01*
X29757986Y-65919693D01*
X29991989Y-65950500D01*
X29991996Y-65950500D01*
X30228004Y-65950500D01*
X30228011Y-65950500D01*
X30462014Y-65919693D01*
X30689993Y-65858606D01*
X30908049Y-65768284D01*
X31112450Y-65650273D01*
X31299699Y-65506592D01*
X31466592Y-65339699D01*
X31610273Y-65152450D01*
X31728284Y-64948049D01*
X31818606Y-64729993D01*
X31879693Y-64502014D01*
X31910500Y-64268011D01*
X31910500Y-56531989D01*
X31910500Y-53577153D01*
X31930185Y-53510114D01*
X31946819Y-53489472D01*
X32004310Y-53431981D01*
X33339500Y-53431981D01*
X33339500Y-53668018D01*
X33348439Y-53735907D01*
X33349500Y-53752093D01*
X33349500Y-64268004D01*
X33349501Y-64268020D01*
X33374658Y-64459112D01*
X33380307Y-64502014D01*
X33380494Y-64502712D01*
X33441394Y-64729993D01*
X33531714Y-64948045D01*
X33531719Y-64948056D01*
X33579319Y-65030500D01*
X33649727Y-65152450D01*
X33649729Y-65152453D01*
X33649730Y-65152454D01*
X33793406Y-65339697D01*
X33793412Y-65339704D01*
X33960295Y-65506587D01*
X33960302Y-65506593D01*
X34043610Y-65570517D01*
X34147550Y-65650273D01*
X34252190Y-65710687D01*
X34351943Y-65768280D01*
X34351948Y-65768282D01*
X34351951Y-65768284D01*
X34570007Y-65858606D01*
X34797986Y-65919693D01*
X35031989Y-65950500D01*
X35031996Y-65950500D01*
X35268004Y-65950500D01*
X35268011Y-65950500D01*
X35502014Y-65919693D01*
X35729993Y-65858606D01*
X35948049Y-65768284D01*
X36152450Y-65650273D01*
X36339699Y-65506592D01*
X36506592Y-65339699D01*
X36650273Y-65152450D01*
X36768284Y-64948049D01*
X36858606Y-64729993D01*
X36919693Y-64502014D01*
X36950500Y-64268011D01*
X36950500Y-56531989D01*
X36950500Y-54337153D01*
X36970185Y-54270114D01*
X36986819Y-54249472D01*
X37286476Y-53949815D01*
X37636592Y-53599700D01*
X37780273Y-53412451D01*
X37898284Y-53208050D01*
X37902453Y-53197986D01*
X37973446Y-53026593D01*
X37982873Y-53003833D01*
X37988606Y-52989993D01*
X38049693Y-52762014D01*
X38080500Y-52528011D01*
X38080500Y-51561540D01*
X38100185Y-51494501D01*
X38138529Y-51456546D01*
X38148075Y-51450548D01*
X38181802Y-51429356D01*
X38309356Y-51301802D01*
X38405329Y-51149062D01*
X38464908Y-50978795D01*
X38466254Y-50966855D01*
X38480039Y-50844500D01*
X38480040Y-50844496D01*
X38480040Y-47955503D01*
X38480039Y-47955499D01*
X38479831Y-47953656D01*
X38468636Y-47854288D01*
X38464909Y-47821210D01*
X38464908Y-47821205D01*
X38425807Y-47709462D01*
X38405329Y-47650938D01*
X38309356Y-47498198D01*
X38181802Y-47370644D01*
X38090594Y-47313334D01*
X38029063Y-47274671D01*
X37858794Y-47215091D01*
X37858789Y-47215090D01*
X37724500Y-47199960D01*
X37724494Y-47199960D01*
X34835506Y-47199960D01*
X34835499Y-47199960D01*
X34701210Y-47215090D01*
X34701205Y-47215091D01*
X34530936Y-47274671D01*
X34378197Y-47370644D01*
X34250644Y-47498197D01*
X34154671Y-47650936D01*
X34095091Y-47821205D01*
X34095090Y-47821210D01*
X34079960Y-47955499D01*
X34079960Y-50844500D01*
X34095090Y-50978789D01*
X34095091Y-50978794D01*
X34154671Y-51149063D01*
X34202581Y-51225311D01*
X34250644Y-51301802D01*
X34378198Y-51429356D01*
X34411925Y-51450548D01*
X34421471Y-51456546D01*
X34467763Y-51508880D01*
X34479500Y-51561540D01*
X34479500Y-51612846D01*
X34459815Y-51679885D01*
X34443181Y-51700527D01*
X33950301Y-52193408D01*
X33783411Y-52360296D01*
X33783406Y-52360302D01*
X33639733Y-52547541D01*
X33639722Y-52547557D01*
X33521719Y-52751942D01*
X33521711Y-52751958D01*
X33431400Y-52969990D01*
X33431396Y-52970003D01*
X33431395Y-52970006D01*
X33407147Y-53060500D01*
X33370307Y-53197989D01*
X33339500Y-53431981D01*
X32004310Y-53431981D01*
X32556584Y-52879707D01*
X32556592Y-52879699D01*
X32700274Y-52692450D01*
X32818284Y-52488050D01*
X32908606Y-52269994D01*
X32969693Y-52042014D01*
X33000500Y-51808011D01*
X33000500Y-51571989D01*
X33000500Y-50882460D01*
X33020185Y-50815421D01*
X33026692Y-50806791D01*
X33026449Y-50806605D01*
X33028918Y-50803386D01*
X33028919Y-50803384D01*
X33028922Y-50803381D01*
X33196454Y-50552653D01*
X33329825Y-50282202D01*
X33426755Y-49996657D01*
X33485584Y-49700903D01*
X33505306Y-49400000D01*
X33485584Y-49099097D01*
X33426755Y-48803343D01*
X33329825Y-48517798D01*
X33325886Y-48509811D01*
X33238773Y-48333162D01*
X33196454Y-48247347D01*
X33028922Y-47996619D01*
X32965618Y-47924434D01*
X32830098Y-47769901D01*
X32603382Y-47571079D01*
X32506151Y-47506111D01*
X32407330Y-47440080D01*
X32352658Y-47403549D01*
X32352655Y-47403547D01*
X32352653Y-47403546D01*
X32345479Y-47400008D01*
X32082218Y-47270182D01*
X32082197Y-47270173D01*
X31796664Y-47173247D01*
X31796658Y-47173245D01*
X31796657Y-47173245D01*
X31796655Y-47173244D01*
X31796649Y-47173243D01*
X31500913Y-47114418D01*
X31500903Y-47114416D01*
X31200000Y-47094694D01*
X30899097Y-47114416D01*
X30899091Y-47114417D01*
X30899086Y-47114418D01*
X30603350Y-47173243D01*
X30603335Y-47173247D01*
X30317802Y-47270173D01*
X30317781Y-47270182D01*
X30047354Y-47403542D01*
X30047341Y-47403549D01*
X29796617Y-47571079D01*
X29569901Y-47769901D01*
X29371079Y-47996617D01*
X29203549Y-48247341D01*
X29203542Y-48247354D01*
X29070182Y-48517781D01*
X29070173Y-48517802D01*
X28973247Y-48803335D01*
X28973243Y-48803350D01*
X28914418Y-49099086D01*
X28914416Y-49099098D01*
X28894694Y-49400000D01*
X28914416Y-49700901D01*
X28914418Y-49700913D01*
X28973243Y-49996649D01*
X28973247Y-49996664D01*
X29070173Y-50282197D01*
X29070182Y-50282218D01*
X29203542Y-50552645D01*
X29203549Y-50552658D01*
X29371081Y-50803386D01*
X29373551Y-50806605D01*
X29371988Y-50807804D01*
X29398109Y-50863941D01*
X29399500Y-50882460D01*
X29399500Y-50892846D01*
X29379815Y-50959885D01*
X29363181Y-50980527D01*
X28753412Y-51590295D01*
X28753406Y-51590302D01*
X28609733Y-51777541D01*
X28609722Y-51777557D01*
X28491719Y-51981943D01*
X28491711Y-51981959D01*
X28485344Y-51997333D01*
X28401394Y-52200006D01*
X28340306Y-52427989D01*
X28309501Y-52661979D01*
X28309500Y-52661995D01*
X27626310Y-52661995D01*
X27738284Y-52468050D01*
X27828606Y-52249993D01*
X27889693Y-52022014D01*
X27920500Y-51788011D01*
X27920500Y-51551988D01*
X27920500Y-50882460D01*
X27940185Y-50815421D01*
X27946692Y-50806791D01*
X27946449Y-50806605D01*
X27948918Y-50803386D01*
X27948919Y-50803384D01*
X27948922Y-50803381D01*
X28116454Y-50552653D01*
X28249825Y-50282202D01*
X28346755Y-49996657D01*
X28405584Y-49700903D01*
X28425306Y-49400000D01*
X28405584Y-49099097D01*
X28346755Y-48803343D01*
X28249825Y-48517798D01*
X28245886Y-48509811D01*
X28158773Y-48333162D01*
X28116454Y-48247347D01*
X27948922Y-47996619D01*
X27885618Y-47924434D01*
X27750098Y-47769901D01*
X27523382Y-47571079D01*
X27426151Y-47506111D01*
X27327330Y-47440080D01*
X27272658Y-47403549D01*
X27272655Y-47403547D01*
X27272653Y-47403546D01*
X27265479Y-47400008D01*
X27002218Y-47270182D01*
X27002197Y-47270173D01*
X26716664Y-47173247D01*
X26716658Y-47173245D01*
X26716657Y-47173245D01*
X26716655Y-47173244D01*
X26716649Y-47173243D01*
X26420913Y-47114418D01*
X26420903Y-47114416D01*
X26120000Y-47094694D01*
X25819097Y-47114416D01*
X25819091Y-47114417D01*
X25819086Y-47114418D01*
X25523350Y-47173243D01*
X25523335Y-47173247D01*
X25237802Y-47270173D01*
X25237781Y-47270182D01*
X24967354Y-47403542D01*
X24967341Y-47403549D01*
X24716617Y-47571079D01*
X24489901Y-47769901D01*
X24291079Y-47996617D01*
X24127602Y-48241276D01*
X24073990Y-48286081D01*
X24004665Y-48294788D01*
X23941637Y-48264633D01*
X23904918Y-48205190D01*
X23900500Y-48172385D01*
X23900500Y-46024500D01*
X23920185Y-45957461D01*
X23972989Y-45911706D01*
X24024500Y-45900500D01*
X43841373Y-45900500D01*
X43908412Y-45920185D01*
G37*
%TD.AperFunction*%
%TA.AperFunction,Conductor*%
G36*
X84985473Y-45920185D02*
G01*
X85031228Y-45972989D01*
X85041172Y-46042147D01*
X85012724Y-46105031D01*
X84951576Y-46176625D01*
X84951568Y-46176637D01*
X84819980Y-46391368D01*
X84723603Y-46624043D01*
X84664812Y-46868927D01*
X84645052Y-47120000D01*
X84664812Y-47371072D01*
X84723603Y-47615956D01*
X84819980Y-47848631D01*
X84951568Y-48063362D01*
X84952266Y-48064179D01*
X85850000Y-47166445D01*
X85850000Y-47172661D01*
X85877259Y-47274394D01*
X85929920Y-47365606D01*
X86004394Y-47440080D01*
X86095606Y-47492741D01*
X86197339Y-47520000D01*
X86203553Y-47520000D01*
X85305819Y-48417732D01*
X85305819Y-48417733D01*
X85306634Y-48418429D01*
X85521368Y-48550019D01*
X85754043Y-48646396D01*
X85998927Y-48705187D01*
X86250000Y-48724947D01*
X86501072Y-48705187D01*
X86745956Y-48646396D01*
X86978631Y-48550019D01*
X87193361Y-48418432D01*
X87193363Y-48418430D01*
X87194180Y-48417732D01*
X86296447Y-47520000D01*
X86302661Y-47520000D01*
X86404394Y-47492741D01*
X86495606Y-47440080D01*
X86570080Y-47365606D01*
X86622741Y-47274394D01*
X86650000Y-47172661D01*
X86650000Y-47166448D01*
X87547732Y-48064180D01*
X87548430Y-48063363D01*
X87548432Y-48063361D01*
X87680019Y-47848631D01*
X87776396Y-47615956D01*
X87835187Y-47371072D01*
X87854947Y-47120000D01*
X87835187Y-46868927D01*
X87776396Y-46624043D01*
X87680019Y-46391368D01*
X87548431Y-46176637D01*
X87548423Y-46176625D01*
X87487276Y-46105031D01*
X87458705Y-46041270D01*
X87469142Y-45972184D01*
X87515273Y-45919709D01*
X87581566Y-45900500D01*
X90385359Y-45900500D01*
X90452398Y-45920185D01*
X90498153Y-45972989D01*
X90509358Y-46024527D01*
X90504279Y-68477288D01*
X90499641Y-88975528D01*
X90479941Y-89042563D01*
X90427127Y-89088306D01*
X90375641Y-89099500D01*
X75899545Y-89099500D01*
X75832506Y-89079815D01*
X75786751Y-89027011D01*
X75776255Y-88962246D01*
X75777518Y-88950500D01*
X75783130Y-88898303D01*
X75783129Y-87001698D01*
X75776721Y-86942087D01*
X75752449Y-86877011D01*
X75726427Y-86807241D01*
X75726423Y-86807234D01*
X75640177Y-86692025D01*
X75640174Y-86692022D01*
X75524965Y-86605776D01*
X75524958Y-86605772D01*
X75445134Y-86576000D01*
X75389200Y-86534129D01*
X75364783Y-86468665D01*
X75379635Y-86400392D01*
X75397234Y-86375839D01*
X75491519Y-86273418D01*
X75561257Y-86166677D01*
X75614404Y-86121321D01*
X75665065Y-86110500D01*
X76308996Y-86110500D01*
X76400040Y-86092389D01*
X76444328Y-86083580D01*
X76539883Y-86044000D01*
X76571807Y-86030777D01*
X76571808Y-86030776D01*
X76571811Y-86030775D01*
X76686543Y-85954114D01*
X77844113Y-84796543D01*
X77894900Y-84720536D01*
X77896727Y-84717802D01*
X77920774Y-84681813D01*
X77920774Y-84681812D01*
X77920775Y-84681811D01*
X77962683Y-84580636D01*
X77973580Y-84554329D01*
X77983298Y-84505474D01*
X77988642Y-84478609D01*
X77988642Y-84478605D01*
X77991983Y-84461805D01*
X78024370Y-84399896D01*
X78085087Y-84365324D01*
X78154856Y-84369065D01*
X78211527Y-84409933D01*
X78237107Y-84474952D01*
X78237600Y-84486001D01*
X78237600Y-85319800D01*
X78249073Y-85331273D01*
X78277039Y-85339485D01*
X78322794Y-85392289D01*
X78334000Y-85443800D01*
X78334000Y-86993270D01*
X78334001Y-86993276D01*
X78340408Y-87052883D01*
X78390702Y-87187728D01*
X78390706Y-87187735D01*
X78476952Y-87302944D01*
X78476955Y-87302947D01*
X78592164Y-87389193D01*
X78592171Y-87389197D01*
X78727017Y-87439491D01*
X78727016Y-87439491D01*
X78733944Y-87440235D01*
X78786627Y-87445900D01*
X80533372Y-87445899D01*
X80592983Y-87439491D01*
X80727831Y-87389196D01*
X80843046Y-87302946D01*
X80887105Y-87244091D01*
X80913982Y-87208189D01*
X80969916Y-87166318D01*
X81013248Y-87158500D01*
X81399248Y-87158500D01*
X81466287Y-87178185D01*
X81473560Y-87183234D01*
X81487668Y-87193795D01*
X81487671Y-87193797D01*
X81622517Y-87244091D01*
X81622516Y-87244091D01*
X81629444Y-87244835D01*
X81682127Y-87250500D01*
X84317872Y-87250499D01*
X84377483Y-87244091D01*
X84512331Y-87193796D01*
X84627546Y-87107546D01*
X84713796Y-86992331D01*
X84764091Y-86857483D01*
X84770500Y-86797873D01*
X84770499Y-84162128D01*
X84764091Y-84102517D01*
X84748489Y-84060687D01*
X84713797Y-83967671D01*
X84713793Y-83967664D01*
X84627547Y-83852455D01*
X84627544Y-83852452D01*
X84512335Y-83766206D01*
X84512328Y-83766202D01*
X84377482Y-83715908D01*
X84377483Y-83715908D01*
X84317883Y-83709501D01*
X84317881Y-83709500D01*
X84317873Y-83709500D01*
X84317864Y-83709500D01*
X81682129Y-83709500D01*
X81682123Y-83709501D01*
X81622516Y-83715908D01*
X81487671Y-83766202D01*
X81487664Y-83766206D01*
X81372455Y-83852452D01*
X81372452Y-83852455D01*
X81305666Y-83941670D01*
X81249732Y-83983541D01*
X81180041Y-83988525D01*
X81118718Y-83955039D01*
X81085234Y-83893716D01*
X81082400Y-83867359D01*
X81082400Y-82727844D01*
X81890000Y-82727844D01*
X81896401Y-82787372D01*
X81896403Y-82787379D01*
X81946645Y-82922086D01*
X81946649Y-82922093D01*
X82032809Y-83037187D01*
X82032812Y-83037190D01*
X82147906Y-83123350D01*
X82147913Y-83123354D01*
X82282620Y-83173596D01*
X82282627Y-83173598D01*
X82342155Y-83179999D01*
X82342172Y-83180000D01*
X82640000Y-83180000D01*
X83140000Y-83180000D01*
X83437828Y-83180000D01*
X83437844Y-83179999D01*
X83497372Y-83173598D01*
X83497379Y-83173596D01*
X83632086Y-83123354D01*
X83632093Y-83123350D01*
X83747187Y-83037190D01*
X83747190Y-83037187D01*
X83833350Y-82922093D01*
X83833354Y-82922086D01*
X83883596Y-82787379D01*
X83883598Y-82787372D01*
X83889999Y-82727844D01*
X83890000Y-82727827D01*
X83890000Y-82130000D01*
X83140000Y-82130000D01*
X83140000Y-83180000D01*
X82640000Y-83180000D01*
X82640000Y-82130000D01*
X81890000Y-82130000D01*
X81890000Y-82727844D01*
X81082400Y-82727844D01*
X81082400Y-82678200D01*
X81071134Y-82666934D01*
X81042461Y-82658515D01*
X80996706Y-82605711D01*
X80985500Y-82554200D01*
X80985500Y-82090000D01*
X78334500Y-82090000D01*
X78334500Y-82554200D01*
X78314815Y-82621239D01*
X78262011Y-82666994D01*
X78245134Y-82670665D01*
X78212181Y-82703619D01*
X78150858Y-82737104D01*
X78081166Y-82732120D01*
X78025233Y-82690248D01*
X78000816Y-82624784D01*
X78000500Y-82615938D01*
X78000500Y-81004755D01*
X78334500Y-81004755D01*
X78334500Y-81590000D01*
X79410000Y-81590000D01*
X79910000Y-81590000D01*
X80985500Y-81590000D01*
X80985500Y-81032155D01*
X81890000Y-81032155D01*
X81890000Y-81630000D01*
X82640000Y-81630000D01*
X82640000Y-80580000D01*
X83140000Y-80580000D01*
X83140000Y-81630000D01*
X83890000Y-81630000D01*
X83890000Y-81430729D01*
X83909685Y-81363690D01*
X83962489Y-81317935D01*
X84031647Y-81307991D01*
X84095203Y-81337016D01*
X84101673Y-81343040D01*
X84189362Y-81430729D01*
X84853181Y-82094548D01*
X84886666Y-82155871D01*
X84889500Y-82182229D01*
X84889500Y-82727870D01*
X84889501Y-82727876D01*
X84895908Y-82787483D01*
X84946202Y-82922328D01*
X84946206Y-82922335D01*
X85032452Y-83037544D01*
X85032455Y-83037547D01*
X85147664Y-83123793D01*
X85147671Y-83123797D01*
X85282517Y-83174091D01*
X85282516Y-83174091D01*
X85289444Y-83174835D01*
X85342127Y-83180500D01*
X86437872Y-83180499D01*
X86497483Y-83174091D01*
X86540582Y-83158015D01*
X86610271Y-83153030D01*
X86671592Y-83186512D01*
X86671596Y-83186516D01*
X87043181Y-83558101D01*
X87076666Y-83619424D01*
X87079500Y-83645782D01*
X87079500Y-83673582D01*
X87059815Y-83740621D01*
X87014928Y-83782413D01*
X86995766Y-83792876D01*
X86995753Y-83792884D01*
X86766697Y-83964352D01*
X86766679Y-83964368D01*
X86564368Y-84166679D01*
X86564352Y-84166697D01*
X86392884Y-84395753D01*
X86392879Y-84395761D01*
X86255753Y-84646887D01*
X86255751Y-84646891D01*
X86193875Y-84812790D01*
X86175191Y-84862885D01*
X86155754Y-84914997D01*
X86094933Y-85194584D01*
X86074520Y-85479998D01*
X86074520Y-85480001D01*
X86094933Y-85765415D01*
X86155754Y-86045002D01*
X86155756Y-86045009D01*
X86170143Y-86083581D01*
X86255751Y-86313108D01*
X86255753Y-86313112D01*
X86392879Y-86564238D01*
X86392884Y-86564246D01*
X86564352Y-86793302D01*
X86564368Y-86793320D01*
X86766679Y-86995631D01*
X86766697Y-86995647D01*
X86995753Y-87167115D01*
X86995761Y-87167120D01*
X87246887Y-87304246D01*
X87246891Y-87304248D01*
X87246893Y-87304249D01*
X87514991Y-87404244D01*
X87628425Y-87428920D01*
X87794584Y-87465066D01*
X87794586Y-87465066D01*
X87794590Y-87465067D01*
X88048221Y-87483207D01*
X88079999Y-87485480D01*
X88080000Y-87485480D01*
X88080001Y-87485480D01*
X88108594Y-87483434D01*
X88365410Y-87465067D01*
X88645009Y-87404244D01*
X88913107Y-87304249D01*
X89164244Y-87167117D01*
X89393310Y-86995641D01*
X89595641Y-86793310D01*
X89767117Y-86564244D01*
X89904249Y-86313107D01*
X90004244Y-86045009D01*
X90065067Y-85765410D01*
X90085480Y-85480000D01*
X90065067Y-85194590D01*
X90004244Y-84914991D01*
X89904249Y-84646893D01*
X89868070Y-84580637D01*
X89767120Y-84395761D01*
X89767115Y-84395753D01*
X89595647Y-84166697D01*
X89595631Y-84166679D01*
X89393320Y-83964368D01*
X89393302Y-83964352D01*
X89164246Y-83792884D01*
X89164233Y-83792876D01*
X89145072Y-83782413D01*
X89095667Y-83733007D01*
X89080500Y-83673582D01*
X89080500Y-83081458D01*
X89080499Y-83081457D01*
X89062248Y-82989699D01*
X89042052Y-82888165D01*
X88975645Y-82727844D01*
X88966633Y-82706088D01*
X88966628Y-82706079D01*
X88857140Y-82542219D01*
X88857137Y-82542215D01*
X87564209Y-81249289D01*
X87564206Y-81249285D01*
X87564206Y-81249286D01*
X87557139Y-81242219D01*
X87557139Y-81242218D01*
X87417782Y-81102861D01*
X87417781Y-81102860D01*
X87417780Y-81102859D01*
X87253920Y-80993371D01*
X87253911Y-80993366D01*
X87163524Y-80955927D01*
X87125165Y-80940038D01*
X87071836Y-80917949D01*
X87071832Y-80917948D01*
X87071828Y-80917946D01*
X86975188Y-80898724D01*
X86952905Y-80894291D01*
X86909361Y-80885630D01*
X86847450Y-80853245D01*
X86834286Y-80838324D01*
X86833796Y-80837669D01*
X86747546Y-80722454D01*
X86711419Y-80695409D01*
X86690188Y-80679515D01*
X86648318Y-80623581D01*
X86640500Y-80580249D01*
X86640500Y-79776728D01*
X86648318Y-79733394D01*
X86684091Y-79637483D01*
X86690500Y-79577873D01*
X86690499Y-78582128D01*
X86684091Y-78522517D01*
X86678507Y-78507546D01*
X86633797Y-78387671D01*
X86633793Y-78387664D01*
X86547547Y-78272455D01*
X86547544Y-78272452D01*
X86432335Y-78186206D01*
X86432328Y-78186202D01*
X86297486Y-78135910D01*
X86297485Y-78135909D01*
X86297483Y-78135909D01*
X86237873Y-78129500D01*
X86237863Y-78129500D01*
X85542129Y-78129500D01*
X85542123Y-78129501D01*
X85482516Y-78135908D01*
X85457615Y-78145196D01*
X85387923Y-78150178D01*
X85370952Y-78145195D01*
X85347379Y-78136403D01*
X85347372Y-78136401D01*
X85287844Y-78130000D01*
X85190000Y-78130000D01*
X85190000Y-78287893D01*
X85170315Y-78354932D01*
X85165267Y-78362204D01*
X85146204Y-78387668D01*
X85146202Y-78387671D01*
X85101492Y-78507547D01*
X85095909Y-78522517D01*
X85089500Y-78582127D01*
X85089500Y-79053128D01*
X85089501Y-79206000D01*
X85069817Y-79273039D01*
X85017013Y-79318794D01*
X84965501Y-79330000D01*
X84914500Y-79330000D01*
X84847461Y-79310315D01*
X84801706Y-79257511D01*
X84790500Y-79206000D01*
X84790499Y-78582129D01*
X84790498Y-78582123D01*
X84790497Y-78582116D01*
X84784091Y-78522517D01*
X84778507Y-78507546D01*
X84733797Y-78387671D01*
X84733795Y-78387668D01*
X84714733Y-78362204D01*
X84690316Y-78296739D01*
X84690000Y-78287893D01*
X84690000Y-78130000D01*
X84592155Y-78130000D01*
X84532624Y-78136401D01*
X84532623Y-78136402D01*
X84509044Y-78145196D01*
X84439353Y-78150178D01*
X84422381Y-78145195D01*
X84397486Y-78135910D01*
X84397485Y-78135909D01*
X84397483Y-78135909D01*
X84337873Y-78129500D01*
X84337863Y-78129500D01*
X83642129Y-78129500D01*
X83642123Y-78129501D01*
X83582516Y-78135908D01*
X83447671Y-78186202D01*
X83447664Y-78186206D01*
X83332455Y-78272452D01*
X83332452Y-78272455D01*
X83246206Y-78387664D01*
X83246202Y-78387671D01*
X83195908Y-78522517D01*
X83192699Y-78552369D01*
X83189501Y-78582123D01*
X83189500Y-78582135D01*
X83189500Y-79577870D01*
X83189501Y-79577876D01*
X83195908Y-79637483D01*
X83231682Y-79733395D01*
X83239500Y-79776728D01*
X83239500Y-80243918D01*
X83239500Y-80243920D01*
X83239499Y-80243920D01*
X83268340Y-80388907D01*
X83268342Y-80388913D01*
X83276150Y-80407764D01*
X83276475Y-80408547D01*
X83283944Y-80478016D01*
X83252669Y-80540495D01*
X83192581Y-80576148D01*
X83161914Y-80580000D01*
X83140000Y-80580000D01*
X82640000Y-80580000D01*
X82342155Y-80580000D01*
X82282627Y-80586401D01*
X82282620Y-80586403D01*
X82147913Y-80636645D01*
X82147906Y-80636649D01*
X82032812Y-80722809D01*
X82032809Y-80722812D01*
X81946649Y-80837906D01*
X81946645Y-80837913D01*
X81896403Y-80972620D01*
X81896401Y-80972627D01*
X81890000Y-81032155D01*
X80985500Y-81032155D01*
X80985500Y-81004772D01*
X80985499Y-81004755D01*
X80979098Y-80945227D01*
X80979096Y-80945220D01*
X80928854Y-80810513D01*
X80928850Y-80810506D01*
X80842690Y-80695412D01*
X80842687Y-80695409D01*
X80727593Y-80609249D01*
X80727586Y-80609245D01*
X80592879Y-80559003D01*
X80592872Y-80559001D01*
X80533344Y-80552600D01*
X79910000Y-80552600D01*
X79910000Y-81590000D01*
X79410000Y-81590000D01*
X79410000Y-80552600D01*
X78786655Y-80552600D01*
X78727127Y-80559001D01*
X78727120Y-80559003D01*
X78592413Y-80609245D01*
X78592406Y-80609249D01*
X78477312Y-80695409D01*
X78477309Y-80695412D01*
X78391149Y-80810506D01*
X78391145Y-80810513D01*
X78340903Y-80945220D01*
X78340901Y-80945227D01*
X78334500Y-81004755D01*
X78000500Y-81004755D01*
X78000500Y-79837844D01*
X79570000Y-79837844D01*
X79576401Y-79897372D01*
X79576403Y-79897379D01*
X79626645Y-80032086D01*
X79626649Y-80032093D01*
X79712809Y-80147187D01*
X79712812Y-80147190D01*
X79827906Y-80233350D01*
X79827913Y-80233354D01*
X79962620Y-80283596D01*
X79962627Y-80283598D01*
X80022155Y-80289999D01*
X80022172Y-80290000D01*
X80620000Y-80290000D01*
X81120000Y-80290000D01*
X81717828Y-80290000D01*
X81717844Y-80289999D01*
X81777372Y-80283598D01*
X81777379Y-80283596D01*
X81912086Y-80233354D01*
X81912093Y-80233350D01*
X82027187Y-80147190D01*
X82027190Y-80147187D01*
X82113350Y-80032093D01*
X82113354Y-80032086D01*
X82163596Y-79897379D01*
X82163598Y-79897372D01*
X82169999Y-79837844D01*
X82170000Y-79837827D01*
X82170000Y-79540000D01*
X81120000Y-79540000D01*
X81120000Y-80290000D01*
X80620000Y-80290000D01*
X80620000Y-79540000D01*
X79570000Y-79540000D01*
X79570000Y-79837844D01*
X78000500Y-79837844D01*
X78000500Y-78742155D01*
X79570000Y-78742155D01*
X79570000Y-79040000D01*
X80620000Y-79040000D01*
X81120000Y-79040000D01*
X82170000Y-79040000D01*
X82170000Y-78742172D01*
X82169999Y-78742155D01*
X82163598Y-78682627D01*
X82163596Y-78682620D01*
X82113354Y-78547913D01*
X82113350Y-78547906D01*
X82027190Y-78432812D01*
X82027187Y-78432809D01*
X81912093Y-78346649D01*
X81912086Y-78346645D01*
X81777379Y-78296403D01*
X81777372Y-78296401D01*
X81717844Y-78290000D01*
X81120000Y-78290000D01*
X81120000Y-79040000D01*
X80620000Y-79040000D01*
X80620000Y-78290000D01*
X80022155Y-78290000D01*
X79962627Y-78296401D01*
X79962620Y-78296403D01*
X79827913Y-78346645D01*
X79827906Y-78346649D01*
X79712812Y-78432809D01*
X79712809Y-78432812D01*
X79626649Y-78547906D01*
X79626645Y-78547913D01*
X79576403Y-78682620D01*
X79576401Y-78682627D01*
X79570000Y-78742155D01*
X78000500Y-78742155D01*
X78000500Y-75131518D01*
X78020185Y-75064479D01*
X78036819Y-75043837D01*
X78287663Y-74792993D01*
X78544113Y-74536543D01*
X78567556Y-74501459D01*
X78580083Y-74482712D01*
X78620771Y-74421817D01*
X78620771Y-74421816D01*
X78620775Y-74421811D01*
X78653232Y-74343453D01*
X78670625Y-74301463D01*
X78670627Y-74301458D01*
X78673578Y-74294333D01*
X78673580Y-74294329D01*
X78678934Y-74267409D01*
X78700500Y-74158993D01*
X78700500Y-70531007D01*
X78691842Y-70487483D01*
X78688175Y-70469049D01*
X78673581Y-70395679D01*
X78673580Y-70395672D01*
X78641903Y-70319198D01*
X78634435Y-70249730D01*
X78665710Y-70187251D01*
X78725799Y-70151599D01*
X78795624Y-70154093D01*
X78844146Y-70184066D01*
X79833181Y-71173101D01*
X79866666Y-71234424D01*
X79869500Y-71260782D01*
X79869500Y-75252819D01*
X79849815Y-75319858D01*
X79819812Y-75352085D01*
X79712452Y-75432455D01*
X79626206Y-75547664D01*
X79626202Y-75547671D01*
X79575908Y-75682517D01*
X79569501Y-75742116D01*
X79569500Y-75742135D01*
X79569500Y-76837870D01*
X79569501Y-76837876D01*
X79575908Y-76897483D01*
X79626202Y-77032328D01*
X79626206Y-77032335D01*
X79712452Y-77147544D01*
X79712455Y-77147547D01*
X79827664Y-77233793D01*
X79827671Y-77233797D01*
X79872618Y-77250561D01*
X79962517Y-77284091D01*
X80022127Y-77290500D01*
X80761456Y-77290499D01*
X80761470Y-77290500D01*
X80771459Y-77290500D01*
X80982975Y-77290500D01*
X80982983Y-77290499D01*
X81717871Y-77290499D01*
X81717872Y-77290499D01*
X81777483Y-77284091D01*
X81912331Y-77233796D01*
X82017278Y-77155232D01*
X82082741Y-77130816D01*
X82091588Y-77130500D01*
X83348561Y-77130500D01*
X83415600Y-77150185D01*
X83422872Y-77155233D01*
X83447668Y-77173795D01*
X83447671Y-77173797D01*
X83492618Y-77190561D01*
X83582517Y-77224091D01*
X83642127Y-77230500D01*
X84337872Y-77230499D01*
X84397483Y-77224091D01*
X84532331Y-77173796D01*
X84647546Y-77087546D01*
X84733796Y-76972331D01*
X84784091Y-76837483D01*
X84790500Y-76777873D01*
X84790499Y-76594553D01*
X84799940Y-76547096D01*
X84807813Y-76528089D01*
X84807812Y-76528089D01*
X84807816Y-76528082D01*
X84840500Y-76363767D01*
X84840500Y-76196233D01*
X84807816Y-76031918D01*
X84802640Y-76019422D01*
X84799938Y-76012898D01*
X84790499Y-75965446D01*
X84790499Y-75782129D01*
X84790498Y-75782123D01*
X84790213Y-75779473D01*
X84784091Y-75722517D01*
X84778482Y-75707479D01*
X84733797Y-75587671D01*
X84733793Y-75587664D01*
X84647548Y-75472457D01*
X84647546Y-75472454D01*
X84616730Y-75449385D01*
X84590188Y-75429515D01*
X84548318Y-75373581D01*
X84540500Y-75330249D01*
X84540500Y-74676728D01*
X84548318Y-74633394D01*
X84557303Y-74609304D01*
X84584091Y-74537483D01*
X84590500Y-74477873D01*
X84590499Y-71682135D01*
X84989500Y-71682135D01*
X84989500Y-74477870D01*
X84989501Y-74477876D01*
X84995908Y-74537483D01*
X85046203Y-74672329D01*
X85064766Y-74697126D01*
X85089184Y-74762590D01*
X85089500Y-74771438D01*
X85089500Y-76777870D01*
X85089501Y-76777872D01*
X85095908Y-76837483D01*
X85146202Y-76972328D01*
X85146206Y-76972335D01*
X85232452Y-77087544D01*
X85232455Y-77087547D01*
X85347664Y-77173793D01*
X85347671Y-77173797D01*
X85392618Y-77190561D01*
X85482517Y-77224091D01*
X85542127Y-77230500D01*
X86237872Y-77230499D01*
X86297483Y-77224091D01*
X86432331Y-77173796D01*
X86547546Y-77087546D01*
X86633796Y-76972331D01*
X86684091Y-76837483D01*
X86690500Y-76777873D01*
X86690500Y-76307712D01*
X86690500Y-74771438D01*
X86710185Y-74704399D01*
X86715234Y-74697126D01*
X86733796Y-74672331D01*
X86784091Y-74537483D01*
X86790500Y-74477873D01*
X86790499Y-71682128D01*
X86784091Y-71622517D01*
X86758784Y-71554666D01*
X86733797Y-71487671D01*
X86733793Y-71487664D01*
X86647547Y-71372455D01*
X86647544Y-71372452D01*
X86532335Y-71286206D01*
X86532328Y-71286202D01*
X86397482Y-71235908D01*
X86397483Y-71235908D01*
X86337883Y-71229501D01*
X86337881Y-71229500D01*
X86337873Y-71229500D01*
X86337864Y-71229500D01*
X85442129Y-71229500D01*
X85442123Y-71229501D01*
X85382516Y-71235908D01*
X85247671Y-71286202D01*
X85247664Y-71286206D01*
X85132455Y-71372452D01*
X85132452Y-71372455D01*
X85046206Y-71487664D01*
X85046202Y-71487671D01*
X84995908Y-71622517D01*
X84989501Y-71682116D01*
X84989501Y-71682123D01*
X84989500Y-71682135D01*
X84590499Y-71682135D01*
X84590499Y-71682128D01*
X84584091Y-71622517D01*
X84558784Y-71554666D01*
X84533797Y-71487671D01*
X84533793Y-71487664D01*
X84447547Y-71372455D01*
X84447544Y-71372452D01*
X84332335Y-71286206D01*
X84332328Y-71286202D01*
X84197482Y-71235908D01*
X84197483Y-71235908D01*
X84137883Y-71229501D01*
X84137881Y-71229500D01*
X84137873Y-71229500D01*
X84137865Y-71229500D01*
X83635273Y-71229500D01*
X83568234Y-71209815D01*
X83522479Y-71157011D01*
X83512535Y-71087853D01*
X83541560Y-71024297D01*
X83590335Y-70991379D01*
X83589913Y-70990416D01*
X83594598Y-70988361D01*
X83594604Y-70988359D01*
X83813229Y-70870045D01*
X84009397Y-70717361D01*
X84177760Y-70534471D01*
X84313723Y-70326363D01*
X84413579Y-70098715D01*
X84474603Y-69857736D01*
X84490963Y-69660301D01*
X84495131Y-69610005D01*
X84495131Y-69609994D01*
X84474603Y-69362267D01*
X84474603Y-69362264D01*
X84413579Y-69121285D01*
X84313723Y-68893637D01*
X84210099Y-68735028D01*
X84177759Y-68685527D01*
X84009400Y-68502642D01*
X84009390Y-68502633D01*
X83926161Y-68437853D01*
X83885348Y-68381143D01*
X83881673Y-68311370D01*
X83916305Y-68250687D01*
X83926161Y-68242147D01*
X83977761Y-68201984D01*
X84009397Y-68177361D01*
X84177760Y-67994471D01*
X84313723Y-67786363D01*
X84413579Y-67558715D01*
X84474603Y-67317736D01*
X84486192Y-67177873D01*
X84495131Y-67070005D01*
X84495131Y-67069994D01*
X84474603Y-66822267D01*
X84474603Y-66822264D01*
X84413579Y-66581285D01*
X84313723Y-66353637D01*
X84241830Y-66243596D01*
X84177759Y-66145527D01*
X84009400Y-65962642D01*
X84009390Y-65962633D01*
X83926161Y-65897853D01*
X83885348Y-65841143D01*
X83881673Y-65771370D01*
X83916305Y-65710687D01*
X83926161Y-65702147D01*
X83985699Y-65655806D01*
X84009397Y-65637361D01*
X84177760Y-65454471D01*
X84313723Y-65246363D01*
X84413579Y-65018715D01*
X84474603Y-64777736D01*
X84489210Y-64601460D01*
X84495131Y-64530005D01*
X84495131Y-64529994D01*
X84476114Y-64300500D01*
X84474603Y-64282264D01*
X84413579Y-64041285D01*
X84313723Y-63813637D01*
X84210869Y-63656206D01*
X84177759Y-63605527D01*
X84009400Y-63422642D01*
X84009395Y-63422637D01*
X83905847Y-63342042D01*
X83865034Y-63285331D01*
X83858248Y-63236506D01*
X83859691Y-63213244D01*
X83042848Y-62396400D01*
X83043504Y-62396400D01*
X83146865Y-62368705D01*
X83239536Y-62315201D01*
X83315201Y-62239536D01*
X83368705Y-62146865D01*
X83396400Y-62043504D01*
X83396400Y-62042847D01*
X84213066Y-62859513D01*
X84313281Y-62706125D01*
X84413104Y-62478550D01*
X84474107Y-62237657D01*
X84474109Y-62237646D01*
X84494629Y-61990005D01*
X84494629Y-61989994D01*
X84474109Y-61742353D01*
X84474107Y-61742342D01*
X84413104Y-61501449D01*
X84313283Y-61273879D01*
X84213066Y-61120485D01*
X83396400Y-61937151D01*
X83396400Y-61936496D01*
X83368705Y-61833135D01*
X83315201Y-61740464D01*
X83239536Y-61664799D01*
X83146865Y-61611295D01*
X83043504Y-61583600D01*
X83042847Y-61583600D01*
X83859691Y-60766753D01*
X83858247Y-60743494D01*
X83873740Y-60675364D01*
X83905843Y-60637960D01*
X84009397Y-60557361D01*
X84177760Y-60374471D01*
X84313723Y-60166363D01*
X84413579Y-59938715D01*
X84474603Y-59697736D01*
X84495131Y-59450000D01*
X84493560Y-59431042D01*
X84478618Y-59250716D01*
X84474603Y-59202264D01*
X84413579Y-58961285D01*
X84313723Y-58733637D01*
X84247401Y-58632123D01*
X84177759Y-58525527D01*
X84103985Y-58445388D01*
X84073062Y-58382734D01*
X84080922Y-58313308D01*
X84125069Y-58259152D01*
X84131243Y-58255362D01*
X84132759Y-58254226D01*
X84132761Y-58254226D01*
X84247976Y-58167976D01*
X84334226Y-58052761D01*
X84384521Y-57917913D01*
X84390930Y-57858303D01*
X84390929Y-55961698D01*
X84384521Y-55902087D01*
X84380882Y-55892331D01*
X84334227Y-55767241D01*
X84334223Y-55767234D01*
X84247977Y-55652025D01*
X84247974Y-55652022D01*
X84132765Y-55565776D01*
X84132758Y-55565772D01*
X83997912Y-55515478D01*
X83997913Y-55515478D01*
X83938313Y-55509071D01*
X83938311Y-55509070D01*
X83938303Y-55509070D01*
X83938295Y-55509070D01*
X82913932Y-55509070D01*
X82846893Y-55489385D01*
X82826251Y-55472751D01*
X82786819Y-55433319D01*
X82753334Y-55371996D01*
X82750500Y-55345638D01*
X82750500Y-54912862D01*
X82770185Y-54845823D01*
X82793968Y-54818572D01*
X82794134Y-54818430D01*
X82985224Y-54655224D01*
X83148836Y-54463659D01*
X83280466Y-54248859D01*
X83376873Y-54016111D01*
X83435683Y-53771148D01*
X83455449Y-53520000D01*
X84645052Y-53520000D01*
X84664812Y-53771072D01*
X84723603Y-54015956D01*
X84819980Y-54248631D01*
X84951568Y-54463362D01*
X84952266Y-54464179D01*
X85850000Y-53566446D01*
X85850000Y-53572661D01*
X85877259Y-53674394D01*
X85929920Y-53765606D01*
X86004394Y-53840080D01*
X86095606Y-53892741D01*
X86197339Y-53920000D01*
X86203553Y-53920000D01*
X85305819Y-54817732D01*
X85305819Y-54817733D01*
X85306634Y-54818429D01*
X85521368Y-54950019D01*
X85754043Y-55046396D01*
X85998927Y-55105187D01*
X86250000Y-55124947D01*
X86501072Y-55105187D01*
X86745956Y-55046396D01*
X86978631Y-54950019D01*
X87193361Y-54818432D01*
X87193363Y-54818430D01*
X87194180Y-54817732D01*
X86296447Y-53920000D01*
X86302661Y-53920000D01*
X86404394Y-53892741D01*
X86495606Y-53840080D01*
X86570080Y-53765606D01*
X86622741Y-53674394D01*
X86650000Y-53572661D01*
X86650000Y-53566448D01*
X87547732Y-54464180D01*
X87548430Y-54463363D01*
X87548432Y-54463361D01*
X87680019Y-54248631D01*
X87776396Y-54015956D01*
X87835187Y-53771072D01*
X87854947Y-53520000D01*
X87835187Y-53268927D01*
X87776396Y-53024043D01*
X87680019Y-52791368D01*
X87548429Y-52576634D01*
X87547733Y-52575819D01*
X87547732Y-52575819D01*
X86650000Y-53473551D01*
X86650000Y-53467339D01*
X86622741Y-53365606D01*
X86570080Y-53274394D01*
X86495606Y-53199920D01*
X86404394Y-53147259D01*
X86302661Y-53120000D01*
X86296448Y-53120000D01*
X87194179Y-52222266D01*
X87193362Y-52221568D01*
X86978631Y-52089980D01*
X86745956Y-51993603D01*
X86501072Y-51934812D01*
X86250000Y-51915052D01*
X85998927Y-51934812D01*
X85754043Y-51993603D01*
X85521368Y-52089980D01*
X85306637Y-52221567D01*
X85305819Y-52222266D01*
X86203553Y-53120000D01*
X86197339Y-53120000D01*
X86095606Y-53147259D01*
X86004394Y-53199920D01*
X85929920Y-53274394D01*
X85877259Y-53365606D01*
X85850000Y-53467339D01*
X85850000Y-53473553D01*
X84952266Y-52575819D01*
X84951567Y-52576637D01*
X84819980Y-52791368D01*
X84723603Y-53024043D01*
X84664812Y-53268927D01*
X84645052Y-53520000D01*
X83455449Y-53520000D01*
X83435683Y-53268852D01*
X83376873Y-53023889D01*
X83362833Y-52989993D01*
X83280466Y-52791140D01*
X83149017Y-52576637D01*
X83148838Y-52576345D01*
X83148838Y-52576343D01*
X83101827Y-52521301D01*
X82985224Y-52384776D01*
X82916203Y-52325826D01*
X82893968Y-52306835D01*
X82855775Y-52248327D01*
X82850500Y-52212545D01*
X82850500Y-48427453D01*
X82870185Y-48360414D01*
X82893965Y-48333166D01*
X82985224Y-48255224D01*
X83148836Y-48063659D01*
X83280466Y-47848859D01*
X83376873Y-47616111D01*
X83435683Y-47371148D01*
X83455449Y-47120000D01*
X83435683Y-46868852D01*
X83376873Y-46623889D01*
X83284132Y-46399991D01*
X83280466Y-46391140D01*
X83148839Y-46176346D01*
X83148838Y-46176343D01*
X83121055Y-46143813D01*
X83087931Y-46105031D01*
X83059361Y-46041270D01*
X83069798Y-45972185D01*
X83115929Y-45919709D01*
X83182222Y-45900500D01*
X84918434Y-45900500D01*
X84985473Y-45920185D01*
G37*
%TD.AperFunction*%
%TA.AperFunction,Conductor*%
G36*
X75553181Y-81147428D02*
G01*
X75586666Y-81208751D01*
X75589500Y-81235109D01*
X75589500Y-81795232D01*
X75569815Y-81862271D01*
X75517011Y-81908026D01*
X75447853Y-81917970D01*
X75384297Y-81888945D01*
X75374271Y-81879216D01*
X75334274Y-81835768D01*
X75156673Y-81697535D01*
X75115860Y-81640825D01*
X75112187Y-81571052D01*
X75146818Y-81510369D01*
X75156672Y-81501830D01*
X75181303Y-81482657D01*
X74435048Y-80736400D01*
X74435704Y-80736400D01*
X74539065Y-80708705D01*
X74631736Y-80655201D01*
X74707401Y-80579536D01*
X74760905Y-80486865D01*
X74788600Y-80383504D01*
X74788600Y-80382847D01*
X75553181Y-81147428D01*
G37*
%TD.AperFunction*%
%TA.AperFunction,Conductor*%
G36*
X77293698Y-55990185D02*
G01*
X77339453Y-56042989D01*
X77349397Y-56112147D01*
X77332198Y-56159596D01*
X77245189Y-56300659D01*
X77245185Y-56300668D01*
X77223388Y-56366448D01*
X77190001Y-56467203D01*
X77190001Y-56467204D01*
X77190000Y-56467204D01*
X77179500Y-56569983D01*
X77179500Y-57195001D01*
X77179501Y-57195019D01*
X77190000Y-57297796D01*
X77190001Y-57297799D01*
X77239927Y-57448464D01*
X77245186Y-57464334D01*
X77337288Y-57613656D01*
X77461344Y-57737712D01*
X77610666Y-57829814D01*
X77610667Y-57829814D01*
X77616813Y-57833605D01*
X77615706Y-57835399D01*
X77660337Y-57874687D01*
X77679500Y-57940908D01*
X77679500Y-60768481D01*
X77659815Y-60835520D01*
X77643185Y-60856157D01*
X77590269Y-60909074D01*
X77541001Y-60958342D01*
X77479678Y-60991826D01*
X77415148Y-60987213D01*
X77415035Y-60987693D01*
X77412075Y-60986993D01*
X77409994Y-60986845D01*
X77407483Y-60985908D01*
X77347883Y-60979501D01*
X77347881Y-60979500D01*
X77347873Y-60979500D01*
X77347864Y-60979500D01*
X75452129Y-60979500D01*
X75452123Y-60979501D01*
X75392516Y-60985908D01*
X75257671Y-61036202D01*
X75257664Y-61036206D01*
X75142455Y-61122452D01*
X75142452Y-61122455D01*
X75056206Y-61237664D01*
X75056202Y-61237671D01*
X75005910Y-61372513D01*
X75005909Y-61372517D01*
X74999500Y-61432127D01*
X74999500Y-61432134D01*
X74999500Y-61432135D01*
X74999500Y-61977869D01*
X74999501Y-61977878D01*
X75003679Y-62016745D01*
X75003679Y-62043250D01*
X74999500Y-62082122D01*
X74999500Y-62627869D01*
X74999501Y-62627878D01*
X75003679Y-62666745D01*
X75003679Y-62693250D01*
X74999500Y-62732122D01*
X74999500Y-63277869D01*
X74999501Y-63277878D01*
X75003679Y-63316745D01*
X75003679Y-63343250D01*
X74999500Y-63382122D01*
X74999500Y-63927869D01*
X74999501Y-63927878D01*
X75003679Y-63966745D01*
X75003679Y-63993250D01*
X74999500Y-64032122D01*
X74999500Y-64577869D01*
X74999501Y-64577878D01*
X75003679Y-64616745D01*
X75003679Y-64643250D01*
X74999500Y-64682122D01*
X74999500Y-65227869D01*
X74999501Y-65227878D01*
X75003679Y-65266745D01*
X75003679Y-65293250D01*
X74999500Y-65332122D01*
X74999500Y-65877869D01*
X74999501Y-65877880D01*
X75003931Y-65919093D01*
X75003931Y-65945596D01*
X75000000Y-65982165D01*
X75000000Y-66030000D01*
X75015611Y-66045611D01*
X75029484Y-66049685D01*
X75061711Y-66079689D01*
X75137320Y-66180689D01*
X75161738Y-66246153D01*
X75146887Y-66314426D01*
X75137320Y-66329311D01*
X75061711Y-66430311D01*
X75013892Y-66466107D01*
X75000000Y-66480000D01*
X75000000Y-66527832D01*
X75003931Y-66564399D01*
X75003931Y-66590905D01*
X74999500Y-66632122D01*
X74999500Y-67177869D01*
X74999501Y-67177878D01*
X75003679Y-67216745D01*
X75003679Y-67243250D01*
X74999500Y-67282122D01*
X74999500Y-67827869D01*
X74999501Y-67827878D01*
X75003679Y-67866745D01*
X75003679Y-67893250D01*
X74999500Y-67932122D01*
X74999500Y-68477869D01*
X74999501Y-68477878D01*
X75003679Y-68516745D01*
X75003679Y-68543250D01*
X74999500Y-68582122D01*
X74999500Y-69127869D01*
X74999501Y-69127878D01*
X75003679Y-69166745D01*
X75003679Y-69193250D01*
X74999500Y-69232122D01*
X74999500Y-69777869D01*
X74999501Y-69777878D01*
X75003679Y-69816745D01*
X75003679Y-69843250D01*
X74999500Y-69882122D01*
X74999500Y-70427870D01*
X74999501Y-70427876D01*
X75005908Y-70487483D01*
X75056202Y-70622328D01*
X75056206Y-70622335D01*
X75142452Y-70737544D01*
X75142455Y-70737547D01*
X75257664Y-70823793D01*
X75257671Y-70823797D01*
X75392517Y-70874091D01*
X75392516Y-70874091D01*
X75399444Y-70874835D01*
X75452127Y-70880500D01*
X77175500Y-70880499D01*
X77242539Y-70900184D01*
X77288294Y-70952987D01*
X77299500Y-71004499D01*
X77299500Y-73748480D01*
X77279815Y-73815519D01*
X77263181Y-73836161D01*
X76755888Y-74343453D01*
X76755887Y-74343454D01*
X76679222Y-74458192D01*
X76626421Y-74585667D01*
X76626418Y-74585679D01*
X76602055Y-74708157D01*
X76602056Y-74708158D01*
X76599500Y-74721009D01*
X76599500Y-77389480D01*
X76579815Y-77456519D01*
X76527011Y-77502274D01*
X76457853Y-77512218D01*
X76394297Y-77483193D01*
X76387819Y-77477161D01*
X74486545Y-75575887D01*
X74371807Y-75499222D01*
X74244332Y-75446421D01*
X74244322Y-75446418D01*
X74108996Y-75419500D01*
X74108994Y-75419500D01*
X74108993Y-75419500D01*
X68821519Y-75419500D01*
X68754480Y-75399815D01*
X68733838Y-75383181D01*
X68236819Y-74886162D01*
X68203334Y-74824839D01*
X68200500Y-74798481D01*
X68200500Y-71002243D01*
X68220185Y-70935204D01*
X68272989Y-70889449D01*
X68337756Y-70878954D01*
X68352127Y-70880500D01*
X70247872Y-70880499D01*
X70307483Y-70874091D01*
X70442331Y-70823796D01*
X70557546Y-70737546D01*
X70643796Y-70622331D01*
X70694091Y-70487483D01*
X70700500Y-70427873D01*
X70700499Y-69882128D01*
X70700499Y-69882127D01*
X70700498Y-69882111D01*
X70696320Y-69843253D01*
X70696320Y-69816745D01*
X70700500Y-69777873D01*
X70700499Y-69232128D01*
X70700499Y-69232127D01*
X70700498Y-69232111D01*
X70696320Y-69193253D01*
X70696320Y-69166745D01*
X70700500Y-69127873D01*
X70700499Y-68582128D01*
X70700499Y-68582127D01*
X70700498Y-68582111D01*
X70696320Y-68543253D01*
X70696320Y-68516745D01*
X70700500Y-68477873D01*
X70700499Y-67932128D01*
X70696067Y-67890898D01*
X70696068Y-67864393D01*
X70699999Y-67827833D01*
X70700000Y-67827819D01*
X70700000Y-67729500D01*
X70719685Y-67662461D01*
X70772489Y-67616706D01*
X70824000Y-67605500D01*
X70963996Y-67605500D01*
X71055040Y-67587389D01*
X71099328Y-67578580D01*
X71170574Y-67549069D01*
X71228048Y-67525263D01*
X71297517Y-67517794D01*
X71359996Y-67549069D01*
X71395648Y-67609158D01*
X71399500Y-67639824D01*
X71399500Y-70544217D01*
X71379815Y-70611256D01*
X71363181Y-70631898D01*
X70752220Y-71242859D01*
X70752216Y-71242861D01*
X70752217Y-71242862D01*
X70700560Y-71294517D01*
X70656220Y-71323013D01*
X70647674Y-71326200D01*
X70647671Y-71326202D01*
X70615195Y-71350514D01*
X70532454Y-71412454D01*
X70532453Y-71412455D01*
X70532452Y-71412456D01*
X70446206Y-71527664D01*
X70446202Y-71527671D01*
X70395908Y-71662517D01*
X70389501Y-71722116D01*
X70389500Y-71722135D01*
X70389500Y-73417870D01*
X70389501Y-73417876D01*
X70395908Y-73477483D01*
X70446202Y-73612328D01*
X70446206Y-73612335D01*
X70532452Y-73727544D01*
X70532455Y-73727547D01*
X70647664Y-73813793D01*
X70647671Y-73813797D01*
X70782517Y-73864091D01*
X70782516Y-73864091D01*
X70789444Y-73864835D01*
X70842127Y-73870500D01*
X71937872Y-73870499D01*
X71997483Y-73864091D01*
X72132331Y-73813796D01*
X72247546Y-73727546D01*
X72333796Y-73612331D01*
X72384091Y-73477483D01*
X72390500Y-73417873D01*
X72390500Y-73417844D01*
X73390000Y-73417844D01*
X73396401Y-73477372D01*
X73396403Y-73477379D01*
X73446645Y-73612086D01*
X73446649Y-73612093D01*
X73532809Y-73727187D01*
X73532812Y-73727190D01*
X73647906Y-73813350D01*
X73647913Y-73813354D01*
X73782620Y-73863596D01*
X73782627Y-73863598D01*
X73842155Y-73869999D01*
X73842172Y-73870000D01*
X74140000Y-73870000D01*
X74640000Y-73870000D01*
X74937828Y-73870000D01*
X74937844Y-73869999D01*
X74997372Y-73863598D01*
X74997379Y-73863596D01*
X75132086Y-73813354D01*
X75132093Y-73813350D01*
X75247187Y-73727190D01*
X75247190Y-73727187D01*
X75333350Y-73612093D01*
X75333354Y-73612086D01*
X75383596Y-73477379D01*
X75383598Y-73477372D01*
X75389999Y-73417844D01*
X75390000Y-73417827D01*
X75390000Y-72820000D01*
X74640000Y-72820000D01*
X74640000Y-73870000D01*
X74140000Y-73870000D01*
X74140000Y-72820000D01*
X73390000Y-72820000D01*
X73390000Y-73417844D01*
X72390500Y-73417844D01*
X72390500Y-72585839D01*
X72390500Y-72485782D01*
X72410185Y-72418743D01*
X72426819Y-72398101D01*
X73178319Y-71646602D01*
X73239642Y-71613117D01*
X73309334Y-71618101D01*
X73365267Y-71659973D01*
X73389684Y-71725437D01*
X73390000Y-71734283D01*
X73390000Y-72320000D01*
X74140000Y-72320000D01*
X74640000Y-72320000D01*
X75390000Y-72320000D01*
X75390000Y-71722172D01*
X75389999Y-71722155D01*
X75383598Y-71662627D01*
X75383596Y-71662620D01*
X75333354Y-71527913D01*
X75333350Y-71527906D01*
X75247190Y-71412812D01*
X75247187Y-71412809D01*
X75132093Y-71326649D01*
X75132086Y-71326645D01*
X74997379Y-71276403D01*
X74997372Y-71276401D01*
X74937844Y-71270000D01*
X74640000Y-71270000D01*
X74640000Y-72320000D01*
X74140000Y-72320000D01*
X74140000Y-71270000D01*
X73842155Y-71270000D01*
X73782627Y-71276401D01*
X73782620Y-71276403D01*
X73647913Y-71326645D01*
X73647911Y-71326646D01*
X73565301Y-71388489D01*
X73499837Y-71412906D01*
X73431564Y-71398055D01*
X73382158Y-71348650D01*
X73367306Y-71280377D01*
X73369373Y-71265031D01*
X73398121Y-71120500D01*
X73400500Y-71108540D01*
X73400500Y-70911460D01*
X73400500Y-65865781D01*
X73420185Y-65798742D01*
X73436815Y-65778104D01*
X73737778Y-65477141D01*
X73737782Y-65477139D01*
X73877139Y-65337782D01*
X73939940Y-65243793D01*
X73986631Y-65173916D01*
X73986635Y-65173907D01*
X74046036Y-65030500D01*
X74046036Y-65030499D01*
X74053284Y-65013000D01*
X74062051Y-64991836D01*
X74100500Y-64798541D01*
X74100500Y-64601460D01*
X74100500Y-60125255D01*
X74120185Y-60058216D01*
X74125546Y-60050528D01*
X74128628Y-60046447D01*
X74139673Y-60031821D01*
X74230582Y-59849250D01*
X74286397Y-59653083D01*
X74305215Y-59450000D01*
X74305214Y-59449994D01*
X74286397Y-59246917D01*
X74266330Y-59176389D01*
X74230582Y-59050750D01*
X74226451Y-59042454D01*
X74139676Y-58868185D01*
X74139675Y-58868184D01*
X74139673Y-58868179D01*
X74108043Y-58826294D01*
X74083354Y-58760933D01*
X74083000Y-58751570D01*
X74083000Y-58384500D01*
X74102685Y-58317461D01*
X74155489Y-58271706D01*
X74207000Y-58260500D01*
X74701042Y-58260500D01*
X74720370Y-58256655D01*
X74797688Y-58241275D01*
X74894336Y-58222051D01*
X74971822Y-58189955D01*
X75076414Y-58146632D01*
X75240282Y-58037139D01*
X75379639Y-57897782D01*
X75379640Y-57897779D01*
X75386706Y-57890714D01*
X75386709Y-57890710D01*
X76200278Y-57077141D01*
X76200282Y-57077139D01*
X76339639Y-56937782D01*
X76449132Y-56773914D01*
X76461754Y-56743441D01*
X76524550Y-56591838D01*
X76524550Y-56591837D01*
X76524551Y-56591835D01*
X76527266Y-56578189D01*
X76528897Y-56569991D01*
X76546114Y-56483433D01*
X76546114Y-56483430D01*
X76563000Y-56398541D01*
X76563000Y-56094500D01*
X76582685Y-56027461D01*
X76635489Y-55981706D01*
X76687000Y-55970500D01*
X77226659Y-55970500D01*
X77293698Y-55990185D01*
G37*
%TD.AperFunction*%
%TA.AperFunction,Conductor*%
G36*
X63778834Y-68239336D02*
G01*
X63834767Y-68281208D01*
X63859184Y-68346672D01*
X63859500Y-68355518D01*
X63859500Y-69368481D01*
X63839815Y-69435520D01*
X63823181Y-69456162D01*
X61946162Y-71333181D01*
X61884839Y-71366666D01*
X61858481Y-71369500D01*
X59501004Y-71369500D01*
X59365677Y-71396418D01*
X59365667Y-71396421D01*
X59238192Y-71449222D01*
X59123454Y-71525887D01*
X58465887Y-72183454D01*
X58389222Y-72298192D01*
X58336421Y-72425667D01*
X58336418Y-72425679D01*
X58314109Y-72537836D01*
X58314109Y-72537840D01*
X58309500Y-72561007D01*
X58309500Y-72569091D01*
X58289815Y-72636130D01*
X58245731Y-72674641D01*
X58246813Y-72676395D01*
X58240667Y-72680185D01*
X58240666Y-72680186D01*
X58142419Y-72740784D01*
X58091342Y-72772289D01*
X57967289Y-72896342D01*
X57875187Y-73045663D01*
X57875182Y-73045674D01*
X57860144Y-73091057D01*
X57820371Y-73148502D01*
X57755855Y-73175324D01*
X57687079Y-73163008D01*
X57682563Y-73160221D01*
X57682437Y-73160454D01*
X57674651Y-73156202D01*
X57539805Y-73105908D01*
X57539806Y-73105908D01*
X57480206Y-73099501D01*
X57480204Y-73099500D01*
X57480196Y-73099500D01*
X57480187Y-73099500D01*
X55384452Y-73099500D01*
X55384446Y-73099501D01*
X55324839Y-73105908D01*
X55189994Y-73156202D01*
X55189987Y-73156206D01*
X55074778Y-73242452D01*
X55074775Y-73242455D01*
X54988529Y-73357664D01*
X54988525Y-73357671D01*
X54938231Y-73492517D01*
X54936449Y-73500062D01*
X54934176Y-73499525D01*
X54911894Y-73553312D01*
X54854500Y-73593157D01*
X54815347Y-73599500D01*
X51544108Y-73599500D01*
X51477069Y-73579815D01*
X51452880Y-73559485D01*
X51352754Y-73450719D01*
X51352753Y-73450718D01*
X51352751Y-73450716D01*
X51352747Y-73450713D01*
X51159791Y-73300529D01*
X51159787Y-73300526D01*
X50944734Y-73184145D01*
X50944729Y-73184143D01*
X50713458Y-73104748D01*
X50532561Y-73074562D01*
X50472263Y-73064500D01*
X50227737Y-73064500D01*
X50179498Y-73072549D01*
X49986541Y-73104748D01*
X49755270Y-73184143D01*
X49755265Y-73184145D01*
X49540212Y-73300526D01*
X49540208Y-73300529D01*
X49446645Y-73373353D01*
X49381651Y-73398996D01*
X49370483Y-73399500D01*
X47101457Y-73399500D01*
X47044751Y-73410780D01*
X47016397Y-73416420D01*
X46908171Y-73437947D01*
X46908163Y-73437949D01*
X46877335Y-73450719D01*
X46877334Y-73450719D01*
X46726092Y-73513364D01*
X46726079Y-73513371D01*
X46562219Y-73622859D01*
X46504712Y-73680367D01*
X46422861Y-73762218D01*
X46422858Y-73762221D01*
X46309580Y-73875500D01*
X46221899Y-73963181D01*
X46160576Y-73996666D01*
X46134218Y-73999500D01*
X44850000Y-73999500D01*
X44782961Y-73979815D01*
X44737206Y-73927011D01*
X44726000Y-73875500D01*
X44725999Y-72613000D01*
X44745684Y-72545961D01*
X44798487Y-72500206D01*
X44814726Y-72496673D01*
X44822400Y-72489000D01*
X44822400Y-70033700D01*
X44842085Y-69966661D01*
X44894889Y-69920906D01*
X44946400Y-69909700D01*
X47479493Y-69909700D01*
X47479493Y-69909699D01*
X47513764Y-69902882D01*
X47537955Y-69900500D01*
X48075638Y-69900500D01*
X48142677Y-69920185D01*
X48163319Y-69936819D01*
X48844645Y-70618145D01*
X48878130Y-70679468D01*
X48880540Y-70716064D01*
X48869620Y-70847873D01*
X48869443Y-70850005D01*
X48889634Y-71093683D01*
X48889636Y-71093695D01*
X48949663Y-71330734D01*
X49047888Y-71554666D01*
X49181632Y-71759378D01*
X49347242Y-71939277D01*
X49347252Y-71939286D01*
X49540208Y-72089470D01*
X49540212Y-72089473D01*
X49713873Y-72183454D01*
X49755267Y-72205855D01*
X49755270Y-72205856D01*
X49986541Y-72285251D01*
X49986543Y-72285251D01*
X49986545Y-72285252D01*
X50227737Y-72325500D01*
X50227738Y-72325500D01*
X50472262Y-72325500D01*
X50472263Y-72325500D01*
X50713455Y-72285252D01*
X50944733Y-72205855D01*
X51159788Y-72089473D01*
X51352754Y-71939281D01*
X51482956Y-71797844D01*
X55500000Y-71797844D01*
X55506401Y-71857372D01*
X55506403Y-71857379D01*
X55556645Y-71992086D01*
X55556649Y-71992093D01*
X55642809Y-72107187D01*
X55642812Y-72107190D01*
X55757906Y-72193350D01*
X55757913Y-72193354D01*
X55892620Y-72243596D01*
X55892627Y-72243598D01*
X55952155Y-72249999D01*
X55952172Y-72250000D01*
X56200000Y-72250000D01*
X56700000Y-72250000D01*
X56947828Y-72250000D01*
X56947844Y-72249999D01*
X57007372Y-72243598D01*
X57007379Y-72243596D01*
X57142086Y-72193354D01*
X57142093Y-72193350D01*
X57257187Y-72107190D01*
X57257190Y-72107187D01*
X57343350Y-71992093D01*
X57343354Y-71992086D01*
X57393596Y-71857379D01*
X57393598Y-71857372D01*
X57399999Y-71797844D01*
X57400000Y-71797827D01*
X57400000Y-71650000D01*
X56700000Y-71650000D01*
X56700000Y-72250000D01*
X56200000Y-72250000D01*
X56200000Y-71650000D01*
X55500000Y-71650000D01*
X55500000Y-71797844D01*
X51482956Y-71797844D01*
X51518368Y-71759377D01*
X51652111Y-71554667D01*
X51709124Y-71424689D01*
X51754080Y-71371204D01*
X51820816Y-71350514D01*
X51822680Y-71350500D01*
X54438693Y-71350500D01*
X54438694Y-71350499D01*
X54612666Y-71315894D01*
X54618371Y-71313530D01*
X54627046Y-71309938D01*
X54674498Y-71300499D01*
X54847871Y-71300499D01*
X54847872Y-71300499D01*
X54907483Y-71294091D01*
X55042331Y-71243796D01*
X55157546Y-71157546D01*
X55243796Y-71042331D01*
X55245995Y-71036436D01*
X55259818Y-70999375D01*
X55301689Y-70943441D01*
X55367153Y-70919023D01*
X55435426Y-70933874D01*
X55484832Y-70983279D01*
X55500000Y-71042707D01*
X55500000Y-71150000D01*
X57400000Y-71150000D01*
X57400000Y-71002172D01*
X57399999Y-71002155D01*
X57393598Y-70942627D01*
X57393596Y-70942620D01*
X57343354Y-70807913D01*
X57343350Y-70807906D01*
X57257190Y-70692812D01*
X57257187Y-70692809D01*
X57142093Y-70606649D01*
X57142086Y-70606645D01*
X57034312Y-70566448D01*
X56978378Y-70524577D01*
X56953961Y-70459112D01*
X56968813Y-70390839D01*
X57018218Y-70341434D01*
X57034313Y-70334084D01*
X57103397Y-70308318D01*
X57146729Y-70300500D01*
X58570366Y-70300500D01*
X58637405Y-70320185D01*
X58675903Y-70359401D01*
X58724788Y-70438656D01*
X58848844Y-70562712D01*
X58998166Y-70654814D01*
X59164703Y-70709999D01*
X59267491Y-70720500D01*
X59892508Y-70720499D01*
X59892516Y-70720498D01*
X59892519Y-70720498D01*
X59948802Y-70714748D01*
X59995297Y-70709999D01*
X60161834Y-70654814D01*
X60311156Y-70562712D01*
X60404819Y-70469049D01*
X60466142Y-70435564D01*
X60535834Y-70440548D01*
X60580181Y-70469049D01*
X60673844Y-70562712D01*
X60823166Y-70654814D01*
X60989703Y-70709999D01*
X61092491Y-70720500D01*
X61717508Y-70720499D01*
X61717516Y-70720498D01*
X61717519Y-70720498D01*
X61773802Y-70714748D01*
X61820297Y-70709999D01*
X61986834Y-70654814D01*
X62136156Y-70562712D01*
X62260212Y-70438656D01*
X62352314Y-70289334D01*
X62407499Y-70122797D01*
X62418000Y-70020009D01*
X62417999Y-69549017D01*
X62437683Y-69481979D01*
X62454313Y-69461342D01*
X63647819Y-68267837D01*
X63709142Y-68234352D01*
X63778834Y-68239336D01*
G37*
%TD.AperFunction*%
%TA.AperFunction,Conductor*%
G36*
X47202677Y-54720185D02*
G01*
X47223319Y-54736819D01*
X48904645Y-56418144D01*
X48938130Y-56479467D01*
X48940540Y-56516063D01*
X48929620Y-56647873D01*
X48929443Y-56650005D01*
X48949634Y-56893683D01*
X48949636Y-56893695D01*
X49009663Y-57130734D01*
X49107888Y-57354666D01*
X49241632Y-57559378D01*
X49407242Y-57739277D01*
X49407252Y-57739286D01*
X49600208Y-57889470D01*
X49600212Y-57889473D01*
X49695255Y-57940908D01*
X49815267Y-58005855D01*
X49815270Y-58005856D01*
X50046541Y-58085251D01*
X50046543Y-58085251D01*
X50046545Y-58085252D01*
X50287737Y-58125500D01*
X50287738Y-58125500D01*
X50532262Y-58125500D01*
X50532263Y-58125500D01*
X50773455Y-58085252D01*
X51004733Y-58005855D01*
X51219788Y-57889473D01*
X51412754Y-57739281D01*
X51542956Y-57597844D01*
X55500000Y-57597844D01*
X55506401Y-57657372D01*
X55506403Y-57657379D01*
X55556645Y-57792086D01*
X55556649Y-57792093D01*
X55642809Y-57907187D01*
X55642812Y-57907190D01*
X55757906Y-57993350D01*
X55757913Y-57993354D01*
X55892620Y-58043596D01*
X55892627Y-58043598D01*
X55952155Y-58049999D01*
X55952172Y-58050000D01*
X56200000Y-58050000D01*
X56700000Y-58050000D01*
X56947828Y-58050000D01*
X56947844Y-58049999D01*
X57007372Y-58043598D01*
X57007379Y-58043596D01*
X57142086Y-57993354D01*
X57142093Y-57993350D01*
X57257187Y-57907190D01*
X57257190Y-57907187D01*
X57343350Y-57792093D01*
X57343354Y-57792086D01*
X57393596Y-57657379D01*
X57393598Y-57657372D01*
X57399999Y-57597844D01*
X57400000Y-57597827D01*
X57400000Y-57450000D01*
X56700000Y-57450000D01*
X56700000Y-58050000D01*
X56200000Y-58050000D01*
X56200000Y-57450000D01*
X55500000Y-57450000D01*
X55500000Y-57597844D01*
X51542956Y-57597844D01*
X51578368Y-57559377D01*
X51712111Y-57354667D01*
X51769124Y-57224689D01*
X51814080Y-57171204D01*
X51880816Y-57150514D01*
X51882680Y-57150500D01*
X54438693Y-57150500D01*
X54438694Y-57150499D01*
X54612666Y-57115894D01*
X54618371Y-57113530D01*
X54627046Y-57109938D01*
X54674498Y-57100499D01*
X54847871Y-57100499D01*
X54847872Y-57100499D01*
X54907483Y-57094091D01*
X55042331Y-57043796D01*
X55157546Y-56957546D01*
X55243796Y-56842331D01*
X55243798Y-56842326D01*
X55259818Y-56799375D01*
X55301689Y-56743441D01*
X55367153Y-56719023D01*
X55435426Y-56733874D01*
X55484832Y-56783279D01*
X55500000Y-56842707D01*
X55500000Y-56950000D01*
X57400000Y-56950000D01*
X57400000Y-56802172D01*
X57399999Y-56802155D01*
X57393598Y-56742627D01*
X57393596Y-56742620D01*
X57343354Y-56607913D01*
X57343350Y-56607906D01*
X57257190Y-56492812D01*
X57257187Y-56492809D01*
X57142093Y-56406649D01*
X57142086Y-56406645D01*
X57034312Y-56366448D01*
X56978378Y-56324577D01*
X56953961Y-56259112D01*
X56968813Y-56190839D01*
X57018218Y-56141434D01*
X57034313Y-56134084D01*
X57103397Y-56108318D01*
X57146729Y-56100500D01*
X58251698Y-56100500D01*
X58318737Y-56120185D01*
X58357235Y-56159401D01*
X58412288Y-56248656D01*
X58536344Y-56372712D01*
X58685666Y-56464814D01*
X58852203Y-56519999D01*
X58954991Y-56530500D01*
X59580008Y-56530499D01*
X59580016Y-56530498D01*
X59580019Y-56530498D01*
X59636302Y-56524748D01*
X59682797Y-56519999D01*
X59849334Y-56464814D01*
X59998656Y-56372712D01*
X60092321Y-56279046D01*
X60153640Y-56245564D01*
X60223332Y-56250548D01*
X60267680Y-56279048D01*
X60355682Y-56367050D01*
X60389166Y-56428371D01*
X60392000Y-56454730D01*
X60392000Y-56463506D01*
X60392000Y-56601494D01*
X60392000Y-56601496D01*
X60391999Y-56601496D01*
X60418918Y-56736822D01*
X60418921Y-56736832D01*
X60471722Y-56864307D01*
X60548387Y-56979045D01*
X60548388Y-56979046D01*
X63633181Y-60063838D01*
X63666666Y-60125161D01*
X63669500Y-60151519D01*
X63669500Y-62041006D01*
X63669500Y-62178994D01*
X63669500Y-62178996D01*
X63669499Y-62178996D01*
X63696418Y-62314322D01*
X63696421Y-62314332D01*
X63749222Y-62441807D01*
X63825890Y-62556550D01*
X63826127Y-62556838D01*
X63826203Y-62557018D01*
X63829271Y-62561609D01*
X63828400Y-62562190D01*
X63853439Y-62621148D01*
X63841645Y-62690016D01*
X63794492Y-62741574D01*
X63730272Y-62759500D01*
X62158408Y-62759500D01*
X62091369Y-62739815D01*
X62052863Y-62695728D01*
X62051105Y-62696813D01*
X62046913Y-62690016D01*
X61955212Y-62541344D01*
X61831156Y-62417288D01*
X61711612Y-62343553D01*
X61681836Y-62325187D01*
X61681831Y-62325185D01*
X61651701Y-62315201D01*
X61515297Y-62270001D01*
X61515295Y-62270000D01*
X61412510Y-62259500D01*
X60787498Y-62259500D01*
X60787480Y-62259501D01*
X60684703Y-62270000D01*
X60684700Y-62270001D01*
X60518168Y-62325185D01*
X60518163Y-62325187D01*
X60368842Y-62417289D01*
X60275181Y-62510951D01*
X60213858Y-62544436D01*
X60144166Y-62539452D01*
X60099819Y-62510951D01*
X60006157Y-62417289D01*
X60006156Y-62417288D01*
X59886612Y-62343553D01*
X59856836Y-62325187D01*
X59856831Y-62325185D01*
X59826701Y-62315201D01*
X59690297Y-62270001D01*
X59690295Y-62270000D01*
X59587510Y-62259500D01*
X58962498Y-62259500D01*
X58962480Y-62259501D01*
X58859703Y-62270000D01*
X58859700Y-62270001D01*
X58693168Y-62325185D01*
X58693163Y-62325187D01*
X58543842Y-62417289D01*
X58419789Y-62541342D01*
X58406930Y-62562190D01*
X58366418Y-62627872D01*
X58358569Y-62640597D01*
X58306621Y-62687321D01*
X58253030Y-62699500D01*
X57196729Y-62699500D01*
X57153396Y-62691682D01*
X57057482Y-62655908D01*
X57057483Y-62655908D01*
X56997883Y-62649501D01*
X56997881Y-62649500D01*
X56997873Y-62649500D01*
X56997864Y-62649500D01*
X56002129Y-62649500D01*
X56002123Y-62649501D01*
X55942516Y-62655908D01*
X55807671Y-62706202D01*
X55807664Y-62706206D01*
X55692455Y-62792452D01*
X55692452Y-62792455D01*
X55606206Y-62907664D01*
X55606202Y-62907671D01*
X55555908Y-63042517D01*
X55549501Y-63102116D01*
X55549500Y-63102135D01*
X55549500Y-63855954D01*
X55529815Y-63922993D01*
X55477011Y-63968748D01*
X55407853Y-63978692D01*
X55344297Y-63949667D01*
X55309318Y-63899287D01*
X55293796Y-63857669D01*
X55293793Y-63857664D01*
X55207547Y-63742455D01*
X55207544Y-63742452D01*
X55092335Y-63656206D01*
X55092328Y-63656202D01*
X54957482Y-63605908D01*
X54957483Y-63605908D01*
X54897883Y-63599501D01*
X54897881Y-63599500D01*
X54897873Y-63599500D01*
X54897865Y-63599500D01*
X54724495Y-63599500D01*
X54677046Y-63590062D01*
X54662666Y-63584106D01*
X54662662Y-63584105D01*
X54662658Y-63584103D01*
X54488694Y-63549500D01*
X54488691Y-63549500D01*
X51838816Y-63549500D01*
X51771777Y-63529815D01*
X51726022Y-63477011D01*
X51725260Y-63475309D01*
X51712112Y-63445334D01*
X51578367Y-63240621D01*
X51412757Y-63060722D01*
X51412747Y-63060713D01*
X51219791Y-62910529D01*
X51219787Y-62910526D01*
X51004734Y-62794145D01*
X51004729Y-62794143D01*
X50773458Y-62714748D01*
X50592561Y-62684562D01*
X50532263Y-62674500D01*
X50287737Y-62674500D01*
X50239498Y-62682549D01*
X50046541Y-62714748D01*
X49815270Y-62794143D01*
X49815265Y-62794145D01*
X49600212Y-62910526D01*
X49600208Y-62910529D01*
X49407252Y-63060713D01*
X49407242Y-63060722D01*
X49241632Y-63240621D01*
X49107888Y-63445333D01*
X49009663Y-63669265D01*
X48949636Y-63906304D01*
X48949634Y-63906316D01*
X48929443Y-64149994D01*
X48929443Y-64150000D01*
X48940403Y-64282267D01*
X48940541Y-64283934D01*
X48926459Y-64352370D01*
X48904645Y-64381854D01*
X48423319Y-64863181D01*
X48361996Y-64896666D01*
X48335638Y-64899500D01*
X47906742Y-64899500D01*
X47859289Y-64890061D01*
X47789866Y-64861305D01*
X47789858Y-64861303D01*
X47615896Y-64826700D01*
X47615892Y-64826700D01*
X47615891Y-64826700D01*
X44946400Y-64826700D01*
X44879361Y-64807015D01*
X44833606Y-64754211D01*
X44822400Y-64702700D01*
X44822400Y-62247400D01*
X44810926Y-62235926D01*
X44782961Y-62227715D01*
X44737206Y-62174911D01*
X44726000Y-62123400D01*
X44725999Y-60924500D01*
X44745684Y-60857461D01*
X44798487Y-60811706D01*
X44849999Y-60800500D01*
X47134217Y-60800500D01*
X47201256Y-60820185D01*
X47221898Y-60836819D01*
X47362860Y-60977781D01*
X47362861Y-60977782D01*
X47468243Y-61083164D01*
X47502219Y-61117140D01*
X47666080Y-61226628D01*
X47666086Y-61226632D01*
X47772745Y-61270811D01*
X47848164Y-61302051D01*
X48041454Y-61340499D01*
X48041457Y-61340500D01*
X48041459Y-61340500D01*
X49271126Y-61340500D01*
X49338165Y-61360185D01*
X49362353Y-61380514D01*
X49398873Y-61420185D01*
X49407248Y-61429283D01*
X49407252Y-61429286D01*
X49600208Y-61579470D01*
X49600212Y-61579473D01*
X49757880Y-61664799D01*
X49815267Y-61695855D01*
X49815270Y-61695856D01*
X50046541Y-61775251D01*
X50046543Y-61775251D01*
X50046545Y-61775252D01*
X50287737Y-61815500D01*
X50287738Y-61815500D01*
X50532262Y-61815500D01*
X50532263Y-61815500D01*
X50773455Y-61775252D01*
X51004733Y-61695855D01*
X51219788Y-61579473D01*
X51356598Y-61472989D01*
X51416139Y-61426647D01*
X51481133Y-61401004D01*
X51492301Y-61400500D01*
X54783023Y-61400500D01*
X54850062Y-61420185D01*
X54895817Y-61472989D01*
X54903266Y-61500134D01*
X54904124Y-61499932D01*
X54905907Y-61507479D01*
X54956202Y-61642328D01*
X54956206Y-61642335D01*
X55042452Y-61757544D01*
X55042455Y-61757547D01*
X55157664Y-61843793D01*
X55157671Y-61843797D01*
X55292517Y-61894091D01*
X55292516Y-61894091D01*
X55299444Y-61894835D01*
X55352127Y-61900500D01*
X57447872Y-61900499D01*
X57507483Y-61894091D01*
X57642331Y-61843796D01*
X57757546Y-61757546D01*
X57843796Y-61642331D01*
X57894091Y-61507483D01*
X57900500Y-61447873D01*
X57900499Y-60399994D01*
X59894859Y-60399994D01*
X59894859Y-60400005D01*
X59915385Y-60647729D01*
X59915387Y-60647738D01*
X59976412Y-60888717D01*
X60076266Y-61116364D01*
X60176564Y-61269882D01*
X60917037Y-60529409D01*
X60934075Y-60592993D01*
X60999901Y-60707007D01*
X61092993Y-60800099D01*
X61207007Y-60865925D01*
X61270590Y-60882962D01*
X60529942Y-61623609D01*
X60576768Y-61660055D01*
X60576770Y-61660056D01*
X60795385Y-61778364D01*
X60795396Y-61778369D01*
X61030506Y-61859083D01*
X61275707Y-61900000D01*
X61524293Y-61900000D01*
X61769493Y-61859083D01*
X62004603Y-61778369D01*
X62004614Y-61778364D01*
X62223228Y-61660057D01*
X62223231Y-61660055D01*
X62270056Y-61623609D01*
X61529409Y-60882962D01*
X61592993Y-60865925D01*
X61707007Y-60800099D01*
X61800099Y-60707007D01*
X61865925Y-60592993D01*
X61882962Y-60529410D01*
X62623434Y-61269882D01*
X62723731Y-61116369D01*
X62823587Y-60888717D01*
X62884612Y-60647738D01*
X62884614Y-60647729D01*
X62905141Y-60400005D01*
X62905141Y-60399994D01*
X62884614Y-60152270D01*
X62884612Y-60152261D01*
X62823587Y-59911282D01*
X62723731Y-59683630D01*
X62623434Y-59530116D01*
X61882962Y-60270589D01*
X61865925Y-60207007D01*
X61800099Y-60092993D01*
X61707007Y-59999901D01*
X61592993Y-59934075D01*
X61529410Y-59917037D01*
X62270057Y-59176390D01*
X62270056Y-59176389D01*
X62223229Y-59139943D01*
X62004614Y-59021635D01*
X62004603Y-59021630D01*
X61769493Y-58940916D01*
X61524293Y-58900000D01*
X61275707Y-58900000D01*
X61030506Y-58940916D01*
X60795396Y-59021630D01*
X60795390Y-59021632D01*
X60576761Y-59139949D01*
X60529942Y-59176388D01*
X60529942Y-59176390D01*
X61270590Y-59917037D01*
X61207007Y-59934075D01*
X61092993Y-59999901D01*
X60999901Y-60092993D01*
X60934075Y-60207007D01*
X60917037Y-60270589D01*
X60176564Y-59530116D01*
X60076267Y-59683632D01*
X59976412Y-59911282D01*
X59915387Y-60152261D01*
X59915385Y-60152270D01*
X59894859Y-60399994D01*
X57900499Y-60399994D01*
X57900499Y-59352128D01*
X57894091Y-59292517D01*
X57886493Y-59272147D01*
X57843797Y-59157671D01*
X57843793Y-59157664D01*
X57757547Y-59042455D01*
X57757544Y-59042452D01*
X57642335Y-58956206D01*
X57642328Y-58956202D01*
X57507482Y-58905908D01*
X57507483Y-58905908D01*
X57447883Y-58899501D01*
X57447881Y-58899500D01*
X57447873Y-58899500D01*
X57447864Y-58899500D01*
X55352129Y-58899500D01*
X55352123Y-58899501D01*
X55292516Y-58905908D01*
X55157671Y-58956202D01*
X55157664Y-58956206D01*
X55042455Y-59042452D01*
X55042452Y-59042455D01*
X54956206Y-59157664D01*
X54956202Y-59157671D01*
X54905908Y-59292517D01*
X54904126Y-59300062D01*
X54901853Y-59299525D01*
X54879571Y-59353312D01*
X54822177Y-59393157D01*
X54783024Y-59399500D01*
X51604108Y-59399500D01*
X51537069Y-59379815D01*
X51512880Y-59359485D01*
X51412754Y-59250719D01*
X51412753Y-59250718D01*
X51412751Y-59250716D01*
X51412747Y-59250713D01*
X51219791Y-59100529D01*
X51219787Y-59100526D01*
X51004734Y-58984145D01*
X51004729Y-58984143D01*
X50773458Y-58904748D01*
X50592561Y-58874562D01*
X50532263Y-58864500D01*
X50287737Y-58864500D01*
X50251781Y-58870500D01*
X50046541Y-58904748D01*
X49815270Y-58984143D01*
X49815265Y-58984145D01*
X49600212Y-59100526D01*
X49600208Y-59100529D01*
X49407252Y-59250713D01*
X49407248Y-59250716D01*
X49387523Y-59272144D01*
X49362354Y-59299483D01*
X49302468Y-59335474D01*
X49271126Y-59339500D01*
X48605782Y-59339500D01*
X48538743Y-59319815D01*
X48518101Y-59303181D01*
X48384209Y-59169289D01*
X48384206Y-59169285D01*
X48384206Y-59169286D01*
X48377139Y-59162219D01*
X48377139Y-59162218D01*
X48237782Y-59022861D01*
X48237781Y-59022860D01*
X48237780Y-59022859D01*
X48073920Y-58913371D01*
X48073907Y-58913364D01*
X47941659Y-58858586D01*
X47891840Y-58837950D01*
X47891828Y-58837947D01*
X47762478Y-58812218D01*
X47719853Y-58803739D01*
X47698542Y-58799500D01*
X47698541Y-58799500D01*
X44850000Y-58799500D01*
X44782961Y-58779815D01*
X44737206Y-58727011D01*
X44726000Y-58675500D01*
X44725999Y-57413000D01*
X44745684Y-57345961D01*
X44798487Y-57300206D01*
X44814726Y-57296673D01*
X44822400Y-57289000D01*
X44822400Y-54833700D01*
X44842085Y-54766661D01*
X44894889Y-54720906D01*
X44946400Y-54709700D01*
X46079493Y-54709700D01*
X46079493Y-54709699D01*
X46113764Y-54702882D01*
X46137955Y-54700500D01*
X47135638Y-54700500D01*
X47202677Y-54720185D01*
G37*
%TD.AperFunction*%
%TA.AperFunction,Conductor*%
G36*
X81431497Y-61585934D02*
G01*
X81487431Y-61627805D01*
X81511848Y-61693269D01*
X81508372Y-61732549D01*
X81505893Y-61742340D01*
X81505890Y-61742353D01*
X81485371Y-61989994D01*
X81485371Y-61990005D01*
X81505890Y-62237646D01*
X81505892Y-62237657D01*
X81566895Y-62478550D01*
X81666716Y-62706120D01*
X81766932Y-62859512D01*
X82583600Y-62042846D01*
X82583600Y-62043504D01*
X82611295Y-62146865D01*
X82664799Y-62239536D01*
X82740464Y-62315201D01*
X82833135Y-62368705D01*
X82936496Y-62396400D01*
X82937153Y-62396400D01*
X82120307Y-63213245D01*
X82121751Y-63236506D01*
X82106258Y-63304636D01*
X82074152Y-63342042D01*
X81970604Y-63422637D01*
X81970599Y-63422642D01*
X81909068Y-63489483D01*
X81849181Y-63525474D01*
X81817839Y-63529500D01*
X81369863Y-63529500D01*
X81304586Y-63510927D01*
X81207404Y-63450754D01*
X81207398Y-63450752D01*
X80999940Y-63370382D01*
X80792850Y-63331669D01*
X80730570Y-63300001D01*
X80695297Y-63239689D01*
X80698231Y-63169881D01*
X80727951Y-63122104D01*
X80902139Y-62947918D01*
X80914445Y-62929501D01*
X81011632Y-62784050D01*
X81087051Y-62601971D01*
X81087051Y-62601968D01*
X81087053Y-62601964D01*
X81096086Y-62556550D01*
X81096088Y-62556542D01*
X81122453Y-62423993D01*
X81125500Y-62408677D01*
X81125500Y-61840781D01*
X81145185Y-61773742D01*
X81161809Y-61753110D01*
X81300488Y-61614431D01*
X81361805Y-61580950D01*
X81431497Y-61585934D01*
G37*
%TD.AperFunction*%
%TA.AperFunction,Conductor*%
G36*
X78774257Y-50043078D02*
G01*
X78819132Y-50096632D01*
X78829500Y-50146269D01*
X78829500Y-53834215D01*
X78809815Y-53901254D01*
X78793181Y-53921896D01*
X78729750Y-53985327D01*
X78668427Y-54018812D01*
X78598735Y-54013828D01*
X78594616Y-54012207D01*
X78584337Y-54007949D01*
X78584329Y-54007947D01*
X78487688Y-53988724D01*
X78391044Y-53969500D01*
X78391041Y-53969500D01*
X76387230Y-53969500D01*
X76320191Y-53949815D01*
X76299549Y-53933181D01*
X76293657Y-53927289D01*
X76293656Y-53927288D01*
X76194410Y-53866073D01*
X76144336Y-53835187D01*
X76144331Y-53835185D01*
X76088423Y-53816659D01*
X75977797Y-53780001D01*
X75977795Y-53780000D01*
X75875010Y-53769500D01*
X75249998Y-53769500D01*
X75249980Y-53769501D01*
X75147203Y-53780000D01*
X75147200Y-53780001D01*
X74980668Y-53835185D01*
X74980659Y-53835189D01*
X74839596Y-53922198D01*
X74772204Y-53940638D01*
X74705541Y-53919715D01*
X74660771Y-53866073D01*
X74650500Y-53816659D01*
X74650500Y-53184993D01*
X74670185Y-53117954D01*
X74686819Y-53097312D01*
X74714674Y-53069457D01*
X74810425Y-52932709D01*
X74865002Y-52889085D01*
X74934500Y-52881891D01*
X74996855Y-52913414D01*
X75032269Y-52973643D01*
X75036000Y-53003833D01*
X75036000Y-53061844D01*
X75042401Y-53121372D01*
X75042403Y-53121379D01*
X75092645Y-53256086D01*
X75092649Y-53256093D01*
X75178809Y-53371187D01*
X75178812Y-53371190D01*
X75293906Y-53457350D01*
X75293913Y-53457354D01*
X75428620Y-53507596D01*
X75428627Y-53507598D01*
X75488155Y-53513999D01*
X75488172Y-53514000D01*
X76040000Y-53514000D01*
X76040000Y-52693012D01*
X76097007Y-52725925D01*
X76224174Y-52760000D01*
X76355826Y-52760000D01*
X76482993Y-52725925D01*
X76540000Y-52693012D01*
X76540000Y-53514000D01*
X77091828Y-53514000D01*
X77091844Y-53513999D01*
X77151372Y-53507598D01*
X77151379Y-53507596D01*
X77286086Y-53457354D01*
X77286093Y-53457350D01*
X77401187Y-53371190D01*
X77401190Y-53371187D01*
X77487350Y-53256093D01*
X77487354Y-53256086D01*
X77537596Y-53121379D01*
X77537598Y-53121372D01*
X77543999Y-53061844D01*
X77544000Y-53061827D01*
X77544000Y-52510000D01*
X76723012Y-52510000D01*
X76755925Y-52452993D01*
X76790000Y-52325826D01*
X76790000Y-52194174D01*
X76755925Y-52067007D01*
X76723012Y-52010000D01*
X77544000Y-52010000D01*
X77544000Y-51458172D01*
X77543999Y-51458155D01*
X77537598Y-51398627D01*
X77537596Y-51398620D01*
X77487354Y-51263913D01*
X77487350Y-51263906D01*
X77401190Y-51148812D01*
X77401187Y-51148809D01*
X77286093Y-51062649D01*
X77286086Y-51062645D01*
X77151379Y-51012403D01*
X77151372Y-51012401D01*
X77091844Y-51006000D01*
X77033834Y-51006000D01*
X76966795Y-50986315D01*
X76921040Y-50933511D01*
X76911096Y-50864353D01*
X76940121Y-50800797D01*
X76962711Y-50780425D01*
X77016266Y-50742925D01*
X77099457Y-50684674D01*
X77127312Y-50656819D01*
X77188635Y-50623334D01*
X77214993Y-50620500D01*
X77698693Y-50620500D01*
X77698694Y-50620499D01*
X77872666Y-50585895D01*
X77963755Y-50548164D01*
X78036547Y-50518013D01*
X78113439Y-50466634D01*
X78124955Y-50458939D01*
X78124955Y-50458938D01*
X78124959Y-50458936D01*
X78184036Y-50419464D01*
X78496024Y-50107474D01*
X78538906Y-50079532D01*
X78642637Y-50039348D01*
X78642649Y-50039340D01*
X78647767Y-50036793D01*
X78648632Y-50038531D01*
X78707553Y-50022286D01*
X78774257Y-50043078D01*
G37*
%TD.AperFunction*%
%TD*%
M02*
