M48
METRIC
T1C0.800
T2C0.800
T3C0.800
T4C0.813
T5C1.000
T6C1.001
T7C1.100
T8C1.400
T9C3.048
%
G90
G05
T1
X39.0Y-68.0
X42.3Y-82.1
X45.5Y-92.0
X46.5Y-100.0
X47.5Y-92.0
X48.5Y-100.0
X91.638Y-99.138
X110.0Y-109.8
T2
X49.6Y-69.6
X49.6Y-74.0
X56.0Y-69.6
X56.0Y-74.0
X56.26Y-98.55
X56.26Y-106.17
X58.8Y-98.55
X58.8Y-106.17
X61.34Y-98.55
X61.34Y-106.17
X63.88Y-98.55
X63.88Y-106.17
X66.42Y-98.55
X66.42Y-106.17
X68.96Y-98.55
X68.96Y-106.17
X70.8Y-87.8
X70.8Y-92.2
X71.5Y-98.55
X71.5Y-106.17
X74.04Y-98.55
X74.04Y-106.17
X76.58Y-98.55
X76.58Y-106.17
X77.2Y-87.8
X77.2Y-92.2
X79.12Y-98.55
X79.12Y-106.17
X81.66Y-98.55
X81.66Y-106.17
X84.2Y-98.55
X84.2Y-106.17
X86.74Y-98.55
X86.74Y-106.17
X89.28Y-98.55
X89.28Y-106.17
T3
X94.0Y-95.65
T4
X26.5Y-98.19
X26.5Y-100.73
X26.5Y-103.27
X26.5Y-105.81
X35.5Y-84.42
X35.5Y-94.58
X35.5Y-98.0
X35.5Y-108.16
X38.5Y-84.42
X38.5Y-94.58
X38.5Y-98.0
X38.5Y-108.16
X50.5Y-84.42
X50.5Y-94.58
X53.5Y-84.42
X53.5Y-94.58
X54.5Y-110.33
X54.5Y-120.49
X55.8Y-149.84
X55.8Y-160.0
X67.5Y-84.5
X67.5Y-94.66
X69.5Y-110.33
X69.5Y-120.49
X70.4Y-149.92
X70.4Y-160.08
X80.5Y-111.33
X80.5Y-121.49
X81.0Y-150.44
X81.0Y-160.6
X94.0Y-98.19
X94.0Y-100.73
X94.0Y-103.27
X94.0Y-105.81
X94.0Y-108.35
X95.5Y-111.33
X95.5Y-121.49
X96.8Y-150.04
X96.8Y-160.2
T5
X42.36Y-71.69
X42.36Y-74.23
X42.36Y-76.77
X42.36Y-79.31
X44.9Y-71.69
X44.9Y-74.23
X44.9Y-76.77
X44.9Y-79.31
X63.132Y-138.0
X68.132Y-138.0
X75.0Y-138.0
X80.0Y-138.0
T6
X56.92Y-117.41
X57.42Y-126.41
X57.72Y-146.8
X58.22Y-155.8
X67.08Y-117.41
X67.58Y-126.41
X67.88Y-146.8
X68.38Y-155.8
X82.92Y-117.41
X83.42Y-126.41
X83.72Y-146.8
X84.22Y-155.8
X93.08Y-117.41
X93.58Y-126.41
X93.88Y-146.8
X94.38Y-155.8
T7
X25.5Y-130.42
X25.5Y-135.5
X25.5Y-141.0
X25.5Y-146.08
X117.5Y-130.42
X117.5Y-135.5
X117.5Y-141.0
X117.5Y-146.08
X117.73Y-100.5
X117.73Y-105.58
T8
X32.5Y-134.5
X32.5Y-142.0
X37.5Y-134.5
X37.5Y-142.0
X42.5Y-134.5
X42.5Y-142.0
X57.5Y-134.5
X57.5Y-142.0
X85.5Y-134.5
X85.5Y-142.0
X100.5Y-134.5
X100.5Y-142.0
X105.5Y-134.5
X105.5Y-142.0
X110.5Y-134.5
X110.5Y-142.0
T9
X26.6Y-157.8
X71.5Y-70.9
X116.4Y-157.6
M30
